g box_lower3
v -0.2309699 0.09567082 0.25
v -0.2309699 0.09567082 -0.25
v -0.6521729 0.5168736 -0.25
v -0.6521729 0.5168736 0.25
v -0.2309699 -0.09567083 0.25
v -0.2309699 -0.09567082 -0.25
v -0.2309699 0.09567082 -0.25
v -0.2309699 0.09567082 0.25
v -0.6521728 -0.5168739 0.25
v -0.6521728 -0.5168738 -0.25
v -0.2309699 -0.09567082 -0.25
v -0.2309699 -0.09567083 0.25
v -0.2309699 0.09567082 -0.25
v -1.192093E-07 0.1913416 -0.25
v -0.4888525 0.680194 -0.25
v -0.6521729 0.5168736 -0.25
v -0.2309699 -0.09567082 -0.25
v -1.192093E-07 -0.1913418 -0.25
v -0.6521728 -0.5168738 -0.25
v -0.4888524 -0.6801943 -0.25
v -1.192093E-07 0.1913416 -0.25
v -1.192093E-07 0.1913416 0.25
v -0.4888525 0.680194 0.25
v -0.4888525 0.680194 -0.25
v -1.192093E-07 -0.1913418 -0.25
v -1.192093E-07 -0.1913418 0.25
v -1.192093E-07 0.1913416 0.25
v -1.192093E-07 0.1913416 -0.25
v -0.4888524 -0.6801943 -0.25
v -0.4888525 -0.6801943 0.25
v -1.192093E-07 -0.1913418 0.25
v -1.192093E-07 -0.1913418 -0.25
v -0.6521728 -0.5168738 -0.25
v -0.6521728 -0.5168739 0.25
v -0.4888525 -0.6801943 0.25
v -0.4888524 -0.6801943 -0.25
v -0.6521729 0.5168736 -0.25
v -0.4888525 0.680194 -0.25
v -0.4888525 0.680194 0.25
v -0.6521729 0.5168736 0.25
vt 0.7522507 0.7828232
vt 0.7901444 0.7828232
vt 0.7901444 0.7511904
vt 0.7522507 0.7511904
vt 0.7522507 0.7971932
vt 0.7901444 0.7971932
vt 0.7901444 0.7828232
vt 0.7522507 0.7828232
vt 0.7522507 0.828826
vt 0.7901444 0.828826
vt 0.7901444 0.7971932
vt 0.7522507 0.7971932
vt 0.2331633 0.8295816
vt 0.2182773 0.8358125
vt 0.2497837 0.867651
vt 0.2603098 0.8570142
vt 0.2331633 0.8171196
vt 0.2182773 0.8108886
vt 0.2603097 0.789687
vt 0.2497837 0.77905
vt 0.9166027 0.8043933
vt 0.8798976 0.8043933
vt 0.8798976 0.8406669
vt 0.9166027 0.8406669
vt 0.9166027 0.7759975
vt 0.8798976 0.7759975
vt 0.8798976 0.8043933
vt 0.9166027 0.8043933
vt 0.9166027 0.7397238
vt 0.8798976 0.7397238
vt 0.8798976 0.7759975
vt 0.9166027 0.7759975
vt 0.7901444 0.828826
vt 0.7522507 0.828826
vt 0.7522507 0.8410915
vt 0.7901444 0.8410915
vt 0.7901444 0.7511904
vt 0.7901444 0.7389249
vt 0.7522507 0.7389249
vt 0.7522507 0.7511904
vn -0.7071066 -0.7071069 0
vn -0.7071066 -0.7071069 0
vn -0.7071066 -0.7071069 0
vn -0.7071066 -0.7071069 0
vn -1 0 0
vn -1 0 0
vn -1 0 0
vn -1 0 0
vn -0.7071069 0.7071066 0
vn -0.7071069 0.7071066 0
vn -0.7071069 0.7071066 0
vn -0.7071069 0.7071066 0
vn 0 0 -1
vn 0 0 -1
vn 0 0 -1
vn 0 0 -1
vn 0 0 -1
vn 0 0 -1
vn 0 0 -1
vn 0 0 -1
vn 0.7071068 0.7071068 0
vn 0.7071068 0.7071068 0
vn 0.7071068 0.7071068 0
vn 0.7071068 0.7071068 0
vn 1 0 0
vn 1 0 0
vn 1 0 0
vn 1 0 0
vn 0.7071069 -0.7071067 0
vn 0.7071069 -0.7071067 0
vn 0.7071069 -0.7071066 0
vn 0.7071069 -0.7071067 0
vn -0.7071068 -0.7071067 0
vn -0.7071069 -0.7071067 0
vn -0.7071069 -0.7071067 0
vn -0.7071068 -0.7071067 0
vn -0.7071067 0.7071069 0
vn -0.7071068 0.7071068 0
vn -0.7071067 0.7071069 0
vn -0.7071067 0.7071069 0
g box_lower3_0
f 3/3/3 2/2/2 1/1/1
f 4/4/4 3/3/3 1/1/1
f 7/7/7 6/6/6 5/5/5
f 8/8/8 7/7/7 5/5/5
f 11/11/11 10/10/10 9/9/9
f 12/12/12 11/11/11 9/9/9
f 15/15/15 14/14/14 13/13/13
f 16/16/16 15/15/15 13/13/13
f 13/13/13 14/14/14 17/17/17
f 14/14/14 18/18/18 17/17/17
f 17/17/17 18/18/18 19/19/19
f 18/18/18 20/20/20 19/19/19
f 23/23/23 22/22/22 21/21/21
f 24/24/24 23/23/23 21/21/21
f 27/27/27 26/26/26 25/25/25
f 28/28/28 27/27/27 25/25/25
f 31/31/31 30/30/30 29/29/29
f 32/32/32 31/31/31 29/29/29
f 35/35/35 34/34/34 33/33/33
f 36/36/36 35/35/35 33/33/33
f 39/39/39 38/38/38 37/37/37
f 40/40/40 39/39/39 37/37/37
