g box_lower2
v -0.2309699 0.09567085 0.25
v -0.2309698 0.09567088 -0.25
v -0.6521728 0.5168736 -0.2500001
v -0.6521728 0.5168737 0.25
v -0.2309698 -0.09567094 0.2499999
v -0.2309698 -0.09567094 -0.25
v -0.2309698 0.09567088 -0.25
v -0.2309699 0.09567085 0.25
v -0.6521726 -0.516874 0.2500001
v -0.6521726 -0.516874 -0.25
v -0.2309698 -0.09567094 -0.25
v -0.2309698 -0.09567094 0.2499999
v -0.2309698 0.09567088 -0.25
v 0 0.1913418 -0.25
v -0.4888525 0.680194 -0.25
v -0.6521728 0.5168736 -0.2500001
v -0.2309698 -0.09567094 -0.25
v 0 -0.1913417 -0.25
v -0.6521726 -0.516874 -0.25
v -0.4888523 -0.6801943 -0.25
v 0 0.1913418 -0.25
v 0 0.1913417 0.2499999
v -0.4888526 0.680194 0.25
v -0.4888525 0.680194 -0.25
v 0 -0.1913417 -0.25
v 0 -0.1913417 0.2500001
v 0 0.1913417 0.2499999
v 0 0.1913418 -0.25
v -0.4888523 -0.6801943 -0.25
v -0.488852 -0.6801943 0.2499999
v 0 -0.1913417 0.2500001
v 0 -0.1913417 -0.25
v -0.6521726 -0.516874 -0.25
v -0.6521726 -0.516874 0.2500001
v -0.488852 -0.6801943 0.2499999
v -0.4888523 -0.6801943 -0.25
v -0.6521728 0.5168736 -0.2500001
v -0.4888525 0.680194 -0.25
v -0.4888526 0.680194 0.25
v -0.6521728 0.5168737 0.25
vt 0.04869862 0.8033124
vt 0.04869862 0.7653474
vt 0.01712528 0.7653474
vt 0.01712528 0.8033124
vt 0.06304162 0.8033124
vt 0.06304162 0.7653474
vt 0.04869862 0.7653474
vt 0.04869862 0.8033124
vt 0.09461501 0.8033124
vt 0.09461501 0.7653474
vt 0.06304162 0.7653474
vt 0.06304162 0.8033124
vt 0.8421658 0.2645355
vt 0.8272798 0.2707665
vt 0.8587863 0.3026051
vt 0.8693122 0.2919682
vt 0.8421658 0.2520735
vt 0.8272798 0.2458426
vt 0.8693123 0.2246408
vt 0.8587863 0.2140039
vt 0.8818464 0.3070663
vt 0.9185559 0.3070663
vt 0.9185559 0.2707969
vt 0.8818464 0.2707969
vt 0.8818464 0.3354587
vt 0.9185559 0.3354587
vt 0.9185559 0.3070663
vt 0.8818464 0.3070663
vt 0.8818464 0.3717281
vt 0.9185559 0.3717281
vt 0.9185559 0.3354587
vt 0.8818464 0.3354587
vt 0.09461501 0.7653474
vt 0.09461501 0.8033124
vt 0.1068575 0.8033124
vt 0.1068575 0.7653474
vt 0.01712528 0.7653474
vt 0.004882813 0.7653474
vt 0.004882813 0.8033124
vt 0.01712528 0.8033124
vn -0.7071066 -0.7071069 0
vn -0.7071066 -0.7071069 0
vn -0.7071066 -0.7071069 0
vn -0.7071066 -0.7071069 0
vn -1 0 0
vn -1 0 0
vn -1 0 0
vn -1 0 0
vn -0.7071069 0.7071066 0
vn -0.7071069 0.7071066 0
vn -0.7071069 0.7071066 0
vn -0.7071069 0.7071066 0
vn 0 0 -1
vn 0 0 -1
vn 0 0 -1
vn 0 0 -1
vn 0 0 -1
vn 0 0 -1
vn 0 0 -1
vn 0 0 -1
vn 0.7071065 0.707107 0
vn 0.7071066 0.707107 0
vn 0.7071065 0.707107 0
vn 0.7071065 0.707107 0
vn 1 0 0
vn 1 0 0
vn 1 0 0
vn 1 0 0
vn 0.7071071 -0.7071065 0
vn 0.707107 -0.7071065 0
vn 0.7071071 -0.7071065 0
vn 0.7071071 -0.7071065 0
vn -0.7071064 -0.7071072 0
vn -0.7071064 -0.7071071 0
vn -0.7071064 -0.7071071 0
vn -0.7071064 -0.7071071 0
vn -0.707107 0.7071066 0
vn -0.707107 0.7071065 0
vn -0.707107 0.7071065 0
vn -0.707107 0.7071065 0
g box_lower2_0
f 3/3/3 2/2/2 1/1/1
f 4/4/4 3/3/3 1/1/1
f 7/7/7 6/6/6 5/5/5
f 8/8/8 7/7/7 5/5/5
f 11/11/11 10/10/10 9/9/9
f 12/12/12 11/11/11 9/9/9
f 15/15/15 14/14/14 13/13/13
f 16/16/16 15/15/15 13/13/13
f 13/13/13 14/14/14 17/17/17
f 14/14/14 18/18/18 17/17/17
f 17/17/17 18/18/18 19/19/19
f 18/18/18 20/20/20 19/19/19
f 23/23/23 22/22/22 21/21/21
f 24/24/24 23/23/23 21/21/21
f 27/27/27 26/26/26 25/25/25
f 28/28/28 27/27/27 25/25/25
f 31/31/31 30/30/30 29/29/29
f 32/32/32 31/31/31 29/29/29
f 35/35/35 34/34/34 33/33/33
f 36/36/36 35/35/35 33/33/33
f 39/39/39 38/38/38 37/37/37
f 40/40/40 39/39/39 37/37/37
