g box_upper
v -0.23097 0.09567095 3.050196E-07
v -0.2309697 0.09567071 -1.218334
v -0.6521726 0.5168736 -1.218334
v -0.6521729 0.5168738 1.858103E-07
v -0.23097 -0.09567093 3.646242E-07
v -0.2309697 -0.09567093 -1.218333
v -0.2309697 0.09567071 -1.218334
v -0.23097 0.09567095 3.050196E-07
v -0.6521729 -0.5168738 2.45415E-07
v -0.6521726 -0.5168738 -1.218334
v -0.2309697 -0.09567093 -1.218333
v -0.23097 -0.09567093 3.646242E-07
v -0.2309697 0.09567071 -1.218334
v 1.143971E-07 0.1913416 -1.218334
v -0.4888523 0.6801939 -1.218334
v -0.6521726 0.5168736 -1.218334
v -0.2309697 -0.09567093 -1.218333
v 2.336064E-07 -0.1913419 -1.218334
v -0.6521726 -0.5168738 -1.218334
v -0.4888521 -0.6801944 -1.218334
v 1.143971E-07 0.1913416 -1.218334
v 3.528157E-07 0.1913424 3.646242E-07
v -0.4888521 0.6801946 2.45415E-07
v -0.4888523 0.6801939 -1.218334
v 2.336064E-07 -0.1913419 -1.218334
v 3.528157E-07 -0.1913422 2.45415E-07
v 3.528157E-07 0.1913424 3.646242E-07
v 1.143971E-07 0.1913416 -1.218334
v -0.4888521 -0.6801944 -1.218334
v -0.4888521 -0.6801946 3.050196E-07
v 3.528157E-07 -0.1913422 2.45415E-07
v 2.336064E-07 -0.1913419 -1.218334
v 3.528157E-07 0.1913424 3.646242E-07
v -0.23097 0.09567095 3.050196E-07
v -0.6521729 0.5168738 1.858103E-07
v -0.4888521 0.6801946 2.45415E-07
v 3.528157E-07 -0.1913422 2.45415E-07
v -0.23097 -0.09567093 3.646242E-07
v -0.4888521 -0.6801946 3.050196E-07
v -0.6521729 -0.5168738 2.45415E-07
v -0.6521726 -0.5168738 -1.218334
v -0.6521729 -0.5168738 2.45415E-07
v -0.4888521 -0.6801946 3.050196E-07
v -0.4888521 -0.6801944 -1.218334
v -0.6521726 0.5168736 -1.218334
v -0.4888523 0.6801939 -1.218334
v -0.4888521 0.6801946 2.45415E-07
v -0.6521729 0.5168738 1.858103E-07
vt 0.15593 0.09729235
vt 0.15593 0.004882842
vt 0.1243229 0.004882813
vt 0.1243228 0.09729235
vt 0.1702883 0.09729235
vt 0.1702883 0.004882842
vt 0.15593 0.004882842
vt 0.15593 0.09729235
vt 0.2018954 0.09729235
vt 0.2018954 0.004882842
vt 0.1702883 0.004882842
vt 0.1702883 0.09729235
vt 0.5786668 0.7757991
vt 0.593551 0.7695674
vt 0.5620481 0.737725
vt 0.5515234 0.7483631
vt 0.5786668 0.7882626
vt 0.593551 0.7944943
vt 0.5515234 0.8156985
vt 0.5620481 0.8263368
vt 0.2545259 0.4663681
vt 0.2545258 0.3768677
vt 0.2182773 0.3768677
vt 0.2182773 0.4663681
vt 0.2829019 0.4663681
vt 0.2829019 0.3768677
vt 0.2545258 0.3768677
vt 0.2545259 0.4663681
vt 0.3191504 0.4663681
vt 0.3191504 0.3768677
vt 0.2829019 0.3768677
vt 0.2829019 0.4663681
vt 0.3472204 0.8280145
vt 0.3533857 0.8129698
vt 0.3262424 0.7855338
vt 0.3157177 0.796172
vt 0.3718815 0.8280145
vt 0.3657162 0.8129698
vt 0.4033842 0.796172
vt 0.3928595 0.7855338
vt 0.2018954 0.004882842
vt 0.2018954 0.09729235
vt 0.214151 0.09729235
vt 0.2141509 0.004882842
vt 0.1243229 0.004882813
vt 0.1120673 0.004882842
vt 0.1120673 0.09729235
vt 0.1243228 0.09729235
vn -0.7071068 -0.7071068 0
vn -0.7071068 -0.7071068 0
vn -0.7071068 -0.7071068 0
vn -0.7071068 -0.7071068 0
vn -1 0 0
vn -1 0 0
vn -1 0 0
vn -1 0 0
vn -0.7071068 0.7071068 0
vn -0.7071068 0.7071068 0
vn -0.7071068 0.7071068 0
vn -0.7071068 0.7071068 0
vn 0 0 -1
vn 0 0 -1
vn 0 0 -1
vn 0 0 -1
vn 0 0 -1
vn 0 0 -1
vn 0 0 -1
vn 0 0 -1
vn 0.7071066 0.7071069 0
vn 0.7071066 0.7071069 0
vn 0.7071066 0.707107 0
vn 0.7071066 0.7071069 0
vn 1 0 0
vn 1 0 0
vn 1 0 0
vn 1 0 0
vn 0.7071068 -0.7071068 0
vn 0.7071068 -0.7071068 0
vn 0.7071068 -0.7071068 0
vn 0.7071068 -0.7071068 0
vn 0 0 1
vn 0 0 1
vn 0 0 1
vn 0 0 1
vn 0 0 1
vn 0 0 1
vn 0 0 1
vn 0 0 1
vn -0.7071068 -0.7071068 0
vn -0.7071068 -0.7071068 0
vn -0.7071068 -0.7071068 0
vn -0.7071068 -0.7071068 0
vn -0.7071069 0.7071067 0
vn -0.7071069 0.7071067 0
vn -0.7071068 0.7071067 0
vn -0.7071068 0.7071068 0
g box_upper_0
f 3/3/3 2/2/2 1/1/1
f 4/4/4 3/3/3 1/1/1
f 7/7/7 6/6/6 5/5/5
f 8/8/8 7/7/7 5/5/5
f 11/11/11 10/10/10 9/9/9
f 12/12/12 11/11/11 9/9/9
f 15/15/15 14/14/14 13/13/13
f 16/16/16 15/15/15 13/13/13
f 13/13/13 14/14/14 17/17/17
f 14/14/14 18/18/18 17/17/17
f 17/17/17 18/18/18 19/19/19
f 18/18/18 20/20/20 19/19/19
f 23/23/23 22/22/22 21/21/21
f 24/24/24 23/23/23 21/21/21
f 27/27/27 26/26/26 25/25/25
f 28/28/28 27/27/27 25/25/25
f 31/31/31 30/30/30 29/29/29
f 32/32/32 31/31/31 29/29/29
f 35/35/35 34/34/34 33/33/33
f 36/36/36 35/35/35 33/33/33
f 33/33/33 34/34/34 37/37/37
f 34/34/34 38/38/38 37/37/37
f 37/37/37 38/38/38 39/39/39
f 38/38/38 40/40/40 39/39/39
f 43/43/43 42/42/42 41/41/41
f 44/44/44 43/43/43 41/41/41
f 47/47/47 46/46/46 45/45/45
f 48/48/48 47/47/47 45/45/45
