g box_middle3
v -0.2309701 0.09567118 5.442365E-07
v -0.2309698 0.09567106 -1.218333
v -0.6521726 0.516874 -1.218333
v -0.6521729 0.516874 3.654225E-07
v -0.2309701 -0.09567082 5.442365E-07
v -0.2309698 -0.09567082 -1.218333
v -0.2309698 0.09567106 -1.218333
v -0.2309701 0.09567118 5.442365E-07
v -0.652173 -0.5168736 3.058179E-07
v -0.6521727 -0.5168737 -1.218333
v -0.2309698 -0.09567082 -1.218333
v -0.2309701 -0.09567082 5.442365E-07
v -0.2309698 0.09567106 -1.218333
v 3.562005E-09 0.1913418 -1.218333
v -0.4888523 0.6801943 -1.218333
v -0.6521726 0.516874 -1.218333
v -0.2309698 -0.09567082 -1.218333
v 3.562005E-09 -0.1913418 -1.218333
v -0.6521727 -0.5168737 -1.218333
v -0.4888523 -0.680194 -1.218333
v 3.562005E-09 0.1913418 -1.218333
v 2.419806E-07 0.1913425 5.442365E-07
v -0.488852 0.6801947 6.038411E-07
v -0.4888523 0.6801943 -1.218333
v 3.562005E-09 -0.1913418 -1.218333
v 2.419806E-07 -0.1913421 6.634457E-07
v 2.419806E-07 0.1913425 5.442365E-07
v 3.562005E-09 0.1913418 -1.218333
v -0.4888523 -0.680194 -1.218333
v -0.4888523 -0.6801944 5.442365E-07
v 2.419806E-07 -0.1913421 6.634457E-07
v 3.562005E-09 -0.1913418 -1.218333
v 2.419806E-07 0.1913425 5.442365E-07
v -0.2309701 0.09567118 5.442365E-07
v -0.6521729 0.516874 3.654225E-07
v -0.488852 0.6801947 6.038411E-07
v 2.419806E-07 -0.1913421 6.634457E-07
v -0.2309701 -0.09567082 5.442365E-07
v -0.4888523 -0.6801944 5.442365E-07
v -0.652173 -0.5168736 3.058179E-07
v -0.6521727 -0.5168737 -1.218333
v -0.652173 -0.5168736 3.058179E-07
v -0.4888523 -0.6801944 5.442365E-07
v -0.4888523 -0.680194 -1.218333
v -0.6521726 0.516874 -1.218333
v -0.4888523 0.6801943 -1.218333
v -0.488852 0.6801947 6.038411E-07
v -0.6521729 0.516874 3.654225E-07
vt 0.2631144 0.1937199
vt 0.2631144 0.1013104
vt 0.2315073 0.1013104
vt 0.2315073 0.1937199
vt 0.2774727 0.1937199
vt 0.2774727 0.1013104
vt 0.2631144 0.1013104
vt 0.2631144 0.1937199
vt 0.3090798 0.1937199
vt 0.3090798 0.1013104
vt 0.2774727 0.1013104
vt 0.2774727 0.1937199
vt 0.8495544 0.1787677
vt 0.8644403 0.1725367
vt 0.8329337 0.140698
vt 0.8224078 0.151335
vt 0.8495544 0.1912297
vt 0.8644403 0.1974606
vt 0.8224078 0.2186623
vt 0.8329337 0.2292993
vt 0.4167534 0.06962138
vt 0.3274105 0.06962141
vt 0.3274105 0.1059339
vt 0.4167534 0.1059338
vt 0.4167534 0.04119528
vt 0.3274105 0.04119522
vt 0.3274105 0.06962141
vt 0.4167534 0.06962138
vt 0.4167534 0.004882842
vt 0.3274105 0.004882813
vt 0.3274105 0.04119522
vt 0.4167534 0.04119528
vt 0.1672355 0.8259538
vt 0.1734555 0.8110417
vt 0.1460712 0.7838472
vt 0.135453 0.7943919
vt 0.1921156 0.8259538
vt 0.1858955 0.8110417
vt 0.2238982 0.7943918
vt 0.2132799 0.7838472
vt 0.3090798 0.1013104
vt 0.3090798 0.1937199
vt 0.3213354 0.1937199
vt 0.3213354 0.1013104
vt 0.2315073 0.1013104
vt 0.2192517 0.1013104
vt 0.2192517 0.1937199
vt 0.2315073 0.1937199
vn -0.7071068 -0.7071068 0
vn -0.7071068 -0.7071068 0
vn -0.7071068 -0.7071068 0
vn -0.7071068 -0.7071068 0
vn -1 0 0
vn -1 0 0
vn -1 0 0
vn -1 0 0
vn -0.7071068 0.7071068 0
vn -0.7071068 0.7071068 0
vn -0.7071068 0.7071068 0
vn -0.7071068 0.7071068 0
vn 0 0 -1
vn 0 0 -1
vn 0 0 -1
vn 0 0 -1
vn 0 0 -1
vn 0 0 -1
vn 0 0 -1
vn 0 0 -1
vn 0.7071068 0.7071068 0
vn 0.7071068 0.7071068 0
vn 0.7071068 0.7071068 0
vn 0.7071068 0.7071068 0
vn 1 0 0
vn 1 0 0
vn 1 0 0
vn 1 0 0
vn 0.7071066 -0.7071069 0
vn 0.7071066 -0.7071069 0
vn 0.7071066 -0.7071069 0
vn 0.7071066 -0.7071069 0
vn 0 0 1
vn 0 0 1
vn 0 0 1
vn 0 0 1
vn 0 0 1
vn 0 0 1
vn 0 0 1
vn 0 0 1
vn -0.7071069 -0.7071067 0
vn -0.7071069 -0.7071066 0
vn -0.7071069 -0.7071066 0
vn -0.7071069 -0.7071066 0
vn -0.7071066 0.7071069 0
vn -0.7071066 0.7071069 0
vn -0.7071066 0.7071069 0
vn -0.7071066 0.7071069 0
g box_middle3_0
f 3/3/3 2/2/2 1/1/1
f 4/4/4 3/3/3 1/1/1
f 7/7/7 6/6/6 5/5/5
f 8/8/8 7/7/7 5/5/5
f 11/11/11 10/10/10 9/9/9
f 12/12/12 11/11/11 9/9/9
f 15/15/15 14/14/14 13/13/13
f 16/16/16 15/15/15 13/13/13
f 13/13/13 14/14/14 17/17/17
f 14/14/14 18/18/18 17/17/17
f 17/17/17 18/18/18 19/19/19
f 18/18/18 20/20/20 19/19/19
f 23/23/23 22/22/22 21/21/21
f 24/24/24 23/23/23 21/21/21
f 27/27/27 26/26/26 25/25/25
f 28/28/28 27/27/27 25/25/25
f 31/31/31 30/30/30 29/29/29
f 32/32/32 31/31/31 29/29/29
f 35/35/35 34/34/34 33/33/33
f 36/36/36 35/35/35 33/33/33
f 33/33/33 34/34/34 37/37/37
f 34/34/34 38/38/38 37/37/37
f 37/37/37 38/38/38 39/39/39
f 38/38/38 40/40/40 39/39/39
f 43/43/43 42/42/42 41/41/41
f 44/44/44 43/43/43 41/41/41
f 47/47/47 46/46/46 45/45/45
f 48/48/48 47/47/47 45/45/45
