g box_middle2
v -0.2309703 0.09567097 5.442365E-07
v -0.2309699 0.09567094 -1.218333
v -0.6521729 0.5168738 -1.218333
v -0.6521733 0.5168737 5.442365E-07
v -0.2309703 -0.095671 5.442365E-07
v -0.2309699 -0.09567094 -1.218333
v -0.2309699 0.09567094 -1.218333
v -0.2309703 0.09567097 5.442365E-07
v -0.652173 -0.516874 3.654225E-07
v -0.6521728 -0.5168738 -1.218333
v -0.2309699 -0.09567094 -1.218333
v -0.2309703 -0.095671 5.442365E-07
v -0.2309699 0.09567094 -1.218333
v -2.384186E-07 0.1913419 -1.218333
v -0.4888526 0.6801941 -1.218333
v -0.6521729 0.5168738 -1.218333
v -0.2309699 -0.09567094 -1.218333
v -1.192093E-07 -0.1913416 -1.218333
v -0.6521728 -0.5168738 -1.218333
v -0.4888524 -0.6801941 -1.218333
v -2.384186E-07 0.1913419 -1.218333
v 1.192093E-07 0.1913421 6.634457E-07
v -0.4888525 0.6801946 6.634457E-07
v -0.4888526 0.6801941 -1.218333
v -1.192093E-07 -0.1913416 -1.218333
v 2.384186E-07 -0.1913422 5.442365E-07
v 1.192093E-07 0.1913421 6.634457E-07
v -2.384186E-07 0.1913419 -1.218333
v -0.4888524 -0.6801941 -1.218333
v -0.4888523 -0.6801946 6.038411E-07
v 2.384186E-07 -0.1913422 5.442365E-07
v -1.192093E-07 -0.1913416 -1.218333
v 1.192093E-07 0.1913421 6.634457E-07
v -0.2309703 0.09567097 5.442365E-07
v -0.6521733 0.5168737 5.442365E-07
v -0.4888525 0.6801946 6.634457E-07
v 2.384186E-07 -0.1913422 5.442365E-07
v -0.2309703 -0.095671 5.442365E-07
v -0.4888523 -0.6801946 6.038411E-07
v -0.652173 -0.516874 3.654225E-07
v -0.6521728 -0.5168738 -1.218333
v -0.652173 -0.516874 3.654225E-07
v -0.4888523 -0.6801946 6.038411E-07
v -0.4888524 -0.6801941 -1.218333
v -0.6521729 0.5168738 -1.218333
v -0.4888526 0.6801941 -1.218333
v -0.4888525 0.6801946 6.634457E-07
v -0.6521733 0.5168737 5.442365E-07
vt 0.04874547 0.29197
vt 0.04874547 0.1995605
vt 0.01713836 0.1995605
vt 0.01713842 0.29197
vt 0.06310377 0.29197
vt 0.06310377 0.1995605
vt 0.04874547 0.1995605
vt 0.04874547 0.29197
vt 0.0947109 0.29197
vt 0.0947109 0.1995605
vt 0.06310377 0.1995605
vt 0.06310377 0.29197
vt 0.8548313 0.1219228
vt 0.8399471 0.1281546
vt 0.8714498 0.1599969
vt 0.8819745 0.1493587
vt 0.8548313 0.1094594
vt 0.839947 0.1032277
vt 0.8819745 0.08202347
vt 0.8714498 0.07138526
vt 0.04072708 0.3874091
vt 0.04072708 0.2968994
vt 0.004882813 0.2968994
vt 0.004882842 0.3874091
vt 0.06878674 0.3874091
vt 0.06878677 0.2968994
vt 0.04072708 0.2968994
vt 0.04072708 0.3874091
vt 0.104631 0.3874091
vt 0.104631 0.2968994
vt 0.06878677 0.2968994
vt 0.06878674 0.3874091
vt 0.0366616 0.850352
vt 0.04288092 0.835438
vt 0.01549983 0.8082404
vt 0.004882813 0.8187862
vt 0.06153868 0.850352
vt 0.05531942 0.835438
vt 0.09331746 0.8187862
vt 0.08270051 0.8082404
vt 0.0947109 0.1995605
vt 0.0947109 0.29197
vt 0.1069665 0.29197
vt 0.1069665 0.1995605
vt 0.01713836 0.1995605
vt 0.004882813 0.1995605
vt 0.004882813 0.29197
vt 0.01713842 0.29197
vn -0.7071066 -0.7071069 0
vn -0.7071066 -0.7071069 0
vn -0.7071066 -0.7071069 0
vn -0.7071066 -0.7071069 0
vn -1 0 0
vn -1 0 0
vn -1 0 0
vn -1 0 0
vn -0.7071068 0.7071067 0
vn -0.7071068 0.7071067 0
vn -0.7071068 0.7071067 0
vn -0.7071068 0.7071067 0
vn 0 0 -1
vn 0 0 -1
vn 0 0 -1
vn 0 0 -1
vn 0 0 -1
vn 0 0 -1
vn 0 0 -1
vn 0 0 -1
vn 0.7071066 0.7071069 0
vn 0.7071067 0.7071069 0
vn 0.7071066 0.7071069 0
vn 0.7071066 0.7071069 0
vn 1 0 0
vn 1 0 0
vn 1 0 0
vn 1 0 0
vn 0.7071068 -0.7071068 0
vn 0.7071068 -0.7071067 0
vn 0.7071068 -0.7071068 0
vn 0.7071068 -0.7071068 0
vn 0 0 1
vn 0 0 1
vn 0 0 1
vn 0 0 1
vn 0 0 1
vn 0 0 1
vn 0 0 1
vn 0 0 1
vn -0.7071066 -0.7071069 0
vn -0.7071065 -0.707107 0
vn -0.7071065 -0.707107 0
vn -0.7071066 -0.7071069 0
vn -0.707107 0.7071066 0
vn -0.7071069 0.7071066 0
vn -0.7071069 0.7071066 0
vn -0.707107 0.7071066 0
g box_middle2_0
f 3/3/3 2/2/2 1/1/1
f 4/4/4 3/3/3 1/1/1
f 7/7/7 6/6/6 5/5/5
f 8/8/8 7/7/7 5/5/5
f 11/11/11 10/10/10 9/9/9
f 12/12/12 11/11/11 9/9/9
f 15/15/15 14/14/14 13/13/13
f 16/16/16 15/15/15 13/13/13
f 13/13/13 14/14/14 17/17/17
f 14/14/14 18/18/18 17/17/17
f 17/17/17 18/18/18 19/19/19
f 18/18/18 20/20/20 19/19/19
f 23/23/23 22/22/22 21/21/21
f 24/24/24 23/23/23 21/21/21
f 27/27/27 26/26/26 25/25/25
f 28/28/28 27/27/27 25/25/25
f 31/31/31 30/30/30 29/29/29
f 32/32/32 31/31/31 29/29/29
f 35/35/35 34/34/34 33/33/33
f 36/36/36 35/35/35 33/33/33
f 33/33/33 34/34/34 37/37/37
f 34/34/34 38/38/38 37/37/37
f 37/37/37 38/38/38 39/39/39
f 38/38/38 40/40/40 39/39/39
f 43/43/43 42/42/42 41/41/41
f 44/44/44 43/43/43 41/41/41
f 47/47/47 46/46/46 45/45/45
f 48/48/48 47/47/47 45/45/45
