g CeilingPiece
v 0.7 -0.5 -0.5
v 0.7 0.5 -0.5
v -0.7 0.5 -0.5
v -0.7 -0.5 -0.5
v -1.1 -0.4999999 -0.5
v -1.1 -0.4999999 -0.6
v -1.1 0.5000001 -0.6
v -1.1 0.5000001 -0.5
v -0.7 0.5 -0.5
v -0.7 0.5 -0.6
v -0.7 -0.4999999 -0.6
v -0.7 -0.5 -0.5
v -0.9999999 -0.5 -0.5000001
v -1.1 -0.4999999 -0.5
v -1.1 0.5000001 -0.5
v -0.9999999 0.5 -0.5000001
v -1.1 0.5000001 -0.6
v -1.1 -0.4999999 -0.6
v -0.7 -0.4999999 -0.6
v -0.7 0.5 -0.6
v 1.1 -0.5 -0.6
v 1.1 0.5 -0.6
v 0.7 0.5 -0.6
v 0.7 -0.5 -0.6
v 0.9999999 0.5 -0.5000001
v 1.1 0.5 -0.5000001
v 1.1 -0.5 -0.5000001
v 0.9999999 -0.5 -0.5000001
v 0.7 -0.5 -0.5
v 0.7 -0.5 -0.6
v 0.7 0.5 -0.6
v 0.7 0.5 -0.5
v 1.1 0.5 -0.5000001
v 1.1 0.5 -0.6
v 1.1 -0.5 -0.6
v 1.1 -0.5 -0.5000001
v 0.9999999 -0.5 -0.5000001
v 0.9999999 -0.5 0.5000001
v 0.9999999 0.5 0.5000001
v 0.9999999 0.5 -0.5000001
v -0.9999999 -0.5 -0.5000001
v -0.9999999 0.5 -0.5000001
v -0.9999999 0.5 0.5000001
v -0.9999999 -0.5 0.5000001
vt 0.9991562 0.7139241
vt 0.9991563 0.0008437281
vt 0.0008437281 0.0008437281
vt 0.0008437281 0.7139241
vt 0.4558812 0.06843081
vt 0.4558812 0.02723619
vt 0.04393616 0.02723676
vt 0.04393625 0.06843123
vt 0.5426 0.4803759
vt 0.5426001 0.5215706
vt 0.9545448 0.5215703
vt 0.9545448 0.4803757
vt 0.418833 0.9771405
vt 0.418833 0.9359457
vt 0.006889284 0.9359461
vt 0.006889343 0.9771405
vt 0.04769382 0.6906776
vt 0.4596391 0.6906774
vt 0.4596391 0.5258996
vt 0.04769382 0.5258996
vt 0.04769382 0.6906776
vt 0.4596391 0.6906774
vt 0.4596391 0.5258996
vt 0.04769382 0.5258996
vt 0.418833 0.9771405
vt 0.418833 0.9359457
vt 0.006889284 0.9359461
vt 0.006889343 0.9771405
vt 0.5426 0.4803759
vt 0.5426001 0.5215706
vt 0.9545448 0.5215703
vt 0.9545448 0.4803757
vt 0.4558812 0.06843081
vt 0.4558812 0.02723619
vt 0.04393616 0.02723676
vt 0.04393625 0.06843123
vt 0.0009980039 0.0009980039
vt 0.0009980039 0.999002
vt 0.9990019 0.999002
vt 0.9990019 0.0009980039
vt 0.999002 0.000998123
vt 0.000998004 0.000998004
vt 0.000998004 0.9990021
vt 0.999002 0.9990021
vn 0 0 -1
vn 0 0 -1
vn 0 0 -1
vn 0 0 -1
vn -1 0 0
vn -1 0 0
vn -1 0 0
vn -1 0 0
vn 1 0 0
vn 1 0 0
vn 1 0 0
vn 1 0 0
vn 0 0 1
vn 0 0 1
vn 0 0 1
vn 0 0 1
vn 0 0 -1
vn 0 0 -1
vn 0 0 -1
vn 0 0 -1
vn 0 0 -1
vn 0 0 -1
vn 0 0 -1
vn 0 0 -1
vn 0 0 1
vn 0 0 1
vn 0 0 1
vn 0 0 1
vn -1 0 0
vn -1 0 0
vn -1 0 0
vn -1 0 0
vn 1 0 0
vn 1 0 0
vn 1 0 0
vn 1 0 0
vn 1 0 0
vn 1 0 0
vn 1 0 0
vn 1 0 0
vn -1 0 0
vn -1 0 0
vn -1 0 0
vn -1 0 0
g CeilingPiece_0
f 3/3/3 2/2/2 1/1/1
f 4/4/4 3/3/3 1/1/1
g CeilingPiece_1
f 7/7/7 6/6/6 5/5/5
f 8/8/8 7/7/7 5/5/5
f 11/11/11 10/10/10 9/9/9
f 12/12/12 11/11/11 9/9/9
f 15/15/15 14/14/14 13/13/13
f 16/16/16 15/15/15 13/13/13
f 19/19/19 18/18/18 17/17/17
f 20/20/20 19/19/19 17/17/17
f 23/23/23 22/22/22 21/21/21
f 24/24/24 23/23/23 21/21/21
f 27/27/27 26/26/26 25/25/25
f 28/28/28 27/27/27 25/25/25
f 31/31/31 30/30/30 29/29/29
f 32/32/32 31/31/31 29/29/29
f 35/35/35 34/34/34 33/33/33
f 36/36/36 35/35/35 33/33/33
g CeilingPiece_2
f 39/39/39 38/38/38 37/37/37
f 40/40/40 39/39/39 37/37/37
f 43/43/43 42/42/42 41/41/41
f 44/44/44 43/43/43 41/41/41
