g ChestGlow
v 0.3667543 0 2.035896E-17
v 0.4426827 -1.183857 2.457384E-17
v 0.4426827 -1.183857 0.3497287
v 0.3667543 0 0.2897436
v 0.3667543 0 -0.2897436
v 0.4426827 -1.183857 -0.3497287
v 0.3667543 0 0.2897436
v 0.4426827 -1.183857 0.3497287
v 0.3497288 -1.183858 0.4426829
v 0.2897437 0 0.3667544
v 0.2897437 0 -0.3667544
v 0.3497288 -1.183858 -0.4426829
v 0.4426827 -1.183857 -0.3497287
v 0.3667543 0 -0.2897436
v -0.2897437 0 -0.3667544
v -0.3497288 -1.183857 -0.4426829
v 0 -1.183858 -0.4426829
v 0 0 -0.3667544
v 0.3497288 -1.183858 -0.4426829
v 0.2897437 0 -0.3667544
v 0 0 0.3667544
v 0 -1.183858 0.4426829
v -0.3497288 -1.183857 0.4426829
v -0.2897437 0 0.3667544
v 0.2897437 0 0.3667544
v 0.3497288 -1.183858 0.4426829
v -0.3667543 0 2.035896E-17
v -0.4426827 -1.183857 2.457384E-17
v -0.4426827 -1.183857 -0.3497287
v -0.3667543 0 -0.2897436
v -0.3667543 0 0.2897436
v -0.4426827 -1.183857 0.3497287
v -0.3667543 0 -0.2897436
v -0.4426827 -1.183857 -0.3497287
v -0.3497288 -1.183857 -0.4426829
v -0.2897437 0 -0.3667544
v -0.2897437 0 0.3667544
v -0.3497288 -1.183857 0.4426829
v -0.4426827 -1.183857 0.3497287
v -0.3667543 0 0.2897436
vt 0.5159599 0.003906254
vt 0.5159599 0.9960938
vt 0.2186056 0.9960938
vt 0.2696075 0.003906254
vt 0.7623124 0.003906254
vt 0.8133143 0.9960938
vt 0.2696075 0.003906254
vt 0.2186056 0.9960938
vt 0.139572 0.9960938
vt 0.2041297 0.003906252
vt 0.8277902 0.003906252
vt 0.8923479 0.9960938
vt 0.8133143 0.9960938
vt 0.7623124 0.003906254
vt 0.8277902 0.003906257
vt 0.8923479 0.9960938
vt 0.8923479 0.9960938
vt 0.8277902 0.003906252
vt 0.8923479 0.9960938
vt 0.8277902 0.003906252
vt 0.2041297 0.003906252
vt 0.139572 0.9960938
vt 0.139572 0.9960938
vt 0.2041297 0.003906257
vt 0.2041297 0.003906252
vt 0.139572 0.9960938
vt 0.5159599 0.003906254
vt 0.5159599 0.9960938
vt 0.8133143 0.9960938
vt 0.7623124 0.003906254
vt 0.2696075 0.003906254
vt 0.2186056 0.9960938
vt 0.7623124 0.003906254
vt 0.8133143 0.9960938
vt 0.8923479 0.9960938
vt 0.8277902 0.003906257
vt 0.2041297 0.003906257
vt 0.139572 0.9960938
vt 0.2186056 0.9960938
vt 0.2696075 0.003906254
vn 0.9979496 0.06400479 0
vn 0.9979496 0.06400479 0
vn 0.9979496 0.06400472 0
vn 0.9979496 0.06400471 0
vn 0.9979496 0.06400487 0
vn 0.9979496 0.06400488 0
vn 0.7047889 0.08091344 0.7047877
vn 0.7047889 0.08091342 0.7047876
vn 0.7047889 0.08091342 0.7047877
vn 0.7047889 0.08091343 0.7047876
vn 0.7047889 0.08091365 -0.7047877
vn 0.7047889 0.08091363 -0.7047877
vn 0.7047889 0.08091364 -0.7047876
vn 0.7047889 0.08091365 -0.7047877
vn 0 0.064005 -0.9979496
vn 0 0.06400501 -0.9979496
vn 0 0.06400503 -0.9979495
vn 0 0.06400503 -0.9979495
vn 0 0.06400508 -0.9979495
vn 0 0.06400508 -0.9979495
vn 0 0.06400503 0.9979495
vn 0 0.06400503 0.9979495
vn 0 0.06400502 0.9979496
vn 0 0.06400501 0.9979496
vn 0 0.06400508 0.9979495
vn 0 0.06400508 0.9979495
vn -0.9979496 0.06400497 0
vn -0.9979496 0.06400497 0
vn -0.9979496 0.06400503 0
vn -0.9979496 0.06400503 0
vn -0.9979496 0.06400491 0
vn -0.9979496 0.06400491 0
vn -0.7047889 0.08091354 -0.7047876
vn -0.7047889 0.08091355 -0.7047876
vn -0.704789 0.08091355 -0.7047876
vn -0.7047889 0.08091354 -0.7047876
vn -0.7047889 0.08091354 0.7047876
vn -0.7047889 0.08091354 0.7047876
vn -0.7047889 0.08091355 0.7047876
vn -0.7047889 0.08091354 0.7047876
g ChestGlow_0
f 3/3/3 2/2/2 1/1/1
f 4/4/4 3/3/3 1/1/1
f 1/1/1 2/2/2 5/5/5
f 2/2/2 6/6/6 5/5/5
f 9/9/9 8/8/8 7/7/7
f 10/10/10 9/9/9 7/7/7
f 13/13/13 12/12/12 11/11/11
f 14/14/14 13/13/13 11/11/11
f 17/17/17 16/16/16 15/15/15
f 18/18/18 17/17/17 15/15/15
f 19/19/19 17/17/17 18/18/18
f 20/20/20 19/19/19 18/18/18
f 23/23/23 22/22/22 21/21/21
f 24/24/24 23/23/23 21/21/21
f 21/21/21 22/22/22 25/25/25
f 22/22/22 26/26/26 25/25/25
f 29/29/29 28/28/28 27/27/27
f 30/30/30 29/29/29 27/27/27
f 27/27/27 28/28/28 31/31/31
f 28/28/28 32/32/32 31/31/31
f 35/35/35 34/34/34 33/33/33
f 36/36/36 35/35/35 33/33/33
f 39/39/39 38/38/38 37/37/37
f 40/40/40 39/39/39 37/37/37
