g CP3_ELE_rotateWall_Mid
v -0.25 -0.5 -0.9
v 0.25 -0.5 -0.9
v 0.25 0.5 -0.9
v -0.25 0.5 -0.9
v 0.25 -0.5 -0.9
v 0.25 -0.5 0
v 0.25 0.5 0
v 0.25 0.5 -0.9
v -0.25 -0.5 0
v -0.25 -0.5 -0.9
v -0.25 0.5 -0.9
v -0.25 0.5 0
vt 0.2967484 0.7545745
vt 0.2967484 0.9890069
vt 0.531181 0.9890069
vt 0.531181 0.7545745
vt 0.2780893 0.01643229
vt 0.04365689 0.01643229
vt 0.04365689 0.2508648
vt 0.2780894 0.2508648
vt 0.04365686 0.7436178
vt 0.2780893 0.7436178
vt 0.2780894 0.5091851
vt 0.04365689 0.5091853
vn 0 0 -1
vn 0 0 -1
vn 0 0 -1
vn 0 0 -1
vn 1 0 0
vn 1 0 0
vn 1 0 0
vn 1 0 0
vn -1 0 0
vn -1 0 0
vn -1 0 0
vn -1 0 0
g CP3_ELE_rotateWall_Mid_0
f 3/3/3 2/2/2 1/1/1
f 4/4/4 3/3/3 1/1/1
f 7/7/7 6/6/6 5/5/5
f 8/8/8 7/7/7 5/5/5
f 11/11/11 10/10/10 9/9/9
f 12/12/12 11/11/11 9/9/9
