g CubeLow
v -0.5 -0.5 0.5
v -0.5 0.5 0.5
v 0.5 0.5 0.5
v 0.5 -0.5 0.5
v -0.5 0.5 0.5
v -0.5 0.5 -0.5
v 0.5 0.5 -0.5
v 0.5 0.5 0.5
v -0.5 -0.5 -0.5
v -0.5 -0.5 0.5
v 0.5 -0.5 0.5
v 0.5 -0.5 -0.5
v 0.5 -0.5 0.5
v 0.5 0.5 0.5
v 0.5 0.5 -0.5
v 0.5 -0.5 -0.5
v -0.5 -0.5 -0.5
v -0.5 0.5 -0.5
v -0.5 0.5 0.5
v -0.5 -0.5 0.5
vt 0.2967484 0.7545745
vt 0.2967484 0.9890069
vt 0.531181 0.9890069
vt 0.531181 0.7545745
vt 0.2780893 0.01643229
vt 0.04365689 0.01643229
vt 0.04365689 0.2508648
vt 0.2780894 0.2508648
vt 0.04365686 0.7436178
vt 0.2780893 0.7436178
vt 0.2780894 0.5091851
vt 0.04365689 0.5091853
vt 0.2780894 0.4959141
vt 0.2780894 0.2614816
vt 0.04365689 0.2614816
vt 0.04365689 0.4959142
vt 0.04365686 0.7542347
vt 0.04365683 0.9886672
vt 0.2780894 0.9886672
vt 0.2780893 0.7542347
vn 0 0 1
vn 0 0 1
vn 0 0 1
vn 0 0 1
vn 0 1 0
vn 0 1 0
vn 0 1 0
vn 0 1 0
vn 0 -1 0
vn 0 -1 0
vn 0 -1 0
vn 0 -1 0
vn 1 0 0
vn 1 0 0
vn 1 0 0
vn 1 0 0
vn -1 0 0
vn -1 0 0
vn -1 0 0
vn -1 0 0
g CubeLow_0
f 3/3/3 2/2/2 1/1/1
f 4/4/4 3/3/3 1/1/1
f 7/7/7 6/6/6 5/5/5
f 8/8/8 7/7/7 5/5/5
f 11/11/11 10/10/10 9/9/9
f 12/12/12 11/11/11 9/9/9
f 15/15/15 14/14/14 13/13/13
f 16/16/16 15/15/15 13/13/13
f 19/19/19 18/18/18 17/17/17
f 20/20/20 19/19/19 17/17/17
