g ELeft
v 0.2597003 -0.5 -0.8553305
v 0.2597003 -0.5 -1
v 0.2597003 -0.3561974 -1
v 0.2597003 -0.3561974 -0.8553305
v 0.2597003 -0.2597003 -1
v 0.2597003 -0.2597003 -0.8553305
v 0.2597003 0.2597003 -0.8553305
v 0.2597003 0.2597003 -1
v 0.2596998 0.3561974 -0.8553305
v 0.2596998 0.3561974 -1
v 0.2596998 0.5 -0.8553305
v 0.2596998 0.5 -1
v 0.2597003 -0.5 -1
v 0.3561974 -0.5 -1
v 0.3561974 -0.3561974 -1
v 0.2597003 -0.3561974 -1
v 0.2597003 -0.2597003 -1
v 0.3561974 -0.2596998 -1
v 0.2597003 0.2597003 -1
v 0.3561974 0.2596998 -1
v 0.3561974 0.3561974 -1
v 0.2596998 0.3561974 -1
v 0.2596998 0.5 -1
v 0.3561974 0.5 -1
v -0.2596998 -0.5 -0.8553305
v -0.2596998 -0.3561974 -0.8553305
v -0.2596998 -0.3561974 -1
v -0.2596998 -0.5 -1
v -0.2597003 -0.2597003 -1
v -0.2597003 -0.2597003 -0.8553305
v 0.2597003 -0.5 -0.8553305
v 0.2597003 -0.3561974 -0.8553305
v -0.2596998 -0.3561974 -0.8553305
v -0.2596998 -0.5 -0.8553305
v -0.2597003 -0.2597003 -0.8553305
v 0.2597003 -0.2597003 -0.8553305
v 0.2597003 0.2597003 -0.8553305
v -0.2597003 0.2597003 -0.8553305
v -0.2597003 0.3561974 -0.8553305
v 0.2596998 0.3561974 -0.8553305
v -0.2597003 0.5 -0.8553305
v 0.2596998 0.5 -0.8553305
v -0.3561974 -0.2597003 -0.8553305
v -0.3561974 0.2596998 -0.8553305
v -0.5 -0.2597003 -0.8553305
v -0.5 0.2596998 -0.8553305
v -0.2596998 -0.5 -1
v -0.2596998 -0.3561974 -1
v -0.3561974 -0.3561974 -1
v -0.3561974 -0.5 -1
v -0.2597003 -0.2597003 -1
v -0.3561974 -0.2597003 -1
v -0.5 -0.2597003 -1
v -0.5 -0.3561974 -1
v -0.3561974 -0.5 -1
v -0.3561974 -0.3561974 -1
v -0.5 -0.5 0
v -0.2597003 0.5 -0.8553305
v -0.2597003 0.5 -1
v -0.2597003 0.3561974 -1
v -0.2597003 0.3561974 -0.8553305
v -0.2597003 0.2597003 -1
v -0.2597003 0.2597003 -0.8553305
v -0.2597003 0.5 -1
v -0.3561974 0.5 -1
v -0.3561974 0.3561974 -1
v -0.2597003 0.3561974 -1
v -0.2597003 0.2597003 -1
v -0.3561974 0.2596998 -1
v -0.5 0.2596998 -1
v -0.5 0.3561974 -1
v -0.3561974 0.5 -1
v -0.5 0.5 0
v -0.3561974 0.3561974 -1
v -0.5 -0.2597003 -0.8553305
v -0.5 -0.2597003 -1
v -0.3561974 -0.2597003 -1
v -0.3561974 -0.2597003 -0.8553305
v -0.2597003 -0.2597003 -1
v -0.2597003 -0.2597003 -0.8553305
v -0.5 -0.3561974 -1
v -0.5 -0.5 0
v -0.3561974 -0.3561974 -1
v -0.5 0.2596998 -0.8553305
v -0.3561974 0.2596998 -0.8553305
v -0.3561974 0.2596998 -1
v -0.5 0.2596998 -1
v -0.2597003 0.2597003 -1
v -0.2597003 0.2597003 -0.8553305
v -0.5 0.3561974 -1
v -0.3561974 0.3561974 -1
v -0.5 0.5 0
v 0.3561974 -0.2596998 -1
v 0.5 -0.2597008 0
v 0.5 0.2596998 0
v 0.3561974 0.2596998 -1
v 0.3561974 -0.3561974 -1
v 0.5 -0.3561974 0
v 0.3561974 -0.5 -1
v 0.5 -0.5 0
v 0.5 0.3561974 0
v 0.3561974 0.3561974 -1
v 0.5 0.5 0
v 0.3561974 0.5 -1
vt 0.2298734 0.8153079
vt 0.2298735 0.8718194
vt 0.2860465 0.8718195
vt 0.2860464 0.8153077
vt 0.3237409 0.8718193
vt 0.3237408 0.8153077
vt 0.5266317 0.8153077
vt 0.5266318 0.8718193
vt 0.5643258 0.8153076
vt 0.5643259 0.8718194
vt 0.6204988 0.8153077
vt 0.6204989 0.8718193
vt 0.6847324 0.9008025
vt 0.714143 0.9008025
vt 0.714143 0.8569744
vt 0.6847324 0.8569744
vt 0.6847324 0.8275639
vt 0.714143 0.8275639
vt 0.6847324 0.6692606
vt 0.714143 0.6692612
vt 0.714143 0.6398503
vt 0.6847323 0.6398503
vt 0.6847323 0.5960225
vt 0.714143 0.5960225
vt 0.9836451 0.744281
vt 0.9274722 0.744281
vt 0.9274722 0.8007925
vt 0.983645 0.8007925
vt 0.8896183 0.800841
vt 0.8896182 0.7443296
vt 0.8807079 0.900803
vt 0.8807079 0.8569744
vt 0.7224044 0.8569744
vt 0.7224044 0.900803
vt 0.7224042 0.8275642
vt 0.8807079 0.8275642
vt 0.8807079 0.6692606
vt 0.7224042 0.6692606
vt 0.7224042 0.6398498
vt 0.8807078 0.6398498
vt 0.7224042 0.5960215
vt 0.8807078 0.5960215
vt 0.6929939 0.8275642
vt 0.6929939 0.6692606
vt 0.6491657 0.8275642
vt 0.6491657 0.6692606
vt 0.1982299 0.6513454
vt 0.2420582 0.6513454
vt 0.2420582 0.6219351
vt 0.1982299 0.6219351
vt 0.2714686 0.6513454
vt 0.2714686 0.6219351
vt 0.2714686 0.5781068
vt 0.2420582 0.5781068
vt 0.3548583 0.6496816
vt 0.4422933 0.6496816
vt 0.3548583 0.04166006
vt 0.7955916 0.7443781
vt 0.7955915 0.8008897
vt 0.8517643 0.8008897
vt 0.8517643 0.744378
vt 0.8896183 0.800841
vt 0.8896183 0.7443296
vt 0.2573908 0.6794882
vt 0.2279802 0.6794882
vt 0.2279802 0.723317
vt 0.2573908 0.723317
vt 0.2573908 0.7527276
vt 0.2279802 0.7527276
vt 0.1841517 0.7527276
vt 0.1841517 0.723317
vt 0.7281535 0.6487768
vt 0.7281535 0.04075603
vt 0.6407185 0.6487768
vt 0.7955914 0.7443779
vt 0.7955914 0.8008896
vt 0.8517641 0.8008894
vt 0.8517641 0.744378
vt 0.8896183 0.800841
vt 0.8896182 0.7443296
vt 0.6851521 0.6487771
vt 0.6851521 0.04075576
vt 0.5977169 0.6487771
vt 0.9836452 0.7442811
vt 0.9274725 0.7442812
vt 0.9274725 0.8007928
vt 0.9836452 0.8007928
vt 0.8896183 0.800841
vt 0.8896183 0.7443296
vt 0.5349208 0.6437564
vt 0.6223559 0.6437564
vt 0.5349207 0.03573541
vt 0.6545795 0.6468128
vt 0.6545801 0.03879151
vt 0.3387734 0.03879152
vt 0.3387734 0.6468128
vt 0.713252 0.6468128
vt 0.713252 0.03879161
vt 0.800687 0.6468128
vt 0.800687 0.03879167
vt 0.2801009 0.03879151
vt 0.2801009 0.6468128
vt 0.1926658 0.03879148
vt 0.1926657 0.6468127
vn -1 0 0
vn -1 0 0
vn -1 0 0
vn -1 0 0
vn -1 0 0
vn -1 0 0
vn -1 0 0
vn -1 0 0
vn -1 0 0
vn -1 0 0
vn -1 0 0
vn -1 0 0
vn 0 0 -1
vn 0 0 -1
vn 0 0 -1
vn 0 0 -1
vn 0 0 -1
vn 0 0 -1
vn 0 0 -1
vn 0 0 -1
vn 0 0 -1
vn 0 0 -1
vn 0 0 -1
vn 0 0 -1
vn 1 0 0
vn 1 0 0
vn 1 0 0
vn 1 0 0
vn 1 0 0
vn 1 0 0
vn 0 0 -1
vn 0 0 -1
vn 0 0 -1
vn 0 0 -1
vn 0 0 -1
vn 0 0 -1
vn 0 0 -1
vn 0 0 -1
vn 0 0 -1
vn 0 0 -1
vn 0 0 -1
vn 0 0 -1
vn 0 0 -1
vn 0 0 -1
vn 0 0 -1
vn 0 0 -1
vn 0 0 -1
vn 0 0 -1
vn 0 0 -1
vn 0 0 -1
vn 0 0 -1
vn 0 0 -1
vn 0 0 -1
vn 0 0 -1
vn -0.989818 0 -0.1423387
vn -0.989818 0 -0.1423387
vn -0.989818 0 -0.1423387
vn 1 0 0
vn 1 0 0
vn 1 0 0
vn 1 0 0
vn 1 0 0
vn 1 0 0
vn 0 0 -1
vn 0 0 -1
vn 0 0 -1
vn 0 0 -1
vn 0 0 -1
vn 0 0 -1
vn 0 0 -1
vn 0 0 -1
vn -0.989818 0 -0.1423387
vn -0.989818 0 -0.1423387
vn -0.989818 0 -0.1423387
vn 0 1 0
vn 0 1 0
vn 0 1 0
vn 0 1 0
vn 0 1 0
vn 0 1 0
vn 0 -0.9898182 -0.1423379
vn 0 -0.9898182 -0.1423379
vn 0 -0.9898182 -0.1423379
vn 0 -1 0
vn 0 -1 0
vn 0 -1 0
vn 0 -1 0
vn 0 -1 0
vn 0 -1 0
vn 0 0.9898182 -0.1423379
vn 0 0.9898182 -0.1423379
vn 0 0.9898182 -0.1423379
vn 0.989818 0 -0.1423385
vn 0.989818 0 -0.1423385
vn 0.989818 0 -0.1423385
vn 0.989818 0 -0.1423385
vn 0.989818 0 -0.1423387
vn 0.989818 0 -0.1423387
vn 0.9898181 0 -0.1423383
vn 0.9898181 0 -0.1423383
vn 0.989818 0 -0.1423386
vn 0.989818 0 -0.1423386
vn 0.9898181 0 -0.1423383
vn 0.9898181 0 -0.1423383
g ELeft_0
f 3/3/3 2/2/2 1/1/1
f 4/4/4 3/3/3 1/1/1
f 5/5/5 3/3/3 4/4/4
f 6/6/6 5/5/5 4/4/4
f 6/6/6 7/7/7 5/5/5
f 7/7/7 8/8/8 5/5/5
f 8/8/8 7/7/7 9/9/9
f 10/10/10 8/8/8 9/9/9
f 10/10/10 9/9/9 11/11/11
f 12/12/12 10/10/10 11/11/11
f 15/15/15 14/14/14 13/13/13
f 16/16/16 15/15/15 13/13/13
f 15/15/15 16/16/16 17/17/17
f 18/18/18 15/15/15 17/17/17
f 17/17/17 19/19/19 18/18/18
f 19/19/19 20/20/20 18/18/18
f 21/21/21 20/20/20 19/19/19
f 22/22/22 21/21/21 19/19/19
f 21/21/21 22/22/22 23/23/23
f 24/24/24 21/21/21 23/23/23
f 27/27/27 26/26/26 25/25/25
f 28/28/28 27/27/27 25/25/25
f 27/27/27 29/29/29 26/26/26
f 29/29/29 30/30/30 26/26/26
f 33/33/33 32/32/32 31/31/31
f 34/34/34 33/33/33 31/31/31
f 33/33/33 35/35/35 32/32/32
f 35/35/35 36/36/36 32/32/32
f 37/37/37 36/36/36 35/35/35
f 38/38/38 37/37/37 35/35/35
f 37/37/37 38/38/38 39/39/39
f 40/40/40 37/37/37 39/39/39
f 40/40/40 39/39/39 41/41/41
f 42/42/42 40/40/40 41/41/41
f 38/38/38 35/35/35 43/43/43
f 44/44/44 38/38/38 43/43/43
f 44/44/44 43/43/43 45/45/45
f 46/46/46 44/44/44 45/45/45
f 49/49/49 48/48/48 47/47/47
f 50/50/50 49/49/49 47/47/47
f 48/48/48 49/49/49 51/51/51
f 49/49/49 52/52/52 51/51/51
f 52/52/52 49/49/49 53/53/53
f 49/49/49 54/54/54 53/53/53
f 57/57/57 56/56/56 55/55/55
f 60/60/60 59/59/59 58/58/58
f 61/61/61 60/60/60 58/58/58
f 62/62/62 60/60/60 61/61/61
f 63/63/63 62/62/62 61/61/61
f 66/66/66 65/65/65 64/64/64
f 67/67/67 66/66/66 64/64/64
f 66/66/66 67/67/67 68/68/68
f 69/69/69 66/66/66 68/68/68
f 66/66/66 69/69/69 70/70/70
f 71/71/71 66/66/66 70/70/70
f 74/74/74 73/73/73 72/72/72
f 77/77/77 76/76/76 75/75/75
f 78/78/78 77/77/77 75/75/75
f 79/79/79 77/77/77 78/78/78
f 80/80/80 79/79/79 78/78/78
f 83/83/83 82/82/82 81/81/81
f 86/86/86 85/85/85 84/84/84
f 87/87/87 86/86/86 84/84/84
f 86/86/86 88/88/88 85/85/85
f 88/88/88 89/89/89 85/85/85
f 92/92/92 91/91/91 90/90/90
f 95/95/95 94/94/94 93/93/93
f 96/96/96 95/95/95 93/93/93
f 93/93/93 94/94/94 97/97/97
f 94/94/94 98/98/98 97/97/97
f 97/97/97 98/98/98 99/99/99
f 98/98/98 100/100/100 99/99/99
f 101/101/101 95/95/95 96/96/96
f 102/102/102 101/101/101 96/96/96
f 101/101/101 102/102/102 103/103/103
f 102/102/102 104/104/104 103/103/103
