g EUpperLeft
v -0.5 0.1071444 -0.06521821
v -0.0535717 0.1071444 -0.06521821
v -0.0535717 0.1785717 0
v -0.5 0.1785717 0
v 0.1071453 0.1071444 -0.06521821
v 0.1785717 0.1785717 0
v 0.1071453 0.1071444 -0.06521821
v 0.1785717 -0.0535717 0
v 0.1071444 -0.0535717 -0.06521821
v -0.5 0.0535717 -0.06521821
v -0.0535717 0.0535717 -0.06521821
v -0.0535717 0.1071444 -0.06521821
v -0.5 0.1071444 -0.06521821
v 0.0535717 0.0535717 -0.06521821
v 0.1071453 0.1071444 -0.06521821
v 0.1071444 -0.0535717 -0.06521821
v 0.0535717 -0.0535717 -0.06521821
v 0.0535717 -0.5 -0.06521821
v 0.1071444 -0.5 -0.06521821
v -0.5 0.0535717 -0.01
v -0.0535717 0.0535717 -0.01
v -0.0535717 0.0535717 -0.06521821
v -0.5 0.0535717 -0.06521821
v 0.0535717 0.0535717 -0.06521821
v 0.0535717 0.0535717 -0.01
v -0.5 0.0535717 -0.01
v -0.5 -0.0535717 -0.01
v -0.0535717 -0.0535717 -0.01
v -0.0535717 0.0535717 -0.01
v 0.0535717 0.0535717 -0.01
v 0.0535717 -0.0535717 -0.01
v -0.0535717 -0.5 -0.01
v 0.0535717 -0.5 -0.01
v -0.0535717 -0.5 -0.06521821
v -0.0535717 -0.0535717 -0.06521821
v -0.1071444 -0.1071444 -0.06521821
v -0.1071444 -0.5 -0.06521821
v -0.5 -0.1071444 -0.06521821
v -0.5 -0.0535717 -0.06521821
v -0.0535717 -0.5 -0.01
v -0.0535717 -0.0535717 -0.01
v -0.0535717 -0.0535717 -0.06521821
v -0.0535717 -0.5 -0.06521821
v -0.1785717 -0.1785717 0
v -0.1785717 -0.5 0
v -0.1071444 -0.5 -0.06521821
v -0.1071444 -0.1071444 -0.06521821
v -0.1785717 -0.1785717 0
v -0.1071444 -0.1071444 -0.06521821
v -0.5 -0.1071444 -0.06521821
v -0.5 -0.1785717 0
v -0.0535717 -0.0535717 -0.01
v -0.5 -0.0535717 -0.01
v -0.5 -0.0535717 -0.06521821
v -0.0535717 -0.0535717 -0.06521821
v 0.0535717 -0.5 -0.01
v 0.0535717 -0.5 -0.06521821
v 0.0535717 -0.0535717 -0.06521821
v 0.0535717 -0.0535717 -0.01
v 0.0535717 0.0535717 -0.06521821
v 0.0535717 0.0535717 -0.01
v 0.1071444 -0.5 -0.06521821
v 0.1785717 -0.5 0
v 0.1785717 -0.0535717 0
v 0.1071444 -0.0535717 -0.06521821
v 0 1.776357E-15 -0.01
v 0 1.776357E-15 -0.8
v -0.5 1.776357E-15 -0.8
v -0.5 1.776357E-15 -0.01
v 0 -0.5 -0.01
v 0 -0.5 -0.8
v 0 1.776357E-15 -0.8
v 0 1.776357E-15 -0.01
vt 0.7302255 0.01744282
vt 0.8195112 0.01744282
vt 0.8195112 0.9825574
vt 0.7302255 0.9825574
vt 0.8516545 0.01744282
vt 0.8659399 0.9825574
vt 0.8516545 0.01744282
vt 0.8659399 0.9825574
vt 0.8516544 0.01744282
vt 0.7302255 0.01744282
vt 0.8195112 0.01744282
vt 0.8195112 0.01744282
vt 0.7302255 0.01744282
vt 0.8409398 0.01744282
vt 0.8516545 0.01744282
vt 0.8516544 0.01744282
vt 0.8409398 0.01744282
vt 0.8409398 0.01744282
vt 0.8516544 0.01744282
vt 0.7302255 0.9825574
vt 0.8195112 0.9825574
vt 0.8195112 0.01744282
vt 0.7302255 0.01744282
vt 0.8409398 0.01744282
vt 0.8409398 0.9825574
vt 0.1809768 0.6370285
vt 0.2229326 0.6370285
vt 0.2229326 0.4622129
vt 0.1809768 0.4622129
vt 0.1809768 0.420257
vt 0.2229326 0.420257
vt 0.3977482 0.4622129
vt 0.3977482 0.420257
vt 0.8195112 0.01744282
vt 0.8195112 0.01744282
vt 0.8087966 0.01744282
vt 0.8087966 0.01744282
vt 0.7302255 0.01744282
vt 0.7302255 0.01744282
vt 0.8195112 0.9825574
vt 0.8195112 0.9825574
vt 0.8195112 0.01744282
vt 0.8195112 0.01744282
vt 0.7945112 0.9825574
vt 0.7945112 0.9825574
vt 0.8087966 0.01744282
vt 0.8087966 0.01744282
vt 0.7945112 0.9825574
vt 0.8087966 0.01744282
vt 0.7302255 0.01744282
vt 0.7302255 0.9825574
vt 0.8195112 0.9825574
vt 0.7302255 0.9825574
vt 0.7302255 0.01744282
vt 0.8195112 0.01744282
vt 0.8409398 0.9825574
vt 0.8409398 0.01744282
vt 0.8409398 0.01744282
vt 0.8409398 0.9825574
vt 0.8409398 0.01744282
vt 0.8409398 0.9825574
vt 0.8516544 0.01744282
vt 0.8659399 0.9825574
vt 0.8659399 0.9825574
vt 0.8516544 0.01744282
vt 0.1874999 -5.960464E-08
vt 0.1875001 1
vt 0.8124999 1
vt 0.8124999 -5.960464E-08
vt 0.1874999 -5.960464E-08
vt 0.1874999 1
vt 0.8125001 1
vt 0.8125001 -5.960464E-08
vn 0 0.6742803 -0.7384755
vn 0 0.6742803 -0.7384755
vn 0 0.6742803 -0.7384755
vn 0 0.6742803 -0.7384755
vn 0.3835437 0.3835412 -0.8401133
vn 0.3835405 0.3835444 -0.8401133
vn 0.3835437 0.3835412 -0.8401133
vn 0.6742833 0 -0.7384728
vn 0.6742832 0 -0.7384729
vn 0 0 -1
vn 0 0 -1
vn 0 0 -1
vn 0 0 -1
vn 0 0 -1
vn 0 0 -1
vn 0 0 -1
vn 0 0 -1
vn 0 0 -1
vn 0 0 -1
vn 0 -1 0
vn 0 -1 0
vn 0 -1 0
vn 0 -1 0
vn 0 -1 0
vn 0 -1 0
vn 0 0 -1
vn 0 0 -1
vn 0 0 -1
vn 0 0 -1
vn 0 0 -1
vn 0 0 -1
vn 0 0 -1
vn 0 0 -1
vn 0 0 -1
vn 0 0 -1
vn 0 0 -1
vn 0 0 -1
vn 0 0 -1
vn 0 0 -1
vn 1 0 0
vn 1 0 0
vn 1 0 0
vn 1 0 0
vn -0.6742803 0 -0.7384756
vn -0.6742803 0 -0.7384756
vn -0.6742803 0 -0.7384756
vn -0.6742803 0 -0.7384756
vn 0 -0.6742803 -0.7384754
vn 0 -0.6742803 -0.7384755
vn 0 -0.6742803 -0.7384754
vn 0 -0.6742803 -0.7384754
vn 0 1 0
vn 0 1 0
vn 0 1 0
vn 0 1 0
vn -1 0 0
vn -1 0 0
vn -1 0 0
vn -1 0 0
vn -1 0 0
vn -1 0 0
vn 0.6742803 0 -0.7384756
vn 0.6742803 0 -0.7384756
vn 0.6742803 0 -0.7384756
vn 0.6742803 0 -0.7384756
vn 0 -1 0
vn 0 -1 0
vn 0 -1 0
vn 0 -1 0
vn -1 0 0
vn -1 0 0
vn -1 0 0
vn -1 0 0
g EUpperLeft_0
f 3/3/3 2/2/2 1/1/1
f 4/4/4 3/3/3 1/1/1
f 2/2/2 3/3/3 5/5/5
f 3/3/3 6/6/6 5/5/5
f 6/6/6 8/8/8 7/7/7
f 8/8/8 9/9/9 7/7/7
f 12/12/12 11/11/11 10/10/10
f 13/13/13 12/12/12 10/10/10
f 11/11/11 12/12/12 14/14/14
f 12/12/12 15/15/15 14/14/14
f 15/15/15 16/16/16 14/14/14
f 16/16/16 17/17/17 14/14/14
f 17/17/17 16/16/16 18/18/18
f 16/16/16 19/19/19 18/18/18
f 22/22/22 21/21/21 20/20/20
f 23/23/23 22/22/22 20/20/20
f 22/22/22 24/24/24 21/21/21
f 24/24/24 25/25/25 21/21/21
f 28/28/28 27/27/27 26/26/26
f 29/29/29 28/28/28 26/26/26
f 29/29/29 30/30/30 28/28/28
f 30/30/30 31/31/31 28/28/28
f 28/28/28 31/31/31 32/32/32
f 31/31/31 33/33/33 32/32/32
f 36/36/36 35/35/35 34/34/34
f 37/37/37 36/36/36 34/34/34
f 36/36/36 38/38/38 35/35/35
f 38/38/38 39/39/39 35/35/35
f 42/42/42 41/41/41 40/40/40
f 43/43/43 42/42/42 40/40/40
f 46/46/46 45/45/45 44/44/44
f 47/47/47 46/46/46 44/44/44
f 50/50/50 49/49/49 48/48/48
f 51/51/51 50/50/50 48/48/48
f 54/54/54 53/53/53 52/52/52
f 55/55/55 54/54/54 52/52/52
f 58/58/58 57/57/57 56/56/56
f 59/59/59 58/58/58 56/56/56
f 60/60/60 58/58/58 59/59/59
f 61/61/61 60/60/60 59/59/59
f 64/64/64 63/63/63 62/62/62
f 65/65/65 64/64/64 62/62/62
g EUpperLeft_1
f 68/68/68 67/67/67 66/66/66
f 69/69/69 68/68/68 66/66/66
f 72/72/72 71/71/71 70/70/70
f 73/73/73 72/72/72 70/70/70
