g foot
v -0.1181264 0.04905573 -0.1618392
v -0.1181264 -0.04905573 -0.1618392
v 0.1181264 -0.04905573 -0.1618392
v 0.1181264 0.04905573 -0.1618392
v -0.1181264 -0.04905573 -0.1618392
v -0.4483781 -0.04905573 0.247032
v 0.4483781 -0.04905573 0.247032
v 0.1181264 -0.04905573 -0.1618392
v 0.4483781 -0.04905573 0.477109
v -0.4483781 -0.04905573 0.477109
v -0.4483781 -0.04905573 0.477109
v -0.4483781 0.04905573 0.477109
v 0.4483781 0.04905573 0.477109
v 0.4483781 -0.04905573 0.477109
v -0.4483781 0.04905573 0.247032
v -0.1181264 0.04905573 -0.1618392
v 0.1181264 0.04905573 -0.1618392
v 0.4483781 0.04905573 0.247032
v -0.4483781 0.04905573 0.477109
v 0.4483781 0.04905573 0.477109
v 0.1181264 0.04905573 -0.1618392
v 0.1181264 -0.04905573 -0.1618392
v 0.4483781 -0.04905573 0.247032
v 0.4483781 0.04905573 0.247032
v -0.4483781 0.04905573 0.247032
v -0.4483781 -0.04905573 0.247032
v -0.1181264 -0.04905573 -0.1618392
v -0.1181264 0.04905573 -0.1618392
v 0.4483781 -0.04905573 0.247032
v 0.4483781 -0.04905573 0.477109
v 0.4483781 0.04905573 0.477109
v 0.4483781 0.04905573 0.247032
v -0.4483781 0.04905573 0.247032
v -0.4483781 0.04905573 0.477109
v -0.4483781 -0.04905573 0.477109
v -0.4483781 -0.04905573 0.247032
vt 0.5511595 0.2128782
vt 0.5511595 0.2064882
vt 0.535933 0.2064882
vt 0.535933 0.2128782
vt 0.7368618 0.903694
vt 0.7105443 0.8821568
vt 0.7105443 0.9406382
vt 0.7368618 0.9191011
vt 0.6957353 0.9406382
vt 0.6957353 0.8821568
vt 0.5671139 0.2009898
vt 0.5734994 0.2009898
vt 0.5734994 0.1431537
vt 0.5671139 0.1431537
vt 0.9386324 0.4908861
vt 0.9120529 0.5122108
vt 0.9120529 0.5274659
vt 0.9386324 0.5487908
vt 0.953589 0.4908861
vt 0.953589 0.5487908
vt 0.9715465 0.2706908
vt 0.9646708 0.2706908
vt 0.9646708 0.299654
vt 0.9715465 0.299654
vt 0.365089 0.5892049
vt 0.365089 0.5823162
vt 0.3361802 0.5823162
vt 0.3361802 0.5892049
vt 0.9646708 0.299654
vt 0.9646708 0.315952
vt 0.9715465 0.315952
vt 0.9715465 0.299654
vt 0.365089 0.5892049
vt 0.3813563 0.5892049
vt 0.3813563 0.5823162
vt 0.365089 0.5823162
vn 0 0 -1
vn 0 0 -1
vn 0 0 -1
vn 0 0 -1
vn 0 -1 0
vn 0 -1 0
vn 0 -1 0
vn 0 -1 0
vn 0 -1 0
vn 0 -1 0
vn 0 0 1
vn 0 0 1
vn 0 0 1
vn 0 0 1
vn 0 1 0
vn 0 1 0
vn 0 1 0
vn 0 1 0
vn 0 1 0
vn 0 1 0
vn 0.7779322 0 -0.6283482
vn 0.7779322 0 -0.6283482
vn 0.7779322 0 -0.6283482
vn 0.7779322 0 -0.6283482
vn -0.7779322 0 -0.6283482
vn -0.7779322 0 -0.6283482
vn -0.7779322 0 -0.6283482
vn -0.7779322 0 -0.6283482
vn 1 0 0
vn 1 0 0
vn 1 0 0
vn 1 0 0
vn -1 0 0
vn -1 0 0
vn -1 0 0
vn -1 0 0
g foot_0
f 3/3/3 2/2/2 1/1/1
f 4/4/4 3/3/3 1/1/1
f 7/7/7 6/6/6 5/5/5
f 8/8/8 7/7/7 5/5/5
f 7/7/7 9/9/9 6/6/6
f 9/9/9 10/10/10 6/6/6
f 13/13/13 12/12/12 11/11/11
f 14/14/14 13/13/13 11/11/11
f 17/17/17 16/16/16 15/15/15
f 18/18/18 17/17/17 15/15/15
f 15/15/15 19/19/19 18/18/18
f 19/19/19 20/20/20 18/18/18
f 23/23/23 22/22/22 21/21/21
f 24/24/24 23/23/23 21/21/21
f 27/27/27 26/26/26 25/25/25
f 28/28/28 27/27/27 25/25/25
f 31/31/31 30/30/30 29/29/29
f 32/32/32 31/31/31 29/29/29
f 35/35/35 34/34/34 33/33/33
f 36/36/36 35/35/35 33/33/33
