g hammer_down
v -0.341582 0.01999999 1
v -0.341582 0 1
v -0.9999999 0 1
v -0.9999999 0.01999999 1
v -0.3973355 0.05999992 1
v -0.9999999 0.05999992 1
v 0.341582 0 1
v 0.341582 0.01999999 1
v 0.9999999 0 1
v 0.9999999 0.01999999 1
v 0.3973355 0.05999992 1
v 0.9999999 0.05999992 1
v -0.7799279 0.05999992 0.779928
v -0.3973355 0.05999992 0.779928
v -0.3973355 0.05999992 1
v -0.9999999 0.05999992 1
v -0.9999999 0.05999992 0.3973356
v -0.7799279 0.05999992 0.3973356
v -0.7055896 0.01999999 0.7055897
v -0.341582 0.01999999 0.7055897
v -0.3973355 0.05999992 0.779928
v -0.7799279 0.05999992 0.779928
v -0.341582 0.01999999 0.7055897
v -0.341582 0.01999999 1
v -0.3973355 0.05999992 1
v -0.3973355 0.05999992 0.779928
v -0.341582 0.01999999 0.7055897
v 0.341582 0.01999999 0.7055897
v 0.341582 0.01999999 1
v -0.341582 0.01999999 1
v 0.7055896 0.01999999 0.7055897
v -0.7055896 0.01999999 0.7055897
v 1.192093E-07 0.02000001 7.450581E-09
v -0.7055896 0.01999999 0.3415819
v -0.7055896 0.01999999 -0.3415819
v -0.7055896 0.01999999 -0.7055897
v -0.9999999 0.01999999 -0.3415819
v -0.9999999 0.01999999 0.3415819
v 0.7055896 0.01999999 0.3415819
v 0.7055896 0.01999999 -0.3415819
v 0.7055896 0.01999999 -0.7055897
v 0.9999999 0.01999999 -0.3415819
v 0.9999999 0.01999999 0.3415819
v -0.341582 0.01999999 -0.7055897
v 0.341582 0.01999999 -0.7055897
v 0.341582 0.01999999 -1
v -0.341582 0.01999999 -1
v -0.9999999 0.01999999 0.3415819
v -0.9999999 0.01999999 1
v -0.9999999 0 1
v -0.9999999 0 0.3415819
v -0.9999999 0.05999992 0.3973356
v -0.9999999 0.05999992 1
v -0.9999999 0 -0.3415819
v -0.9999999 0.01999999 -0.3415819
v -0.9999999 0 -1
v -0.9999999 0.01999999 -1
v -0.9999999 0.05999992 -0.3973356
v -0.9999999 0.05999992 -1
v -0.7055896 0.01999999 0.7055897
v -0.7799279 0.05999992 0.779928
v -0.7799279 0.05999992 0.3973356
v -0.7055896 0.01999999 0.3415819
v -0.7055896 0.01999999 0.3415819
v -0.7799279 0.05999992 0.3973356
v -0.9999999 0.05999992 0.3973356
v -0.9999999 0.01999999 0.3415819
v -0.341582 0.01999999 -1
v -0.9999999 0.01999999 -1
v -0.9999999 0 -1
v -0.341582 0 -1
v -0.3973355 0.05999992 -1
v -0.9999999 0.05999992 -1
v 0.341582 0 -1
v 0.341582 0.01999999 -1
v 0.9999999 0 -1
v 0.9999999 0.01999999 -1
v 0.3973355 0.05999992 -1
v 0.9999999 0.05999992 -1
v -0.7799279 0.05999992 -0.779928
v -0.9999999 0.05999992 -1
v -0.3973355 0.05999992 -1
v -0.3973355 0.05999992 -0.779928
v -0.9999999 0.05999992 -0.3973356
v -0.7799279 0.05999992 -0.3973356
v -0.7055896 0.01999999 -0.7055897
v -0.7799279 0.05999992 -0.779928
v -0.3973355 0.05999992 -0.779928
v -0.341582 0.01999999 -0.7055897
v -0.341582 0.01999999 -0.7055897
v -0.3973355 0.05999992 -0.779928
v -0.3973355 0.05999992 -1
v -0.341582 0.01999999 -1
v -0.7055896 0.01999999 -0.7055897
v -0.7055896 0.01999999 -0.3415819
v -0.7799279 0.05999992 -0.3973356
v -0.7799279 0.05999992 -0.779928
v -0.7055896 0.01999999 -0.3415819
v -0.9999999 0.01999999 -0.3415819
v -0.9999999 0.05999992 -0.3973356
v -0.7799279 0.05999992 -0.3973356
v 0.7799279 0.05999992 0.779928
v 0.9999999 0.05999992 1
v 0.3973355 0.05999992 1
v 0.3973355 0.05999992 0.779928
v 0.9999999 0.05999992 0.3973356
v 0.7799279 0.05999992 0.3973356
v 0.7055896 0.01999999 0.7055897
v 0.7799279 0.05999992 0.779928
v 0.3973355 0.05999992 0.779928
v 0.341582 0.01999999 0.7055897
v 0.341582 0.01999999 0.7055897
v 0.3973355 0.05999992 0.779928
v 0.3973355 0.05999992 1
v 0.341582 0.01999999 1
v 0.9999999 0.01999999 0.3415819
v 0.9999999 0 0.3415819
v 0.9999999 0 1
v 0.9999999 0.01999999 1
v 0.9999999 0.05999992 0.3973356
v 0.9999999 0.05999992 1
v 0.9999999 0 -0.3415819
v 0.9999999 0.01999999 -0.3415819
v 0.9999999 0 -1
v 0.9999999 0.01999999 -1
v 0.9999999 0.05999992 -0.3973356
v 0.9999999 0.05999992 -1
v 0.7055896 0.01999999 0.7055897
v 0.7055896 0.01999999 0.3415819
v 0.7799279 0.05999992 0.3973356
v 0.7799279 0.05999992 0.779928
v 0.7055896 0.01999999 0.3415819
v 0.9999999 0.01999999 0.3415819
v 0.9999999 0.05999992 0.3973356
v 0.7799279 0.05999992 0.3973356
v 0.7799279 0.05999992 -0.779928
v 0.3973355 0.05999992 -0.779928
v 0.3973355 0.05999992 -1
v 0.9999999 0.05999992 -1
v 0.9999999 0.05999992 -0.3973356
v 0.7799279 0.05999992 -0.3973356
v 0.7055896 0.01999999 -0.7055897
v 0.341582 0.01999999 -0.7055897
v 0.3973355 0.05999992 -0.779928
v 0.7799279 0.05999992 -0.779928
v 0.341582 0.01999999 -0.7055897
v 0.341582 0.01999999 -1
v 0.3973355 0.05999992 -1
v 0.3973355 0.05999992 -0.779928
v 0.7055896 0.01999999 -0.7055897
v 0.7799279 0.05999992 -0.779928
v 0.7799279 0.05999992 -0.3973356
v 0.7055896 0.01999999 -0.3415819
v 0.7055896 0.01999999 -0.3415819
v 0.7799279 0.05999992 -0.3973356
v 0.9999999 0.05999992 -0.3973356
v 0.9999999 0.01999999 -0.3415819
vt 0.7848814 0.6725591
vt 0.7848814 0.6642869
vt 0.6823465 0.6642869
vt 0.6906183 0.6725591
vt 0.7776477 0.6813945
vt 0.6994539 0.6813945
vt 0.8735197 0.6642869
vt 0.8735197 0.6725591
vt 0.9760547 0.6642869
vt 0.9677825 0.6725591
vt 0.8807536 0.6813945
vt 0.9589472 0.6813945
vt 0.7148907 0.7156163
vt 0.7709652 0.7156163
vt 0.7709652 0.6833615
vt 0.6826358 0.6833615
vt 0.6826358 0.7716909
vt 0.7148907 0.7716909
vt 0.7316149 0.7296408
vt 0.7776673 0.7296408
vt 0.7706136 0.7202359
vt 0.72221 0.7202359
vt 0.7809184 0.7301921
vt 0.7809184 0.6789521
vt 0.7730377 0.6885777
vt 0.7730377 0.7196845
vt 0.7825503 0.7335631
vt 0.8758508 0.7335631
vt 0.8758508 0.6840549
vt 0.7825503 0.6840549
vt 0.9255638 0.7335631
vt 0.7328374 0.7335631
vt 0.8292006 0.8299263
vt 0.7328374 0.783276
vt 0.7328374 0.8765764
vt 0.7328374 0.9262893
vt 0.6833293 0.8765764
vt 0.6833293 0.783276
vt 0.9255638 0.783276
vt 0.9255638 0.8765764
vt 0.9255638 0.9262893
vt 0.9750718 0.8765764
vt 0.9750718 0.783276
vt 0.7825503 0.9262893
vt 0.8758508 0.9262893
vt 0.8758508 0.9757976
vt 0.7825503 0.9757976
vt 0.6718335 0.785607
vt 0.6718335 0.691344
vt 0.6635614 0.6830721
vt 0.6635614 0.785607
vt 0.680669 0.7783733
vt 0.680669 0.7001796
vt 0.6635614 0.8742453
vt 0.6718335 0.8742453
vt 0.6635614 0.9767805
vt 0.6718335 0.9685082
vt 0.680669 0.8814791
vt 0.680669 0.9596729
vt 0.7288586 0.7325609
vt 0.7195668 0.7232692
vt 0.7195668 0.7710907
vt 0.7288586 0.7780595
vt 0.7294665 0.7816441
vt 0.7189589 0.7737635
vt 0.687852 0.7737635
vt 0.6782265 0.7816441
vt 0.7848814 0.9872933
vt 0.6906183 0.9872933
vt 0.6823465 0.9955654
vt 0.7848814 0.9955654
vt 0.7776477 0.9784579
vt 0.6994539 0.9784579
vt 0.8735197 0.9955654
vt 0.8735197 0.9872933
vt 0.9760547 0.9955654
vt 0.9677825 0.9872933
vt 0.8807536 0.9784579
vt 0.9589472 0.9784579
vt 0.7148907 0.9442361
vt 0.6826358 0.9764909
vt 0.7709652 0.9764909
vt 0.7709652 0.9442361
vt 0.6826358 0.8881617
vt 0.7148907 0.8881617
vt 0.7311742 0.9300985
vt 0.7215432 0.9397296
vt 0.7711109 0.9397296
vt 0.7783341 0.9300985
vt 0.7809184 0.9296603
vt 0.7730377 0.9401678
vt 0.7730377 0.9712747
vt 0.7809184 0.9809004
vt 0.728901 0.9274567
vt 0.728901 0.8815429
vt 0.7195244 0.8885754
vt 0.7195244 0.9368333
vt 0.7294665 0.8782083
vt 0.6782265 0.8782083
vt 0.687852 0.8860891
vt 0.7189589 0.8860891
vt 0.9435104 0.7156163
vt 0.9757654 0.6833615
vt 0.8874359 0.6833615
vt 0.8874359 0.7156163
vt 0.9757654 0.7716909
vt 0.9435104 0.7716909
vt 0.9270067 0.7296973
vt 0.9365245 0.7201793
vt 0.8875388 0.7201793
vt 0.8804004 0.7296973
vt 0.8774827 0.7301921
vt 0.8853633 0.7196845
vt 0.8853633 0.6885777
vt 0.8774827 0.6789521
vt 0.9865675 0.785607
vt 0.9948398 0.785607
vt 0.9948398 0.6830721
vt 0.9865675 0.691344
vt 0.977732 0.7783733
vt 0.977732 0.7001796
vt 0.9948398 0.8742453
vt 0.9865675 0.8742453
vt 0.9948398 0.9767805
vt 0.9865675 0.9685082
vt 0.977732 0.8814791
vt 0.977732 0.9596729
vt 0.9294861 0.7323406
vt 0.9294861 0.778393
vt 0.9388908 0.7713394
vt 0.9388908 0.7229357
vt 0.9289348 0.7816441
vt 0.9801747 0.7816441
vt 0.9705492 0.7737635
vt 0.9394422 0.7737635
vt 0.9435104 0.9442361
vt 0.8874359 0.9442361
vt 0.8874359 0.9764909
vt 0.9757654 0.9764909
vt 0.9757654 0.8881617
vt 0.9435104 0.8881617
vt 0.9270067 0.930155
vt 0.8804004 0.930155
vt 0.8875388 0.9396731
vt 0.9365245 0.9396731
vt 0.8774827 0.9296603
vt 0.8774827 0.9809004
vt 0.8853633 0.9712747
vt 0.8853633 0.9401678
vt 0.9295002 0.9274567
vt 0.9388767 0.9368333
vt 0.9388767 0.8885754
vt 0.9295002 0.8815429
vt 0.9289348 0.8782083
vt 0.9394422 0.8860891
vt 0.9705492 0.8860891
vt 0.9801747 0.8782083
vn 0 0 1
vn 0 0 1
vn 0 0 1
vn 0 0 1
vn 0 0 1
vn 0 0 1
vn 0 0 1
vn 0 0 1
vn 0 0 1
vn 0 0 1
vn 0 0 1
vn 0 0 1
vn 0 1 0
vn 0 1 0
vn 0 1 0
vn 0 1 0
vn 0 1 0
vn 0 1 0
vn 0 0.8806115 -0.473839
vn 0 0.8806115 -0.473839
vn 0 0.8806115 -0.473839
vn 0 0.8806115 -0.473839
vn 0.5829355 0.8125185 0
vn 0.5829354 0.8125185 0
vn 0.5829354 0.8125185 0
vn 0.5829354 0.8125185 0
vn 0 1 0
vn 0 1 0
vn 0 1 0
vn 0 1 0
vn 0 1 0
vn 0 1 0
vn 0 1 0
vn 0 1 0
vn 0 1 0
vn 0 1 0
vn 0 1 0
vn 0 1 0
vn 0 1 0
vn 0 1 0
vn 0 1 0
vn 0 1 0
vn 0 1 0
vn 0 1 0
vn 0 1 0
vn 0 1 0
vn 0 1 0
vn -1 5.253409E-07 0
vn -1 1.271898E-06 0
vn -1 0 0
vn -1 0 0
vn -1 1.935965E-06 0
vn -1 1.935965E-06 0
vn -1 0 0
vn -1 4.596733E-07 0
vn -1 0 0
vn -1 1.112911E-06 0
vn -1 1.693969E-06 0
vn -1 1.693969E-06 0
vn 0.473839 0.8806115 0
vn 0.4738391 0.8806115 0
vn 0.473839 0.8806115 0
vn 0.473839 0.8806115 0
vn 0 0.8125194 -0.5829341
vn 0 0.8125194 -0.5829341
vn 0 0.8125194 -0.5829341
vn 0 0.8125194 -0.5829341
vn 0 0 -1
vn 0 0 -1
vn 0 0 -1
vn 0 0 -1
vn 0 0 -1
vn 0 0 -1
vn 0 0 -1
vn 0 0 -1
vn 0 0 -1
vn 0 0 -1
vn 0 0 -1
vn 0 0 -1
vn 0 1 0
vn 0 1 0
vn 0 1 0
vn 0 1 0
vn 0 1 0
vn 0 1 0
vn 0 0.8806115 0.473839
vn 0 0.8806115 0.473839
vn 0 0.8806115 0.473839
vn 0 0.8806115 0.473839
vn 0.5829353 0.8125186 0
vn 0.5829353 0.8125186 0
vn 0.5829352 0.8125187 0
vn 0.5829352 0.8125187 0
vn 0.473839 0.8806115 0
vn 0.473839 0.8806115 0
vn 0.473839 0.8806115 0
vn 0.4738391 0.8806115 0
vn 0 0.8125194 0.5829341
vn 0 0.8125194 0.5829341
vn 0 0.8125194 0.5829341
vn 0 0.8125194 0.5829341
vn 0 1 0
vn 0 1 0
vn 0 1 0
vn 0 1 0
vn 0 1 0
vn 0 1 0
vn 0 0.8806115 -0.473839
vn 0 0.8806115 -0.473839
vn 0 0.8806115 -0.473839
vn 0 0.8806115 -0.473839
vn -0.5829353 0.8125186 0
vn -0.5829353 0.8125186 0
vn -0.5829352 0.8125187 0
vn -0.5829352 0.8125187 0
vn 1 4.596733E-07 0
vn 1 0 0
vn 1 0 0
vn 1 1.112911E-06 0
vn 1 1.693969E-06 0
vn 1 1.693969E-06 0
vn 1 0 0
vn 1 5.253408E-07 0
vn 1 0 0
vn 1 1.271898E-06 0
vn 1 1.935965E-06 0
vn 1 1.935965E-06 0
vn -0.473839 0.8806115 0
vn -0.473839 0.8806115 0
vn -0.473839 0.8806115 0
vn -0.4738391 0.8806115 0
vn 0 0.8125194 -0.5829341
vn 0 0.8125194 -0.5829341
vn 0 0.8125194 -0.5829341
vn 0 0.8125194 -0.5829341
vn 0 1 0
vn 0 1 0
vn 0 1 0
vn 0 1 0
vn 0 1 0
vn 0 1 0
vn 0 0.8806115 0.473839
vn 0 0.8806115 0.473839
vn 0 0.8806115 0.473839
vn 0 0.8806115 0.473839
vn -0.5829355 0.8125185 0
vn -0.5829354 0.8125185 0
vn -0.5829354 0.8125185 0
vn -0.5829354 0.8125185 0
vn -0.473839 0.8806115 0
vn -0.4738391 0.8806115 0
vn -0.473839 0.8806115 0
vn -0.473839 0.8806115 0
vn 0 0.8125194 0.5829341
vn 0 0.8125194 0.5829341
vn 0 0.8125194 0.5829341
vn 0 0.8125194 0.5829341
g hammer_down_0
f 3/3/3 2/2/2 1/1/1
f 4/4/4 3/3/3 1/1/1
f 4/4/4 1/1/1 5/5/5
f 6/6/6 4/4/4 5/5/5
f 2/2/2 7/7/7 1/1/1
f 7/7/7 8/8/8 1/1/1
f 7/7/7 9/9/9 8/8/8
f 9/9/9 10/10/10 8/8/8
f 8/8/8 10/10/10 11/11/11
f 10/10/10 12/12/12 11/11/11
f 15/15/15 14/14/14 13/13/13
f 16/16/16 15/15/15 13/13/13
f 17/17/17 16/16/16 13/13/13
f 18/18/18 17/17/17 13/13/13
f 21/21/21 20/20/20 19/19/19
f 22/22/22 21/21/21 19/19/19
f 25/25/25 24/24/24 23/23/23
f 26/26/26 25/25/25 23/23/23
f 29/29/29 28/28/28 27/27/27
f 30/30/30 29/29/29 27/27/27
f 27/27/27 28/28/28 31/31/31
f 32/32/32 27/27/27 31/31/31
f 31/31/31 33/33/33 32/32/32
f 34/34/34 32/32/32 33/33/33
f 35/35/35 34/34/34 33/33/33
f 33/33/33 36/36/36 35/35/35
f 35/35/35 37/37/37 34/34/34
f 37/37/37 38/38/38 34/34/34
f 33/33/33 31/31/31 39/39/39
f 33/33/33 39/39/39 40/40/40
f 40/40/40 41/41/41 33/33/33
f 42/42/42 40/40/40 39/39/39
f 43/43/43 42/42/42 39/39/39
f 44/44/44 36/36/36 33/33/33
f 33/33/33 45/45/45 44/44/44
f 33/33/33 41/41/41 45/45/45
f 45/45/45 46/46/46 44/44/44
f 46/46/46 47/47/47 44/44/44
f 50/50/50 49/49/49 48/48/48
f 51/51/51 50/50/50 48/48/48
f 48/48/48 49/49/49 52/52/52
f 49/49/49 53/53/53 52/52/52
f 54/54/54 51/51/51 48/48/48
f 55/55/55 54/54/54 48/48/48
f 56/56/56 54/54/54 55/55/55
f 57/57/57 56/56/56 55/55/55
f 57/57/57 55/55/55 58/58/58
f 59/59/59 57/57/57 58/58/58
f 62/62/62 61/61/61 60/60/60
f 63/63/63 62/62/62 60/60/60
f 66/66/66 65/65/65 64/64/64
f 67/67/67 66/66/66 64/64/64
f 70/70/70 69/69/69 68/68/68
f 71/71/71 70/70/70 68/68/68
f 68/68/68 69/69/69 72/72/72
f 69/69/69 73/73/73 72/72/72
f 74/74/74 71/71/71 68/68/68
f 75/75/75 74/74/74 68/68/68
f 76/76/76 74/74/74 75/75/75
f 77/77/77 76/76/76 75/75/75
f 77/77/77 75/75/75 78/78/78
f 79/79/79 77/77/77 78/78/78
f 82/82/82 81/81/81 80/80/80
f 83/83/83 82/82/82 80/80/80
f 81/81/81 84/84/84 80/80/80
f 84/84/84 85/85/85 80/80/80
f 88/88/88 87/87/87 86/86/86
f 89/89/89 88/88/88 86/86/86
f 92/92/92 91/91/91 90/90/90
f 93/93/93 92/92/92 90/90/90
f 96/96/96 95/95/95 94/94/94
f 97/97/97 96/96/96 94/94/94
f 100/100/100 99/99/99 98/98/98
f 101/101/101 100/100/100 98/98/98
f 104/104/104 103/103/103 102/102/102
f 105/105/105 104/104/104 102/102/102
f 103/103/103 106/106/106 102/102/102
f 106/106/106 107/107/107 102/102/102
f 110/110/110 109/109/109 108/108/108
f 111/111/111 110/110/110 108/108/108
f 114/114/114 113/113/113 112/112/112
f 115/115/115 114/114/114 112/112/112
f 118/118/118 117/117/117 116/116/116
f 119/119/119 118/118/118 116/116/116
f 119/119/119 116/116/116 120/120/120
f 121/121/121 119/119/119 120/120/120
f 117/117/117 122/122/122 116/116/116
f 122/122/122 123/123/123 116/116/116
f 122/122/122 124/124/124 123/123/123
f 124/124/124 125/125/125 123/123/123
f 123/123/123 125/125/125 126/126/126
f 125/125/125 127/127/127 126/126/126
f 130/130/130 129/129/129 128/128/128
f 131/131/131 130/130/130 128/128/128
f 134/134/134 133/133/133 132/132/132
f 135/135/135 134/134/134 132/132/132
f 138/138/138 137/137/137 136/136/136
f 139/139/139 138/138/138 136/136/136
f 140/140/140 139/139/139 136/136/136
f 141/141/141 140/140/140 136/136/136
f 144/144/144 143/143/143 142/142/142
f 145/145/145 144/144/144 142/142/142
f 148/148/148 147/147/147 146/146/146
f 149/149/149 148/148/148 146/146/146
f 152/152/152 151/151/151 150/150/150
f 153/153/153 152/152/152 150/150/150
f 156/156/156 155/155/155 154/154/154
f 157/157/157 156/156/156 154/154/154
