g HoverBlock
v 0.7 0.5 -0.5
v 0.7 0.5 0.5
v -0.7 0.5 0.5
v -0.7 0.5 -0.5
v 0.7 -0.5 -0.5
v 0.7 0.5 -0.5
v -0.7 0.5 -0.5
v -0.7 -0.5 -0.5
v 0.7 -0.5 0.5
v 0.7 -0.5 -0.5
v -0.7 -0.5 -0.5
v -0.7 -0.5 0.5
v -0.7 0.5 0.5
v 0.7 0.5 0.5
v 0.7 -0.5 0.5
v -0.7 -0.5 0.5
v 1.1 -0.5 0.6
v 0.7 -0.5 0.6
v 0.7 0.5 0.6
v 1.1 0.5 0.6
v 1.1 0.6 0.6
v 0.7 0.6 0.6
v 1.1 -0.6 0.6
v 0.7 -0.6 0.6
v 1.1 0.5 0.5000001
v 0.9999999 0.5 0.5000001
v 0.9999999 -0.5 0.5000001
v 1.1 -0.5 0.5000001
v 1.1 0.6 0.6
v 1.1 0.6 0.5000001
v 1.1 0.5 0.5000001
v 1.1 0.5 0.6
v 1.1 0.6 -0.5000001
v 1.1 0.5 -0.5000001
v 1.1 -0.5 0.5000001
v 1.1 -0.5 0.6
v 1.1 -0.6 0.6
v 1.1 -0.6 0.5000001
v 1.1 0.6 -0.6
v 1.1 0.5 -0.6
v 1.1 -0.5 -0.6
v 1.1 -0.5 -0.5000001
v 1.1 -0.6 -0.6
v 1.1 -0.6 -0.5000001
v 1.1 0.6 0.5000001
v 0.7 0.6 0.5
v 0.7 0.6 -0.5
v 1.1 0.6 -0.5000001
v 0.7 0.6 0.6
v 1.1 0.6 0.6
v 0.7 0.6 -0.6
v 1.1 0.6 -0.6
v 0.7 0.6 0.6
v 0.7 0.5 0.6
v 0.7 0.5 0.5
v 0.7 0.6 0.5
v 0.7 -0.5 0.5
v 0.7 -0.5 0.6
v 0.7 0.5 -0.5
v 0.7 0.6 -0.5
v 0.7 -0.6 0.6
v 0.7 -0.6 0.5
v 0.7 -0.6 -0.5
v 0.7 -0.5 -0.5
v 0.7 0.6 -0.6
v 0.7 0.5 -0.6
v 0.7 -0.5 -0.6
v 0.7 -0.6 -0.6
v -1.1 0.6000001 0.5000001
v -1.1 0.5000001 0.5000001
v -1.1 0.5000001 -0.5
v -1.1 0.6000001 -0.5
v -1.1 0.6000001 -0.6
v -1.1 0.5000001 -0.6
v -1.1 -0.4999999 -0.5
v -1.1 -0.4999999 -0.6
v -1.1 -0.5999999 -0.6
v -1.1 -0.5999999 -0.5
v -1.1 0.6000001 0.6
v -1.1 0.5000001 0.6
v -1.1 -0.4999999 0.6
v -1.1 -0.4999999 0.5000001
v -1.1 -0.5999999 0.5000001
v -1.1 -0.5999999 0.6
v -1.1 0.6000001 -0.5
v -1.1 0.6000001 -0.6
v -0.7 0.6 -0.6
v -0.7 0.6 -0.5
v -0.7 0.6 0.5
v -1.1 0.6000001 0.5000001
v -0.7 0.6 0.6
v -1.1 0.6000001 0.6
v -0.7 0.6 -0.6
v -0.7 0.5 -0.6
v -0.7 0.5 -0.5
v -0.7 0.6 -0.5
v -0.7 -0.4999999 -0.6
v -0.7 -0.5 -0.5
v -0.7 -0.6 -0.6
v -0.7 -0.6 -0.5
v -0.7 0.5 0.5
v -0.7 0.6 0.5
v -0.7 0.6 0.6
v -0.7 0.5 0.6
v -0.7 -0.6 0.5
v -0.7 -0.5 0.5
v -0.7 -0.4999999 0.6
v -0.7 -0.6 0.6
v -0.7 0.5 -0.6
v -0.7 0.6 -0.6
v -1.1 0.6000001 -0.6
v -1.1 0.5000001 -0.6
v -0.7 -0.4999999 -0.6
v -1.1 -0.4999999 -0.6
v -1.1 -0.5999999 -0.6
v -0.7 -0.6 -0.6
v -0.9999999 -0.5 0.5000001
v -1.1 -0.4999999 0.5000001
v -1.1 -0.4999999 -0.5
v -0.9999999 -0.5 -0.5000001
v -1.1 -0.5999999 -0.5
v -0.7 -0.6 -0.5
v -0.7 -0.6 -0.6
v -1.1 -0.5999999 -0.6
v -1.1 -0.5999999 0.5000001
v -0.7 -0.6 0.5
v -0.7 -0.6 0.6
v -1.1 -0.5999999 0.6
v -0.9999999 -0.5 -0.5000001
v -1.1 -0.4999999 -0.5
v -1.1 0.5000001 -0.5
v -0.9999999 0.5 -0.5000001
v 1.1 -0.5 0.5000001
v 0.9999999 -0.5 0.5000001
v 0.9999999 -0.5 -0.5000001
v 1.1 -0.5 -0.5000001
v 0.7 -0.6 0.5
v 1.1 -0.6 0.5000001
v 1.1 -0.6 -0.5000001
v 0.7 -0.6 -0.5
v 0.7 -0.6 0.6
v 1.1 -0.6 0.6
v 0.7 -0.6 -0.6
v 1.1 -0.6 -0.6
v -0.7 0.5 0.6
v -1.1 0.5000001 0.6
v -1.1 0.6000001 0.6
v -0.7 0.6 0.6
v -0.7 -0.4999999 0.6
v -1.1 -0.4999999 0.6
v -1.1 -0.5999999 0.6
v -0.7 -0.6 0.6
v 1.1 -0.5 -0.6
v 1.1 0.5 -0.6
v 0.7 0.5 -0.6
v 0.7 -0.5 -0.6
v 1.1 0.6 -0.6
v 0.7 0.6 -0.6
v 1.1 -0.6 -0.6
v 0.7 -0.6 -0.6
v 0.9999999 0.5 -0.5000001
v 1.1 0.5 -0.5000001
v 1.1 -0.5 -0.5000001
v 0.9999999 -0.5 -0.5000001
v -1.1 0.5000001 0.5000001
v -0.9999999 0.5 0.5000001
v -0.9999999 0.5 -0.5000001
v -1.1 0.5000001 -0.5
v 0.9999999 0.5 0.5000001
v 1.1 0.5 0.5000001
v 1.1 0.5 -0.5000001
v 0.9999999 0.5 -0.5000001
v -1.1 -0.4999999 0.5000001
v -0.9999999 -0.5 0.5000001
v -0.9999999 0.5 0.5000001
v -1.1 0.5000001 0.5000001
v 0.9999999 -0.5 -0.5000001
v 0.9999999 -0.5 0.5000001
v 0.9999999 0.5 0.5000001
v 0.9999999 0.5 -0.5000001
v -0.9999999 -0.5 -0.5000001
v -0.9999999 0.5 -0.5000001
v -0.9999999 0.5 0.5000001
v -0.9999999 -0.5 0.5000001
vt 0.9991562 0.7139241
vt 0.9991563 0.0008437281
vt 0.0008437281 0.0008437281
vt 0.0008437281 0.7139241
vt 0.0008437634 0.0008437037
vt 0.0008437037 0.7139241
vt 0.9991562 0.7139241
vt 0.9991563 0.0008437634
vt 0.9991562 0.7139241
vt 0.9991563 0.0008437281
vt 0.0008437281 0.0008437281
vt 0.0008437281 0.7139241
vt 0.9991562 0.0008437634
vt 0.0008437037 0.0008437037
vt 0.0008437037 0.7139241
vt 0.9991562 0.7139241
vt 0.5417295 0.7062649
vt 0.5417296 0.8710428
vt 0.9536746 0.8710428
vt 0.9536746 0.7062649
vt 0.9948692 0.7062649
vt 0.9948692 0.8710428
vt 0.500535 0.7062649
vt 0.500535 0.8710428
vt 0.830299 0.9210559
vt 0.830299 0.8798612
vt 0.4183534 0.8798612
vt 0.4183534 0.9210558
vt 0.4970763 0.5215707
vt 0.4970763 0.4803761
vt 0.4558816 0.4803761
vt 0.4558816 0.5215707
vt 0.4970758 0.06843075
vt 0.4558812 0.06843081
vt 0.0439364 0.4803761
vt 0.0439364 0.5215706
vt 0.002741843 0.5215706
vt 0.002741814 0.4803761
vt 0.4970758 0.02723607
vt 0.4558812 0.02723619
vt 0.04393616 0.02723676
vt 0.04393625 0.06843123
vt 0.002741694 0.02723676
vt 0.002741754 0.06843132
vt 0.9539733 0.6906774
vt 0.9539732 0.5258996
vt 0.5420282 0.5258996
vt 0.5420282 0.6906774
vt 0.9951677 0.5258996
vt 0.9951677 0.6906774
vt 0.5008336 0.5258996
vt 0.5008336 0.6906774
vt 0.9957395 0.02723607
vt 0.9545448 0.02723607
vt 0.9545448 0.06843081
vt 0.9957395 0.06843081
vt 0.5425997 0.06843099
vt 0.5425997 0.02723637
vt 0.9545448 0.4803757
vt 0.9957393 0.4803756
vt 0.501405 0.02723637
vt 0.501405 0.06843105
vt 0.5014054 0.4803759
vt 0.5426 0.4803759
vt 0.9957393 0.5215702
vt 0.9545448 0.5215703
vt 0.5426001 0.5215706
vt 0.5014055 0.5215706
vt 0.002741814 0.4803761
vt 0.0439364 0.4803761
vt 0.04393625 0.06843123
vt 0.002741754 0.06843132
vt 0.002741694 0.02723676
vt 0.04393616 0.02723676
vt 0.4558812 0.06843081
vt 0.4558812 0.02723619
vt 0.4970758 0.02723607
vt 0.4970758 0.06843075
vt 0.002741843 0.5215706
vt 0.0439364 0.5215706
vt 0.4558816 0.5215707
vt 0.4558816 0.4803761
vt 0.4970763 0.4803761
vt 0.4970763 0.5215707
vt 0.04739538 0.7062649
vt 0.00620079 0.7062649
vt 0.00620079 0.8710428
vt 0.04739538 0.8710428
vt 0.4593405 0.8710428
vt 0.4593405 0.7062649
vt 0.500535 0.8710428
vt 0.500535 0.7062649
vt 0.5014055 0.5215706
vt 0.5426001 0.5215706
vt 0.5426 0.4803759
vt 0.5014054 0.4803759
vt 0.9545448 0.5215703
vt 0.9545448 0.4803757
vt 0.9957393 0.5215702
vt 0.9957393 0.4803756
vt 0.5425997 0.06843099
vt 0.501405 0.06843105
vt 0.501405 0.02723637
vt 0.5425997 0.02723637
vt 0.9957395 0.06843081
vt 0.9545448 0.06843081
vt 0.9545448 0.02723607
vt 0.9957395 0.02723607
vt 0.04769382 0.5258996
vt 0.006499231 0.5258996
vt 0.00649935 0.6906776
vt 0.04769382 0.6906776
vt 0.4596391 0.5258996
vt 0.4596391 0.6906774
vt 0.5008336 0.6906774
vt 0.5008336 0.5258996
vt 0.8307785 0.9771406
vt 0.8307787 0.9359459
vt 0.418833 0.9359457
vt 0.418833 0.9771405
vt 0.5420282 0.6906774
vt 0.5420282 0.5258996
vt 0.5008336 0.5258996
vt 0.5008336 0.6906774
vt 0.9539733 0.6906774
vt 0.9539732 0.5258996
vt 0.9951677 0.5258996
vt 0.9951677 0.6906774
vt 0.418833 0.9771405
vt 0.418833 0.9359457
vt 0.006889284 0.9359461
vt 0.006889343 0.9771405
vt 0.4183534 0.9210558
vt 0.4183534 0.8798612
vt 0.006409734 0.8798615
vt 0.006409794 0.9210559
vt 0.4593405 0.8710428
vt 0.4593405 0.7062649
vt 0.04739538 0.7062649
vt 0.04739538 0.8710428
vt 0.500535 0.8710428
vt 0.500535 0.7062649
vt 0.00620079 0.8710428
vt 0.00620079 0.7062649
vt 0.5417296 0.8710428
vt 0.5417295 0.7062649
vt 0.500535 0.7062649
vt 0.500535 0.8710428
vt 0.9536746 0.8710428
vt 0.9536746 0.7062649
vt 0.9948692 0.7062649
vt 0.9948692 0.8710428
vt 0.04769382 0.6906776
vt 0.4596391 0.6906774
vt 0.4596391 0.5258996
vt 0.04769382 0.5258996
vt 0.5008336 0.6906774
vt 0.5008336 0.5258996
vt 0.00649935 0.6906776
vt 0.006499231 0.5258996
vt 0.418833 0.9771405
vt 0.418833 0.9359457
vt 0.006889284 0.9359461
vt 0.006889343 0.9771405
vt 0.4183534 0.9210558
vt 0.4183534 0.8798612
vt 0.006409734 0.8798615
vt 0.006409794 0.9210559
vt 0.8307785 0.9771406
vt 0.8307787 0.9359459
vt 0.418833 0.9359457
vt 0.418833 0.9771405
vt 0.830299 0.9210559
vt 0.830299 0.8798612
vt 0.4183534 0.8798612
vt 0.4183534 0.9210558
vt 0.0009980039 0.0009980039
vt 0.0009980039 0.999002
vt 0.9990019 0.999002
vt 0.9990019 0.0009980039
vt 0.999002 0.000998123
vt 0.000998004 0.000998004
vt 0.000998004 0.9990021
vt 0.999002 0.9990021
vn 0 1 0
vn 0 1 0
vn 0 1 0
vn 0 1 0
vn 0 0 -1
vn 0 0 -1
vn 0 0 -1
vn 0 0 -1
vn 0 -1 0
vn 0 -1 0
vn 0 -1 0
vn 0 -1 0
vn 0 0 1
vn 0 0 1
vn 0 0 1
vn 0 0 1
vn 0 0 1
vn 0 0 1
vn 0 0 1
vn 0 0 1
vn 0 0 1
vn 0 0 1
vn 0 0 1
vn 0 0 1
vn 0 0 -1
vn 0 0 -1
vn 0 0 -1
vn 0 0 -1
vn 1 0 0
vn 1 0 0
vn 1 0 0
vn 1 0 0
vn 1 0 0
vn 1 0 0
vn 1 0 0
vn 1 0 0
vn 1 0 0
vn 1 0 0
vn 1 0 0
vn 1 0 0
vn 1 0 0
vn 1 0 0
vn 1 0 0
vn 1 0 0
vn 0 1 0
vn 0 1 0
vn 0 1 0
vn 0 1 0
vn 0 1 0
vn 0 1 0
vn 0 1 0
vn 0 1 0
vn -1 0 0
vn -1 0 0
vn -1 0 0
vn -1 0 0
vn -1 0 0
vn -1 0 0
vn -1 0 0
vn -1 0 0
vn -1 0 0
vn -1 0 0
vn -1 0 0
vn -1 0 0
vn -1 0 0
vn -1 0 0
vn -1 0 0
vn -1 0 0
vn -1 0 0
vn -1 0 0
vn -1 0 0
vn -1 0 0
vn -1 0 0
vn -1 0 0
vn -1 0 0
vn -1 0 0
vn -1 0 0
vn -1 0 0
vn -1 0 0
vn -1 0 0
vn -1 0 0
vn -1 0 0
vn -1 0 0
vn -1 0 0
vn 0 1 0
vn 0 1 0
vn 0 1 0
vn 0 1 0
vn 0 1 0
vn 0 1 0
vn 0 1 0
vn 0 1 0
vn 1 0 0
vn 1 0 0
vn 1 0 0
vn 1 0 0
vn 1 0 0
vn 1 0 0
vn 1 0 0
vn 1 0 0
vn 1 0 0
vn 1 0 0
vn 1 0 0
vn 1 0 0
vn 1 0 0
vn 1 0 0
vn 1 0 0
vn 1 0 0
vn 0 0 -1
vn 0 0 -1
vn 0 0 -1
vn 0 0 -1
vn 0 0 -1
vn 0 0 -1
vn 0 0 -1
vn 0 0 -1
vn 0 1 0
vn 0 1 0
vn 0 1 0
vn 0 1 0
vn 0 -1 0
vn 0 -1 0
vn 0 -1 0
vn 0 -1 0
vn 0 -1 0
vn 0 -1 0
vn 0 -1 0
vn 0 -1 0
vn 0 0 1
vn 0 0 1
vn 0 0 1
vn 0 0 1
vn 0 1 0
vn 0 1 0
vn 0 1 0
vn 0 1 0
vn 0 -1 0
vn 0 -1 0
vn 0 -1 0
vn 0 -1 0
vn 0 -1 0
vn 0 -1 0
vn 0 -1 0
vn 0 -1 0
vn 0 0 1
vn 0 0 1
vn 0 0 1
vn 0 0 1
vn 0 0 1
vn 0 0 1
vn 0 0 1
vn 0 0 1
vn 0 0 -1
vn 0 0 -1
vn 0 0 -1
vn 0 0 -1
vn 0 0 -1
vn 0 0 -1
vn 0 0 -1
vn 0 0 -1
vn 0 0 1
vn 0 0 1
vn 0 0 1
vn 0 0 1
vn 0 -1 0
vn 0 -1 0
vn 0 -1 0
vn 0 -1 0
vn 0 -1 0
vn 0 -1 0
vn 0 -1 0
vn 0 -1 0
vn 0 0 -1
vn 0 0 -1
vn 0 0 -1
vn 0 0 -1
vn 1 0 0
vn 1 0 0
vn 1 0 0
vn 1 0 0
vn -1 0 0
vn -1 0 0
vn -1 0 0
vn -1 0 0
g HoverBlock_0
f 3/3/3 2/2/2 1/1/1
f 4/4/4 3/3/3 1/1/1
f 7/7/7 6/6/6 5/5/5
f 8/8/8 7/7/7 5/5/5
f 11/11/11 10/10/10 9/9/9
f 12/12/12 11/11/11 9/9/9
f 15/15/15 14/14/14 13/13/13
f 16/16/16 15/15/15 13/13/13
g HoverBlock_1
f 19/19/19 18/18/18 17/17/17
f 20/20/20 19/19/19 17/17/17
f 20/20/20 21/21/21 19/19/19
f 21/21/21 22/22/22 19/19/19
f 23/23/23 17/17/17 18/18/18
f 24/24/24 23/23/23 18/18/18
f 27/27/27 26/26/26 25/25/25
f 28/28/28 27/27/27 25/25/25
f 31/31/31 30/30/30 29/29/29
f 32/32/32 31/31/31 29/29/29
f 33/33/33 30/30/30 31/31/31
f 34/34/34 33/33/33 31/31/31
f 35/35/35 31/31/31 32/32/32
f 36/36/36 35/35/35 32/32/32
f 35/35/35 36/36/36 37/37/37
f 38/38/38 35/35/35 37/37/37
f 33/33/33 34/34/34 39/39/39
f 34/34/34 40/40/40 39/39/39
f 41/41/41 40/40/40 34/34/34
f 42/42/42 41/41/41 34/34/34
f 42/42/42 35/35/35 38/38/38
f 41/41/41 42/42/42 43/43/43
f 42/42/42 44/44/44 43/43/43
f 44/44/44 42/42/42 38/38/38
f 47/47/47 46/46/46 45/45/45
f 48/48/48 47/47/47 45/45/45
f 46/46/46 49/49/49 45/45/45
f 49/49/49 50/50/50 45/45/45
f 51/51/51 47/47/47 48/48/48
f 52/52/52 51/51/51 48/48/48
f 55/55/55 54/54/54 53/53/53
f 56/56/56 55/55/55 53/53/53
f 54/54/54 55/55/55 57/57/57
f 58/58/58 54/54/54 57/57/57
f 59/59/59 55/55/55 56/56/56
f 60/60/60 59/59/59 56/56/56
f 58/58/58 57/57/57 61/61/61
f 57/57/57 62/62/62 61/61/61
f 63/63/63 62/62/62 57/57/57
f 64/64/64 63/63/63 57/57/57
f 59/59/59 60/60/60 65/65/65
f 66/66/66 59/59/59 65/65/65
f 59/59/59 66/66/66 64/64/64
f 66/66/66 67/67/67 64/64/64
f 64/64/64 67/67/67 68/68/68
f 63/63/63 64/64/64 68/68/68
f 71/71/71 70/70/70 69/69/69
f 72/72/72 71/71/71 69/69/69
f 71/71/71 72/72/72 73/73/73
f 74/74/74 71/71/71 73/73/73
f 71/71/71 74/74/74 75/75/75
f 74/74/74 76/76/76 75/75/75
f 75/75/75 76/76/76 77/77/77
f 78/78/78 75/75/75 77/77/77
f 69/69/69 70/70/70 79/79/79
f 70/70/70 80/80/80 79/79/79
f 80/80/80 70/70/70 81/81/81
f 70/70/70 82/82/82 81/81/81
f 75/75/75 78/78/78 82/82/82
f 78/78/78 83/83/83 82/82/82
f 82/82/82 83/83/83 84/84/84
f 81/81/81 82/82/82 84/84/84
f 87/87/87 86/86/86 85/85/85
f 88/88/88 87/87/87 85/85/85
f 88/88/88 85/85/85 89/89/89
f 85/85/85 90/90/90 89/89/89
f 91/91/91 89/89/89 90/90/90
f 92/92/92 91/91/91 90/90/90
f 95/95/95 94/94/94 93/93/93
f 96/96/96 95/95/95 93/93/93
f 97/97/97 94/94/94 95/95/95
f 98/98/98 97/97/97 95/95/95
f 97/97/97 98/98/98 99/99/99
f 98/98/98 100/100/100 99/99/99
f 95/95/95 96/96/96 101/101/101
f 96/96/96 102/102/102 101/101/101
f 101/101/101 102/102/102 103/103/103
f 104/104/104 101/101/101 103/103/103
f 100/100/100 98/98/98 105/105/105
f 98/98/98 106/106/106 105/105/105
f 107/107/107 106/106/106 101/101/101
f 104/104/104 107/107/107 101/101/101
f 106/106/106 107/107/107 108/108/108
f 105/105/105 106/106/106 108/108/108
f 111/111/111 110/110/110 109/109/109
f 112/112/112 111/111/111 109/109/109
f 109/109/109 113/113/113 112/112/112
f 113/113/113 114/114/114 112/112/112
f 115/115/115 114/114/114 113/113/113
f 116/116/116 115/115/115 113/113/113
f 119/119/119 118/118/118 117/117/117
f 120/120/120 119/119/119 117/117/117
f 123/123/123 122/122/122 121/121/121
f 124/124/124 123/123/123 121/121/121
f 121/121/121 122/122/122 125/125/125
f 122/122/122 126/126/126 125/125/125
f 126/126/126 127/127/127 125/125/125
f 127/127/127 128/128/128 125/125/125
f 131/131/131 130/130/130 129/129/129
f 132/132/132 131/131/131 129/129/129
f 135/135/135 134/134/134 133/133/133
f 136/136/136 135/135/135 133/133/133
f 139/139/139 138/138/138 137/137/137
f 140/140/140 139/139/139 137/137/137
f 141/141/141 137/137/137 138/138/138
f 142/142/142 141/141/141 138/138/138
f 140/140/140 143/143/143 139/139/139
f 143/143/143 144/144/144 139/139/139
f 147/147/147 146/146/146 145/145/145
f 148/148/148 147/147/147 145/145/145
f 149/149/149 145/145/145 146/146/146
f 150/150/150 149/149/149 146/146/146
f 150/150/150 151/151/151 149/149/149
f 151/151/151 152/152/152 149/149/149
f 155/155/155 154/154/154 153/153/153
f 156/156/156 155/155/155 153/153/153
f 157/157/157 154/154/154 155/155/155
f 158/158/158 157/157/157 155/155/155
f 153/153/153 159/159/159 156/156/156
f 159/159/159 160/160/160 156/156/156
f 163/163/163 162/162/162 161/161/161
f 164/164/164 163/163/163 161/161/161
f 167/167/167 166/166/166 165/165/165
f 168/168/168 167/167/167 165/165/165
f 171/171/171 170/170/170 169/169/169
f 172/172/172 171/171/171 169/169/169
f 175/175/175 174/174/174 173/173/173
f 176/176/176 175/175/175 173/173/173
g HoverBlock_2
f 179/179/179 178/178/178 177/177/177
f 180/180/180 179/179/179 177/177/177
f 183/183/183 182/182/182 181/181/181
f 184/184/184 183/183/183 181/181/181
