g leg
v 0.5 -1.420875 0.2029753
v 0.5 0.626219 0.2029753
v 0.5 0.626219 -0.02799439
v 0.5 -1.420875 -0.02799439
v 0.1303866 -1.065264 -0.4359734
v 0.1303866 0.626219 -0.4359734
v 0.5 0.626219 0.2029753
v -0.5 0.626219 0.2029753
v -0.5 0.626219 -0.02799439
v 0.5 0.626219 -0.02799439
v 0.1303866 0.626219 -0.4359734
v -0.1303866 0.626219 -0.4359734
v -0.5 0.626219 0.2029753
v -0.5 -1.420875 0.2029753
v -0.5 -1.420875 -0.02799439
v -0.5 0.626219 -0.02799439
v -0.1303866 0.626219 -0.4359734
v -0.1303866 -1.065264 -0.4359734
v -0.5 -1.420875 0.2029753
v 0.5 -1.420875 0.2029753
v 0.5 -1.420875 -0.02799439
v -0.5 -1.420875 -0.02799439
v -0.1303866 -1.065264 -0.4359734
v 0.1303866 -1.065264 -0.4359734
v 0.1303866 -1.065264 -0.4359734
v 0.1303866 0.626219 -0.4359734
v -0.1303866 0.626219 -0.4359734
v -0.1303866 -1.065264 -0.4359734
v -0.5 -1.420875 0.2029753
v -0.5 0.626219 0.2029753
v 0.5 0.626219 0.2029753
v 0.5 -1.420875 0.2029753
vt 0.733737 0.1553805
vt 0.733737 0.3023986
vt 0.7501479 0.3023986
vt 0.7501479 0.1553805
vt 0.7791356 0.1809198
vt 0.7791356 0.3023986
vt 0.9194898 0.9101599
vt 0.9194898 0.8455963
vt 0.9044734 0.8455963
vt 0.9044734 0.9101599
vt 0.8779488 0.8862963
vt 0.8779488 0.8694599
vt 0.7269162 0.004882813
vt 0.7269162 0.1504512
vt 0.7434905 0.1504512
vt 0.7434905 0.004882813
vt 0.7727669 0.004882813
vt 0.7727669 0.1251638
vt 0.4540831 0.8887766
vt 0.5245438 0.8887766
vt 0.5245438 0.8726497
vt 0.4540831 0.8726497
vt 0.4801263 0.8441634
vt 0.4985005 0.8441634
vt 0.9646708 0.6144646
vt 0.9646708 0.7235563
vt 0.981643 0.7235563
vt 0.981643 0.6144646
vt 0.2004779 0.4857495
vt 0.06724467 0.4857495
vt 0.06724467 0.5502442
vt 0.2004779 0.5502442
vn 1 0 0
vn 1 0 0
vn 0.8727879 0 -0.4880997
vn 0.9090565 0 -0.4166729
vn 0.7410932 0 -0.6714022
vn 0.7410932 0 -0.6714022
vn 0 1 0
vn 0 1 0
vn 0 1 0
vn 0 1 0
vn 0 1 0
vn 0 1 0
vn -1 0 0
vn -1 0 0
vn -0.9090565 0 -0.4166729
vn -0.8727879 0 -0.4880997
vn -0.7410932 0 -0.6714022
vn -0.7410932 0 -0.6714022
vn 0 -1 0
vn 0 -1 0
vn 0 -0.9422324 -0.3349599
vn 0 -0.9422324 -0.3349599
vn 0 -0.7538299 -0.6570696
vn 0 -0.7538299 -0.6570696
vn 0 0 -1
vn 0 0 -1
vn 0 0 -1
vn 0 0 -1
vn 0 0 1
vn 0 0 1
vn 0 0 1
vn 0 0 1
g leg_0
f 3/3/3 2/2/2 1/1/1
f 4/4/4 3/3/3 1/1/1
f 4/4/4 5/5/5 3/3/3
f 5/5/5 6/6/6 3/3/3
f 9/9/9 8/8/8 7/7/7
f 10/10/10 9/9/9 7/7/7
f 10/10/10 11/11/11 9/9/9
f 11/11/11 12/12/12 9/9/9
f 15/15/15 14/14/14 13/13/13
f 16/16/16 15/15/15 13/13/13
f 16/16/16 17/17/17 15/15/15
f 17/17/17 18/18/18 15/15/15
f 21/21/21 20/20/20 19/19/19
f 22/22/22 21/21/21 19/19/19
f 22/22/22 23/23/23 21/21/21
f 23/23/23 24/24/24 21/21/21
f 27/27/27 26/26/26 25/25/25
f 28/28/28 27/27/27 25/25/25
f 31/31/31 30/30/30 29/29/29
f 32/32/32 31/31/31 29/29/29
