g leg
v 0.5 -1.420875 0.2029753
v 0.5 0.626219 0.2029753
v 0.5 0.626219 -0.02799439
v 0.5 -1.420875 -0.02799439
v 0.1303866 -1.065264 -0.4359734
v 0.1303866 0.626219 -0.4359734
v 0.5 0.626219 0.2029753
v -0.5 0.626219 0.2029753
v -0.5 0.626219 -0.02799439
v 0.5 0.626219 -0.02799439
v 0.1303866 0.626219 -0.4359734
v -0.1303866 0.626219 -0.4359734
v -0.5 0.626219 0.2029753
v -0.5 -1.420875 0.2029753
v -0.5 -1.420875 -0.02799439
v -0.5 0.626219 -0.02799439
v -0.1303866 0.626219 -0.4359734
v -0.1303866 -1.065264 -0.4359734
v -0.5 -1.420875 0.2029753
v 0.5 -1.420875 0.2029753
v 0.5 -1.420875 -0.02799439
v -0.5 -1.420875 -0.02799439
v -0.1303866 -1.065264 -0.4359734
v 0.1303866 -1.065264 -0.4359734
v 0.1303866 -1.065264 -0.4359734
v 0.1303866 0.626219 -0.4359734
v -0.1303866 0.626219 -0.4359734
v -0.1303866 -1.065264 -0.4359734
v -0.5 -1.420875 0.2029753
v -0.5 0.626219 0.2029753
v 0.5 0.626219 0.2029753
v 0.5 -1.420875 0.2029753
vt 0.2153541 0.6095683
vt 0.2153541 0.7565866
vt 0.231765 0.7565866
vt 0.231765 0.6095683
vt 0.2607526 0.6351076
vt 0.2607526 0.7565866
vt 0.931227 0.7284719
vt 0.931227 0.6639772
vt 0.9161946 0.6639772
vt 0.9161946 0.7284719
vt 0.8896416 0.7046337
vt 0.8896416 0.6878153
vt 0.6889144 0.4657684
vt 0.6889144 0.6127867
vt 0.7053252 0.6127867
vt 0.7053252 0.4657684
vt 0.734313 0.4657684
vt 0.734313 0.5872474
vt 0.7317882 0.8906287
vt 0.8022574 0.8906287
vt 0.8022574 0.8745037
vt 0.7317882 0.8745037
vt 0.7578346 0.8460208
vt 0.776211 0.8460208
vt 0.9646708 0.1554525
vt 0.9646708 0.2657615
vt 0.9814556 0.2657615
vt 0.9814556 0.1554525
vt 0.4512227 0.5967907
vt 0.4512227 0.4633066
vt 0.3868492 0.4633066
vt 0.3868492 0.5967907
vn 1 0 0
vn 1 0 0
vn 0.8727879 0 -0.4880997
vn 0.9090565 0 -0.4166729
vn 0.7410932 0 -0.6714022
vn 0.7410932 0 -0.6714022
vn 0 1 0
vn 0 1 0
vn 0 1 0
vn 0 1 0
vn 0 1 0
vn 0 1 0
vn -1 0 0
vn -1 0 0
vn -0.9090565 0 -0.4166729
vn -0.8727879 0 -0.4880997
vn -0.7410932 0 -0.6714022
vn -0.7410932 0 -0.6714022
vn 0 -1 0
vn 0 -1 0
vn 0 -0.9422324 -0.3349599
vn 0 -0.9422324 -0.3349599
vn 0 -0.7538299 -0.6570696
vn 0 -0.7538299 -0.6570696
vn 0 0 -1
vn 0 0 -1
vn 0 0 -1
vn 0 0 -1
vn 0 0 1
vn 0 0 1
vn 0 0 1
vn 0 0 1
g leg_0
f 3/3/3 2/2/2 1/1/1
f 4/4/4 3/3/3 1/1/1
f 4/4/4 5/5/5 3/3/3
f 5/5/5 6/6/6 3/3/3
f 9/9/9 8/8/8 7/7/7
f 10/10/10 9/9/9 7/7/7
f 10/10/10 11/11/11 9/9/9
f 11/11/11 12/12/12 9/9/9
f 15/15/15 14/14/14 13/13/13
f 16/16/16 15/15/15 13/13/13
f 16/16/16 17/17/17 15/15/15
f 17/17/17 18/18/18 15/15/15
f 21/21/21 20/20/20 19/19/19
f 22/22/22 21/21/21 19/19/19
f 22/22/22 23/23/23 21/21/21
f 23/23/23 24/24/24 21/21/21
f 27/27/27 26/26/26 25/25/25
f 28/28/28 27/27/27 25/25/25
f 31/31/31 30/30/30 29/29/29
f 32/32/32 31/31/31 29/29/29
