g lowerleg
v 0.09545319 -1.648076 -0.02710199
v 0.09545323 -0.8211007 -0.02710199
v 0.09545323 -0.8211007 -0.3523479
v 0.09545319 -1.648076 -0.3523479
v -0.09545323 -0.8211007 -0.02710199
v -0.09545328 -1.648076 -0.02710199
v -0.09545328 -1.648076 -0.3523479
v -0.09545323 -0.8211007 -0.3523479
v -0.09545328 -1.648076 -0.02710199
v 0.09545319 -1.648076 -0.02710199
v 0.09545319 -1.648076 -0.3523479
v -0.09545328 -1.648076 -0.3523479
v 0.09545319 -1.648076 -0.3523479
v 0.09545323 -0.8211007 -0.3523479
v -0.09545323 -0.8211007 -0.3523479
v -0.09545328 -1.648076 -0.3523479
v -0.09545328 -1.648076 -0.02710199
v -0.09545323 -0.8211007 -0.02710199
v 0.09545323 -0.8211007 -0.02710199
v 0.09545319 -1.648076 -0.02710199
vt 0.06724467 0.3923385
vt 0.06724467 0.4456675
vt 0.08841556 0.4456675
vt 0.08841556 0.3923385
vt 0.9656452 0.926293
vt 0.9656452 0.9802172
vt 0.9865824 0.9802172
vt 0.9865824 0.926293
vt 0.977338 0.1409895
vt 0.9897497 0.1409895
vt 0.9897497 0.1199904
vt 0.977338 0.1199904
vt 0.9906149 0.8974601
vt 0.9906149 0.8435934
vt 0.9783124 0.8435934
vt 0.9783124 0.8974601
vt 0.9342073 0.7868
vt 0.9342073 0.7334012
vt 0.921797 0.7334012
vt 0.921797 0.7868
vn 1 0 0
vn 1 0 0
vn 1 0 0
vn 1 0 0
vn -1 0 0
vn -1 0 0
vn -1 0 0
vn -1 0 0
vn 0 -1 0
vn 0 -1 0
vn 0 -1 0
vn 0 -1 0
vn 0 0 -1
vn 0 0 -1
vn 0 0 -1
vn 0 0 -1
vn 0 0 1
vn 0 0 1
vn 0 0 1
vn 0 0 1
g lowerleg_0
f 3/3/3 2/2/2 1/1/1
f 4/4/4 3/3/3 1/1/1
f 7/7/7 6/6/6 5/5/5
f 8/8/8 7/7/7 5/5/5
f 11/11/11 10/10/10 9/9/9
f 12/12/12 11/11/11 9/9/9
f 15/15/15 14/14/14 13/13/13
f 16/16/16 15/15/15 13/13/13
f 19/19/19 18/18/18 17/17/17
f 20/20/20 19/19/19 17/17/17
