g lucker_attack
v -0.4034557 0.4034557 0
v -0.2409225 0.2409225 -0.6424599
v -0.07838899 0.4034557 0
v -0.2409225 0.2409225 -0.6424599
v -0.4034557 0.07838899 0
v -0.07838899 0.07838899 0
v -0.07838899 0.4034557 0
v -0.2409225 0.2409225 -0.6424599
v -0.07838899 0.07838899 0
v -0.4034557 0.07838899 0
v -0.2409225 0.2409225 -0.6424599
v -0.4034557 0.4034557 0
v -0.4034557 -0.07838893 0
v -0.2409225 -0.2409225 -0.6424599
v -0.07838899 -0.07838893 0
v -0.2409225 -0.2409225 -0.6424599
v -0.4034557 -0.4034557 0
v -0.07838899 -0.4034557 0
v -0.07838899 -0.07838893 0
v -0.2409225 -0.2409225 -0.6424599
v -0.07838899 -0.4034557 0
v -0.4034557 -0.4034557 0
v -0.2409225 -0.2409225 -0.6424599
v -0.4034557 -0.07838893 0
v 0.07838893 0.4034557 0
v 0.2409225 0.2409225 -0.6424599
v 0.4034557 0.4034557 0
v 0.2409225 0.2409225 -0.6424599
v 0.07838893 0.07838899 0
v 0.4034557 0.07838899 0
v 0.4034557 0.4034557 0
v 0.2409225 0.2409225 -0.6424599
v 0.4034557 0.07838899 0
v 0.07838893 0.07838899 0
v 0.2409225 0.2409225 -0.6424599
v 0.07838893 0.4034557 0
v 0.07838893 -0.07838893 0
v 0.2409225 -0.2409225 -0.6424599
v 0.4034557 -0.07838893 0
v 0.2409225 -0.2409225 -0.6424599
v 0.07838893 -0.4034557 0
v 0.4034557 -0.4034557 0
v 0.4034557 -0.07838893 0
v 0.2409225 -0.2409225 -0.6424599
v 0.4034557 -0.4034557 0
v 0.07838893 -0.4034557 0
v 0.2409225 -0.2409225 -0.6424599
v 0.07838893 -0.07838893 0
vt 0.09780991 0.09162146
vt 0.4986319 0.9083785
vt 0.09780991 0.09162146
vt 0.4986319 0.9083785
vt 0.914567 0.09162146
vt 0.914567 0.09162146
vt 0.09780991 0.09162146
vt 0.4986319 0.9083785
vt 0.914567 0.09162146
vt 0.914567 0.09162146
vt 0.4986319 0.9083785
vt 0.09780991 0.09162146
vt 0.09780991 0.09162146
vt 0.4986319 0.9083785
vt 0.09780991 0.09162146
vt 0.4986319 0.9083785
vt 0.9145669 0.09162146
vt 0.9145669 0.09162146
vt 0.09780991 0.09162146
vt 0.4986319 0.9083785
vt 0.9145669 0.09162146
vt 0.9145669 0.09162146
vt 0.4986319 0.9083785
vt 0.09780991 0.09162146
vt 0.09780991 0.09162146
vt 0.4986319 0.9083785
vt 0.09780991 0.09162146
vt 0.4986319 0.9083785
vt 0.914567 0.09162146
vt 0.914567 0.09162146
vt 0.09780991 0.09162146
vt 0.4986319 0.9083785
vt 0.914567 0.09162146
vt 0.914567 0.09162146
vt 0.4986319 0.9083785
vt 0.09780991 0.09162146
vt 0.09780991 0.09162146
vt 0.4986319 0.9083785
vt 0.09780991 0.09162146
vt 0.4986319 0.9083785
vt 0.9145669 0.09162146
vt 0.9145669 0.09162146
vt 0.09780991 0.09162146
vt 0.4986319 0.9083785
vt 0.9145669 0.09162146
vt 0.9145669 0.09162146
vt 0.4986319 0.9083785
vt 0.09780991 0.09162146
vn 0 0.9694575 -0.2452594
vn 0 0.9694575 -0.2452594
vn 0 0.9694575 -0.2452594
vn 0 -0.9694575 -0.2452594
vn 0 -0.9694575 -0.2452594
vn 0 -0.9694575 -0.2452594
vn 0.9694575 0 -0.2452594
vn 0.9694575 0 -0.2452594
vn 0.9694575 0 -0.2452594
vn -0.9694575 0 -0.2452594
vn -0.9694575 0 -0.2452594
vn -0.9694575 0 -0.2452594
vn 0 0.9694575 -0.2452594
vn 0 0.9694575 -0.2452594
vn 0 0.9694575 -0.2452594
vn 0 -0.9694575 -0.2452594
vn 0 -0.9694575 -0.2452594
vn 0 -0.9694575 -0.2452594
vn 0.9694575 0 -0.2452594
vn 0.9694575 0 -0.2452594
vn 0.9694575 0 -0.2452594
vn -0.9694575 0 -0.2452594
vn -0.9694575 0 -0.2452594
vn -0.9694575 0 -0.2452594
vn 0 0.9694575 -0.2452593
vn 0 0.9694575 -0.2452594
vn 0 0.9694575 -0.2452593
vn 0 -0.9694575 -0.2452594
vn 0 -0.9694575 -0.2452593
vn 0 -0.9694575 -0.2452593
vn 0.9694576 0 -0.2452593
vn 0.9694575 0 -0.2452593
vn 0.9694576 0 -0.2452593
vn -0.9694575 0 -0.2452593
vn -0.9694575 0 -0.2452594
vn -0.9694575 0 -0.2452593
vn 0 0.9694575 -0.2452593
vn 0 0.9694575 -0.2452594
vn 0 0.9694575 -0.2452593
vn 0 -0.9694575 -0.2452594
vn 0 -0.9694575 -0.2452593
vn 0 -0.9694575 -0.2452593
vn 0.9694576 0 -0.2452593
vn 0.9694575 0 -0.2452593
vn 0.9694576 0 -0.2452593
vn -0.9694575 0 -0.2452593
vn -0.9694575 0 -0.2452594
vn -0.9694575 0 -0.2452593
g lucker_attack_0
f 3/3/3 2/2/2 1/1/1
f 6/6/6 5/5/5 4/4/4
f 9/9/9 8/8/8 7/7/7
f 12/12/12 11/11/11 10/10/10
f 15/15/15 14/14/14 13/13/13
f 18/18/18 17/17/17 16/16/16
f 21/21/21 20/20/20 19/19/19
f 24/24/24 23/23/23 22/22/22
f 27/27/27 26/26/26 25/25/25
f 30/30/30 29/29/29 28/28/28
f 33/33/33 32/32/32 31/31/31
f 36/36/36 35/35/35 34/34/34
f 39/39/39 38/38/38 37/37/37
f 42/42/42 41/41/41 40/40/40
f 45/45/45 44/44/44 43/43/43
f 48/48/48 47/47/47 46/46/46
