g pb_Mesh469804
v 23.5 4.768372E-07 4
v 33.5 4.768372E-07 4
v 33.5 0 36
v -0.5 3.814697E-06 30
v -0.5 -2.980232E-08 0
v 7.5 3.814697E-06 30
v 23.5 -7.450581E-09 0
v 7.5 0 36
v 33.5 -11.5 36
v 7.5 -11.5 30
v 7.5 -11.5 36
v 23.5 -11.5 4
v -0.5000006 -11.5 3.876445E-07
v 23.5 -11.5 3.876445E-07
v -0.5000006 -11.5 30
v 33.5 -11.5 4
v 23.5 -11.5 4
v 33.5 -11.5 4
v 33.5 4.768372E-07 4
v 23.5 4.768372E-07 4
v 33.5 -11.5 4
v 33.5 -11.5 36
v 33.5 0 36
v 33.5 4.768372E-07 4
v -0.5000006 -11.5 30
v -0.5000006 -11.5 3.876445E-07
v -0.5 -2.980232E-08 0
v -0.5 3.814697E-06 30
v 7.5 -11.5 30
v -0.5000006 -11.5 30
v -0.5 3.814697E-06 30
v 7.5 3.814697E-06 30
v -0.5000006 -11.5 3.876445E-07
v 23.5 -11.5 3.876445E-07
v 23.5 -7.450581E-09 0
v -0.5 -2.980232E-08 0
v 23.5 -11.5 3.876445E-07
v 23.5 -11.5 4
v 23.5 4.768372E-07 4
v 23.5 -7.450581E-09 0
v 7.5 -11.5 36
v 7.5 -11.5 30
v 7.5 3.814697E-06 30
v 7.5 0 36
v 33.5 -11.5 36
v 7.5 -11.5 36
v 7.5 0 36
v 33.5 0 36
vt -23.5 4
vt -33.5 4
vt -33.5 36
vt 0.5 30
vt 0.5 -1.863043E-15
vt -7.5 30
vt -23.5 4.009648E-14
vt -7.5 36
vt 33.5 36
vt 7.5 30
vt 7.5 36
vt 23.5 4
vt -0.4999999 -5.677085E-08
vt 23.5 -5.67708E-08
vt -0.4999999 30
vt 33.5 4
vt -23.5 -11.5
vt -33.5 -11.5
vt -33.5 3.109807E-07
vt -23.5 3.109807E-07
vt -4 -11.5
vt -36 -11.5
vt -36 0
vt -4 4.768372E-07
vt 30 -11.5
vt 3.876445E-07 -11.5
vt 3.295271E-15 -5.571739E-08
vt 30 3.788782E-06
vt 7.5 -11.5
vt -0.5000006 -11.5
vt -0.5 3.814697E-06
vt 7.5 3.814697E-06
vt 0.5000006 -11.5
vt -23.5 -11.5
vt -23.5 -7.450581E-09
vt 0.5 -2.980232E-08
vt -3.876445E-07 -11.5
vt -4 -11.5
vt -4 4.768372E-07
vt 0 -7.450581E-09
vt 36 -11.5
vt 30 -11.5
vt 30 4.125678E-06
vt 36 3.109808E-07
vt 33.5 -11.5
vt 7.5 -11.5
vt 7.5 0
vt 33.5 0
vn 6.359205E-08 1 -6.440225E-08
vn 0 1 1.490116E-08
vn 9.552026E-08 1 6.266129E-08
vn 0 1 -1.2815E-07
vn 8.731149E-11 1 -1.27533E-07
vn 6.432548E-08 1 -2.453553E-08
vn -9.313226E-10 1 -1.210719E-07
vn 0 1 6.357829E-07
vn -9.781275E-08 -1 -4.890638E-08
vn -7.399197E-08 -1 3.288532E-08
vn 0 -1 -6.357829E-07
vn -7.320315E-08 -1 6.913631E-08
vn -1.490116E-08 -1 1.192093E-07
vn 0 -1 0
vn 0 -1 1.271566E-07
vn 0 -1 0
vn 0 -4.14641E-08 -0.9999999
vn 0 -4.14641E-08 -0.9999999
vn 0 -4.14641E-08 -0.9999999
vn 0 -4.14641E-08 -0.9999999
vn 1 0 0
vn 1 0 0
vn 1 0 0
vn 1 0 0
vn -1 5.183013E-08 -6.590541E-15
vn -1 5.183013E-08 -6.590541E-15
vn -1 5.183013E-08 -6.590541E-15
vn -1 5.183013E-08 -6.590541E-15
vn 0 0 1
vn 0 0 1
vn 0 0 1
vn 0 0 1
vn 0 -3.370821E-08 -1
vn 0 -3.370821E-08 -1
vn 0 -3.370821E-08 -1
vn 0 -3.370821E-08 -1
vn 1 0 0
vn 1 0 0
vn 1 0 0
vn 1 0 0
vn -1 4.14641E-08 2.636217E-14
vn -1 4.14641E-08 2.636217E-14
vn -1 4.14641E-08 2.636217E-14
vn -1 4.14641E-08 2.636217E-14
vn 0 0 1
vn 0 0 1
vn 0 0 1
vn 0 0 1
g pb_Mesh469804_0
f 3/3/3 2/2/2 1/1/1
f 6/6/6 5/5/5 4/4/4
f 1/1/1 7/7/7 5/5/5
f 6/6/6 1/1/1 5/5/5
f 3/3/3 1/1/1 6/6/6
f 3/3/3 6/6/6 8/8/8
g pb_Mesh469804_1
f 11/11/11 10/10/10 9/9/9
f 10/10/10 12/12/12 9/9/9
f 13/13/13 12/12/12 10/10/10
f 13/13/13 14/14/14 12/12/12
f 15/15/15 13/13/13 10/10/10
f 12/12/12 16/16/16 9/9/9
f 19/19/19 18/18/18 17/17/17
f 20/20/20 19/19/19 17/17/17
f 23/23/23 22/22/22 21/21/21
f 24/24/24 23/23/23 21/21/21
f 27/27/27 26/26/26 25/25/25
f 28/28/28 27/27/27 25/25/25
f 31/31/31 30/30/30 29/29/29
f 32/32/32 31/31/31 29/29/29
f 35/35/35 34/34/34 33/33/33
f 36/36/36 35/35/35 33/33/33
f 39/39/39 38/38/38 37/37/37
f 40/40/40 39/39/39 37/37/37
f 43/43/43 42/42/42 41/41/41
f 44/44/44 43/43/43 41/41/41
f 47/47/47 46/46/46 45/45/45
f 48/48/48 47/47/47 45/45/45
