g pCylinder1
v -0.1564346 0.9876886 -0.1538377
v -0.197317 1.24581 -0.1538377
v -0.3563371 1.207633 -0.1538377
v -0.2825071 0.9574213 -0.1538377
v -1.043081E-07 1 -0.1538377
v -1.043081E-07 1.261339 -0.1538377
v 0.1564344 0.9876886 -0.1538377
v 0.1973168 1.24581 -0.1538377
v 0.3472866 1.209805 -0.1538377
v 0.2753318 0.9591439 -0.1538377
v -0.1564346 0.9876886 -5.051121E-07
v -0.2825071 0.9574213 -5.051121E-07
v -0.3563371 1.207633 -5.051121E-07
v -0.197317 1.24581 -5.051121E-07
v -1.043081E-07 1 -5.051121E-07
v -1.043081E-07 1.261339 -5.051121E-07
v 0.1564344 0.9876886 -5.051121E-07
v 0.1973168 1.24581 -5.051121E-07
v 0.3472866 1.209805 -5.051121E-07
v 0.2753318 0.9591439 -5.051121E-07
v -0.1564346 0.9876886 -5.051121E-07
v -0.1564346 0.9876886 -0.1538377
v -0.2825071 0.9574213 -0.1538377
v -0.2825071 0.9574213 -5.051121E-07
v -1.043081E-07 1 -5.051121E-07
v -1.043081E-07 1 -0.1538377
v 0.1564344 0.9876886 -5.051121E-07
v 0.1564344 0.9876886 -0.1538377
v 0.2753318 0.9591439 -5.051121E-07
v 0.2753318 0.9591439 -0.1538377
v -0.2825071 0.9574213 -5.051121E-07
v -0.2825071 0.9574213 -0.1538377
v -0.3563371 1.207633 -0.1538377
v -0.3563371 1.207633 -5.051121E-07
v -0.3563371 1.207633 -5.051121E-07
v -0.3563371 1.207633 -0.1538377
v -0.197317 1.24581 -0.1538377
v -0.197317 1.24581 -5.051121E-07
v -1.043081E-07 1.261339 -0.1538377
v -1.043081E-07 1.261339 -5.051121E-07
v 0.1973168 1.24581 -0.1538377
v 0.1973168 1.24581 -5.051121E-07
v 0.3472866 1.209805 -0.1538377
v 0.3472866 1.209805 -5.051121E-07
v 0.3472866 1.209805 -5.051121E-07
v 0.3472866 1.209805 -0.1538377
v 0.2753318 0.9591439 -0.1538377
v 0.2753318 0.9591439 -5.051121E-07
vt 0.3473346 0.6805711
vt 0.3098024 0.4307486
vt 0.1641707 0.469034
vt 0.2318765 0.710924
vt 0.4990397 0.667374
vt 0.4990397 0.4141024
vt 0.6505455 0.6805711
vt 0.6922541 0.4307486
vt 0.8460567 0.469034
vt 0.7724814 0.710924
vt 0.6505456 0.6805711
vt 0.7724814 0.710924
vt 0.8460566 0.469034
vt 0.6922541 0.4307486
vt 0.4990397 0.667374
vt 0.4990397 0.4141024
vt 0.3473346 0.6805711
vt 0.3098024 0.4307486
vt 0.1641707 0.469034
vt 0.2318765 0.710924
vt 0.3080657 0.3322728
vt 0.3080657 0.1831793
vt 0.153949 0.1831793
vt 0.153949 0.3322728
vt 0.4992981 0.3322728
vt 0.4992981 0.1831793
vt 0.6905305 0.3322728
vt 0.6905305 0.1831793
vt 0.8358759 0.3322728
vt 0.8358759 0.1831793
vt 0.3763507 0.7682964
vt 0.3763507 0.9173831
vt 0.6188354 0.9173831
vt 0.6188355 0.7682964
vt 0.153949 0.1831793
vt 0.153949 0.3322728
vt 0.3080657 0.3322728
vt 0.3080657 0.1831793
vt 0.4992981 0.3322728
vt 0.4992981 0.1831793
vt 0.6905305 0.3322728
vt 0.6905305 0.1831793
vt 0.8358759 0.3322728
vt 0.8358759 0.1831793
vt 0.3763507 0.7682964
vt 0.3763508 0.9173831
vt 0.6188355 0.9173831
vt 0.6188356 0.7682964
vn 0 0 -1
vn 0 0 -1
vn 0 0 -1
vn 0 0 -1
vn 0 0 -1
vn 0 0 -1
vn 0 0 -1
vn 0 0 -1
vn 0 0 -1
vn 0 0 -1
vn 0 0 1
vn 0 0 1
vn 0 0 1
vn 0 0 1
vn 0 0 1
vn 0 0 1
vn 0 0 1
vn 0 0 1
vn 0 0 1
vn 0 0 1
vn 0.1490349 -0.9888319 0
vn 0.1490349 -0.9888319 0
vn 0.2334452 -0.97237 0
vn 0.2334452 -0.97237 0
vn 0 -1 0
vn 0 -1 0
vn -0.1467822 -0.9891689 0
vn -0.1467823 -0.9891689 0
vn -0.2334452 -0.97237 0
vn -0.2334452 -0.97237 0
vn -0.9591177 -0.2830076 0
vn -0.9591177 -0.2830076 0
vn -0.9591177 -0.2830076 0
vn -0.9591177 -0.2830076 0
vn -0.2334462 0.9723697 0
vn -0.2334462 0.9723697 0
vn -0.1490355 0.9888318 0
vn -0.1490355 0.9888318 0
vn 0 1 0
vn 0 1 0
vn 0.1467826 0.9891688 0
vn 0.1467826 0.9891688 0
vn 0.2334451 0.97237 0
vn 0.2334451 0.97237 0
vn 0.9611816 -0.2759165 0
vn 0.9611816 -0.2759165 0
vn 0.9611816 -0.2759165 0
vn 0.9611816 -0.2759165 0
g pCylinder1_0
f 3/3/3 2/2/2 1/1/1
f 4/4/4 3/3/3 1/1/1
f 1/1/1 2/2/2 5/5/5
f 2/2/2 6/6/6 5/5/5
f 5/5/5 6/6/6 7/7/7
f 6/6/6 8/8/8 7/7/7
f 7/7/7 8/8/8 9/9/9
f 10/10/10 7/7/7 9/9/9
f 13/13/13 12/12/12 11/11/11
f 14/14/14 13/13/13 11/11/11
f 14/14/14 11/11/11 15/15/15
f 16/16/16 14/14/14 15/15/15
f 16/16/16 15/15/15 17/17/17
f 18/18/18 16/16/16 17/17/17
f 18/18/18 17/17/17 19/19/19
f 17/17/17 20/20/20 19/19/19
f 23/23/23 22/22/22 21/21/21
f 24/24/24 23/23/23 21/21/21
f 21/21/21 22/22/22 25/25/25
f 22/22/22 26/26/26 25/25/25
f 25/25/25 26/26/26 27/27/27
f 26/26/26 28/28/28 27/27/27
f 27/27/27 28/28/28 29/29/29
f 28/28/28 30/30/30 29/29/29
f 33/33/33 32/32/32 31/31/31
f 34/34/34 33/33/33 31/31/31
f 37/37/37 36/36/36 35/35/35
f 38/38/38 37/37/37 35/35/35
f 39/39/39 37/37/37 38/38/38
f 40/40/40 39/39/39 38/38/38
f 41/41/41 39/39/39 40/40/40
f 42/42/42 41/41/41 40/40/40
f 43/43/43 41/41/41 42/42/42
f 44/44/44 43/43/43 42/42/42
f 47/47/47 46/46/46 45/45/45
f 48/48/48 47/47/47 45/45/45
