g top1
v -0.6872158 -0.3392029 1.411117
v -0.6872158 -0.3392029 -0.6787965
v -0.6872159 0.3392024 -0.6787965
v -0.6872159 0.3392024 1.411117
v -0.6872158 -0.3392029 -0.6787965
v -1.192093E-07 -0.1099005 -0.9742285
v -2.384186E-07 0.1099 -0.9742287
v -0.6872159 0.3392024 -0.6787965
v -1.192093E-07 -0.1099005 -0.9742285
v -1.192093E-07 -0.1099002 0.9742297
v -2.384186E-07 0.1099 0.9742296
v -2.384186E-07 0.1099 -0.9742287
v -1.192093E-07 -0.1099002 0.9742297
v -0.6872158 -0.3392029 1.411117
v -0.6872159 0.3392024 1.411117
v -2.384186E-07 0.1099 0.9742296
v -0.6872159 0.3392024 1.411117
v -0.6872159 0.3392024 -0.6787965
v -2.384186E-07 0.1099 -0.9742287
v -2.384186E-07 0.1099 0.9742296
v -1.192093E-07 -0.1099002 0.9742297
v -1.192093E-07 -0.1099005 -0.9742285
v -0.6872158 -0.3392029 -0.6787965
v -0.6872158 -0.3392029 1.411117
vt 0.2660231 0.6939083
vt 0.2660231 0.8293661
vt 0.3099582 0.8293661
vt 0.3099582 0.6939083
vt 0.679812 0.9152254
vt 0.6333734 0.9307294
vt 0.6333734 0.9455911
vt 0.6798121 0.9610951
vt 0.506861 0.3635907
vt 0.506861 0.5061615
vt 0.5228929 0.5061615
vt 0.5228929 0.3635907
vt 0.506861 0.5061615
vt 0.490136 0.538129
vt 0.5396178 0.538129
vt 0.5228929 0.5061615
vt 0.7219484 0.1636048
vt 0.7219484 0.02454096
vt 0.6762472 0.004882813
vt 0.6762472 0.1345341
vt 0.4570063 0.5721314
vt 0.4570063 0.7017981
vt 0.5027022 0.6821375
vt 0.5027022 0.5430573
vn -1 0 0
vn -1 0 0
vn -1 0 0
vn -1 0 0
vn -0.3949481 0 -0.9187034
vn -0.394948 0 -0.9187034
vn -0.394948 0 -0.9187034
vn -0.3949481 0 -0.9187034
vn 1 0 0
vn 1 0 0
vn 1 0 0
vn 1 0 0
vn 0.5364982 0 0.8439015
vn 0.5364982 0 0.8439014
vn 0.5364982 0 0.8439014
vn 0.5364982 0 0.8439015
vn 0.3165141 0.9485878 0
vn 0.3165141 0.9485878 0
vn 0.3165141 0.9485878 0
vn 0.3165141 0.9485878 0
vn 0.3165143 -0.9485877 0
vn 0.3165143 -0.9485877 0
vn 0.3165143 -0.9485878 0
vn 0.3165143 -0.9485878 0
g top1_0
f 3/3/3 2/2/2 1/1/1
f 4/4/4 3/3/3 1/1/1
f 7/7/7 6/6/6 5/5/5
f 8/8/8 7/7/7 5/5/5
f 11/11/11 10/10/10 9/9/9
f 12/12/12 11/11/11 9/9/9
f 15/15/15 14/14/14 13/13/13
f 16/16/16 15/15/15 13/13/13
f 19/19/19 18/18/18 17/17/17
f 20/20/20 19/19/19 17/17/17
f 23/23/23 22/22/22 21/21/21
f 24/24/24 23/23/23 21/21/21
