g top_small3
v -0.6872154 -0.3392029 -0.2785337
v -0.4425057 -0.2575507 -0.4459631
v -0.4420692 0.2574048 -0.4456794
v -0.6872157 0.3392026 -0.2785337
v -0.4425057 -0.2575507 -0.4459631
v 1.192093E-07 -0.1099 -0.1583488
v 0 0.1099002 -0.1583488
v -0.4420692 0.2574048 -0.4456794
v 1.192093E-07 -0.1099 -0.1583488
v 1.192093E-07 -0.1099 0.1583481
v 0 0.1099002 0.1583481
v 0 0.1099002 -0.1583488
v 1.192093E-07 -0.1099 0.1583481
v -0.6872154 -0.3392029 -0.2785337
v -0.6872157 0.3392026 -0.2785337
v 0 0.1099002 0.1583481
v -0.6872157 0.3392026 -0.2785337
v -0.4420692 0.2574048 -0.4456794
v 0 0.1099002 -0.1583488
v 0 0.1099002 0.1583481
v 1.192093E-07 -0.1099 0.1583481
v 1.192093E-07 -0.1099 -0.1583488
v -0.4425057 -0.2575507 -0.4459631
v -0.6872154 -0.3392029 -0.2785337
vt 0.0195643 0.8491716
vt 0.004882813 0.8563373
vt 0.004907676 0.9015293
vt 0.0195643 0.9087079
vt 0.5339534 0.9417236
vt 0.522228 0.9188702
vt 0.504773 0.9188702
vt 0.4930592 0.9417011
vt 0.522228 0.9188702
vt 0.522228 0.8937059
vt 0.504773 0.8937059
vt 0.504773 0.9188702
vt 0.05787353 0.869295
vt 0.0195643 0.8491716
vt 0.0195643 0.9087079
vt 0.05787353 0.8885845
vt 0.5466514 0.9517408
vt 0.5629349 0.9628759
vt 0.5922986 0.9437342
vt 0.5922986 0.9226359
vt 0.06334706 0.9345992
vt 0.06334706 0.9556973
vt 0.09273978 0.974858
vt 0.1089942 0.9637039
vn -0.5640065 0.0004024636 -0.8257702
vn -0.5640065 0.0004024637 -0.8257703
vn -0.5640065 0.0004024637 -0.8257702
vn -0.5640065 0.0004024636 -0.8257703
vn 0.5449691 0 -0.8384561
vn 0.5449691 0 -0.8384562
vn 0.5449691 0 -0.8384562
vn 0.5449691 0 -0.8384561
vn 1 0 0
vn 1 0 0
vn 1 0 0
vn 1 0 0
vn -0.5364932 0 0.8439046
vn -0.5364932 0 0.8439046
vn -0.5364932 0 0.8439046
vn -0.5364932 0 0.8439046
vn 0.3165141 0.9485878 0
vn 0.3165141 0.9485878 0
vn 0.3165141 0.9485878 0
vn 0.3165141 0.9485878 0
vn 0.3165147 -0.9485876 0
vn 0.3165147 -0.9485876 0
vn 0.3165147 -0.9485875 0
vn 0.3165147 -0.9485875 0
g top_small3_0
f 3/3/3 2/2/2 1/1/1
f 4/4/4 3/3/3 1/1/1
f 7/7/7 6/6/6 5/5/5
f 8/8/8 7/7/7 5/5/5
f 11/11/11 10/10/10 9/9/9
f 12/12/12 11/11/11 9/9/9
f 15/15/15 14/14/14 13/13/13
f 16/16/16 15/15/15 13/13/13
f 19/19/19 18/18/18 17/17/17
f 20/20/20 19/19/19 17/17/17
f 23/23/23 22/22/22 21/21/21
f 24/24/24 23/23/23 21/21/21
