g trap4_2
v -0.1858771 2.73423E-08 0.06270063
v -0.1325461 1.174082E-08 0.06270063
v -0.1224566 -0.05072318 0.06270063
v -0.1717281 -0.07113207 0.06270063
v -0.09372423 -0.09372422 0.06270063
v -0.131435 -0.131435 0.06270063
v -0.05072322 -0.1224566 0.06270063
v -0.07113213 -0.1717281 0.06270063
v -1.491097E-08 -0.1325461 0.06270063
v -2.004271E-08 -0.1858771 0.06270063
v 0.05072318 -0.1224566 0.06270063
v 0.07113209 -0.1717281 0.06270063
v 0.09372421 -0.09372424 0.06270063
v 0.1314349 -0.131435 0.06270063
v 0.1224566 -0.05072322 0.06270063
v 0.1717281 -0.07113213 0.06270063
v 0.1325461 -4.830089E-08 0.06270063
v 0.1858771 -5.68577E-08 0.06270063
v 0.1224566 0.05072313 0.06270063
v 0.1717281 0.07113203 0.06270063
v 0.09372428 0.0937242 0.06270063
v 0.131435 0.1314349 0.06270063
v 0.05072324 0.1224566 0.06270063
v 0.07113215 0.1717281 0.06270063
v 1.774247E-08 0.1325461 0.06270063
v 2.574911E-08 0.1858771 0.06270063
v -0.0507232 0.1224566 0.06270063
v -0.07113209 0.1717281 0.06270063
v -0.09372426 0.0937242 0.06270063
v -0.131435 0.1314349 0.06270063
v -0.1224566 0.05072314 0.06270063
v -0.1717281 0.07113205 0.06270063
v -0.1833939 -0.07596422 0.03341677
v -0.1985041 3.073256E-08 0.03341677
v -0.1858771 2.73423E-08 0.06270063
v -0.1717281 -0.07113207 0.06270063
v -0.1403636 -0.1403636 0.03341677
v -0.131435 -0.131435 0.06270063
v -0.07596427 -0.1833939 0.03341677
v -0.07113213 -0.1717281 0.06270063
v -2.145517E-08 -0.1985041 0.03341677
v -2.004271E-08 -0.1858771 0.06270063
v 0.07596424 -0.1833939 0.03341677
v 0.07113209 -0.1717281 0.06270063
v 0.1403636 -0.1403636 0.03341677
v 0.1314349 -0.131435 0.06270063
v 0.1833939 -0.07596427 0.03341677
v 0.1717281 -0.07113213 0.06270063
v 0.1985041 -5.918731E-08 0.03341677
v 0.1858771 -5.68577E-08 0.06270063
v 0.1833939 0.07596418 0.03341677
v 0.1717281 0.07113203 0.06270063
v 0.1403637 0.1403636 0.03341677
v 0.131435 0.1314349 0.06270063
v 0.07596429 0.1833939 0.03341677
v 0.07113215 0.1717281 0.06270063
v 2.744738E-08 0.1985041 0.03341677
v 2.574911E-08 0.1858771 0.06270063
v -0.07596424 0.1833939 0.03341677
v -0.07113209 0.1717281 0.06270063
v -0.1403636 0.1403636 0.03341677
v -0.131435 0.1314349 0.06270063
v -0.1833939 0.07596418 0.03341677
v -0.1717281 0.07113205 0.06270063
v 0.1660032 0.2416079 0
v 0.1660032 0.2416079 0.03694054
v -0.1660031 0.241608 0.03694054
v -0.1660031 0.241608 0
v -0.2416079 0.1660032 0.03694054
v -0.2416079 0.1660032 0
v -0.241608 -0.1660031 0.03694054
v -0.241608 -0.1660031 0
v 0.241608 0.1660031 0
v 0.241608 0.1660031 0.03694054
v -0.1660032 -0.2416079 0.03694054
v -0.1660032 -0.2416079 0
v 0.1660031 -0.241608 0.03694054
v 0.1660031 -0.241608 0
v 0.2416079 -0.1660032 0.03694054
v 0.2416079 -0.1660032 0
v 0.241608 0.1660031 0.03694054
v 0.241608 0.1660031 0
v 0.241608 0.1660031 0
v 0 0 0
v 0.2416079 -0.1660032 0
v 0.1660032 0.2416079 0
v -0.1660031 0.241608 0
v -0.2416079 0.1660032 0
v -0.241608 -0.1660031 0
v 0.1660031 -0.241608 0
v -0.1660032 -0.2416079 0
v 0.1660032 0.2416079 0.03694054
v 0 0 0.03694054
v -0.1660031 0.241608 0.03694054
v 0.241608 0.1660031 0.03694054
v 0.2416079 -0.1660032 0.03694054
v -0.2416079 0.1660032 0.03694054
v -0.241608 -0.1660031 0.03694054
v 0.1660031 -0.241608 0.03694054
v -0.1660032 -0.2416079 0.03694054
vt 0.4978551 0.6355594
vt 0.5276672 0.6355593
vt 0.533307 0.6072054
vt 0.5057641 0.5957968
vt 0.5493674 0.583168
vt 0.5282869 0.5620875
vt 0.5734034 0.5671066
vt 0.5619947 0.5395637
vt 0.6017554 0.5614666
vt 0.6017554 0.5316544
vt 0.6301074 0.5671066
vt 0.6415161 0.5395637
vt 0.6541434 0.5831679
vt 0.6752237 0.5620875
vt 0.6702038 0.6072053
vt 0.6977466 0.5957967
vt 0.6758435 0.6355593
vt 0.7056556 0.6355593
vt 0.6702038 0.6639131
vt 0.6977466 0.6753217
vt 0.6541434 0.6879499
vt 0.6752237 0.7090303
vt 0.6301074 0.7040108
vt 0.641516 0.7315537
vt 0.6017554 0.7096507
vt 0.6017554 0.7394629
vt 0.5734034 0.7040108
vt 0.5619947 0.7315537
vt 0.5493674 0.6879499
vt 0.528287 0.7090303
vt 0.533307 0.6639131
vt 0.5057641 0.6753218
vt 0.700352 0.9174142
vt 0.7091652 0.8735431
vt 0.6947858 0.8735474
vt 0.6870852 0.9118659
vt 0.6753176 0.9544864
vt 0.6651967 0.9442685
vt 0.6380273 0.9791595
vt 0.6325635 0.9658528
vt 0.5941702 0.9878114
vt 0.5941675 0.9734259
vt 0.5503098 0.9791813
vt 0.5557668 0.9658719
vt 0.5130067 0.9545283
vt 0.5231225 0.9443049
vt 0.4879532 0.9174692
vt 0.501217 0.9119142
vt 0.479118 0.8736023
vt 0.4934973 0.8735992
vt 0.4879344 0.8297315
vt 0.5012015 0.8352798
vt 0.5129664 0.7926568
vt 0.5230887 0.8028738
vt 0.5502539 0.7679772
vt 0.5557196 0.7812831
vt 0.594112 0.7593208
vt 0.5941149 0.773706
vt 0.6379732 0.7679568
vt 0.6325141 0.7812656
vt 0.675274 0.792616
vt 0.6651572 0.8028385
vt 0.7003261 0.8296769
vt 0.6870621 0.8352322
vt 0.9313195 0.01859259
vt 0.9313195 0.006344956
vt 0.7457541 0.006344956
vt 0.7457541 0.01859259
vt 0.6859846 0.006344956
vt 0.6859846 0.01859259
vt 0.5003843 0.006344956
vt 0.5003843 0.01859259
vt 0.9910901 0.01859259
vt 0.9910901 0.006344956
vt 0.4406059 0.006344956
vt 0.4406059 0.01859259
vt 0.2550128 0.006344956
vt 0.2550128 0.01859259
vt 0.1952409 0.006344956
vt 0.1952409 0.01859259
vt 0.009647757 0.006344956
vt 0.009647757 0.01859259
vt 0.9915139 0.4822813
vt 0.8564548 0.5750775
vt 0.9915139 0.6678736
vt 0.9492509 0.4400181
vt 0.7636587 0.440018
vt 0.7213954 0.4822813
vt 0.7213954 0.6678734
vt 0.9492509 0.7101366
vt 0.7636587 0.7101366
vt 0.9501987 0.9927628
vt 0.8574026 0.8577042
vt 0.7646065 0.9927628
vt 0.9924618 0.9504998
vt 0.9924617 0.7649082
vt 0.7223433 0.9504998
vt 0.7223432 0.7649083
vt 0.9501987 0.7226452
vt 0.7646065 0.7226452
vn 0 0 1
vn 0 0 1
vn 0 0 1
vn 0 0 1
vn 0 0 1
vn 0 0 1
vn 0 0 1
vn 0 0 1
vn 0 0 1
vn 0 0 1
vn 0 0 1
vn 0 0 1
vn 0 0 1
vn 0 0 1
vn 0 0 1
vn 0 0 1
vn 0 0 1
vn 0 0 1
vn 0 0 1
vn 0 0 1
vn 0 0 1
vn 0 0 1
vn 0 0 1
vn 0 0 1
vn 0 0 1
vn 0 0 1
vn 0 0 1
vn 0 0 1
vn 0 0 1
vn 0 0 1
vn 0 0 1
vn 0 0 1
vn -0.848372 -0.3514071 0.395952
vn -0.9182714 2.129945E-07 0.3959517
vn -0.9182714 2.113906E-07 0.3959516
vn -0.848372 -0.3514071 0.395952
vn -0.6493158 -0.6493158 0.3959521
vn -0.6493158 -0.6493158 0.3959521
vn -0.3514074 -0.848372 0.3959517
vn -0.3514074 -0.848372 0.3959517
vn -2.231371E-07 -0.9182714 0.3959514
vn -2.389633E-07 -0.9182714 0.3959514
vn 0.3514072 -0.848372 0.3959518
vn 0.3514071 -0.8483721 0.3959517
vn 0.6493158 -0.6493158 0.3959522
vn 0.6493158 -0.6493158 0.3959522
vn 0.8483719 -0.3514074 0.395952
vn 0.8483719 -0.3514074 0.395952
vn 0.9182714 -2.839928E-07 0.3959516
vn 0.9182714 -3.032996E-07 0.3959516
vn 0.8483722 0.351407 0.3959516
vn 0.8483723 0.3514069 0.3959517
vn 0.649316 0.6493157 0.395952
vn 0.649316 0.6493157 0.395952
vn 0.3514074 0.8483719 0.395952
vn 0.3514074 0.8483719 0.395952
vn 0 0.9182713 0.3959518
vn 0 0.9182712 0.3959518
vn -0.3514073 0.848372 0.3959518
vn -0.3514072 0.848372 0.3959517
vn -0.649316 0.6493157 0.395952
vn -0.6493159 0.6493157 0.395952
vn -0.8483721 0.3514071 0.3959518
vn -0.848372 0.3514072 0.3959519
vn 0.3826836 0.9238794 0
vn 0.3826836 0.9238794 0
vn -0.3826832 0.9238796 0
vn -0.3826832 0.9238796 0
vn -0.9238794 0.3826836 0
vn -0.9238794 0.3826836 0
vn -0.9238796 -0.3826832 0
vn -0.9238796 -0.3826832 0
vn 0.9238796 0.3826832 0
vn 0.9238796 0.3826832 0
vn -0.3826836 -0.9238794 0
vn -0.3826836 -0.9238794 0
vn 0.3826832 -0.9238796 0
vn 0.3826832 -0.9238796 0
vn 0.9238794 -0.3826836 0
vn 0.9238794 -0.3826836 0
vn 0.9238796 0.3826832 0
vn 0.9238796 0.3826832 0
vn 0 0 -1
vn 0 0 -1
vn 0 0 -1
vn 0 0 -1
vn 0 0 -1
vn 0 0 -1
vn 0 0 -1
vn 0 0 -1
vn 0 0 -1
vn 0 0 1
vn 0 0 1
vn 0 0 1
vn 0 0 1
vn 0 0 1
vn 0 0 1
vn 0 0 1
vn 0 0 1
vn 0 0 1
g trap4_2_0
f 3/3/3 2/2/2 1/1/1
f 4/4/4 3/3/3 1/1/1
f 5/5/5 3/3/3 4/4/4
f 6/6/6 5/5/5 4/4/4
f 7/7/7 5/5/5 6/6/6
f 8/8/8 7/7/7 6/6/6
f 9/9/9 7/7/7 8/8/8
f 10/10/10 9/9/9 8/8/8
f 11/11/11 9/9/9 10/10/10
f 12/12/12 11/11/11 10/10/10
f 13/13/13 11/11/11 12/12/12
f 14/14/14 13/13/13 12/12/12
f 15/15/15 13/13/13 14/14/14
f 16/16/16 15/15/15 14/14/14
f 17/17/17 15/15/15 16/16/16
f 18/18/18 17/17/17 16/16/16
f 19/19/19 17/17/17 18/18/18
f 20/20/20 19/19/19 18/18/18
f 21/21/21 19/19/19 20/20/20
f 22/22/22 21/21/21 20/20/20
f 23/23/23 21/21/21 22/22/22
f 24/24/24 23/23/23 22/22/22
f 25/25/25 23/23/23 24/24/24
f 26/26/26 25/25/25 24/24/24
f 27/27/27 25/25/25 26/26/26
f 28/28/28 27/27/27 26/26/26
f 29/29/29 27/27/27 28/28/28
f 30/30/30 29/29/29 28/28/28
f 31/31/31 29/29/29 30/30/30
f 32/32/32 31/31/31 30/30/30
f 2/2/2 31/31/31 32/32/32
f 1/1/1 2/2/2 32/32/32
f 35/35/35 34/34/34 33/33/33
f 36/36/36 35/35/35 33/33/33
f 36/36/36 33/33/33 37/37/37
f 38/38/38 36/36/36 37/37/37
f 38/38/38 37/37/37 39/39/39
f 40/40/40 38/38/38 39/39/39
f 40/40/40 39/39/39 41/41/41
f 42/42/42 40/40/40 41/41/41
f 42/42/42 41/41/41 43/43/43
f 44/44/44 42/42/42 43/43/43
f 44/44/44 43/43/43 45/45/45
f 46/46/46 44/44/44 45/45/45
f 46/46/46 45/45/45 47/47/47
f 48/48/48 46/46/46 47/47/47
f 48/48/48 47/47/47 49/49/49
f 50/50/50 48/48/48 49/49/49
f 50/50/50 49/49/49 51/51/51
f 52/52/52 50/50/50 51/51/51
f 52/52/52 51/51/51 53/53/53
f 54/54/54 52/52/52 53/53/53
f 54/54/54 53/53/53 55/55/55
f 56/56/56 54/54/54 55/55/55
f 56/56/56 55/55/55 57/57/57
f 58/58/58 56/56/56 57/57/57
f 58/58/58 57/57/57 59/59/59
f 60/60/60 58/58/58 59/59/59
f 60/60/60 59/59/59 61/61/61
f 62/62/62 60/60/60 61/61/61
f 62/62/62 61/61/61 63/63/63
f 64/64/64 62/62/62 63/63/63
f 64/64/64 63/63/63 34/34/34
f 35/35/35 64/64/64 34/34/34
f 67/67/67 66/66/66 65/65/65
f 68/68/68 67/67/67 65/65/65
f 69/69/69 67/67/67 68/68/68
f 70/70/70 69/69/69 68/68/68
f 71/71/71 69/69/69 70/70/70
f 72/72/72 71/71/71 70/70/70
f 73/73/73 65/65/65 66/66/66
f 74/74/74 73/73/73 66/66/66
f 75/75/75 71/71/71 72/72/72
f 76/76/76 75/75/75 72/72/72
f 77/77/77 75/75/75 76/76/76
f 78/78/78 77/77/77 76/76/76
f 79/79/79 77/77/77 78/78/78
f 80/80/80 79/79/79 78/78/78
f 81/81/81 79/79/79 80/80/80
f 82/82/82 81/81/81 80/80/80
f 85/85/85 84/84/84 83/83/83
f 83/83/83 84/84/84 86/86/86
f 86/86/86 84/84/84 87/87/87
f 87/87/87 84/84/84 88/88/88
f 88/88/88 84/84/84 89/89/89
f 90/90/90 84/84/84 85/85/85
f 91/91/91 84/84/84 90/90/90
f 89/89/89 84/84/84 91/91/91
f 94/94/94 93/93/93 92/92/92
f 92/92/92 93/93/93 95/95/95
f 95/95/95 93/93/93 96/96/96
f 97/97/97 93/93/93 94/94/94
f 98/98/98 93/93/93 97/97/97
f 96/96/96 93/93/93 99/99/99
f 99/99/99 93/93/93 100/100/100
f 100/100/100 93/93/93 98/98/98
