g tube_02
v -0.03061461 0 -0.07391039
v -0.03061464 1 -0.07391039
v -0.05656852 1 -0.05656859
v -0.0565685 -2.980232E-08 -0.05656859
v -0.07391034 1 -0.03061472
v -0.07391036 2.980232E-08 -0.03061472
v -0.08 1 -4.768371E-08
v -0.08000004 0 -5.960464E-08
v 0 0 -0.08000001
v 0 1 -0.08000002
v 0.03061467 2.980232E-08 -0.07391037
v 0.03061467 1 -0.07391038
v 0.05656856 2.980232E-08 -0.05656854
v 0.05656854 1 -0.05656855
v 0.07391036 -2.980232E-08 -0.03061467
v 0.07391037 1 -0.03061467
v 0.07999998 -5.960464E-08 0
v 0.08 1 -1.192093E-08
vt 0.5863512 0.243169
vt 0.5852016 0.5363161
vt 0.607044 0.5363161
vt 0.6093432 0.243169
vt 0.6300359 0.5363161
vt 0.6323351 0.243169
vt 0.6530278 0.5363161
vt 0.655327 0.243169
vt 0.5633593 0.243169
vt 0.5622097 0.5363161
vt 0.5403674 0.243169
vt 0.5392178 0.5363161
vt 0.518525 0.243169
vt 0.5162258 0.5363161
vt 0.4955331 0.243169
vt 0.4932339 0.5363161
vt 0.4725412 0.243169
vt 0.470242 0.5363161
vn -0.3826831 0 -0.9238797
vn -0.3826831 0 -0.9238797
vn -0.7071059 0 -0.7071076
vn -0.7071065 0 -0.7071071
vn -0.923879 0 -0.3826846
vn -0.9238794 0 -0.3826839
vn -0.9807852 0 -0.1950908
vn -0.9807852 0 -0.1950908
vn 0 0 -1
vn 0 0 -1
vn 0.3826835 0 -0.9238795
vn 0.3826835 0 -0.9238794
vn 0.7071074 0 -0.7071062
vn 0.7071062 0 -0.7071073
vn 0.9238795 0 -0.3826835
vn 0.9238792 0 -0.3826842
vn 0.9807853 0 -0.1950901
vn 0.9807853 0 -0.1950901
g tube_02_0
f 3/3/3 2/2/2 1/1/1
f 4/4/4 3/3/3 1/1/1
f 5/5/5 3/3/3 4/4/4
f 6/6/6 5/5/5 4/4/4
f 7/7/7 5/5/5 6/6/6
f 8/8/8 7/7/7 6/6/6
f 1/1/1 2/2/2 9/9/9
f 2/2/2 10/10/10 9/9/9
f 9/9/9 10/10/10 11/11/11
f 10/10/10 12/12/12 11/11/11
f 11/11/11 12/12/12 13/13/13
f 12/12/12 14/14/14 13/13/13
f 13/13/13 14/14/14 15/15/15
f 14/14/14 16/16/16 15/15/15
f 15/15/15 16/16/16 17/17/17
f 16/16/16 18/18/18 17/17/17
