g Vertical
v 0.2597003 -0.5 -0.8553305
v 0.2597003 0.5 -0.8553305
v -0.2597003 0.5 -0.8553305
v -0.2597003 -0.5 -0.8553305
v -0.5 -0.5 0
v -0.3561978 -0.5 -1
v -0.3561978 0.5 -1
v -0.5 0.5 0
v 0.5 0.5 0
v 0.3561978 0.5 -1
v 0.3561978 -0.5 -1
v 0.5 -0.5 0
v -0.3561978 -0.5 -1
v -0.2597003 -0.4999995 -0.9999998
v -0.2597003 0.5 -1
v -0.3561978 0.5 -1
v 0.3561978 0.5 -1
v 0.2597003 0.5 -1
v 0.2596998 -0.4999995 -0.9999998
v 0.3561978 -0.5 -1
v -0.2597003 -0.4999995 -0.9999998
v -0.2597003 -0.5 -0.8553305
v -0.2597003 0.5 -0.8553305
v -0.2597003 0.5 -1
v 0.2597003 0.5 -1
v 0.2597003 0.5 -0.8553305
v 0.2597003 -0.5 -0.8553305
v 0.2596998 -0.4999995 -0.9999998
vt 0.6347768 0.6708201
vt 0.6347769 0.9755937
vt 0.7930821 0.9755957
vt 0.7930831 0.6708146
vt 0.1937515 0.04023422
vt 0.1961242 0.6500376
vt 0.8011821 0.6500376
vt 0.8011821 0.04023422
vt 0.1937515 0.04023422
vt 0.1961242 0.6500376
vt 0.8011821 0.6500376
vt 0.8011821 0.04023422
vt 0.8665852 0.6708157
vt 0.8371742 0.6708151
vt 0.8371742 0.9755957
vt 0.8665856 0.9755957
vt 0.5612726 0.9755931
vt 0.5906903 0.9755992
vt 0.590688 0.670802
vt 0.5612757 0.670823
vt 0.8173225 0.8723159
vt 0.8173234 0.8158056
vt 0.4266941 0.8158042
vt 0.4266948 0.872316
vt 0.4093369 0.872306
vt 0.4093301 0.8157994
vt 0.0186957 0.8157998
vt 0.01867269 0.872309
vn 0 0 -1
vn 0 0 -1
vn 0 0 -1
vn 0 0 -1
vn -0.9898181 0 -0.142338
vn -0.9898181 0 -0.142338
vn -0.9898181 0 -0.142338
vn -0.9898181 0 -0.142338
vn 0.9898181 0 -0.142338
vn 0.9898181 0 -0.142338
vn 0.9898181 0 -0.142338
vn 0.9898181 0 -0.142338
vn 0 0 -1
vn 0 0 -1
vn 0 0 -1
vn 0 0 -1
vn 0 0 -1
vn 0 0 -1
vn 0 0 -1
vn 0 0 -1
vn 1 0 0
vn 1 0 0
vn 1 0 0
vn 1 0 0
vn -1 0 0
vn -1 0 0
vn -1 0 0
vn -1 0 0
g Vertical_0
f 3/3/3 2/2/2 1/1/1
f 4/4/4 3/3/3 1/1/1
f 7/7/7 6/6/6 5/5/5
f 8/8/8 7/7/7 5/5/5
f 11/11/11 10/10/10 9/9/9
f 12/12/12 11/11/11 9/9/9
f 15/15/15 14/14/14 13/13/13
f 16/16/16 15/15/15 13/13/13
f 19/19/19 18/18/18 17/17/17
f 20/20/20 19/19/19 17/17/17
f 23/23/23 22/22/22 21/21/21
f 24/24/24 23/23/23 21/21/21
f 27/27/27 26/26/26 25/25/25
f 28/28/28 27/27/27 25/25/25
