g box_upper2
v -0.2309701 0.09567097 3.372719E-07
v -0.23097 0.09567094 -1.218334
v -0.6521729 0.5168738 -1.218334
v -0.6521733 0.5168735 2.180627E-07
v -0.2309701 -0.095671 3.372719E-07
v -0.2309699 -0.09567094 -1.218334
v -0.23097 0.09567094 -1.218334
v -0.2309701 0.09567097 3.372719E-07
v -0.652173 -0.516874 3.924871E-08
v -0.6521727 -0.5168738 -1.218334
v -0.2309699 -0.09567094 -1.218334
v -0.2309701 -0.095671 3.372719E-07
v -0.23097 0.09567094 -1.218334
v -1.86276E-07 0.1913419 -1.218334
v -0.4888526 0.6801941 -1.218334
v -0.6521729 0.5168738 -1.218334
v -0.2309699 -0.09567094 -1.218334
v -6.70667E-08 -0.1913416 -1.218334
v -0.6521727 -0.5168738 -1.218334
v -0.4888522 -0.6801941 -1.218334
v -1.86276E-07 0.1913419 -1.218334
v 5.214259E-08 0.1913423 3.372719E-07
v -0.4888524 0.6801946 3.372719E-07
v -0.4888526 0.6801941 -1.218334
v -6.70667E-08 -0.1913416 -1.218334
v 1.713519E-07 -0.1913422 2.180627E-07
v 5.214259E-08 0.1913423 3.372719E-07
v -1.86276E-07 0.1913419 -1.218334
v -0.4888522 -0.6801941 -1.218334
v -0.4888522 -0.6801946 2.776673E-07
v 1.713519E-07 -0.1913422 2.180627E-07
v -6.70667E-08 -0.1913416 -1.218334
v 5.214259E-08 0.1913423 3.372719E-07
v -0.2309701 0.09567097 3.372719E-07
v -0.6521733 0.5168735 2.180627E-07
v -0.4888524 0.6801946 3.372719E-07
v 1.713519E-07 -0.1913422 2.180627E-07
v -0.2309701 -0.095671 3.372719E-07
v -0.4888522 -0.6801946 2.776673E-07
v -0.652173 -0.516874 3.924871E-08
v -0.6521727 -0.5168738 -1.218334
v -0.652173 -0.516874 3.924871E-08
v -0.4888522 -0.6801946 2.776673E-07
v -0.4888522 -0.6801941 -1.218334
v -0.6521729 0.5168738 -1.218334
v -0.4888526 0.6801941 -1.218334
v -0.4888524 0.6801946 3.372719E-07
v -0.6521733 0.5168735 2.180627E-07
vt 0.04874551 0.09729234
vt 0.04874551 0.004882813
vt 0.01713839 0.004882813
vt 0.01713842 0.09729234
vt 0.06310381 0.09729234
vt 0.06310381 0.004882842
vt 0.04874551 0.004882813
vt 0.04874551 0.09729234
vt 0.09471092 0.09729228
vt 0.09471092 0.004882813
vt 0.06310381 0.004882842
vt 0.06310381 0.09729234
vt 0.8670903 0.6155086
vt 0.8819745 0.6092768
vt 0.8504718 0.5774344
vt 0.839947 0.5880727
vt 0.8670903 0.6279719
vt 0.8819745 0.6342036
vt 0.839947 0.6554078
vt 0.8504719 0.666046
vt 0.3749477 0.201373
vt 0.3749477 0.1108632
vt 0.3391034 0.1108632
vt 0.3391035 0.201373
vt 0.4030073 0.201373
vt 0.4030073 0.1108632
vt 0.3749477 0.1108632
vt 0.3749477 0.201373
vt 0.4388515 0.201373
vt 0.4388516 0.1108632
vt 0.4030073 0.1108632
vt 0.4030073 0.201373
vt 0.4219277 0.804458
vt 0.436962 0.8106275
vt 0.4643788 0.7834654
vt 0.453748 0.7729333
vt 0.4219277 0.8291361
vt 0.436962 0.8229666
vt 0.453748 0.8606609
vt 0.4643788 0.8501288
vt 0.09471092 0.004882813
vt 0.09471092 0.09729228
vt 0.1069665 0.09729234
vt 0.1069665 0.004882813
vt 0.01713839 0.004882813
vt 0.004882841 0.004882813
vt 0.004882813 0.09729234
vt 0.01713842 0.09729234
vn -0.7071065 -0.7071071 0
vn -0.7071065 -0.7071071 0
vn -0.7071065 -0.7071071 0
vn -0.7071065 -0.7071071 0
vn -1 0 0
vn -1 0 0
vn -1 0 0
vn -1 0 0
vn -0.7071068 0.7071067 0
vn -0.7071069 0.7071067 0
vn -0.7071069 0.7071067 0
vn -0.7071069 0.7071067 0
vn 0 0 -1
vn 0 0 -1
vn 0 0 -1
vn 0 0 -1
vn 0 0 -1
vn 0 0 -1
vn 0 0 -1
vn 0 0 -1
vn 0.7071067 0.7071068 0
vn 0.7071067 0.7071068 0
vn 0.7071066 0.7071069 0
vn 0.7071066 0.7071069 0
vn 1 0 0
vn 1 0 0
vn 1 0 0
vn 1 0 0
vn 0.7071069 -0.7071066 0
vn 0.7071069 -0.7071066 0
vn 0.7071069 -0.7071066 0
vn 0.7071069 -0.7071066 0
vn 0 0 1
vn 0 0 1
vn 0 0 1
vn 0 0 1
vn 0 0 1
vn 0 0 1
vn 0 0 1
vn 0 0 1
vn -0.7071064 -0.7071072 0
vn -0.7071064 -0.7071071 0
vn -0.7071064 -0.7071071 0
vn -0.7071064 -0.7071072 0
vn -0.7071071 0.7071065 0
vn -0.7071069 0.7071066 0
vn -0.707107 0.7071065 0
vn -0.7071071 0.7071065 0
g box_upper2_0
f 3/3/3 2/2/2 1/1/1
f 4/4/4 3/3/3 1/1/1
f 7/7/7 6/6/6 5/5/5
f 8/8/8 7/7/7 5/5/5
f 11/11/11 10/10/10 9/9/9
f 12/12/12 11/11/11 9/9/9
f 15/15/15 14/14/14 13/13/13
f 16/16/16 15/15/15 13/13/13
f 13/13/13 14/14/14 17/17/17
f 14/14/14 18/18/18 17/17/17
f 17/17/17 18/18/18 19/19/19
f 18/18/18 20/20/20 19/19/19
f 23/23/23 22/22/22 21/21/21
f 24/24/24 23/23/23 21/21/21
f 27/27/27 26/26/26 25/25/25
f 28/28/28 27/27/27 25/25/25
f 31/31/31 30/30/30 29/29/29
f 32/32/32 31/31/31 29/29/29
f 35/35/35 34/34/34 33/33/33
f 36/36/36 35/35/35 33/33/33
f 33/33/33 34/34/34 37/37/37
f 34/34/34 38/38/38 37/37/37
f 37/37/37 38/38/38 39/39/39
f 38/38/38 40/40/40 39/39/39
f 43/43/43 42/42/42 41/41/41
f 44/44/44 43/43/43 41/41/41
f 47/47/47 46/46/46 45/45/45
f 48/48/48 47/47/47 45/45/45
