g box_lower1
v -0.2309699 0.09567091 0.25
v -0.2309699 0.09567088 -0.25
v -0.6521728 0.5168738 -0.25
v -0.6521728 0.5168738 0.25
v -0.2309699 -0.09567091 0.25
v -0.2309699 -0.09567094 -0.25
v -0.2309699 0.09567088 -0.25
v -0.2309699 0.09567091 0.25
v -0.6521727 -0.5168738 0.25
v -0.6521727 -0.5168738 -0.25
v -0.2309699 -0.09567094 -0.25
v -0.2309699 -0.09567091 0.25
v -0.2309699 0.09567088 -0.25
v 0 0.1913416 -0.25
v -0.4888525 0.6801941 -0.25
v -0.6521728 0.5168738 -0.25
v -0.2309699 -0.09567094 -0.25
v 0 -0.1913416 -0.25
v -0.6521727 -0.5168738 -0.25
v -0.4888524 -0.6801941 -0.25
v 0 0.1913416 -0.25
v 0 0.1913416 0.25
v -0.4888525 0.6801941 0.25
v -0.4888525 0.6801941 -0.25
v 0 -0.1913416 -0.25
v 0 -0.1913416 0.25
v 0 0.1913416 0.25
v 0 0.1913416 -0.25
v -0.4888524 -0.6801941 -0.25
v -0.4888524 -0.6801941 0.25
v 0 -0.1913416 0.25
v 0 -0.1913416 -0.25
v -0.6521727 -0.5168738 -0.25
v -0.6521727 -0.5168738 0.25
v -0.4888524 -0.6801941 0.25
v -0.4888524 -0.6801941 -0.25
v -0.6521728 0.5168738 -0.25
v -0.4888525 0.6801941 -0.25
v -0.4888525 0.6801941 0.25
v -0.6521728 0.5168738 0.25
vt 0.7015817 0.7965007
vt 0.7394305 0.7965007
vt 0.7394305 0.7648304
vt 0.7015817 0.7648304
vt 0.7015817 0.8108877
vt 0.7394305 0.8108877
vt 0.7394305 0.7965007
vt 0.7015817 0.7965007
vt 0.7015817 0.842558
vt 0.7394305 0.842558
vt 0.7394305 0.8108877
vt 0.7015817 0.8108877
vt 0.8553686 0.04299756
vt 0.8702369 0.03675925
vt 0.8387676 0.004882813
vt 0.8282542 0.01553236
vt 0.8553686 0.05547431
vt 0.8702369 0.06171268
vt 0.8282542 0.08293951
vt 0.8387676 0.09358912
vt 0.9117308 0.2295938
vt 0.8750256 0.2295938
vt 0.8750256 0.2658676
vt 0.9117308 0.2658676
vt 0.9117308 0.2011982
vt 0.8750256 0.2011982
vt 0.8750256 0.2295938
vt 0.9117308 0.2295938
vt 0.9117308 0.1649245
vt 0.8750256 0.1649245
vt 0.8750256 0.2011982
vt 0.9117308 0.2011982
vt 0.7394305 0.842558
vt 0.7015817 0.842558
vt 0.7015817 0.8548381
vt 0.7394305 0.8548381
vt 0.7394305 0.7648304
vt 0.7394305 0.7525502
vt 0.7015817 0.7525502
vt 0.7015817 0.7648304
vn -0.7071068 -0.7071068 0
vn -0.7071068 -0.7071068 0
vn -0.7071068 -0.7071068 0
vn -0.7071068 -0.7071068 0
vn -1 0 0
vn -1 0 0
vn -1 0 0
vn -1 0 0
vn -0.7071069 0.7071066 0
vn -0.7071069 0.7071066 0
vn -0.7071069 0.7071066 0
vn -0.7071069 0.7071066 0
vn 0 0 -1
vn 0 0 -1
vn 0 0 -1
vn 0 0 -1
vn 0 0 -1
vn 0 0 -1
vn 0 0 -1
vn 0 0 -1
vn 0.7071067 0.7071069 0
vn 0.7071067 0.7071069 0
vn 0.7071067 0.7071069 0
vn 0.7071067 0.7071069 0
vn 1 0 0
vn 1 0 0
vn 1 0 0
vn 1 0 0
vn 0.7071069 -0.7071066 0
vn 0.7071069 -0.7071066 0
vn 0.7071069 -0.7071066 0
vn 0.7071069 -0.7071066 0
vn -0.7071069 -0.7071066 0
vn -0.7071069 -0.7071066 0
vn -0.7071069 -0.7071066 0
vn -0.7071069 -0.7071066 0
vn -0.7071068 0.7071068 0
vn -0.7071068 0.7071068 0
vn -0.7071068 0.7071068 0
vn -0.7071068 0.7071068 0
g box_lower1_0
f 3/3/3 2/2/2 1/1/1
f 4/4/4 3/3/3 1/1/1
f 7/7/7 6/6/6 5/5/5
f 8/8/8 7/7/7 5/5/5
f 11/11/11 10/10/10 9/9/9
f 12/12/12 11/11/11 9/9/9
f 15/15/15 14/14/14 13/13/13
f 16/16/16 15/15/15 13/13/13
f 13/13/13 14/14/14 17/17/17
f 14/14/14 18/18/18 17/17/17
f 17/17/17 18/18/18 19/19/19
f 18/18/18 20/20/20 19/19/19
f 23/23/23 22/22/22 21/21/21
f 24/24/24 23/23/23 21/21/21
f 27/27/27 26/26/26 25/25/25
f 28/28/28 27/27/27 25/25/25
f 31/31/31 30/30/30 29/29/29
f 32/32/32 31/31/31 29/29/29
f 35/35/35 34/34/34 33/33/33
f 36/36/36 35/35/35 33/33/33
f 39/39/39 38/38/38 37/37/37
f 40/40/40 39/39/39 37/37/37
