g box_middle
v -0.23097 0.09567095 5.442365E-07
v -0.2309697 0.09567071 -1.218333
v -0.6521726 0.5168736 -1.218334
v -0.6521729 0.5168738 4.846319E-07
v -0.23097 -0.09567093 5.442365E-07
v -0.2309697 -0.09567093 -1.218333
v -0.2309697 0.09567071 -1.218333
v -0.23097 0.09567095 5.442365E-07
v -0.6521728 -0.5168738 4.250272E-07
v -0.6521726 -0.5168738 -1.218333
v -0.2309697 -0.09567093 -1.218333
v -0.23097 -0.09567093 5.442365E-07
v -0.2309697 0.09567071 -1.218333
v 1.24509E-07 0.1913416 -1.218333
v -0.4888523 0.6801939 -1.218333
v -0.6521726 0.5168736 -1.218334
v -0.2309697 -0.09567093 -1.218333
v 1.24509E-07 -0.1913419 -1.218333
v -0.6521726 -0.5168738 -1.218333
v -0.488852 -0.6801944 -1.218333
v 1.24509E-07 0.1913416 -1.218333
v 3.629276E-07 0.1913424 5.442365E-07
v -0.4888521 0.6801946 4.846319E-07
v -0.4888523 0.6801939 -1.218333
v 1.24509E-07 -0.1913419 -1.218333
v 3.629276E-07 -0.1913422 5.442365E-07
v 3.629276E-07 0.1913424 5.442365E-07
v 1.24509E-07 0.1913416 -1.218333
v -0.488852 -0.6801944 -1.218333
v -0.488852 -0.6801946 4.250272E-07
v 3.629276E-07 -0.1913422 5.442365E-07
v 1.24509E-07 -0.1913419 -1.218333
v 3.629276E-07 0.1913424 5.442365E-07
v -0.23097 0.09567095 5.442365E-07
v -0.6521729 0.5168738 4.846319E-07
v -0.4888521 0.6801946 4.846319E-07
v 3.629276E-07 -0.1913422 5.442365E-07
v -0.23097 -0.09567093 5.442365E-07
v -0.488852 -0.6801946 4.250272E-07
v -0.6521728 -0.5168738 4.250272E-07
v -0.6521726 -0.5168738 -1.218333
v -0.6521728 -0.5168738 4.250272E-07
v -0.488852 -0.6801946 4.250272E-07
v -0.488852 -0.6801944 -1.218333
v -0.6521726 0.5168736 -1.218334
v -0.4888523 0.6801939 -1.218333
v -0.4888521 0.6801946 4.846319E-07
v -0.6521729 0.5168738 4.846319E-07
vt 0.15593 0.1946312
vt 0.15593 0.1022217
vt 0.1243229 0.1022217
vt 0.1243228 0.1946312
vt 0.1702882 0.1946312
vt 0.1702882 0.1022217
vt 0.15593 0.1022217
vt 0.15593 0.1946312
vt 0.2018954 0.1946312
vt 0.2018954 0.1022217
vt 0.1702882 0.1022217
vt 0.1702882 0.1946312
vt 0.8670582 0.7090909
vt 0.8819247 0.7028518
vt 0.8504593 0.6709716
vt 0.839947 0.6816224
vt 0.8670582 0.7215691
vt 0.8819247 0.7278083
vt 0.839947 0.7490376
vt 0.8504593 0.7596884
vt 0.1741058 0.3904284
vt 0.1741058 0.4808201
vt 0.2099968 0.4808201
vt 0.2099968 0.3904284
vt 0.1460095 0.3904284
vt 0.1460095 0.4808201
vt 0.1741058 0.4808201
vt 0.1741058 0.3904284
vt 0.1101184 0.3904284
vt 0.1101184 0.4808201
vt 0.1460095 0.4808201
vt 0.1460095 0.3904284
vt 0.8765014 0.3556266
vt 0.8614849 0.3494498
vt 0.8341006 0.3766441
vt 0.8447189 0.3871886
vt 0.8765014 0.3309192
vt 0.8614849 0.337096
vt 0.8447189 0.2993571
vt 0.8341006 0.3099017
vt 0.2018954 0.1022217
vt 0.2018954 0.1946312
vt 0.214151 0.1946312
vt 0.2141509 0.1022217
vt 0.1243229 0.1022217
vt 0.1120673 0.1022217
vt 0.1120673 0.1946312
vt 0.1243228 0.1946312
vn -0.7071068 -0.7071068 0
vn -0.7071068 -0.7071068 0
vn -0.7071068 -0.7071068 0
vn -0.7071068 -0.7071068 0
vn -1 0 0
vn -1 0 0
vn -1 0 0
vn -1 0 0
vn -0.7071068 0.7071067 0
vn -0.7071068 0.7071068 0
vn -0.7071068 0.7071068 0
vn -0.7071068 0.7071067 0
vn 0 0 -1
vn 0 0 -1
vn 0 0 -1
vn 0 0 -1
vn 0 0 -1
vn 0 0 -1
vn 0 0 -1
vn 0 0 -1
vn 0.7071066 0.7071069 0
vn 0.7071066 0.7071069 0
vn 0.7071066 0.7071069 0
vn 0.7071067 0.7071069 0
vn 1 0 0
vn 1 0 0
vn 1 0 0
vn 1 0 0
vn 0.7071069 -0.7071066 0
vn 0.7071069 -0.7071066 0
vn 0.7071069 -0.7071066 0
vn 0.7071069 -0.7071066 0
vn 0 0 1
vn 0 0 1
vn 0 0 1
vn 0 0 1
vn 0 0 1
vn 0 0 1
vn 0 0 1
vn 0 0 1
vn -0.7071068 -0.7071068 0
vn -0.7071068 -0.7071068 0
vn -0.7071068 -0.7071068 0
vn -0.7071068 -0.7071068 0
vn -0.7071068 0.7071068 0
vn -0.7071068 0.7071068 0
vn -0.7071067 0.7071068 0
vn -0.7071068 0.7071068 0
g box_middle_0
f 3/3/3 2/2/2 1/1/1
f 4/4/4 3/3/3 1/1/1
f 7/7/7 6/6/6 5/5/5
f 8/8/8 7/7/7 5/5/5
f 11/11/11 10/10/10 9/9/9
f 12/12/12 11/11/11 9/9/9
f 15/15/15 14/14/14 13/13/13
f 16/16/16 15/15/15 13/13/13
f 13/13/13 14/14/14 17/17/17
f 14/14/14 18/18/18 17/17/17
f 17/17/17 18/18/18 19/19/19
f 18/18/18 20/20/20 19/19/19
f 23/23/23 22/22/22 21/21/21
f 24/24/24 23/23/23 21/21/21
f 27/27/27 26/26/26 25/25/25
f 28/28/28 27/27/27 25/25/25
f 31/31/31 30/30/30 29/29/29
f 32/32/32 31/31/31 29/29/29
f 35/35/35 34/34/34 33/33/33
f 36/36/36 35/35/35 33/33/33
f 33/33/33 34/34/34 37/37/37
f 34/34/34 38/38/38 37/37/37
f 37/37/37 38/38/38 39/39/39
f 38/38/38 40/40/40 39/39/39
f 43/43/43 42/42/42 41/41/41
f 44/44/44 43/43/43 41/41/41
f 47/47/47 46/46/46 45/45/45
f 48/48/48 47/47/47 45/45/45
