g bulletMesh
v 0.8660254 7.571035E-08 5.960464E-08
v 2.311869E-17 0 0.8112215
v -1.135655E-07 0.8660254 0
v 3.785517E-08 -0.8660254 0
v 2.311869E-17 0 0.8112215
v 0.8660254 7.571035E-08 5.960464E-08
v -0.8660254 1.154172E-16 0
v 2.311869E-17 0 0.8112215
v 3.785517E-08 -0.8660254 0
v -1.135655E-07 0.8660254 0
v 2.311869E-17 0 0.8112215
v -0.8660254 1.154172E-16 0
v -1.135655E-07 0.8660254 0
v 2.218107E-16 0 -0.8112216
v 0.8660254 7.571035E-08 5.960464E-08
v 0.8660254 7.571035E-08 5.960464E-08
v 2.218107E-16 0 -0.8112216
v 3.785517E-08 -0.8660254 0
v 3.785517E-08 -0.8660254 0
v 2.218107E-16 0 -0.8112216
v -0.8660254 1.154172E-16 0
v -0.8660254 1.154172E-16 0
v 2.218107E-16 0 -0.8112216
v -1.135655E-07 0.8660254 0
vt 0.25 0.5
vt 0.125 0
vt 0 0.5
vt 0.5 0.5
vt 0.375 0
vt 0.25 0.5
vt 0.75 0.5
vt 0.625 0
vt 0.5 0.5
vt 1 0.5
vt 0.875 0
vt 0.75 0.5
vt 0 0.5
vt 0.125 1
vt 0.25 0.5
vt 0.25 0.5
vt 0.375 1
vt 0.5 0.5
vt 0.5 0.5
vt 0.625 1
vt 0.75 0.5
vt 0.75 0.5
vt 0.875 1
vt 1 0.5
vn 0.5643615 0.5643616 0.6024882
vn 0.5643615 0.5643616 0.6024882
vn 0.5643615 0.5643616 0.6024882
vn 0.5643616 -0.5643615 0.6024883
vn 0.5643615 -0.5643615 0.6024883
vn 0.5643616 -0.5643615 0.6024883
vn -0.5643615 -0.5643616 0.6024882
vn -0.5643615 -0.5643616 0.6024883
vn -0.5643615 -0.5643616 0.6024882
vn -0.5643615 0.5643615 0.6024883
vn -0.5643615 0.5643615 0.6024883
vn -0.5643615 0.5643615 0.6024883
vn 0.5643615 0.5643616 -0.6024882
vn 0.5643615 0.5643616 -0.6024882
vn 0.5643615 0.5643616 -0.6024882
vn 0.5643616 -0.5643615 -0.6024882
vn 0.5643616 -0.5643615 -0.6024882
vn 0.5643616 -0.5643615 -0.6024882
vn -0.5643616 -0.5643616 -0.6024882
vn -0.5643615 -0.5643616 -0.6024882
vn -0.5643616 -0.5643616 -0.6024882
vn -0.5643616 0.5643615 -0.6024883
vn -0.5643615 0.5643615 -0.6024883
vn -0.5643616 0.5643615 -0.6024883
g bulletMesh_0
f 3/3/3 2/2/2 1/1/1
f 6/6/6 5/5/5 4/4/4
f 9/9/9 8/8/8 7/7/7
f 12/12/12 11/11/11 10/10/10
f 15/15/15 14/14/14 13/13/13
f 18/18/18 17/17/17 16/16/16
f 21/21/21 20/20/20 19/19/19
f 24/24/24 23/23/23 22/22/22
