g corner_02
v 0.1350015 0.15 0
v -0.1350015 0.15 0
v -0.1350015 0.15 -0.1616242
v 0.1350015 0.15 -0.1616242
v -0.15 0.1350015 0
v -0.15 -0.1350015 0
v -0.15 -0.1350015 -0.1616241
v -0.15 0.1350015 -0.1616241
v 0.15 0.1350015 -0.1616241
v 0.15 -0.1350015 -0.1616241
v 0.15 -0.1350015 0
v 0.15 0.1350015 0
v -0.1350015 0.1350015 -0.1766227
v -0.1350015 -0.1350015 -0.1766227
v 0.1350015 -0.1350015 -0.1766227
v 0.1350015 0.1350015 -0.1766227
v 0.1350015 -0.15 -0.1616242
v -0.1350015 -0.15 -0.1616242
v -0.1350015 -0.15 0
v 0.1350015 -0.15 0
v -0.15 0.1350015 0
v -0.15 0.1350015 -0.1616241
v -0.1350015 0.15 -0.1616242
v -0.1350015 0.15 0
v 0.1350015 0.15 0
v 0.1350015 0.15 -0.1616242
v 0.15 0.1350015 -0.1616241
v 0.15 0.1350015 0
v -0.15 0.1350015 -0.1616241
v -0.15 -0.1350015 -0.1616241
v -0.1350015 -0.1350015 -0.1766227
v -0.1350015 0.1350015 -0.1766227
v 0.1350015 0.15 -0.1616242
v -0.1350015 0.15 -0.1616242
v -0.1350015 0.1350015 -0.1766227
v 0.1350015 0.1350015 -0.1766227
v 0.1350015 0.1350015 -0.1766227
v 0.1350015 -0.1350015 -0.1766227
v 0.15 -0.1350015 -0.1616241
v 0.15 0.1350015 -0.1616241
v -0.1350015 -0.15 -0.1616242
v -0.15 -0.1350015 -0.1616241
v -0.15 -0.1350015 0
v -0.1350015 -0.15 0
v 0.1350015 -0.1350015 -0.1766227
v -0.1350015 -0.1350015 -0.1766227
v -0.1350015 -0.15 -0.1616242
v 0.1350015 -0.15 -0.1616242
v 0.15 -0.1350015 0
v 0.15 -0.1350015 -0.1616241
v 0.1350015 -0.15 -0.1616242
v 0.1350015 -0.15 0
v -0.1350015 0.1350015 -0.1766227
v -0.1350015 0.15 -0.1616242
v -0.15 0.1350015 -0.1616241
v 0.15 0.1350015 -0.1616241
v 0.1350015 0.15 -0.1616242
v 0.1350015 0.1350015 -0.1766227
v -0.1350015 -0.15 -0.1616242
v -0.1350015 -0.1350015 -0.1766227
v -0.15 -0.1350015 -0.1616241
v 0.15 -0.1350015 -0.1616241
v 0.1350015 -0.1350015 -0.1766227
v 0.1350015 -0.15 -0.1616242
vt 0.5080621 0.104661
vt 0.3102877 0.1046325
vt 0.3103108 0.2230469
vt 0.5080494 0.2230232
vt 0.2947407 0.1046252
vt 0.09680507 0.104678
vt 0.09689932 0.2232024
vt 0.2947774 0.2230602
vt 0.5235773 0.2230208
vt 0.7212517 0.2230662
vt 0.7212889 0.1047365
vt 0.5235976 0.104669
vt 0.7243512 0.2709946
vt 0.7243436 0.4708251
vt 0.9199746 0.4672438
vt 0.9202874 0.2713075
vt 0.7367784 0.2230703
vt 0.9344379 0.2231432
vt 0.9344828 0.1048222
vt 0.7368186 0.1047439
vt 0.2947407 0.1046252
vt 0.2947774 0.2230602
vt 0.3103108 0.2230469
vt 0.3102877 0.1046325
vt 0.5080621 0.104661
vt 0.5080494 0.2230232
vt 0.5235773 0.2230208
vt 0.5235976 0.104669
vt 0.7048797 0.272521
vt 0.7087663 0.4720463
vt 0.7243436 0.4708251
vt 0.7243512 0.2709946
vt 0.9190663 0.2557303
vt 0.72313 0.2554174
vt 0.7243512 0.2709946
vt 0.9202874 0.2713075
vt 0.9202874 0.2713075
vt 0.9199746 0.4672438
vt 0.9358571 0.4699169
vt 0.9358647 0.2700863
vt 0.9344379 0.2231432
vt 0.9499658 0.2231492
vt 0.9500107 0.1048284
vt 0.9344828 0.1048222
vt 0.9199746 0.4672438
vt 0.7243436 0.4708251
vt 0.7255647 0.4864024
vt 0.9211957 0.482821
vt 0.7212889 0.1047365
vt 0.7212517 0.2230662
vt 0.7367784 0.2230703
vt 0.7368186 0.1047439
vt 0.7243512 0.2709946
vt 0.72313 0.2554174
vt 0.7048797 0.272521
vt 0.9358647 0.2700863
vt 0.9190663 0.2557303
vt 0.9202874 0.2713075
vt 0.7255647 0.4864024
vt 0.7243436 0.4708251
vt 0.7087663 0.4720463
vt 0.9358571 0.4699169
vt 0.9199746 0.4672438
vt 0.9211957 0.482821
vn 0 1 0
vn 0 1 0
vn 0 1 0
vn 0 1 0
vn -1 0 0
vn -1 0 0
vn -1 0 0
vn -1 0 0
vn 1 0 0
vn 1 0 0
vn 1 0 0
vn 1 0 0
vn 0 0 -1
vn 0 0 -1
vn 0 0 -1
vn 0 0 -1
vn 0 -1 0
vn 0 -1 0
vn 0 -1 0
vn 0 -1 0
vn -0.7071066 0.707107 0
vn -0.7071066 0.707107 0
vn -0.7071066 0.707107 0
vn -0.7071066 0.707107 0
vn 0.7071066 0.707107 0
vn 0.7071066 0.707107 0
vn 0.7071066 0.707107 0
vn 0.7071066 0.707107 0
vn -0.707107 0 -0.7071066
vn -0.707107 0 -0.7071066
vn -0.707107 0 -0.7071066
vn -0.707107 0 -0.7071066
vn 0 0.7071066 -0.707107
vn 0 0.7071066 -0.707107
vn 0 0.7071066 -0.707107
vn 0 0.7071066 -0.707107
vn 0.707107 0 -0.7071066
vn 0.707107 0 -0.7071066
vn 0.707107 0 -0.7071066
vn 0.707107 0 -0.7071066
vn -0.7071066 -0.707107 0
vn -0.7071066 -0.707107 0
vn -0.7071066 -0.707107 0
vn -0.7071066 -0.707107 0
vn 0 -0.7071066 -0.707107
vn 0 -0.7071066 -0.707107
vn 0 -0.7071066 -0.707107
vn 0 -0.7071066 -0.707107
vn 0.7071066 -0.707107 0
vn 0.7071066 -0.707107 0
vn 0.7071066 -0.707107 0
vn 0.7071066 -0.707107 0
vn -0.5773503 0.5773503 -0.5773503
vn -0.5773503 0.5773503 -0.5773503
vn -0.5773503 0.5773503 -0.5773503
vn 0.5773503 0.5773503 -0.5773503
vn 0.5773503 0.5773503 -0.5773503
vn 0.5773503 0.5773503 -0.5773503
vn -0.5773503 -0.5773503 -0.5773503
vn -0.5773503 -0.5773503 -0.5773503
vn -0.5773503 -0.5773503 -0.5773503
vn 0.5773503 -0.5773503 -0.5773503
vn 0.5773503 -0.5773503 -0.5773503
vn 0.5773503 -0.5773503 -0.5773503
g corner_02_0
f 3/3/3 2/2/2 1/1/1
f 4/4/4 3/3/3 1/1/1
f 7/7/7 6/6/6 5/5/5
f 8/8/8 7/7/7 5/5/5
f 11/11/11 10/10/10 9/9/9
f 12/12/12 11/11/11 9/9/9
f 15/15/15 14/14/14 13/13/13
f 16/16/16 15/15/15 13/13/13
f 19/19/19 18/18/18 17/17/17
f 20/20/20 19/19/19 17/17/17
f 23/23/23 22/22/22 21/21/21
f 24/24/24 23/23/23 21/21/21
f 27/27/27 26/26/26 25/25/25
f 28/28/28 27/27/27 25/25/25
f 31/31/31 30/30/30 29/29/29
f 32/32/32 31/31/31 29/29/29
f 35/35/35 34/34/34 33/33/33
f 36/36/36 35/35/35 33/33/33
f 39/39/39 38/38/38 37/37/37
f 40/40/40 39/39/39 37/37/37
f 43/43/43 42/42/42 41/41/41
f 44/44/44 43/43/43 41/41/41
f 47/47/47 46/46/46 45/45/45
f 48/48/48 47/47/47 45/45/45
f 51/51/51 50/50/50 49/49/49
f 52/52/52 51/51/51 49/49/49
f 55/55/55 54/54/54 53/53/53
f 58/58/58 57/57/57 56/56/56
f 61/61/61 60/60/60 59/59/59
f 64/64/64 63/63/63 62/62/62
