g CubesLow
v 0.6945958 2.868474E-07 -0.5119032
v 0.6945958 1.777537 -0.5119032
v 1.470927 1.777537 -0.5119032
v 1.470927 2.868474E-07 -0.5119032
v 0.6945958 1.777537 -0.5119032
v 0.6945958 1.777537 -1.288235
v 1.470927 1.777537 -1.288235
v 1.470927 1.777537 -0.5119032
v 0.6945958 1.777537 -1.288235
v 0.6945958 2.868474E-07 -1.288235
v 1.470927 2.868474E-07 -1.288235
v 1.470927 1.777537 -1.288235
v 1.470927 2.868474E-07 -0.5119032
v 1.470927 1.777537 -0.5119032
v 1.470927 1.777537 -1.288235
v 1.470927 2.868474E-07 -1.288235
v 0.6945958 2.868474E-07 -1.288235
v 0.6945958 1.777537 -1.288235
v 0.6945958 1.777537 -0.5119032
v 0.6945958 2.868474E-07 -0.5119032
v -0.804651 -1.825392E-07 2.561332
v -0.804651 1.59735 2.561332
v -0.02831966 1.59735 2.561332
v -0.02831966 -1.825392E-07 2.561332
v -0.804651 1.59735 2.561332
v -0.804651 1.59735 1.785
v -0.02831966 1.59735 1.785
v -0.02831966 1.59735 2.561332
v -0.804651 1.59735 1.785
v -0.804651 -1.825392E-07 1.785
v -0.02831966 -1.825392E-07 1.785
v -0.02831966 1.59735 1.785
v -0.02831966 -1.825392E-07 2.561332
v -0.02831966 1.59735 2.561332
v -0.02831966 1.59735 1.785
v -0.02831966 -1.825392E-07 1.785
v -0.804651 -1.825392E-07 1.785
v -0.804651 1.59735 1.785
v -0.804651 1.59735 2.561332
v -0.804651 -1.825392E-07 2.561332
v 0.628726 -8.940697E-08 2.150801
v 0.628726 1.464875 2.150801
v 1.621811 1.464875 2.150801
v 1.621811 -8.940697E-08 2.150801
v 0.628726 1.464875 2.150801
v 0.628726 1.464875 1.157716
v 1.621811 1.464875 1.157716
v 1.621811 1.464875 2.150801
v 0.628726 1.464875 1.157716
v 0.628726 -8.940697E-08 1.157716
v 1.621811 -8.940697E-08 1.157716
v 1.621811 1.464875 1.157716
v 1.621811 -8.940697E-08 2.150801
v 1.621811 1.464875 2.150801
v 1.621811 1.464875 1.157716
v 1.621811 -8.940697E-08 1.157716
v 0.628726 -8.940697E-08 1.157716
v 0.628726 1.464875 1.157716
v 0.628726 1.464875 2.150801
v 0.628726 -8.940697E-08 2.150801
v 0.07427478 0 1.550379
v 0.07427478 2.16427 1.550379
v 1.244812 2.16427 1.550379
v 1.244812 0 1.550379
v 0.07427478 2.16427 1.550379
v 0.07427478 2.16427 0.3798419
v 1.244812 2.16427 0.3798419
v 1.244812 2.16427 1.550379
v 0.07427478 2.16427 0.3798419
v 0.07427478 0 0.3798419
v 1.244812 0 0.3798419
v 1.244812 2.16427 0.3798419
v 1.244812 0 1.550379
v 1.244812 2.16427 1.550379
v 1.244812 2.16427 0.3798419
v 1.244812 0 0.3798419
v 0.07427478 0 0.3798419
v 0.07427478 2.16427 0.3798419
v 0.07427478 2.16427 1.550379
v 0.07427478 0 1.550379
v -0.682433 -1.642853E-06 -0.1195719
v -0.682433 4.497427 -0.1195719
v -0.01171479 4.497427 -0.1195719
v -0.01171479 -1.642853E-06 -0.1195719
v -0.682433 4.497427 -0.1195719
v -0.682433 4.497427 -0.7902901
v -0.01171479 4.497427 -0.7902901
v -0.01171479 4.497427 -0.1195719
v -0.682433 4.497427 -0.7902901
v -0.682433 -1.642853E-06 -0.7902901
v -0.01171479 -1.642853E-06 -0.7902901
v -0.01171479 4.497427 -0.7902901
v -0.01171479 -1.642853E-06 -0.1195719
v -0.01171479 4.497427 -0.1195719
v -0.01171479 4.497427 -0.7902901
v -0.01171479 -1.642853E-06 -0.7902901
v -0.682433 -1.642853E-06 -0.7902901
v -0.682433 4.497427 -0.7902901
v -0.682433 4.497427 -0.1195719
v -0.682433 -1.642853E-06 -0.1195719
v -1.621811 -4.582107E-07 0.9357523
v -1.621811 2.843003 0.9357523
v -0.3533071 2.843003 0.9357523
v -0.3533071 -4.582107E-07 0.9357523
v -1.621811 2.843003 0.9357523
v -1.621811 2.843003 -0.3327518
v -0.3533071 2.843003 -0.3327518
v -0.3533071 2.843003 0.9357523
v -1.621811 2.843003 -0.3327518
v -1.621811 -4.582107E-07 -0.3327518
v -0.3533071 -4.582107E-07 -0.3327518
v -0.3533071 2.843003 -0.3327518
v -0.3533071 -4.582107E-07 0.9357523
v -0.3533071 2.843003 0.9357523
v -0.3533071 2.843003 -0.3327518
v -0.3533071 -4.582107E-07 -0.3327518
v -1.621811 -4.582107E-07 -0.3327518
v -1.621811 2.843003 -0.3327518
v -1.621811 2.843003 0.9357523
v -1.621811 -4.582107E-07 0.9357523
v -1.321378 3.622845E-07 -1.390794
v -1.321378 1.15913 -1.390794
v -0.1508403 1.15913 -1.390794
v -0.1508403 3.622845E-07 -1.390794
v -1.321378 1.15913 -1.390794
v -1.321378 1.15913 -2.561332
v -0.1508403 1.15913 -2.561332
v -0.1508403 1.15913 -1.390794
v -1.321378 1.15913 -2.561332
v -1.321378 3.622845E-07 -2.561332
v -0.1508403 3.622845E-07 -2.561332
v -0.1508403 1.15913 -2.561332
v -0.1508403 3.622845E-07 -1.390794
v -0.1508403 1.15913 -1.390794
v -0.1508403 1.15913 -2.561332
v -0.1508403 3.622845E-07 -2.561332
v -1.321378 3.622845E-07 -2.561332
v -1.321378 1.15913 -2.561332
v -1.321378 1.15913 -1.390794
v -1.321378 3.622845E-07 -1.390794
vt 0.9122531 0.2285835
vt 0.9122531 0.05372831
vt 0.8358859 0.05372831
vt 0.8358859 0.2285835
vt 0.2935651 0.8479605
vt 0.408149 0.8479605
vt 0.408149 0.7333763
vt 0.2935651 0.7333763
vt 0.9174846 0.4100544
vt 0.9174846 0.2351993
vt 0.8411173 0.2351993
vt 0.8411173 0.4100544
vt 0.7155632 0.2730572
vt 0.7155632 0.4479123
vt 0.7919305 0.4479123
vt 0.7919305 0.2730572
vt 0.4731745 0.2730647
vt 0.4731745 0.4479198
vt 0.5495419 0.4479198
vt 0.5495419 0.2730647
vt 0.7099715 0.6102405
vt 0.7099715 0.4531102
vt 0.6336043 0.4531102
vt 0.6336043 0.6102405
vt 0.413886 0.8499458
vt 0.52847 0.8499458
vt 0.52847 0.7353618
vt 0.413886 0.7353618
vt 0.5076908 0.6103825
vt 0.5076908 0.4532522
vt 0.4313238 0.4532522
vt 0.4313238 0.6103825
vt 0.5499015 0.4540578
vt 0.5499015 0.6111883
vt 0.6262686 0.6111883
vt 0.6262686 0.4540578
vt 0.7138194 0.4541472
vt 0.7138194 0.6112775
vt 0.7901867 0.6112775
vt 0.7901867 0.4541472
vt 0.1680487 0.6453851
vt 0.1680487 0.5012861
vt 0.07035956 0.5012861
vt 0.07035956 0.6453851
vt 0.5342073 0.7361571
vt 0.5342073 0.8507411
vt 0.6487913 0.8507411
vt 0.6487913 0.7361571
vt 0.2779078 0.6441846
vt 0.2779078 0.5000855
vt 0.1802185 0.5000855
vt 0.1802185 0.6441846
vt 0.2831024 0.5001667
vt 0.2831024 0.6442657
vt 0.3807917 0.6442657
vt 0.3807917 0.5001667
vt 0.7940345 0.5943096
vt 0.7940345 0.7384085
vt 0.8917238 0.7384085
vt 0.8917238 0.5943096
vt 0.4662548 0.267
vt 0.4662548 0.054102
vt 0.3511099 0.054102
vt 0.3511099 0.267
vt 0.6545299 0.7371445
vt 0.6545299 0.8517286
vt 0.7691139 0.8517286
vt 0.7691139 0.7371445
vt 0.5883196 0.2669787
vt 0.5883196 0.05408075
vt 0.4731745 0.05408075
vt 0.4731745 0.2669787
vt 0.5952405 0.05408576
vt 0.5952405 0.2669838
vt 0.7103855 0.2669838
vt 0.7103855 0.05408576
vt 0.7155632 0.05286932
vt 0.7155632 0.2657673
vt 0.8307081 0.2657673
vt 0.8307081 0.05286932
vt 0.1363375 0.4938604
vt 0.1363375 0.05145088
vt 0.0703595 0.05145088
vt 0.0703595 0.4938604
vt 0.7835717 0.8563321
vt 0.8981555 0.8563321
vt 0.8981555 0.7417477
vt 0.7835717 0.7417477
vt 0.2060893 0.4954118
vt 0.2060893 0.05300224
vt 0.1401112 0.05300224
vt 0.1401112 0.4954118
vt 0.209863 0.05250037
vt 0.209863 0.4949098
vt 0.275841 0.4949098
vt 0.275841 0.05250037
vt 0.2796148 0.05285731
vt 0.2796148 0.4952667
vt 0.3455929 0.4952667
vt 0.3455929 0.05285731
vt 0.4286183 0.4451658
vt 0.4286183 0.2714517
vt 0.3511099 0.2714517
vt 0.3511099 0.4451658
vt 0.07035956 0.7700328
vt 0.0703595 0.8846169
vt 0.1849435 0.8846169
vt 0.1849436 0.7700328
vt 0.6326414 0.4460746
vt 0.6326414 0.2723607
vt 0.5551329 0.2723607
vt 0.5551329 0.4460746
vt 0.7957783 0.4152264
vt 0.7957783 0.5889404
vt 0.8732868 0.5889404
vt 0.8732868 0.4152264
vt 0.8777372 0.4159061
vt 0.8777372 0.5896202
vt 0.9552456 0.5896202
vt 0.9552456 0.4159061
vt 0.3999358 0.7288587
vt 0.5139588 0.7288587
vt 0.5139588 0.6137136
vt 0.3999358 0.6137136
vt 0.1889375 0.8539816
vt 0.1889375 0.9685655
vt 0.3035214 0.9685655
vt 0.3035214 0.8539816
vt 0.5202569 0.730467
vt 0.6342798 0.730467
vt 0.6342798 0.6153218
vt 0.5202569 0.6153218
vt 0.6405795 0.7320029
vt 0.7546024 0.7320029
vt 0.7546024 0.6168578
vt 0.6405795 0.6168578
vt 0.1732433 0.7655559
vt 0.2872663 0.7655559
vt 0.2872663 0.6504108
vt 0.1732433 0.6504108
vn 0 0 1
vn 0 0 1
vn 0 0 1
vn 0 0 1
vn 0 1 0
vn 0 1 0
vn 0 1 0
vn 0 1 0
vn 0 0 -1
vn 0 0 -1
vn 0 0 -1
vn 0 0 -1
vn 1 0 0
vn 1 0 0
vn 1 0 0
vn 1 0 0
vn -1 0 0
vn -1 0 0
vn -1 0 0
vn -1 0 0
vn 0 0 1
vn 0 0 1
vn 0 0 1
vn 0 0 1
vn 0 1 0
vn 0 1 0
vn 0 1 0
vn 0 1 0
vn 0 0 -1
vn 0 0 -1
vn 0 0 -1
vn 0 0 -1
vn 1 0 0
vn 1 0 0
vn 1 0 0
vn 1 0 0
vn -1 0 0
vn -1 0 0
vn -1 0 0
vn -1 0 0
vn 0 0 1
vn 0 0 1
vn 0 0 1
vn 0 0 1
vn 0 1 0
vn 0 1 0
vn 0 1 0
vn 0 1 0
vn 0 0 -1
vn 0 0 -1
vn 0 0 -1
vn 0 0 -1
vn 1 0 0
vn 1 0 0
vn 1 0 0
vn 1 0 0
vn -1 0 0
vn -1 0 0
vn -1 0 0
vn -1 0 0
vn 0 0 1
vn 0 0 1
vn 0 0 1
vn 0 0 1
vn 0 1 0
vn 0 1 0
vn 0 1 0
vn 0 1 0
vn 0 0 -1
vn 0 0 -1
vn 0 0 -1
vn 0 0 -1
vn 1 0 0
vn 1 0 0
vn 1 0 0
vn 1 0 0
vn -1 0 0
vn -1 0 0
vn -1 0 0
vn -1 0 0
vn 0 0 1
vn 0 0 1
vn 0 0 1
vn 0 0 1
vn 0 1 0
vn 0 1 0
vn 0 1 0
vn 0 1 0
vn 0 0 -1
vn 0 0 -1
vn 0 0 -1
vn 0 0 -1
vn 1 0 0
vn 1 0 0
vn 1 0 0
vn 1 0 0
vn -1 0 0
vn -1 0 0
vn -1 0 0
vn -1 0 0
vn 0 0 1
vn 0 0 1
vn 0 0 1
vn 0 0 1
vn 0 1 0
vn 0 1 0
vn 0 1 0
vn 0 1 0
vn 0 0 -1
vn 0 0 -1
vn 0 0 -1
vn 0 0 -1
vn 1 0 0
vn 1 0 0
vn 1 0 0
vn 1 0 0
vn -1 0 0
vn -1 0 0
vn -1 0 0
vn -1 0 0
vn 0 0 1
vn 0 0 1
vn 0 0 1
vn 0 0 1
vn 0 1 0
vn 0 1 0
vn 0 1 0
vn 0 1 0
vn 0 0 -1
vn 0 0 -1
vn 0 0 -1
vn 0 0 -1
vn 1 0 0
vn 1 0 0
vn 1 0 0
vn 1 0 0
vn -1 0 0
vn -1 0 0
vn -1 0 0
vn -1 0 0
g CubesLow_0
f 3/3/3 2/2/2 1/1/1
f 4/4/4 3/3/3 1/1/1
f 7/7/7 6/6/6 5/5/5
f 8/8/8 7/7/7 5/5/5
f 11/11/11 10/10/10 9/9/9
f 12/12/12 11/11/11 9/9/9
f 15/15/15 14/14/14 13/13/13
f 16/16/16 15/15/15 13/13/13
f 19/19/19 18/18/18 17/17/17
f 20/20/20 19/19/19 17/17/17
f 23/23/23 22/22/22 21/21/21
f 24/24/24 23/23/23 21/21/21
f 27/27/27 26/26/26 25/25/25
f 28/28/28 27/27/27 25/25/25
f 31/31/31 30/30/30 29/29/29
f 32/32/32 31/31/31 29/29/29
f 35/35/35 34/34/34 33/33/33
f 36/36/36 35/35/35 33/33/33
f 39/39/39 38/38/38 37/37/37
f 40/40/40 39/39/39 37/37/37
f 43/43/43 42/42/42 41/41/41
f 44/44/44 43/43/43 41/41/41
f 47/47/47 46/46/46 45/45/45
f 48/48/48 47/47/47 45/45/45
f 51/51/51 50/50/50 49/49/49
f 52/52/52 51/51/51 49/49/49
f 55/55/55 54/54/54 53/53/53
f 56/56/56 55/55/55 53/53/53
f 59/59/59 58/58/58 57/57/57
f 60/60/60 59/59/59 57/57/57
f 63/63/63 62/62/62 61/61/61
f 64/64/64 63/63/63 61/61/61
f 67/67/67 66/66/66 65/65/65
f 68/68/68 67/67/67 65/65/65
f 71/71/71 70/70/70 69/69/69
f 72/72/72 71/71/71 69/69/69
f 75/75/75 74/74/74 73/73/73
f 76/76/76 75/75/75 73/73/73
f 79/79/79 78/78/78 77/77/77
f 80/80/80 79/79/79 77/77/77
f 83/83/83 82/82/82 81/81/81
f 84/84/84 83/83/83 81/81/81
f 87/87/87 86/86/86 85/85/85
f 88/88/88 87/87/87 85/85/85
f 91/91/91 90/90/90 89/89/89
f 92/92/92 91/91/91 89/89/89
f 95/95/95 94/94/94 93/93/93
f 96/96/96 95/95/95 93/93/93
f 99/99/99 98/98/98 97/97/97
f 100/100/100 99/99/99 97/97/97
f 103/103/103 102/102/102 101/101/101
f 104/104/104 103/103/103 101/101/101
f 107/107/107 106/106/106 105/105/105
f 108/108/108 107/107/107 105/105/105
f 111/111/111 110/110/110 109/109/109
f 112/112/112 111/111/111 109/109/109
f 115/115/115 114/114/114 113/113/113
f 116/116/116 115/115/115 113/113/113
f 119/119/119 118/118/118 117/117/117
f 120/120/120 119/119/119 117/117/117
f 123/123/123 122/122/122 121/121/121
f 124/124/124 123/123/123 121/121/121
f 127/127/127 126/126/126 125/125/125
f 128/128/128 127/127/127 125/125/125
f 131/131/131 130/130/130 129/129/129
f 132/132/132 131/131/131 129/129/129
f 135/135/135 134/134/134 133/133/133
f 136/136/136 135/135/135 133/133/133
f 139/139/139 138/138/138 137/137/137
f 140/140/140 139/139/139 137/137/137
