g EDiagonalCenter
v -0.5 -0.2597008 -0.8553305
v -0.5 -0.2597008 -1
v -0.3561974 -0.2597008 -1
v -0.3561974 -0.2597008 -0.8553305
v -0.2597008 -0.2597008 -1
v -0.2597008 -0.2597008 -0.8553305
v -0.5 -0.2597008 -1
v -0.5 -0.3561974 -1
v -0.3561974 -0.3561974 -1
v -0.3561974 -0.2597008 -1
v -0.2597008 -0.2597008 -1
v -0.2596998 -0.3561974 -1
v -0.2596998 -0.5 -1
v -0.3561974 -0.5 -1
v -0.5 -0.3561974 -1
v -0.5 -0.5 0
v -0.3561974 -0.3561974 -1
v -0.5 -0.2597008 -0.8553305
v -0.3561974 -0.2597008 -0.8553305
v -0.3561974 0.2597008 -0.8553305
v -0.5 0.2597008 -0.8553305
v -0.2597008 0.2597008 -0.8553305
v -0.2597008 -0.2597008 -0.8553305
v 0.2597008 -0.2597008 -0.8553305
v 0.2597008 -0.3561974 -0.8553305
v -0.2596998 -0.3561974 -0.8553305
v 0.2597008 -0.5 -0.8553305
v -0.2596998 -0.5 -0.8553305
v 0.2597008 0.2597008 -0.8553305
v 0.3561974 0.2597008 -0.8553305
v 0.3561974 -0.2597008 -0.8553305
v 0.5 0.2597008 -0.8553305
v 0.5 -0.2597008 -0.8553305
v -0.2597008 0.3561974 -0.8553305
v 0.2596998 0.3561974 -0.8553305
v -0.2597008 0.5 -0.8553305
v 0.2596998 0.5 -0.8553305
v -0.3561974 0.3561974 -0.8553305
v -0.3561974 0.5 -0.8553305
v -0.5 0.3561974 -0.8553305
v -0.5 0.5 -0.8553305
v 0.5 -0.3561974 -0.8553305
v 0.3561974 -0.3561974 -0.8553305
v 0.5 -0.5 -0.8553305
v 0.3561974 -0.5 -0.8553305
v -0.2596998 -0.5 -0.8553305
v -0.2596998 -0.3561974 -0.8553305
v -0.2596998 -0.3561974 -1
v -0.2596998 -0.5 -1
v -0.2597008 -0.2597008 -1
v -0.2597008 -0.2597008 -0.8553305
v -0.3561974 -0.5 -1
v -0.3561974 -0.3561974 -1
v -0.5 -0.5 0
v 0.5 0.2597008 -0.8553305
v 0.5 0.2597008 -1
v 0.3561974 0.2597008 -1
v 0.3561974 0.2597008 -0.8553305
v 0.2597008 0.2597008 -1
v 0.2597008 0.2597008 -0.8553305
v 0.5 0.2597008 -1
v 0.5 0.3561974 -1
v 0.3561974 0.3561974 -1
v 0.3561974 0.2597008 -1
v 0.2597008 0.2597008 -1
v 0.2596998 0.3561974 -1
v 0.2596998 0.5 -1
v 0.3561974 0.5 -1
v 0.5 0.3561974 -1
v 0.5 0.5 0
v 0.3561974 0.3561974 -1
v 0.2596998 0.5 -0.8553305
v 0.2596998 0.3561974 -0.8553305
v 0.2596998 0.3561974 -1
v 0.2596998 0.5 -1
v 0.2597008 0.2597008 -1
v 0.2597008 0.2597008 -0.8553305
v 0.3561974 0.5 -1
v 0.3561974 0.3561974 -1
v 0.5 0.5 0
vt 0.8012503 0.6725787
vt 0.801187 0.7288487
vt 0.8572096 0.7290517
vt 0.8572975 0.6725206
vt 0.8951842 0.7293184
vt 0.8953063 0.6724246
vt 0.1935777 0.6051674
vt 0.164167 0.6051674
vt 0.164167 0.6489957
vt 0.1935777 0.6489957
vt 0.1935777 0.678406
vt 0.164167 0.6784065
vt 0.1203388 0.6784065
vt 0.1203388 0.6489957
vt 0.6497545 0.6482694
vt 0.6497545 0.0402479
vt 0.5623195 0.6482694
vt 0.8408791 0.6787556
vt 0.7970505 0.6787556
vt 0.7970505 0.8370592
vt 0.8408791 0.8370592
vt 0.7676403 0.8370592
vt 0.7676403 0.6787556
vt 0.6093365 0.6787556
vt 0.6093365 0.649345
vt 0.7676399 0.649345
vt 0.6093365 0.605517
vt 0.7676399 0.605517
vt 0.6093365 0.8370592
vt 0.5799261 0.8370592
vt 0.5799261 0.6787556
vt 0.5360976 0.8370592
vt 0.5360976 0.6787556
vt 0.7676403 0.86647
vt 0.6093369 0.86647
vt 0.7676403 0.9102981
vt 0.6093369 0.9102981
vt 0.7970505 0.86647
vt 0.7970505 0.9102981
vt 0.8408791 0.86647
vt 0.8408791 0.9102981
vt 0.5360976 0.649345
vt 0.5799261 0.649345
vt 0.5360976 0.605517
vt 0.5799261 0.605517
vt 0.9892934 0.6732309
vt 0.9333317 0.6727324
vt 0.9332507 0.7291914
vt 0.9892934 0.7288315
vt 0.8951842 0.7293184
vt 0.8953063 0.6724246
vt 0.4646235 0.6500235
vt 0.5511678 0.6500235
vt 0.4646235 0.04200284
vt 0.05621099 0.7435358
vt 0.05614787 0.7998059
vt 0.1121703 0.8000086
vt 0.1122581 0.7434778
vt 0.150145 0.8002755
vt 0.1502669 0.7433816
vt 0.1210586 0.7604749
vt 0.1504691 0.7604749
vt 0.1504691 0.7166471
vt 0.1210586 0.7166471
vt 0.1210586 0.6872362
vt 0.1504691 0.6872362
vt 0.1942975 0.6872362
vt 0.1942975 0.7166471
vt 0.5856683 0.6495057
vt 0.5856681 0.04148497
vt 0.4982332 0.6495057
vt 0.2442542 0.744188
vt 0.1882922 0.7436895
vt 0.1882113 0.8001488
vt 0.2442543 0.7997887
vt 0.150145 0.8002755
vt 0.1502669 0.7433816
vt 0.2441772 0.6500238
vt 0.330722 0.6500238
vt 0.2441772 0.04200239
vn 0 1 0
vn 0 1 0
vn 0 1 0
vn 0 1 0
vn 0 1 0
vn 0 1 0
vn 0 0 -1
vn 0 0 -1
vn 0 0 -1
vn 0 0 -1
vn 0 0 -1
vn 0 0 -1
vn 0 0 -1
vn 0 0 -1
vn 0 -0.9898178 -0.1423403
vn 0 -0.9898178 -0.1423403
vn 0 -0.9898178 -0.1423403
vn 0 0 -1
vn 0 0 -1
vn 0 0 -1
vn 0 0 -1
vn 0 0 -1
vn 0 0 -1
vn 0 0 -1
vn 0 0 -1
vn 0 0 -1
vn 0 0 -1
vn 0 0 -1
vn 0 0 -1
vn 0 0 -1
vn 0 0 -1
vn 0 0 -1
vn 0 0 -1
vn 0 0 -1
vn 0 0 -1
vn 0 0 -1
vn 0 0 -1
vn 0 0 -1
vn 0 0 -1
vn 0 0 -1
vn 0 0 -1
vn 0 0 -1
vn 0 0 -1
vn 0 0 -1
vn 0 0 -1
vn 1 0 0
vn 1 0 0
vn 1 0 0
vn 1 0 0
vn 1 0 0
vn 1 0 0
vn -0.9898183 0 -0.1423371
vn -0.9898183 0 -0.1423371
vn -0.9898183 0 -0.1423371
vn 0 -1 0
vn 0 -1 0
vn 0 -1 0
vn 0 -1 0
vn 0 -1 0
vn 0 -1 0
vn 0 0 -1
vn 0 0 -1
vn 0 0 -1
vn 0 0 -1
vn 0 0 -1
vn 0 0 -1
vn 0 0 -1
vn 0 0 -1
vn 0 0.9898178 -0.1423403
vn 0 0.9898178 -0.1423403
vn 0 0.9898178 -0.1423403
vn -1 0 0
vn -1 0 0
vn -1 0 0
vn -1 0 0
vn -1 0 0
vn -1 0 0
vn 0.9898183 0 -0.1423371
vn 0.9898183 0 -0.1423371
vn 0.9898183 0 -0.1423371
g EDiagonalCenter_0
f 3/3/3 2/2/2 1/1/1
f 4/4/4 3/3/3 1/1/1
f 5/5/5 3/3/3 4/4/4
f 6/6/6 5/5/5 4/4/4
f 9/9/9 8/8/8 7/7/7
f 10/10/10 9/9/9 7/7/7
f 9/9/9 10/10/10 11/11/11
f 12/12/12 9/9/9 11/11/11
f 9/9/9 12/12/12 13/13/13
f 14/14/14 9/9/9 13/13/13
f 17/17/17 16/16/16 15/15/15
f 20/20/20 19/19/19 18/18/18
f 21/21/21 20/20/20 18/18/18
f 20/20/20 22/22/22 19/19/19
f 22/22/22 23/23/23 19/19/19
f 24/24/24 23/23/23 22/22/22
f 23/23/23 24/24/24 25/25/25
f 26/26/26 23/23/23 25/25/25
f 26/26/26 25/25/25 27/27/27
f 28/28/28 26/26/26 27/27/27
f 29/29/29 24/24/24 22/22/22
f 24/24/24 29/29/29 30/30/30
f 31/31/31 24/24/24 30/30/30
f 31/31/31 30/30/30 32/32/32
f 33/33/33 31/31/31 32/32/32
f 29/29/29 22/22/22 34/34/34
f 22/22/22 20/20/20 34/34/34
f 35/35/35 29/29/29 34/34/34
f 35/35/35 34/34/34 36/36/36
f 37/37/37 35/35/35 36/36/36
f 34/34/34 38/38/38 36/36/36
f 38/38/38 39/39/39 36/36/36
f 20/20/20 38/38/38 34/34/34
f 38/38/38 40/40/40 39/39/39
f 40/40/40 41/41/41 39/39/39
f 21/21/21 40/40/40 38/38/38
f 20/20/20 21/21/21 38/38/38
f 33/33/33 42/42/42 31/31/31
f 42/42/42 43/43/43 31/31/31
f 31/31/31 43/43/43 24/24/24
f 43/43/43 25/25/25 24/24/24
f 42/42/42 44/44/44 43/43/43
f 44/44/44 45/45/45 43/43/43
f 43/43/43 45/45/45 25/25/25
f 45/45/45 27/27/27 25/25/25
f 48/48/48 47/47/47 46/46/46
f 49/49/49 48/48/48 46/46/46
f 48/48/48 50/50/50 47/47/47
f 50/50/50 51/51/51 47/47/47
f 54/54/54 53/53/53 52/52/52
f 57/57/57 56/56/56 55/55/55
f 58/58/58 57/57/57 55/55/55
f 59/59/59 57/57/57 58/58/58
f 60/60/60 59/59/59 58/58/58
f 63/63/63 62/62/62 61/61/61
f 64/64/64 63/63/63 61/61/61
f 63/63/63 64/64/64 65/65/65
f 66/66/66 63/63/63 65/65/65
f 63/63/63 66/66/66 67/67/67
f 68/68/68 63/63/63 67/67/67
f 71/71/71 70/70/70 69/69/69
f 74/74/74 73/73/73 72/72/72
f 75/75/75 74/74/74 72/72/72
f 74/74/74 76/76/76 73/73/73
f 76/76/76 77/77/77 73/73/73
f 80/80/80 79/79/79 78/78/78
