g EHUpperLeft
v -0.2596989 -0.5 -0.8553307
v -0.2596989 -0.3561974 -0.8553305
v -0.2596989 -0.3561974 -1
v -0.2596998 -0.5 -0.9999998
v -0.2596998 -0.2596998 -0.9999998
v -0.2596989 -0.2596989 -0.8553307
v 0.2597017 -0.5 -0.8553307
v 0.2597017 -0.3561974 -0.8553305
v -0.2596989 -0.3561974 -0.8553305
v -0.2596989 -0.5 -0.8553307
v -0.2596989 -0.2596989 -0.8553307
v -0.3561969 0.2597008 -0.8553307
v -0.3561969 -0.2597008 -0.8553307
v -0.5 -0.2597008 -0.8553307
v -0.5 0.2597008 -0.8553307
v 0.2597017 -0.5 -0.9999998
v 0.2597017 -0.3561974 -1
v 0.2597017 -0.3561974 -0.8553305
v 0.2597017 -0.5 -0.8553307
v 0.3561978 -0.5 -0.9999998
v 0.3561978 -0.2597008 -0.9999998
v 0.2597017 -0.3561974 -1
v 0.2597017 -0.5 -0.9999998
v -0.2596998 0.3561974 -1
v -0.3561974 0.2597008 -0.9999998
v -0.5 0.3561974 -1
v -0.5 0.2597008 -0.9999998
v 0.5 -0.2597008 -6.43196E-10
v 0.3561978 -0.2597008 -0.9999998
v 0.3561978 -0.5 -0.9999998
v 0.5 -0.5 -6.43196E-10
v -0.2596998 -0.5 -0.9999998
v -0.2596989 -0.3561974 -1
v -0.3561969 -0.3561974 -1
v -0.3561974 -0.5 -0.9999998
v -0.2596998 -0.2596998 -0.9999998
v -0.3561974 -0.2597008 -0.9999998
v -0.5 -0.3561974 -1
v -0.5 -0.2597008 -0.9999998
v -0.3561974 -0.5 -0.9999998
v -0.3561969 -0.3561974 -1
v -0.5 -0.5 -6.431959E-10
v -0.5 -0.5 -6.431959E-10
v -0.3561969 -0.3561974 -1
v -0.5 -0.3561974 -1
v -0.5 -0.2597008 -0.9999998
v -0.3561974 -0.2597008 -0.9999998
v -0.3561969 -0.2597008 -0.8553307
v -0.5 -0.2597008 -0.8553307
v -0.2596989 -0.2596989 -0.8553307
v -0.2596998 -0.2596998 -0.9999998
v -0.5 0.2597008 -0.8553307
v -0.3561969 0.2597008 -0.8553307
v -0.3561974 0.2597008 -0.9999998
v -0.5 0.2597008 -0.9999998
v -0.2596998 0.3561974 -1
v -0.2596998 0.5 -6.431959E-10
v -0.5 0.5 -6.431959E-10
v -0.5 0.3561974 -1
v 0.2597017 -0.3561974 -1
v -0.3561974 0.2597008 -0.9999998
v -0.3561969 0.2597008 -0.8553307
v 0.2597017 -0.3561974 -0.8553305
v -0.2596998 0.3561974 -1
v 0.3561978 -0.2597008 -0.9999998
v 0.5 -0.2597008 -6.43196E-10
v -0.2596998 0.5 -6.431959E-10
vt 0.9176925 0.7443818
vt 0.8608726 0.7444997
vt 0.8609076 0.8016948
vt 0.9177577 0.801796
vt 0.82288 0.801614
vt 0.8228115 0.7446643
vt 0.3857557 0.8941758
vt 0.3857557 0.8503475
vt 0.2274521 0.8503475
vt 0.2274521 0.8941758
vt 0.2274521 0.8209366
vt 0.1980416 0.662633
vt 0.1980416 0.8209366
vt 0.1542131 0.8209366
vt 0.1542131 0.662633
vt 0.4248809 0.9404952
vt 0.480974 0.9407398
vt 0.4809739 0.8842686
vt 0.4248809 0.8845132
vt 0.4465235 0.8568187
vt 0.4465235 0.7835795
vt 0.4171132 0.8129904
vt 0.4171132 0.8568187
vt 0.2588093 0.5958656
vt 0.2293987 0.6252765
vt 0.1855703 0.5958656
vt 0.1855703 0.6252759
vt 0.8155441 0.02419246
vt 0.758222 0.6288197
vt 0.902035 0.6424527
vt 0.9593557 0.0378272
vt 0.5433314 0.7663198
vt 0.5871599 0.7663201
vt 0.5871601 0.7369098
vt 0.5433314 0.7369095
vt 0.6165706 0.7663198
vt 0.6165704 0.7369095
vt 0.5871601 0.693081
vt 0.6165704 0.693081
vt 0.4320303 0.6507061
vt 0.5190192 0.6507063
vt 0.4320305 0.03956561
vt 0.565323 0.03956546
vt 0.4783339 0.6507063
vt 0.5653227 0.6507063
vt 0.7298049 0.8012828
vt 0.7852049 0.8013871
vt 0.7851347 0.7450367
vt 0.729802 0.7451047
vt 0.8228115 0.7446643
vt 0.82288 0.801614
vt 0.8776575 0.8842643
vt 0.8212761 0.884237
vt 0.8212762 0.940771
vt 0.8776572 0.9407441
vt 0.2346215 0.6321163
vt 0.1696905 0.02825959
vt 0.02606109 0.04370359
vt 0.09099209 0.6475603
vt 0.480974 0.9407398
vt 0.8212762 0.940771
vt 0.8212761 0.884237
vt 0.4809739 0.8842686
vt 0.2346215 0.6321163
vt 0.758222 0.6288197
vt 0.8155441 0.02419246
vt 0.1696905 0.02825959
vn 1 0 0
vn 1 0 0
vn 1 0 0
vn 1 0 0
vn 1 0 0
vn 1 0 0
vn 0 0 -1
vn 0 0 -1
vn 0 0 -1
vn 0 0 -1
vn 0 0 -1
vn 0 0 -1
vn 0 0 -1
vn 0 0 -1
vn 0 0 -1
vn -1 0 0
vn -1 0 0
vn -1 0 0
vn -1 0 0
vn 0 0 -1
vn 0 0 -1
vn 0 0 -1
vn 0 0 -1
vn 0 0 -1
vn 0 0 -1
vn 0 0 -1
vn 0 0 -1
vn 0.9898181 0 -0.1423381
vn 0.9898181 0 -0.1423381
vn 0.9898181 0 -0.1423381
vn 0.9898181 0 -0.1423381
vn 0 0 -1
vn 0 0 -1
vn 0 0 -1
vn 0 0 -1
vn 0 0 -1
vn 0 0 -1
vn 0 0 -1
vn 0 0 -1
vn -0.9898181 0 -0.1423382
vn -0.9898181 0 -0.1423382
vn -0.9898181 0 -0.1423382
vn 0 -0.989818 -0.1423387
vn 0 -0.989818 -0.1423387
vn 0 -0.989818 -0.1423387
vn 0 1 0
vn 0 1 0
vn 0 1 0
vn 0 1 0
vn -1.48243E-05 1 0
vn -1.48243E-05 1 0
vn 0 -1 0
vn 0 -1 0
vn 0 -1 0
vn 0 -1 0
vn 0 0.989818 -0.1423389
vn 0 0.989818 -0.1423389
vn 0 0.989818 -0.1423389
vn 0 0.989818 -0.1423389
vn -0.7071062 -0.7071073 0
vn -0.7071062 -0.7071073 0
vn -0.7071062 -0.7071073 0
vn -0.7071062 -0.7071073 0
vn 0.7034798 0.7034789 -0.1011619
vn 0.7034797 0.7034789 -0.1011619
vn 0.7034797 0.7034788 -0.1011619
vn 0.7034797 0.7034788 -0.1011619
g EHUpperLeft_0
f 3/3/3 2/2/2 1/1/1
f 4/4/4 3/3/3 1/1/1
f 3/3/3 5/5/5 2/2/2
f 5/5/5 6/6/6 2/2/2
f 9/9/9 8/8/8 7/7/7
f 10/10/10 9/9/9 7/7/7
f 8/8/8 9/9/9 11/11/11
f 11/11/11 12/12/12 8/8/8
f 11/11/11 13/13/13 12/12/12
f 12/12/12 13/13/13 14/14/14
f 15/15/15 12/12/12 14/14/14
f 18/18/18 17/17/17 16/16/16
f 19/19/19 18/18/18 16/16/16
f 22/22/22 21/21/21 20/20/20
f 23/23/23 22/22/22 20/20/20
f 21/21/21 22/22/22 24/24/24
f 22/22/22 25/25/25 24/24/24
f 26/26/26 24/24/24 25/25/25
f 27/27/27 26/26/26 25/25/25
f 30/30/30 29/29/29 28/28/28
f 31/31/31 30/30/30 28/28/28
f 34/34/34 33/33/33 32/32/32
f 35/35/35 34/34/34 32/32/32
f 33/33/33 34/34/34 36/36/36
f 34/34/34 37/37/37 36/36/36
f 37/37/37 34/34/34 38/38/38
f 39/39/39 37/37/37 38/38/38
f 42/42/42 41/41/41 40/40/40
f 45/45/45 44/44/44 43/43/43
f 48/48/48 47/47/47 46/46/46
f 49/49/49 48/48/48 46/46/46
f 48/48/48 50/50/50 47/47/47
f 50/50/50 51/51/51 47/47/47
f 54/54/54 53/53/53 52/52/52
f 55/55/55 54/54/54 52/52/52
f 58/58/58 57/57/57 56/56/56
f 59/59/59 58/58/58 56/56/56
f 62/62/62 61/61/61 60/60/60
f 63/63/63 62/62/62 60/60/60
f 66/66/66 65/65/65 64/64/64
f 67/67/67 66/66/66 64/64/64
