g ELeft
v 0.0535717 -0.0535717 -0.06521821
v 0.0535717 -0.5 -0.06521821
v 0.1071444 -0.5 -0.06521821
v 0.1071444 -0.0535717 -0.06521821
v 0.0535717 0.0535717 -0.06521821
v 0.1071444 0.0535717 -0.06521821
v 0.0535717 0.5 -0.06521821
v 0.1071444 0.5 -0.06521821
v 0.0535717 -0.0535717 -0.01
v 0.0535717 -0.5 -0.01
v 0.0535717 -0.5 -0.06521821
v 0.0535717 -0.0535717 -0.06521821
v 0.0535717 0.0535717 -0.01
v 0.0535717 0.0535717 -0.06521821
v 0.0535717 0.5 -0.01
v 0.0535717 0.5 -0.06521821
v 0.1071444 0.5 -0.06521821
v 0.1071444 0.0535717 -0.06521821
v 0.1785717 0.0535717 0
v 0.1785717 0.5 0
v 0.1785717 -0.0535717 0
v 0.1071444 -0.0535717 -0.06521821
v 0.1785717 -0.5 0
v 0.1071444 -0.5 -0.06521821
v 0.0535717 0.5 -0.01
v -0.0535717 0.5 -0.01
v -0.0535717 0.0535717 -0.01
v 0.0535717 0.0535717 -0.01
v 0.0535717 -0.0535717 -0.01
v -0.0535717 -0.0535717 -0.01
v -0.5 0.0535717 -0.01
v -0.5 -0.0535717 -0.01
v -0.0535717 -0.5 -0.01
v 0.0535717 -0.5 -0.01
v -0.5 0.0535717 -0.06521821
v -0.0535717 0.0535717 -0.06521821
v -0.1071444 0.1071444 -0.06521821
v -0.5 0.1071444 -0.06521821
v -0.1071444 0.5 -0.06521821
v -0.0535717 0.5 -0.06521821
v -0.5 0.0535717 -0.01
v -0.0535717 0.0535717 -0.01
v -0.0535717 0.0535717 -0.06521821
v -0.5 0.0535717 -0.06521821
v -0.1785717 0.1785717 0
v -0.5 0.1785717 0
v -0.5 0.1071444 -0.06521821
v -0.1071444 0.1071444 -0.06521821
v -0.1785717 0.1785717 0
v -0.1071444 0.1071444 -0.06521821
v -0.1071444 0.5 -0.06521821
v -0.1785717 0.5 0
v -0.0535717 0.0535717 -0.01
v -0.0535717 0.5 -0.01
v -0.0535717 0.5 -0.06521821
v -0.0535717 0.0535717 -0.06521821
v -0.0535717 -0.0535717 -0.01
v -0.5 -0.0535717 -0.01
v -0.5 -0.0535717 -0.06521821
v -0.0535717 -0.0535717 -0.06521821
v -0.1785717 -0.1785717 0
v -0.1071444 -0.1071444 -0.06521821
v -0.5 -0.1071444 -0.06521821
v -0.5 -0.1785717 0
v -0.0535717 -0.0535717 -0.06521821
v -0.5 -0.0535717 -0.06521821
v -0.5 -0.1071444 -0.06521821
v -0.1071444 -0.1071444 -0.06521821
v -0.0535717 -0.5 -0.06521821
v -0.1071444 -0.5 -0.06521821
v -0.1785717 -0.1785717 0
v -0.1785717 -0.5 0
v -0.1071444 -0.5 -0.06521821
v -0.1071444 -0.1071444 -0.06521821
v -0.0535717 -0.5 -0.01
v -0.0535717 -0.0535717 -0.01
v -0.0535717 -0.0535717 -0.06521821
v -0.0535717 -0.5 -0.06521821
v 0 0 -0.01
v 0 0 -0.8
v -0.5 0 -0.8
v -0.5 0 -0.01
v 0 0 -0.01
v 0 0 -0.8
v 0 0.5 -0.8
v 0 0.5 -0.01
v 0 -0.5 -0.01
v 0 -0.5 -0.8
v 0 0 -0.8
v 0 0 -0.01
vt 0.848784 0.01744282
vt 0.848784 0.01744282
vt 0.8594985 0.01744282
vt 0.8594985 0.01744282
vt 0.848784 0.01744282
vt 0.8594985 0.01744282
vt 0.848784 0.01744282
vt 0.8594985 0.01744282
vt 0.848784 0.9825574
vt 0.848784 0.9825574
vt 0.848784 0.01744282
vt 0.848784 0.01744282
vt 0.848784 0.9825574
vt 0.848784 0.01744282
vt 0.848784 0.9825574
vt 0.848784 0.01744282
vt 0.8594985 0.01744282
vt 0.8594985 0.01744282
vt 0.8737839 0.9825574
vt 0.8737839 0.9825574
vt 0.8737839 0.9825574
vt 0.8594985 0.01744282
vt 0.8737839 0.9825574
vt 0.8594985 0.01744282
vt 0.4557748 0.3042071
vt 0.4138188 0.3042071
vt 0.4138188 0.4790221
vt 0.4557748 0.4790221
vt 0.4557748 0.5209779
vt 0.4138188 0.5209779
vt 0.2390038 0.4790221
vt 0.2390038 0.5209779
vt 0.4138188 0.6957928
vt 0.4557748 0.6957928
vt 0.7380696 0.01744282
vt 0.8273553 0.01744282
vt 0.8166407 0.01744282
vt 0.7380696 0.01744282
vt 0.8166407 0.01744282
vt 0.8273553 0.01744282
vt 0.7380696 0.9825574
vt 0.8273553 0.9825574
vt 0.8273553 0.01744282
vt 0.7380696 0.01744282
vt 0.8023553 0.9825574
vt 0.7380696 0.9825574
vt 0.7380696 0.01744282
vt 0.8166407 0.01744282
vt 0.8023553 0.9825574
vt 0.8166407 0.01744282
vt 0.8166407 0.01744282
vt 0.8023553 0.9825574
vt 0.8273553 0.9825574
vt 0.8273553 0.9825574
vt 0.8273553 0.01744282
vt 0.8273553 0.01744282
vt 0.8273553 0.9825574
vt 0.7380696 0.9825574
vt 0.7380696 0.01744282
vt 0.8273553 0.01744282
vt 0.8023553 0.9825574
vt 0.8166407 0.01744282
vt 0.7380696 0.01744282
vt 0.7380696 0.9825574
vt 0.8273553 0.01744282
vt 0.7380696 0.01744282
vt 0.7380696 0.01744282
vt 0.8166407 0.01744282
vt 0.8273553 0.01744282
vt 0.8166407 0.01744282
vt 0.8023553 0.9825574
vt 0.8023553 0.9825574
vt 0.8166407 0.01744282
vt 0.8166407 0.01744282
vt 0.8273553 0.9825574
vt 0.8273553 0.9825574
vt 0.8273553 0.01744282
vt 0.8273553 0.01744282
vt 0.1874999 -5.960464E-08
vt 0.1874999 1
vt 0.8125001 1
vt 0.8125001 -5.960464E-08
vt 0.1874999 -5.960464E-08
vt 0.1874999 1
vt 0.8125001 1
vt 0.8125001 -5.960464E-08
vt 0.1875 -5.960464E-08
vt 0.1875 1
vt 0.8125001 1
vt 0.8125001 -5.960464E-08
vn 0 0 -1
vn 0 0 -1
vn 0 0 -1
vn 0 0 -1
vn 0 0 -1
vn 0 0 -1
vn 0 0 -1
vn 0 0 -1
vn -1 0 0
vn -1 0 0
vn -1 0 0
vn -1 0 0
vn -1 0 0
vn -1 0 0
vn -1 0 0
vn -1 0 0
vn 0.6742803 0 -0.7384756
vn 0.6742803 0 -0.7384756
vn 0.6742803 0 -0.7384756
vn 0.6742803 0 -0.7384756
vn 0.6742803 0 -0.7384756
vn 0.6742803 0 -0.7384756
vn 0.6742803 0 -0.7384756
vn 0.6742803 0 -0.7384756
vn 0 0 -1
vn 0 0 -1
vn 0 0 -1
vn 0 0 -1
vn 0 0 -1
vn 0 0 -1
vn 0 0 -1
vn 0 0 -1
vn 0 0 -1
vn 0 0 -1
vn 0 0 -1
vn 0 0 -1
vn 0 0 -1
vn 0 0 -1
vn 0 0 -1
vn 0 0 -1
vn 0 -1 0
vn 0 -1 0
vn 0 -1 0
vn 0 -1 0
vn 0 0.6742803 -0.7384754
vn 0 0.6742803 -0.7384754
vn 0 0.6742803 -0.7384754
vn 0 0.6742803 -0.7384755
vn -0.6742803 0 -0.7384756
vn -0.6742803 0 -0.7384756
vn -0.6742803 0 -0.7384756
vn -0.6742803 0 -0.7384756
vn 1 0 0
vn 1 0 0
vn 1 0 0
vn 1 0 0
vn 0 1 0
vn 0 1 0
vn 0 1 0
vn 0 1 0
vn 0 -0.6742803 -0.7384754
vn 0 -0.6742803 -0.7384755
vn 0 -0.6742803 -0.7384754
vn 0 -0.6742803 -0.7384754
vn 0 0 -1
vn 0 0 -1
vn 0 0 -1
vn 0 0 -1
vn 0 0 -1
vn 0 0 -1
vn -0.6742803 0 -0.7384756
vn -0.6742803 0 -0.7384756
vn -0.6742803 0 -0.7384756
vn -0.6742803 0 -0.7384756
vn 1 0 0
vn 1 0 0
vn 1 0 0
vn 1 0 0
vn 0 -1 0
vn 0 -1 0
vn 0 -1 0
vn 0 -1 0
vn -1 0 0
vn -1 0 0
vn -1 0 0
vn -1 0 0
vn -1 0 0
vn -1 0 0
vn -1 0 0
vn -1 0 0
g ELeft_0
f 3/3/3 2/2/2 1/1/1
f 4/4/4 3/3/3 1/1/1
f 1/1/1 5/5/5 4/4/4
f 5/5/5 6/6/6 4/4/4
f 6/6/6 5/5/5 7/7/7
f 8/8/8 6/6/6 7/7/7
f 11/11/11 10/10/10 9/9/9
f 12/12/12 11/11/11 9/9/9
f 9/9/9 13/13/13 12/12/12
f 13/13/13 14/14/14 12/12/12
f 14/14/14 13/13/13 15/15/15
f 16/16/16 14/14/14 15/15/15
f 19/19/19 18/18/18 17/17/17
f 20/20/20 19/19/19 17/17/17
f 18/18/18 19/19/19 21/21/21
f 22/22/22 18/18/18 21/21/21
f 21/21/21 23/23/23 22/22/22
f 23/23/23 24/24/24 22/22/22
f 27/27/27 26/26/26 25/25/25
f 28/28/28 27/27/27 25/25/25
f 28/28/28 29/29/29 27/27/27
f 29/29/29 30/30/30 27/27/27
f 27/27/27 30/30/30 31/31/31
f 30/30/30 32/32/32 31/31/31
f 33/33/33 30/30/30 29/29/29
f 34/34/34 33/33/33 29/29/29
f 37/37/37 36/36/36 35/35/35
f 38/38/38 37/37/37 35/35/35
f 37/37/37 39/39/39 36/36/36
f 39/39/39 40/40/40 36/36/36
f 43/43/43 42/42/42 41/41/41
f 44/44/44 43/43/43 41/41/41
f 47/47/47 46/46/46 45/45/45
f 48/48/48 47/47/47 45/45/45
f 51/51/51 50/50/50 49/49/49
f 52/52/52 51/51/51 49/49/49
f 55/55/55 54/54/54 53/53/53
f 56/56/56 55/55/55 53/53/53
f 59/59/59 58/58/58 57/57/57
f 60/60/60 59/59/59 57/57/57
f 63/63/63 62/62/62 61/61/61
f 64/64/64 63/63/63 61/61/61
f 67/67/67 66/66/66 65/65/65
f 68/68/68 67/67/67 65/65/65
f 68/68/68 65/65/65 69/69/69
f 70/70/70 68/68/68 69/69/69
f 73/73/73 72/72/72 71/71/71
f 74/74/74 73/73/73 71/71/71
f 77/77/77 76/76/76 75/75/75
f 78/78/78 77/77/77 75/75/75
g ELeft_1
f 81/81/81 80/80/80 79/79/79
f 82/82/82 81/81/81 79/79/79
f 85/85/85 84/84/84 83/83/83
f 86/86/86 85/85/85 83/83/83
f 89/89/89 88/88/88 87/87/87
f 90/90/90 89/89/89 87/87/87
