g EUpperLeft
v -0.2596998 -0.5 -0.8553306
v -0.2596998 -0.3561978 -0.8553303
v -0.2596998 -0.3561978 -0.9999999
v -0.2597008 -0.4999995 -1
v -0.2597008 -0.2597003 -0.9999996
v -0.2596998 -0.2597008 -0.8553301
v 0.2597008 -0.5 -0.8553306
v 0.2597008 -0.3561978 -0.8553303
v -0.2596998 -0.3561978 -0.8553303
v -0.2596998 -0.5 -0.8553306
v -0.2596998 -0.2597008 -0.8553301
v 0.2597008 -0.2597008 -0.8553301
v 0.2597008 0.2596998 -0.8553302
v -0.2596998 0.2596998 -0.8553302
v -0.3561974 -0.2597008 -0.8553301
v -0.3561974 0.2596998 -0.8553302
v -0.5 -0.2597008 -0.8553301
v -0.5 0.2596998 -0.8553302
v 0.2596998 -0.4999995 -1
v 0.2597008 -0.3561978 -0.9999999
v 0.2597008 -0.3561978 -0.8553303
v 0.2597008 -0.5 -0.8553306
v 0.2597008 -0.2597008 -0.8553301
v 0.2596998 -0.2597003 -0.9999996
v 0.2597008 0.2596998 -0.8553302
v 0.2596998 0.2597003 -0.9999998
v 0.3561974 -0.4999995 -1
v 0.3561974 -0.3561974 -0.9999999
v 0.2597008 -0.3561978 -0.9999999
v 0.2596998 -0.4999995 -1
v 0.2596998 -0.2597003 -0.9999996
v 0.3561974 -0.2597003 -0.9999996
v 0.2596998 0.2597003 -0.9999998
v 0.3561974 0.2597003 -0.9999998
v 0.3561974 0.3561978 -1
v 0.2596998 0.3561978 -1
v -0.2597008 0.2597003 -0.9999998
v -0.2597008 0.3561978 -1
v -0.3561983 0.2597003 -0.9999998
v -0.3561983 0.3561978 -1
v -0.5 0.2596998 -0.9999998
v -0.5 0.3561974 -1
v 0.5 -0.5 -1.192093E-07
v 0.5 -0.3561974 1.192093E-07
v 0.3561974 -0.3561974 -0.9999999
v 0.3561974 -0.4999995 -1
v 0.3561974 -0.2597003 -0.9999996
v 0.5 -0.2597008 3.576279E-07
v 0.3561974 0.2597003 -0.9999998
v 0.5 0.254838 0
v 0.3561974 0.3561978 -1
v 0.5 0.5 -1.192093E-07
v -0.2597008 -0.4999995 -1
v -0.2596998 -0.3561978 -0.9999999
v -0.3561974 -0.3561974 -0.9999999
v -0.3561983 -0.4999995 -1
v -0.2597008 -0.2597003 -0.9999996
v -0.3561983 -0.2597003 -0.9999996
v -0.5 -0.3561974 -0.9999999
v -0.5 -0.2597008 -0.9999996
v -0.3561983 -0.4999995 -1
v -0.3561974 -0.3561974 -0.9999999
v -0.5 -0.5 -1.192093E-07
v -0.5 -0.5 -1.192093E-07
v -0.3561974 -0.3561974 -0.9999999
v -0.5 -0.3561974 -0.9999999
v -0.5 -0.2597008 -0.9999996
v -0.3561983 -0.2597003 -0.9999996
v -0.3561974 -0.2597008 -0.8553301
v -0.5 -0.2597008 -0.8553301
v -0.2596998 -0.2597008 -0.8553301
v -0.2597008 -0.2597003 -0.9999996
v -0.5 0.2596998 -0.8553302
v -0.3561974 0.2596998 -0.8553302
v -0.3561983 0.2597003 -0.9999998
v -0.5 0.2596998 -0.9999998
v -0.2597008 0.2597003 -0.9999998
v -0.2596998 0.2596998 -0.8553302
v 0.2597008 0.2596998 -0.8553302
v 0.2596998 0.2597003 -0.9999998
v -0.5 0.3561974 -1
v -0.3561983 0.3561978 -1
v -0.3561974 0.5 -1.192093E-07
v -0.5 0.5 -1.192093E-07
v -0.2596998 0.4999995 -1.192093E-07
v -0.2597008 0.3561978 -1
v 0.2597008 0.4999995 -1.192093E-07
v 0.2596998 0.3561978 -1
v 0.5 0.5 -1.192093E-07
v 0.3561974 0.3561978 -1
vt 0.3317517 0.7784513
vt 0.3317519 0.7346235
vt 0.2876593 0.7346235
vt 0.2876592 0.7784513
vt 0.2876593 0.7052127
vt 0.3317519 0.7052127
vt 0.04057186 0.9079093
vt 0.08439995 0.9079093
vt 0.08439995 0.7496057
vt 0.04057186 0.7496057
vt 0.1138105 0.7496057
vt 0.1138105 0.9079093
vt 0.2721142 0.9079093
vt 0.2721142 0.7496057
vt 0.1138105 0.7201951
vt 0.2721142 0.7201951
vt 0.1138105 0.6763666
vt 0.2721142 0.6763666
vt 0.2225267 0.9414615
vt 0.2777995 0.9414615
vt 0.2777878 0.8851487
vt 0.2225261 0.8851487
vt 0.3153569 0.8851487
vt 0.3153628 0.9414615
vt 0.5203964 0.8851487
vt 0.5202918 0.9414615
vt 0.2778611 0.9131234
vt 0.3216893 0.9131234
vt 0.3216893 0.8837131
vt 0.2778611 0.8837131
vt 0.3510998 0.8837131
vt 0.3510998 0.9131234
vt 0.5094033 0.8837131
vt 0.5094033 0.9131234
vt 0.5388141 0.9131234
vt 0.5388141 0.8837131
vt 0.5094033 0.7254095
vt 0.5388141 0.7254095
vt 0.5094033 0.6959989
vt 0.5388141 0.6959989
vt 0.5094033 0.6521709
vt 0.5388141 0.6521709
vt 0.6357945 0.04085523
vt 0.5521408 0.04086818
vt 0.5521411 0.6286017
vt 0.6357945 0.6286152
vt 0.4959904 0.6285956
vt 0.4959987 0.04089508
vt 0.1938014 0.6285635
vt 0.1966502 0.04091335
vt 0.1376609 0.6285574
vt 0.0539813 0.04089488
vt 0.3134262 0.806307
vt 0.3572543 0.806307
vt 0.3572543 0.7768967
vt 0.3134262 0.7768962
vt 0.3866648 0.806307
vt 0.3866648 0.7768962
vt 0.3572543 0.7330684
vt 0.3866648 0.7330684
vt 0.2967373 0.6214591
vt 0.380398 0.621459
vt 0.2967373 0.03369835
vt 0.7140292 0.03369895
vt 0.6303684 0.6214586
vt 0.7140292 0.6214586
vt 0.4127426 0.8063076
vt 0.4127426 0.7624787
vt 0.3686501 0.7624787
vt 0.3686501 0.8063076
vt 0.3686501 0.7330684
vt 0.4127426 0.7330684
vt 0.8181364 0.8851487
vt 0.7629383 0.8851487
vt 0.7628509 0.9414615
vt 0.8181364 0.9414615
vt 0.7252383 0.9414615
vt 0.7254181 0.8851487
vt 0.5203964 0.8851487
vt 0.5202918 0.9414615
vt 0.3498579 0.6268281
vt 0.4335099 0.6268137
vt 0.43351 0.03908326
vt 0.3498579 0.03906867
vt 0.4896515 0.03911122
vt 0.4896601 0.6268079
vt 0.7918267 0.03912843
vt 0.7918468 0.6267745
vt 0.931666 0.03910965
vt 0.8479872 0.6267684
vn 1 0 0
vn 1 0 0
vn 1 0 0
vn 1 0 0
vn 1 0 0
vn 1 0 0
vn 0 0 -1
vn 0 0 -1
vn 0 0 -1
vn 0 0 -1
vn 0 0 -1
vn 0 0 -1
vn 0 0 -1
vn 0 0 -1
vn 0 0 -1
vn 0 0 -1
vn 0 0 -1
vn 0 0 -1
vn -1 0 0
vn -1 0 0
vn -1 0 0
vn -1 0 0
vn -1 0 0
vn -1 0 0
vn -1 0 0
vn -1 0 0
vn 0 0 -1
vn 0 0 -1
vn 0 0 -1
vn 0 0 -1
vn 0 0 -1
vn 0 0 -1
vn 0 0 -1
vn 0 0 -1
vn 0 0 -1
vn 0 0 -1
vn 0 0 -1
vn 0 0 -1
vn 0 0 -1
vn 0 0 -1
vn 0 0 -1
vn 0 0 -1
vn 0.989818 0 -0.1423385
vn 0.989818 0 -0.1423385
vn 0.989818 0 -0.1423385
vn 0.989818 0 -0.1423385
vn 0.989818 0 -0.1423384
vn 0.989818 0 -0.1423384
vn 0.989818 0 -0.1423384
vn 0.989818 0 -0.1423384
vn 0.9898181 0 -0.1423384
vn 0.9898181 0 -0.1423384
vn 0 0 -1
vn 0 0 -1
vn 0 0 -1
vn 0 0 -1
vn 0 0 -1
vn 0 0 -1
vn 0 0 -1
vn 0 0 -1
vn -0.9898181 0 -0.1423382
vn -0.9898181 0 -0.1423382
vn -0.9898181 0 -0.1423382
vn 0 -0.9898182 -0.1423379
vn 0 -0.9898182 -0.1423379
vn 0 -0.9898182 -0.1423379
vn 0 1 0
vn 0 1 0
vn 0 1 0
vn 0 1 0
vn 0 1 0
vn 0 1 0
vn 0 -1 0
vn 0 -1 0
vn 0 -1 0
vn 0 -1 0
vn 0 -1 0
vn 0 -1 0
vn 0 -1 0
vn 0 -1 0
vn 0 0.9898181 -0.1423384
vn 0 0.9898181 -0.1423382
vn 0 0.9898181 -0.1423382
vn 0 0.9898181 -0.1423384
vn 0 0.9898182 -0.1423376
vn 0 0.9898182 -0.1423376
vn 0 0.9898182 -0.1423376
vn 0 0.9898182 -0.1423376
vn 0 0.9898181 -0.142338
vn 0 0.9898181 -0.142338
g EUpperLeft_0
f 3/3/3 2/2/2 1/1/1
f 4/4/4 3/3/3 1/1/1
f 3/3/3 5/5/5 2/2/2
f 5/5/5 6/6/6 2/2/2
f 9/9/9 8/8/8 7/7/7
f 10/10/10 9/9/9 7/7/7
f 9/9/9 11/11/11 8/8/8
f 11/11/11 12/12/12 8/8/8
f 13/13/13 12/12/12 11/11/11
f 14/14/14 13/13/13 11/11/11
f 14/14/14 11/11/11 15/15/15
f 16/16/16 14/14/14 15/15/15
f 16/16/16 15/15/15 17/17/17
f 18/18/18 16/16/16 17/17/17
f 21/21/21 20/20/20 19/19/19
f 22/22/22 21/21/21 19/19/19
f 21/21/21 23/23/23 20/20/20
f 23/23/23 24/24/24 20/20/20
f 23/23/23 25/25/25 24/24/24
f 25/25/25 26/26/26 24/24/24
f 29/29/29 28/28/28 27/27/27
f 30/30/30 29/29/29 27/27/27
f 29/29/29 31/31/31 28/28/28
f 31/31/31 32/32/32 28/28/28
f 31/31/31 33/33/33 32/32/32
f 33/33/33 34/34/34 32/32/32
f 34/34/34 33/33/33 35/35/35
f 33/33/33 36/36/36 35/35/35
f 36/36/36 33/33/33 37/37/37
f 38/38/38 36/36/36 37/37/37
f 38/38/38 37/37/37 39/39/39
f 40/40/40 38/38/38 39/39/39
f 40/40/40 39/39/39 41/41/41
f 42/42/42 40/40/40 41/41/41
f 45/45/45 44/44/44 43/43/43
f 46/46/46 45/45/45 43/43/43
f 45/45/45 47/47/47 44/44/44
f 47/47/47 48/48/48 44/44/44
f 47/47/47 49/49/49 48/48/48
f 49/49/49 50/50/50 48/48/48
f 49/49/49 51/51/51 50/50/50
f 51/51/51 52/52/52 50/50/50
f 55/55/55 54/54/54 53/53/53
f 56/56/56 55/55/55 53/53/53
f 54/54/54 55/55/55 57/57/57
f 55/55/55 58/58/58 57/57/57
f 58/58/58 55/55/55 59/59/59
f 60/60/60 58/58/58 59/59/59
f 63/63/63 62/62/62 61/61/61
f 66/66/66 65/65/65 64/64/64
f 69/69/69 68/68/68 67/67/67
f 70/70/70 69/69/69 67/67/67
f 69/69/69 71/71/71 68/68/68
f 71/71/71 72/72/72 68/68/68
f 75/75/75 74/74/74 73/73/73
f 76/76/76 75/75/75 73/73/73
f 75/75/75 77/77/77 74/74/74
f 77/77/77 78/78/78 74/74/74
f 78/78/78 77/77/77 79/79/79
f 77/77/77 80/80/80 79/79/79
f 83/83/83 82/82/82 81/81/81
f 84/84/84 83/83/83 81/81/81
f 83/83/83 85/85/85 82/82/82
f 85/85/85 86/86/86 82/82/82
f 85/85/85 87/87/87 86/86/86
f 87/87/87 88/88/88 86/86/86
f 87/87/87 89/89/89 88/88/88
f 89/89/89 90/90/90 88/88/88
