g FloorBlock
v 0.7 0.5 -0.5
v 0.7 0.5 0.5
v -0.7 0.5 0.5
v -0.7 0.5 -0.5
v 0.7 -0.5 0.5
v 0.7 -0.5 -0.5
v -0.7 -0.5 -0.5
v -0.7 -0.5 0.5
v -0.7 0.5 0.5
v 0.7 0.5 0.5
v 0.7 -0.5 0.5
v -0.7 -0.5 0.5
v 1.1 -0.5 0.6
v 0.7 -0.5 0.6
v 0.7 0.5 0.6
v 1.1 0.5 0.6
v 1.1 0.6 0.6
v 0.7 0.6 0.6
v 1.1 -0.6 0.6
v 0.7 -0.6 0.6
v 1.1 0.5 0.5000001
v 0.9999999 0.5 0.5000001
v 0.9999999 -0.5 0.5000001
v 1.1 -0.5 0.5000001
v 1.1 0.6 0.6
v 1.1 0.6 0.5000001
v 1.1 0.5 0.5000001
v 1.1 0.5 0.6
v 1.1 0.6 -0.5000001
v 1.1 0.5 -0.5000001
v 1.1 -0.5 0.5000001
v 1.1 -0.5 0.6
v 1.1 -0.6 0.6
v 1.1 -0.6 0.5000001
v 1.1 -0.5 -0.5000001
v 1.1 -0.6 -0.5000001
v 1.1 0.6 0.5000001
v 0.7 0.6 0.5
v 0.7 0.6 -0.5
v 1.1 0.6 -0.5000001
v 0.7 0.6 0.6
v 1.1 0.6 0.6
v 0.7 0.6 0.6
v 0.7 0.5 0.6
v 0.7 0.5 0.5
v 0.7 0.6 0.5
v 0.7 -0.5 0.5
v 0.7 -0.5 0.6
v 0.7 0.5 -0.5
v 0.7 0.6 -0.5
v 0.7 -0.6 0.6
v 0.7 -0.6 0.5
v 0.7 -0.6 -0.5
v 0.7 -0.5 -0.5
v -1.1 0.6000001 0.5000001
v -1.1 0.5000001 0.5000001
v -1.1 0.5000001 -0.5
v -1.1 0.6000001 -0.5
v -1.1 0.6000001 0.6
v -1.1 0.5000001 0.6
v -1.1 -0.4999999 0.6
v -1.1 -0.4999999 0.5000001
v -1.1 -0.5999999 0.6
v -1.1 -0.5999999 0.5000001
v -1.1 -0.5999999 -0.5
v -1.1 -0.4999999 -0.5
v -0.9999999 -0.5 0.5000001
v -1.1 -0.4999999 0.5000001
v -1.1 -0.4999999 -0.5
v -0.9999999 -0.5 -0.5000001
v 1.1 -0.5 0.5000001
v 0.9999999 -0.5 0.5000001
v 0.9999999 -0.5 -0.5000001
v 1.1 -0.5 -0.5000001
v 0.7 -0.6 0.5
v 1.1 -0.6 0.5000001
v 1.1 -0.6 -0.5000001
v 0.7 -0.6 -0.5
v 0.7 -0.6 0.6
v 1.1 -0.6 0.6
v -1.1 0.6000001 0.5000001
v -0.7 0.6 0.5
v -0.7 0.6 0.6
v -1.1 0.6000001 0.6
v -1.1 0.6000001 -0.5
v -0.7 0.6 -0.5
v -0.7 0.5 0.5
v -0.7 0.6 0.5
v -0.7 0.6 -0.5
v -0.7 0.5 -0.5
v -0.7 0.6 0.6
v -0.7 0.5 0.6
v -0.7 -0.4999999 0.6
v -0.7 -0.5 0.5
v -0.7 -0.6 0.6
v -0.7 -0.6 0.5
v -0.7 -0.5 -0.5
v -0.7 -0.6 -0.5
v -0.7 0.5 0.6
v -1.1 0.5000001 0.6
v -1.1 0.6000001 0.6
v -0.7 0.6 0.6
v -0.7 -0.4999999 0.6
v -1.1 -0.4999999 0.6
v -1.1 -0.5999999 0.6
v -0.7 -0.6 0.6
v -1.1 0.5000001 0.5000001
v -0.9999999 0.5 0.5000001
v -0.9999999 0.5 -0.5000001
v -1.1 0.5000001 -0.5
v -1.1 -0.5999999 0.5000001
v -1.1 -0.5999999 0.6
v -0.7 -0.6 0.6
v -0.7 -0.6 0.5
v -0.7 -0.6 -0.5
v -1.1 -0.5999999 -0.5
v 0.9999999 0.5 0.5000001
v 1.1 0.5 0.5000001
v 1.1 0.5 -0.5000001
v 0.9999999 0.5 -0.5000001
v -1.1 -0.4999999 0.5000001
v -0.9999999 -0.5 0.5000001
v -0.9999999 0.5 0.5000001
v -1.1 0.5000001 0.5000001
v 0.9999999 -0.5 -0.5000001
v 0.9999999 -0.5 0.5000001
v 0.9999999 0.5 0.5000001
v 0.9999999 0.5 -0.5000001
v -0.9999999 -0.5 -0.5000001
v -0.9999999 0.5 -0.5000001
v -0.9999999 0.5 0.5000001
v -0.9999999 -0.5 0.5000001
vt 0.9991562 0.7139241
vt 0.9991563 0.0008437281
vt 0.0008437281 0.0008437281
vt 0.0008437281 0.7139241
vt 0.9991562 0.7139241
vt 0.9991563 0.0008437281
vt 0.0008437281 0.0008437281
vt 0.0008437281 0.7139241
vt 0.9991562 0.0008437634
vt 0.0008437037 0.0008437037
vt 0.0008437037 0.7139241
vt 0.9991562 0.7139241
vt 0.5417295 0.7062649
vt 0.5417296 0.8710428
vt 0.9536746 0.8710428
vt 0.9536746 0.7062649
vt 0.9948692 0.7062649
vt 0.9948692 0.8710428
vt 0.500535 0.7062649
vt 0.500535 0.8710428
vt 0.830299 0.9210559
vt 0.830299 0.8798612
vt 0.4183534 0.8798612
vt 0.4183534 0.9210558
vt 0.4970763 0.5215707
vt 0.4970763 0.4803761
vt 0.4558816 0.4803761
vt 0.4558816 0.5215707
vt 0.4970758 0.06843075
vt 0.4558812 0.06843081
vt 0.0439364 0.4803761
vt 0.0439364 0.5215706
vt 0.002741843 0.5215706
vt 0.002741814 0.4803761
vt 0.04393625 0.06843123
vt 0.002741754 0.06843132
vt 0.9539733 0.6906774
vt 0.9539732 0.5258996
vt 0.5420282 0.5258996
vt 0.5420282 0.6906774
vt 0.9951677 0.5258996
vt 0.9951677 0.6906774
vt 0.9957395 0.02723607
vt 0.9545448 0.02723607
vt 0.9545448 0.06843081
vt 0.9957395 0.06843081
vt 0.5425997 0.06843099
vt 0.5425997 0.02723637
vt 0.9545448 0.4803757
vt 0.9957393 0.4803756
vt 0.501405 0.02723637
vt 0.501405 0.06843105
vt 0.5014054 0.4803759
vt 0.5426 0.4803759
vt 0.002741814 0.4803761
vt 0.0439364 0.4803761
vt 0.04393625 0.06843123
vt 0.002741754 0.06843132
vt 0.002741843 0.5215706
vt 0.0439364 0.5215706
vt 0.4558816 0.5215707
vt 0.4558816 0.4803761
vt 0.4970763 0.5215707
vt 0.4970763 0.4803761
vt 0.4970758 0.06843075
vt 0.4558812 0.06843081
vt 0.8307785 0.9771406
vt 0.8307787 0.9359459
vt 0.418833 0.9359457
vt 0.418833 0.9771405
vt 0.4183534 0.9210558
vt 0.4183534 0.8798612
vt 0.006409734 0.8798615
vt 0.006409794 0.9210559
vt 0.4593405 0.8710428
vt 0.4593405 0.7062649
vt 0.04739538 0.7062649
vt 0.04739538 0.8710428
vt 0.500535 0.8710428
vt 0.500535 0.7062649
vt 0.4593405 0.7062649
vt 0.4593405 0.8710428
vt 0.500535 0.8710428
vt 0.500535 0.7062649
vt 0.04739538 0.7062649
vt 0.04739538 0.8710428
vt 0.5425997 0.06843099
vt 0.501405 0.06843105
vt 0.5014054 0.4803759
vt 0.5426 0.4803759
vt 0.501405 0.02723637
vt 0.5425997 0.02723637
vt 0.9545448 0.02723607
vt 0.9545448 0.06843081
vt 0.9957395 0.02723607
vt 0.9957395 0.06843081
vt 0.9545448 0.4803757
vt 0.9957393 0.4803756
vt 0.5417296 0.8710428
vt 0.5417295 0.7062649
vt 0.500535 0.7062649
vt 0.500535 0.8710428
vt 0.9536746 0.8710428
vt 0.9536746 0.7062649
vt 0.9948692 0.7062649
vt 0.9948692 0.8710428
vt 0.4183534 0.9210558
vt 0.4183534 0.8798612
vt 0.006409734 0.8798615
vt 0.006409794 0.9210559
vt 0.9539733 0.6906774
vt 0.9951677 0.6906774
vt 0.9951677 0.5258996
vt 0.9539732 0.5258996
vt 0.5420282 0.5258996
vt 0.5420282 0.6906774
vt 0.8307785 0.9771406
vt 0.8307787 0.9359459
vt 0.418833 0.9359457
vt 0.418833 0.9771405
vt 0.830299 0.9210559
vt 0.830299 0.8798612
vt 0.4183534 0.8798612
vt 0.4183534 0.9210558
vt 0.0009980039 0.0009980039
vt 0.0009980039 0.999002
vt 0.9990019 0.999002
vt 0.9990019 0.0009980039
vt 0.999002 0.000998123
vt 0.000998004 0.000998004
vt 0.000998004 0.9990021
vt 0.999002 0.9990021
vn 0 1 0
vn 0 1 0
vn 0 1 0
vn 0 1 0
vn 0 -1 0
vn 0 -1 0
vn 0 -1 0
vn 0 -1 0
vn 0 0 1
vn 0 0 1
vn 0 0 1
vn 0 0 1
vn 0 0 1
vn 0 0 1
vn 0 0 1
vn 0 0 1
vn 0 0 1
vn 0 0 1
vn 0 0 1
vn 0 0 1
vn 0 0 -1
vn 0 0 -1
vn 0 0 -1
vn 0 0 -1
vn 1 0 0
vn 1 0 0
vn 1 0 0
vn 1 0 0
vn 1 0 0
vn 1 0 0
vn 1 0 0
vn 1 0 0
vn 1 0 0
vn 1 0 0
vn 1 0 0
vn 1 0 0
vn 0 1 0
vn 0 1 0
vn 0 1 0
vn 0 1 0
vn 0 1 0
vn 0 1 0
vn -1 0 0
vn -1 0 0
vn -1 0 0
vn -1 0 0
vn -1 0 0
vn -1 0 0
vn -1 0 0
vn -1 0 0
vn -1 0 0
vn -1 0 0
vn -1 0 0
vn -1 0 0
vn -1 0 0
vn -1 0 0
vn -1 0 0
vn -1 0 0
vn -1 0 0
vn -1 0 0
vn -1 0 0
vn -1 0 0
vn -1 0 0
vn -1 0 0
vn -1 0 0
vn -1 0 0
vn 0 1 0
vn 0 1 0
vn 0 1 0
vn 0 1 0
vn 0 1 0
vn 0 1 0
vn 0 1 0
vn 0 1 0
vn 0 -1 0
vn 0 -1 0
vn 0 -1 0
vn 0 -1 0
vn 0 -1 0
vn 0 -1 0
vn 0 1 0
vn 0 1 0
vn 0 1 0
vn 0 1 0
vn 0 1 0
vn 0 1 0
vn 1 0 0
vn 1 0 0
vn 1 0 0
vn 1 0 0
vn 1 0 0
vn 1 0 0
vn 1 0 0
vn 1 0 0
vn 1 0 0
vn 1 0 0
vn 1 0 0
vn 1 0 0
vn 0 0 1
vn 0 0 1
vn 0 0 1
vn 0 0 1
vn 0 0 1
vn 0 0 1
vn 0 0 1
vn 0 0 1
vn 0 -1 0
vn 0 -1 0
vn 0 -1 0
vn 0 -1 0
vn 0 -1 0
vn 0 -1 0
vn 0 -1 0
vn 0 -1 0
vn 0 -1 0
vn 0 -1 0
vn 0 -1 0
vn 0 -1 0
vn 0 -1 0
vn 0 -1 0
vn 0 0 -1
vn 0 0 -1
vn 0 0 -1
vn 0 0 -1
vn 1 0 0
vn 1 0 0
vn 1 0 0
vn 1 0 0
vn -1 0 0
vn -1 0 0
vn -1 0 0
vn -1 0 0
g FloorBlock_0
f 3/3/3 2/2/2 1/1/1
f 4/4/4 3/3/3 1/1/1
f 7/7/7 6/6/6 5/5/5
f 8/8/8 7/7/7 5/5/5
f 11/11/11 10/10/10 9/9/9
f 12/12/12 11/11/11 9/9/9
g FloorBlock_1
f 15/15/15 14/14/14 13/13/13
f 16/16/16 15/15/15 13/13/13
f 16/16/16 17/17/17 15/15/15
f 17/17/17 18/18/18 15/15/15
f 19/19/19 13/13/13 14/14/14
f 20/20/20 19/19/19 14/14/14
f 23/23/23 22/22/22 21/21/21
f 24/24/24 23/23/23 21/21/21
f 27/27/27 26/26/26 25/25/25
f 28/28/28 27/27/27 25/25/25
f 29/29/29 26/26/26 27/27/27
f 30/30/30 29/29/29 27/27/27
f 31/31/31 27/27/27 28/28/28
f 32/32/32 31/31/31 28/28/28
f 31/31/31 32/32/32 33/33/33
f 34/34/34 31/31/31 33/33/33
f 35/35/35 31/31/31 34/34/34
f 36/36/36 35/35/35 34/34/34
f 39/39/39 38/38/38 37/37/37
f 40/40/40 39/39/39 37/37/37
f 38/38/38 41/41/41 37/37/37
f 41/41/41 42/42/42 37/37/37
f 45/45/45 44/44/44 43/43/43
f 46/46/46 45/45/45 43/43/43
f 44/44/44 45/45/45 47/47/47
f 48/48/48 44/44/44 47/47/47
f 49/49/49 45/45/45 46/46/46
f 50/50/50 49/49/49 46/46/46
f 48/48/48 47/47/47 51/51/51
f 47/47/47 52/52/52 51/51/51
f 53/53/53 52/52/52 47/47/47
f 54/54/54 53/53/53 47/47/47
f 57/57/57 56/56/56 55/55/55
f 58/58/58 57/57/57 55/55/55
f 55/55/55 56/56/56 59/59/59
f 56/56/56 60/60/60 59/59/59
f 60/60/60 56/56/56 61/61/61
f 56/56/56 62/62/62 61/61/61
f 61/61/61 62/62/62 63/63/63
f 62/62/62 64/64/64 63/63/63
f 65/65/65 64/64/64 62/62/62
f 66/66/66 65/65/65 62/62/62
f 69/69/69 68/68/68 67/67/67
f 70/70/70 69/69/69 67/67/67
f 73/73/73 72/72/72 71/71/71
f 74/74/74 73/73/73 71/71/71
f 77/77/77 76/76/76 75/75/75
f 78/78/78 77/77/77 75/75/75
f 79/79/79 75/75/75 76/76/76
f 80/80/80 79/79/79 76/76/76
f 83/83/83 82/82/82 81/81/81
f 84/84/84 83/83/83 81/81/81
f 85/85/85 81/81/81 82/82/82
f 86/86/86 85/85/85 82/82/82
f 89/89/89 88/88/88 87/87/87
f 90/90/90 89/89/89 87/87/87
f 87/87/87 88/88/88 91/91/91
f 92/92/92 87/87/87 91/91/91
f 92/92/92 93/93/93 87/87/87
f 93/93/93 94/94/94 87/87/87
f 94/94/94 93/93/93 95/95/95
f 96/96/96 94/94/94 95/95/95
f 97/97/97 94/94/94 96/96/96
f 98/98/98 97/97/97 96/96/96
f 101/101/101 100/100/100 99/99/99
f 102/102/102 101/101/101 99/99/99
f 103/103/103 99/99/99 100/100/100
f 104/104/104 103/103/103 100/100/100
f 104/104/104 105/105/105 103/103/103
f 105/105/105 106/106/106 103/103/103
f 109/109/109 108/108/108 107/107/107
f 110/110/110 109/109/109 107/107/107
f 113/113/113 112/112/112 111/111/111
f 114/114/114 113/113/113 111/111/111
f 115/115/115 114/114/114 111/111/111
f 116/116/116 115/115/115 111/111/111
f 119/119/119 118/118/118 117/117/117
f 120/120/120 119/119/119 117/117/117
f 123/123/123 122/122/122 121/121/121
f 124/124/124 123/123/123 121/121/121
g FloorBlock_2
f 127/127/127 126/126/126 125/125/125
f 128/128/128 127/127/127 125/125/125
f 131/131/131 130/130/130 129/129/129
f 132/132/132 131/131/131 129/129/129
