g foot
v -0.1181264 0.04905573 -0.1618392
v -0.1181264 -0.04905573 -0.1618392
v 0.1181264 -0.04905573 -0.1618392
v 0.1181264 0.04905573 -0.1618392
v -0.1181264 -0.04905573 -0.1618392
v -0.4483781 -0.04905573 0.247032
v 0.4483781 -0.04905573 0.247032
v 0.1181264 -0.04905573 -0.1618392
v 0.4483781 -0.04905573 0.477109
v -0.4483781 -0.04905573 0.477109
v -0.4483781 -0.04905573 0.477109
v -0.4483781 0.04905573 0.477109
v 0.4483781 0.04905573 0.477109
v 0.4483781 -0.04905573 0.477109
v -0.4483781 0.04905573 0.247032
v -0.1181264 0.04905573 -0.1618392
v 0.1181264 0.04905573 -0.1618392
v 0.4483781 0.04905573 0.247032
v -0.4483781 0.04905573 0.477109
v 0.4483781 0.04905573 0.477109
v 0.1181264 0.04905573 -0.1618392
v 0.1181264 -0.04905573 -0.1618392
v 0.4483781 -0.04905573 0.247032
v 0.4483781 0.04905573 0.247032
v -0.4483781 0.04905573 0.247032
v -0.4483781 -0.04905573 0.247032
v -0.1181264 -0.04905573 -0.1618392
v -0.1181264 0.04905573 -0.1618392
v 0.4483781 -0.04905573 0.247032
v 0.4483781 -0.04905573 0.477109
v 0.4483781 0.04905573 0.477109
v 0.4483781 0.04905573 0.247032
v -0.4483781 0.04905573 0.247032
v -0.4483781 0.04905573 0.477109
v -0.4483781 -0.04905573 0.477109
v -0.4483781 -0.04905573 0.247032
vt 0.4516367 0.1944993
vt 0.4453134 0.1944993
vt 0.4453134 0.2098863
vt 0.4516367 0.2098863
vt 0.9120529 0.4012907
vt 0.9386324 0.4226154
vt 0.9386324 0.3647108
vt 0.9120529 0.3860356
vt 0.953589 0.3647108
vt 0.953589 0.4226154
vt 0.6090133 0.06329522
vt 0.6153358 0.06329522
vt 0.6153358 0.004882813
vt 0.6090133 0.004882813
vt 0.4414158 0.9085605
vt 0.462887 0.9349587
vt 0.4782469 0.9349587
vt 0.4997181 0.9085605
vt 0.4414158 0.8937059
vt 0.4997181 0.8937059
vt 0.5700371 0.2941665
vt 0.5769814 0.2941665
vt 0.5769814 0.265489
vt 0.5700371 0.265489
vt 0.5788068 0.3754249
vt 0.5857511 0.3754249
vt 0.5857511 0.3467473
vt 0.5788068 0.3467473
vt 0.5769814 0.265489
vt 0.5769814 0.2493517
vt 0.5700371 0.2493517
vt 0.5700371 0.265489
vt 0.5788068 0.3754249
vt 0.5788068 0.3915622
vt 0.5857511 0.3915622
vt 0.5857511 0.3754249
vn 0 0 -1
vn 0 0 -1
vn 0 0 -1
vn 0 0 -1
vn 0 -1 0
vn 0 -1 0
vn 0 -1 0
vn 0 -1 0
vn 0 -1 0
vn 0 -1 0
vn 0 0 1
vn 0 0 1
vn 0 0 1
vn 0 0 1
vn 0 1 0
vn 0 1 0
vn 0 1 0
vn 0 1 0
vn 0 1 0
vn 0 1 0
vn 0.7779322 0 -0.6283482
vn 0.7779322 0 -0.6283482
vn 0.7779322 0 -0.6283482
vn 0.7779322 0 -0.6283482
vn -0.7779322 0 -0.6283482
vn -0.7779322 0 -0.6283482
vn -0.7779322 0 -0.6283482
vn -0.7779322 0 -0.6283482
vn 1 0 0
vn 1 0 0
vn 1 0 0
vn 1 0 0
vn -1 0 0
vn -1 0 0
vn -1 0 0
vn -1 0 0
g foot_0
f 3/3/3 2/2/2 1/1/1
f 4/4/4 3/3/3 1/1/1
f 7/7/7 6/6/6 5/5/5
f 8/8/8 7/7/7 5/5/5
f 7/7/7 9/9/9 6/6/6
f 9/9/9 10/10/10 6/6/6
f 13/13/13 12/12/12 11/11/11
f 14/14/14 13/13/13 11/11/11
f 17/17/17 16/16/16 15/15/15
f 18/18/18 17/17/17 15/15/15
f 15/15/15 19/19/19 18/18/18
f 19/19/19 20/20/20 18/18/18
f 23/23/23 22/22/22 21/21/21
f 24/24/24 23/23/23 21/21/21
f 27/27/27 26/26/26 25/25/25
f 28/28/28 27/27/27 25/25/25
f 31/31/31 30/30/30 29/29/29
f 32/32/32 31/31/31 29/29/29
f 35/35/35 34/34/34 33/33/33
f 36/36/36 35/35/35 33/33/33
