g HUpperLeft
v 0.2597013 -0.5000005 -0.9999998
v 0.2597013 -0.3561978 -1
v 0.2597013 -0.3561978 -0.8553305
v 0.2597013 -0.5000005 -0.8553306
v 0.3561978 -0.4999995 -0.9999998
v 0.3561978 -0.2597003 -0.9999998
v 0.2597013 -0.3561978 -1
v 0.2597013 -0.5000005 -0.9999998
v -0.2596998 0.3561974 -1
v -0.3561974 0.2597008 -0.9999998
v -0.5 0.3561978 -1
v -0.5 0.2597013 -0.9999998
v 0.374846 -0.2597003 -0.8553306
v 0.3561978 -0.2597003 -0.9999998
v 0.3561978 -0.4999995 -0.9999998
v 0.374846 -0.4999995 -0.8553306
v 0.5 -0.2597008 -6.43196E-10
v 0.5 -0.5 -6.43196E-10
v -0.4999995 0.2597013 -0.8553307
v -0.3561969 0.2597003 -0.8553307
v -0.3561974 0.2597008 -0.9999998
v -0.5 0.2597013 -0.9999998
v -0.2596998 0.3561974 -1
v -0.2596998 0.374845 -0.8553308
v -0.5 0.3748455 -0.8553308
v -0.5 0.3561978 -1
v -0.5 0.5 -6.431959E-10
v -0.2596998 0.5 -6.431959E-10
v -0.3561969 -0.3561978 -0.8553307
v 0.2597013 -0.3561978 -0.8553305
v -0.3561969 0.2597003 -0.8553307
v -0.4999995 -0.3561978 -0.8553307
v -0.4999995 0.2597013 -0.8553307
v 0.2597013 -0.5000005 -0.8553306
v -0.3561969 -0.5000005 -0.8553307
v -0.4999995 -0.5000005 -0.8553307
v 0.2597013 -0.3561978 -1
v -0.3561974 0.2597008 -0.9999998
v -0.3561969 0.2597003 -0.8553307
v 0.2597013 -0.3561978 -0.8553305
v -0.2596998 0.3561974 -1
v 0.3561978 -0.2597003 -0.9999998
v 0.374846 -0.2597003 -0.8553306
v -0.2596998 0.374845 -0.8553308
v -0.2596998 0.5 -6.431959E-10
v 0.5 -0.2597008 -6.43196E-10
vt 0.4256421 0.9407729
vt 0.4812235 0.9407729
vt 0.4812288 0.8839697
vt 0.4256427 0.8839697
vt 0.4009129 0.9244768
vt 0.4009129 0.8512383
vt 0.3715025 0.8806489
vt 0.3715025 0.9244774
vt 0.2131987 0.6635244
vt 0.1837881 0.6929347
vt 0.1399598 0.6635239
vt 0.1399598 0.6929347
vt 0.7738307 0.545797
vt 0.7657565 0.6334523
vt 0.9096333 0.6473981
vt 0.9180777 0.5601605
vt 0.8262963 0.02711799
vt 0.9704203 0.04160437
vt 0.8779192 0.8839697
vt 0.8199723 0.8839697
vt 0.8199692 0.9407729
vt 0.8779192 0.9407729
vt 0.2400868 0.6337201
vt 0.2327246 0.5464016
vt 0.08862521 0.5610694
vt 0.09714296 0.6477034
vt 0.03474899 0.04302353
vt 0.1787956 0.02807596
vt 0.1940788 0.8574851
vt 0.381793 0.8574851
vt 0.1940788 0.6697707
vt 0.1502504 0.8574851
vt 0.1502504 0.6697707
vt 0.381793 0.9013134
vt 0.1940788 0.9013134
vt 0.1502504 0.9013134
vt 0.4812235 0.9407729
vt 0.8199692 0.9407729
vt 0.8199723 0.8839697
vt 0.4812288 0.8839697
vt 0.2400868 0.6337201
vt 0.7657565 0.6334523
vt 0.7738307 0.545797
vt 0.2327246 0.5464016
vt 0.1787956 0.02807596
vt 0.8262963 0.02711799
vn -1 0 0
vn -1 0 0
vn -1 0 0
vn -1 0 0
vn 0 0 -1
vn 0 0 -1
vn 0 0 -1
vn 0 0 -1
vn 0 0 -1
vn 0 0 -1
vn 0 0 -1
vn 0 0 -1
vn 0.9898181 0 -0.142338
vn 0.9917942 0 -0.1278444
vn 0.9917942 0 -0.1278444
vn 0.9898181 0 -0.142338
vn 0.9894637 0 -0.1447807
vn 0.9894637 0 -0.1447807
vn 0 -1 0
vn 0 -1 0
vn 0 -1 0
vn 0 -1 0
vn 0 0.991794 -0.1278455
vn 0 0.9898181 -0.1423384
vn 0 0.989818 -0.1423384
vn 0 0.991794 -0.1278455
vn 0 0.9894637 -0.1447809
vn 0 0.9894637 -0.1447809
vn 0 0 -1
vn 0 0 -1
vn 0 0 -1
vn 0 0 -1
vn 0 0 -1
vn 0 0 -1
vn 0 0 -1
vn 0 0 -1
vn -0.7071069 -0.7071066 0
vn -0.7071069 -0.7071066 0
vn -0.7071069 -0.7071066 0
vn -0.7071069 -0.7071066 0
vn 0.7041875 0.7041876 -0.09077243
vn 0.7041876 0.7041876 -0.09077243
vn 0.7034563 0.7034562 -0.1014817
vn 0.7034563 0.7034562 -0.1014817
vn 0.7033522 0.703352 -0.1029162
vn 0.7033522 0.703352 -0.1029162
g HUpperLeft_0
f 3/3/3 2/2/2 1/1/1
f 4/4/4 3/3/3 1/1/1
f 7/7/7 6/6/6 5/5/5
f 8/8/8 7/7/7 5/5/5
f 6/6/6 7/7/7 9/9/9
f 7/7/7 10/10/10 9/9/9
f 11/11/11 9/9/9 10/10/10
f 12/12/12 11/11/11 10/10/10
f 15/15/15 14/14/14 13/13/13
f 16/16/16 15/15/15 13/13/13
f 16/16/16 13/13/13 17/17/17
f 18/18/18 16/16/16 17/17/17
f 21/21/21 20/20/20 19/19/19
f 22/22/22 21/21/21 19/19/19
f 25/25/25 24/24/24 23/23/23
f 26/26/26 25/25/25 23/23/23
f 25/25/25 27/27/27 24/24/24
f 27/27/27 28/28/28 24/24/24
f 31/31/31 30/30/30 29/29/29
f 29/29/29 32/32/32 31/31/31
f 32/32/32 33/33/33 31/31/31
f 30/30/30 34/34/34 29/29/29
f 34/34/34 35/35/35 29/29/29
f 36/36/36 32/32/32 29/29/29
f 35/35/35 36/36/36 29/29/29
f 39/39/39 38/38/38 37/37/37
f 40/40/40 39/39/39 37/37/37
f 43/43/43 42/42/42 41/41/41
f 44/44/44 43/43/43 41/41/41
f 44/44/44 45/45/45 43/43/43
f 45/45/45 46/46/46 43/43/43
