g Left
v -0.5 0.5 -0.8553305
v -0.5 -0.5000005 -0.8553305
v 0.2596998 -0.4999995 -0.8553305
v 0.2596998 0.5 -0.8553305
v 0.5 0.5 0
v 0.3561974 0.4999995 -1
v 0.3561974 -0.5000005 -1
v 0.5 -0.5 0
v 0.3561974 0.4999995 -1
v 0.2597008 0.5 -1
v 0.2597008 -0.4999995 -1
v 0.3561974 -0.5000005 -1
v 0.2597008 0.5 -1
v 0.2596998 0.5 -0.8553305
v 0.2596998 -0.4999995 -0.8553305
v 0.2597008 -0.4999995 -1
vt 0.07529993 0.5744773
vt 0.07529993 0.8792586
vt 0.3068423 0.8792581
vt 0.3068423 0.5744773
vt 0.1937129 0.04260813
vt 0.1937131 0.6506295
vt 0.8017344 0.6506295
vt 0.8017341 0.04260816
vt 0.3543354 0.5736189
vt 0.324925 0.5736189
vt 0.324925 0.8784015
vt 0.3543354 0.8784015
vt 0.9930624 0.8015218
vt 0.9930624 0.7450104
vt 0.6024374 0.7450104
vt 0.6024374 0.8015218
vn 0 0 -1
vn 0 0 -1
vn 0 0 -1
vn 0 0 -1
vn 0.989818 0 -0.1423385
vn 0.989818 0 -0.1423385
vn 0.989818 0 -0.1423385
vn 0.989818 0 -0.1423385
vn 0 0 -1
vn 0 0 -1
vn 0 0 -1
vn 0 0 -1
vn -1 0 0
vn -1 0 0
vn -1 0 0
vn -1 0 0
g Left_0
f 3/3/3 2/2/2 1/1/1
f 4/4/4 3/3/3 1/1/1
f 7/7/7 6/6/6 5/5/5
f 8/8/8 7/7/7 5/5/5
f 11/11/11 10/10/10 9/9/9
f 12/12/12 11/11/11 9/9/9
f 15/15/15 14/14/14 13/13/13
f 16/16/16 15/15/15 13/13/13
