g leg
v 0.5 -1.420875 0.2029753
v 0.5 0.626219 0.2029753
v 0.5 0.626219 -0.02799439
v 0.5 -1.420875 -0.02799439
v 0.1303866 -1.065264 -0.4359734
v 0.1303866 0.626219 -0.4359734
v 0.5 0.626219 0.2029753
v -0.5 0.626219 0.2029753
v -0.5 0.626219 -0.02799439
v 0.5 0.626219 -0.02799439
v 0.1303866 0.626219 -0.4359734
v -0.1303866 0.626219 -0.4359734
v -0.5 0.626219 0.2029753
v -0.5 -1.420875 0.2029753
v -0.5 -1.420875 -0.02799439
v -0.5 0.626219 -0.02799439
v -0.1303866 0.626219 -0.4359734
v -0.1303866 -1.065264 -0.4359734
v -0.5 -1.420875 0.2029753
v 0.5 -1.420875 0.2029753
v 0.5 -1.420875 -0.02799439
v -0.5 -1.420875 -0.02799439
v -0.1303866 -1.065264 -0.4359734
v 0.1303866 -1.065264 -0.4359734
v 0.1303866 -1.065264 -0.4359734
v 0.1303866 0.626219 -0.4359734
v -0.1303866 0.626219 -0.4359734
v -0.1303866 -1.065264 -0.4359734
v -0.5 -1.420875 0.2029753
v -0.5 0.626219 0.2029753
v 0.5 0.626219 0.2029753
v 0.5 -1.420875 0.2029753
vt 0.5076753 0.5895253
vt 0.5076753 0.7365432
vt 0.5240862 0.7365432
vt 0.5240862 0.5895253
vt 0.5530739 0.6150646
vt 0.5530739 0.7365432
vt 0.3147433 0.912055
vt 0.3791091 0.912055
vt 0.3791091 0.8969923
vt 0.3147433 0.8969923
vt 0.3385338 0.8703863
vt 0.3553186 0.8703863
vt 0.210089 0.7307791
vt 0.210089 0.5837782
vt 0.1936762 0.5837782
vt 0.1936762 0.7307791
vt 0.1646851 0.7307791
vt 0.1646851 0.6093145
vt 0.3771051 0.8840198
vt 0.4475659 0.8840198
vt 0.4475659 0.8678928
vt 0.3771051 0.8678928
vt 0.4031485 0.8394066
vt 0.4215227 0.8394066
vt 0.9951172 0.8386641
vt 0.9951172 0.7284856
vt 0.9783124 0.7284856
vt 0.9783124 0.8386641
vt 0.2153541 0.4712974
vt 0.2153541 0.604639
vt 0.2797964 0.604639
vt 0.2797964 0.4712974
vn 1 0 0
vn 1 0 0
vn 0.8727879 0 -0.4880997
vn 0.9090565 0 -0.4166729
vn 0.7410932 0 -0.6714022
vn 0.7410932 0 -0.6714022
vn 0 1 0
vn 0 1 0
vn 0 1 0
vn 0 1 0
vn 0 1 0
vn 0 1 0
vn -1 0 0
vn -1 0 0
vn -0.9090565 0 -0.4166729
vn -0.8727879 0 -0.4880997
vn -0.7410932 0 -0.6714022
vn -0.7410932 0 -0.6714022
vn 0 -1 0
vn 0 -1 0
vn 0 -0.9422324 -0.3349599
vn 0 -0.9422324 -0.3349599
vn 0 -0.7538299 -0.6570696
vn 0 -0.7538299 -0.6570696
vn 0 0 -1
vn 0 0 -1
vn 0 0 -1
vn 0 0 -1
vn 0 0 1
vn 0 0 1
vn 0 0 1
vn 0 0 1
g leg_0
f 3/3/3 2/2/2 1/1/1
f 4/4/4 3/3/3 1/1/1
f 4/4/4 5/5/5 3/3/3
f 5/5/5 6/6/6 3/3/3
f 9/9/9 8/8/8 7/7/7
f 10/10/10 9/9/9 7/7/7
f 10/10/10 11/11/11 9/9/9
f 11/11/11 12/12/12 9/9/9
f 15/15/15 14/14/14 13/13/13
f 16/16/16 15/15/15 13/13/13
f 16/16/16 17/17/17 15/15/15
f 17/17/17 18/18/18 15/15/15
f 21/21/21 20/20/20 19/19/19
f 22/22/22 21/21/21 19/19/19
f 22/22/22 23/23/23 21/21/21
f 23/23/23 24/24/24 21/21/21
f 27/27/27 26/26/26 25/25/25
f 28/28/28 27/27/27 25/25/25
f 31/31/31 30/30/30 29/29/29
f 32/32/32 31/31/31 29/29/29
