g leg
v 0.5 -1.420875 0.2029753
v 0.5 0.626219 0.2029753
v 0.5 0.626219 -0.02799439
v 0.5 -1.420875 -0.02799439
v 0.1303866 -1.065264 -0.4359734
v 0.1303866 0.626219 -0.4359734
v 0.5 0.626219 0.2029753
v -0.5 0.626219 0.2029753
v -0.5 0.626219 -0.02799439
v 0.5 0.626219 -0.02799439
v 0.1303866 0.626219 -0.4359734
v -0.1303866 0.626219 -0.4359734
v -0.5 0.626219 0.2029753
v -0.5 -1.420875 0.2029753
v -0.5 -1.420875 -0.02799439
v -0.5 0.626219 -0.02799439
v -0.1303866 0.626219 -0.4359734
v -0.1303866 -1.065264 -0.4359734
v -0.5 -1.420875 0.2029753
v 0.5 -1.420875 0.2029753
v 0.5 -1.420875 -0.02799439
v -0.5 -1.420875 -0.02799439
v -0.1303866 -1.065264 -0.4359734
v 0.1303866 -1.065264 -0.4359734
v 0.1303866 -1.065264 -0.4359734
v 0.1303866 0.626219 -0.4359734
v -0.1303866 0.626219 -0.4359734
v -0.1303866 -1.065264 -0.4359734
v -0.5 -1.420875 0.2029753
v -0.5 0.626219 0.2029753
v 0.5 0.626219 0.2029753
v 0.5 -1.420875 0.2029753
vt 0.6041951 0.7489684
vt 0.6041951 0.6034001
vt 0.5876207 0.6034001
vt 0.5876207 0.7489684
vt 0.5583443 0.7236809
vt 0.5583443 0.6034001
vt 0.4570063 0.4633066
vt 0.4570063 0.5284359
vt 0.4718922 0.5284359
vt 0.4718922 0.4633066
vt 0.4981865 0.4873793
vt 0.4981865 0.5043632
vt 0.7469856 0.7476209
vt 0.7469856 0.6006202
vt 0.7305728 0.6006202
vt 0.7305728 0.7476209
vt 0.7015817 0.7476209
vt 0.7015817 0.6261564
vt 0.5700371 0.8811672
vt 0.6397204 0.8811672
vt 0.6397204 0.8648604
vt 0.5700371 0.8648604
vt 0.5957931 0.8360564
vt 0.6139645 0.8360564
vt 0.9941428 0.1150611
vt 0.9941428 0.004882813
vt 0.977338 0.004882813
vt 0.977338 0.1150611
vt 0.5388562 0.004882813
vt 0.5388562 0.1382244
vt 0.6032985 0.1382244
vt 0.6032985 0.004882813
vn 1 0 0
vn 1 0 0
vn 0.8727879 0 -0.4880997
vn 0.9090565 0 -0.4166729
vn 0.7410932 0 -0.6714022
vn 0.7410932 0 -0.6714022
vn 0 1 0
vn 0 1 0
vn 0 1 0
vn 0 1 0
vn 0 1 0
vn 0 1 0
vn -1 0 0
vn -1 0 0
vn -0.9090565 0 -0.4166729
vn -0.8727879 0 -0.4880997
vn -0.7410932 0 -0.6714022
vn -0.7410932 0 -0.6714022
vn 0 -1 0
vn 0 -1 0
vn 0 -0.9422324 -0.3349599
vn 0 -0.9422324 -0.3349599
vn 0 -0.7538299 -0.6570696
vn 0 -0.7538299 -0.6570696
vn 0 0 -1
vn 0 0 -1
vn 0 0 -1
vn 0 0 -1
vn 0 0 1
vn 0 0 1
vn 0 0 1
vn 0 0 1
g leg_0
f 3/3/3 2/2/2 1/1/1
f 4/4/4 3/3/3 1/1/1
f 4/4/4 5/5/5 3/3/3
f 5/5/5 6/6/6 3/3/3
f 9/9/9 8/8/8 7/7/7
f 10/10/10 9/9/9 7/7/7
f 10/10/10 11/11/11 9/9/9
f 11/11/11 12/12/12 9/9/9
f 15/15/15 14/14/14 13/13/13
f 16/16/16 15/15/15 13/13/13
f 16/16/16 17/17/17 15/15/15
f 17/17/17 18/18/18 15/15/15
f 21/21/21 20/20/20 19/19/19
f 22/22/22 21/21/21 19/19/19
f 22/22/22 23/23/23 21/21/21
f 23/23/23 24/24/24 21/21/21
f 27/27/27 26/26/26 25/25/25
f 28/28/28 27/27/27 25/25/25
f 31/31/31 30/30/30 29/29/29
f 32/32/32 31/31/31 29/29/29
