g lowerleg
v 0.09545319 -1.648076 -0.02710199
v 0.09545323 -0.8211007 -0.02710199
v 0.09545323 -0.8211007 -0.3523479
v 0.09545319 -1.648076 -0.3523479
v -0.09545323 -0.8211007 -0.02710199
v -0.09545328 -1.648076 -0.02710199
v -0.09545328 -1.648076 -0.3523479
v -0.09545323 -0.8211007 -0.3523479
v -0.09545328 -1.648076 -0.02710199
v 0.09545319 -1.648076 -0.02710199
v 0.09545319 -1.648076 -0.3523479
v -0.09545328 -1.648076 -0.3523479
v 0.09545319 -1.648076 -0.3523479
v 0.09545323 -0.8211007 -0.3523479
v -0.09545323 -0.8211007 -0.3523479
v -0.09545328 -1.648076 -0.3523479
v -0.09545328 -1.648076 -0.02710199
v -0.09545323 -0.8211007 -0.02710199
v 0.09545323 -0.8211007 -0.02710199
v 0.09545319 -1.648076 -0.02710199
vt 0.631131 0.6037399
vt 0.631131 0.5503411
vt 0.6099877 0.5503411
vt 0.6099877 0.6037399
vt 0.6309473 0.6625358
vt 0.6309473 0.6086692
vt 0.6099877 0.6086692
vt 0.6099877 0.6625358
vt 0.8825653 0.004882813
vt 0.8701536 0.004882813
vt 0.8701536 0.02588185
vt 0.8825653 0.02588185
vt 0.4501854 0.7067258
vt 0.4501854 0.7601245
vt 0.4625957 0.7601245
vt 0.4625957 0.7067258
vt 0.9517612 0.8420779
vt 0.9517612 0.7887425
vt 0.9393362 0.7887425
vt 0.9393362 0.8420779
vn 1 0 0
vn 1 0 0
vn 1 0 0
vn 1 0 0
vn -1 0 0
vn -1 0 0
vn -1 0 0
vn -1 0 0
vn 0 -1 0
vn 0 -1 0
vn 0 -1 0
vn 0 -1 0
vn 0 0 -1
vn 0 0 -1
vn 0 0 -1
vn 0 0 -1
vn 0 0 1
vn 0 0 1
vn 0 0 1
vn 0 0 1
g lowerleg_0
f 3/3/3 2/2/2 1/1/1
f 4/4/4 3/3/3 1/1/1
f 7/7/7 6/6/6 5/5/5
f 8/8/8 7/7/7 5/5/5
f 11/11/11 10/10/10 9/9/9
f 12/12/12 11/11/11 9/9/9
f 15/15/15 14/14/14 13/13/13
f 16/16/16 15/15/15 13/13/13
f 19/19/19 18/18/18 17/17/17
f 20/20/20 19/19/19 17/17/17
