g lowerleg
v 0.09545319 -1.648076 -0.02710199
v 0.09545323 -0.8211007 -0.02710199
v 0.09545323 -0.8211007 -0.3523479
v 0.09545319 -1.648076 -0.3523479
v -0.09545323 -0.8211007 -0.02710199
v -0.09545328 -1.648076 -0.02710199
v -0.09545328 -1.648076 -0.3523479
v -0.09545323 -0.8211007 -0.3523479
v -0.09545328 -1.648076 -0.02710199
v 0.09545319 -1.648076 -0.02710199
v 0.09545319 -1.648076 -0.3523479
v -0.09545328 -1.648076 -0.3523479
v 0.09545319 -1.648076 -0.3523479
v 0.09545323 -0.8211007 -0.3523479
v -0.09545323 -0.8211007 -0.3523479
v -0.09545328 -1.648076 -0.3523479
v -0.09545328 -1.648076 -0.02710199
v -0.09545323 -0.8211007 -0.02710199
v 0.09545323 -0.8211007 -0.02710199
v 0.09545319 -1.648076 -0.02710199
vt 0.3066544 0.5246964
vt 0.3066544 0.4712974
vt 0.2855112 0.4712974
vt 0.2855112 0.5246964
vt 0.4599295 0.9676439
vt 0.513695 0.9676439
vt 0.513695 0.9466449
vt 0.4599295 0.9466449
vt 0.8701536 0.1248209
vt 0.8825653 0.1248209
vt 0.8825653 0.1038219
vt 0.8701536 0.1038219
vt 0.05871203 0.9633014
vt 0.004882813 0.9633014
vt 0.004882813 0.9756124
vt 0.05871203 0.9756124
vt 0.839947 0.9588004
vt 0.8931821 0.9588004
vt 0.8931821 0.946352
vt 0.839947 0.946352
vn 1 0 0
vn 1 0 0
vn 1 0 0
vn 1 0 0
vn -1 0 0
vn -1 0 0
vn -1 0 0
vn -1 0 0
vn 0 -1 0
vn 0 -1 0
vn 0 -1 0
vn 0 -1 0
vn 0 0 -1
vn 0 0 -1
vn 0 0 -1
vn 0 0 -1
vn 0 0 1
vn 0 0 1
vn 0 0 1
vn 0 0 1
g lowerleg_0
f 3/3/3 2/2/2 1/1/1
f 4/4/4 3/3/3 1/1/1
f 7/7/7 6/6/6 5/5/5
f 8/8/8 7/7/7 5/5/5
f 11/11/11 10/10/10 9/9/9
f 12/12/12 11/11/11 9/9/9
f 15/15/15 14/14/14 13/13/13
f 16/16/16 15/15/15 13/13/13
f 19/19/19 18/18/18 17/17/17
f 20/20/20 19/19/19 17/17/17
