g Paijipao_paodan
v 0.08781528 0 -0.2702694
v 2.861023E-08 0 2.861023E-08
v 0.2299042 0 -0.1670361
v -0.08781528 0 -0.2702694
v -0.2299042 0 -0.1670361
v -0.2841778 0 4.554852E-08
v -0.2299042 0 0.1670361
v -0.08781528 0 0.2702694
v 0.08781528 0 0.2702694
v 0.2299042 0 0.1670361
v 0.2841778 0 2.861023E-08
v 0.2299042 0 -0.1670361
v 0.2299042 0.6412964 -0.1670361
v 0.08781528 0.6412964 -0.2702694
v 0.08781528 0 -0.2702694
v 0.08781528 0 -0.2702694
v 0.08781528 0.6412964 -0.2702694
v -0.08781528 0.6412964 -0.2702694
v -0.08781528 0 -0.2702694
v -0.08781528 0 -0.2702694
v -0.08781528 0.6412964 -0.2702694
v -0.2299042 0.6412964 -0.1670361
v -0.2299042 0 -0.1670361
v -0.2299042 0 -0.1670361
v -0.2299042 0.6412964 -0.1670361
v -0.2841778 0.6412964 4.554852E-08
v -0.2841778 0 4.554852E-08
v -0.2841778 0 4.554852E-08
v -0.2841778 0.6412964 4.554852E-08
v -0.2299042 0.6412964 0.1670361
v -0.2299042 0 0.1670361
v -0.2299042 0 0.1670361
v -0.2299042 0.6412964 0.1670361
v -0.08781528 0.6412964 0.2702694
v -0.08781528 0 0.2702694
v -0.08781528 0 0.2702694
v -0.08781528 0.6412964 0.2702694
v 0.08781528 0.6412964 0.2702694
v 0.08781528 0 0.2702694
v 0.08781528 0 0.2702694
v 0.08781528 0.6412964 0.2702694
v 0.2299042 0.6412964 0.1670361
v 0.2299042 0 0.1670361
v 0.2299042 0 0.1670361
v 0.2299042 0.6412964 0.1670361
v 0.2841778 0.6412964 2.861023E-08
v 0.2841778 0 2.861023E-08
v 0.2841778 0 2.861023E-08
v 0.2841778 0.6412964 2.861023E-08
v 0.2299042 0.6412964 -0.1670361
v 0.2299042 0 -0.1670361
v 0.2299042 0.6412964 -0.1670361
v 0.1606369 0.783844 -0.1167097
v 0.06135798 0.783844 -0.1888409
v 0.08781528 0.6412964 -0.2702694
v 0.08781528 0.6412964 -0.2702694
v 0.06135798 0.783844 -0.1888409
v -0.06135798 0.783844 -0.1888409
v -0.08781528 0.6412964 -0.2702694
v -0.08781528 0.6412964 -0.2702694
v -0.06135798 0.783844 -0.1888409
v -0.1606369 0.783844 -0.1167097
v -0.2299042 0.6412964 -0.1670361
v -0.2299042 0.6412964 -0.1670361
v -0.1606369 0.783844 -0.1167097
v -0.1985588 0.783844 4.381104E-08
v -0.2841778 0.6412964 4.554852E-08
v -0.2841778 0.6412964 4.554852E-08
v -0.1985588 0.783844 4.381104E-08
v -0.1606369 0.783844 0.1167097
v -0.2299042 0.6412964 0.1670361
v -0.2299042 0.6412964 0.1670361
v -0.1606369 0.783844 0.1167097
v -0.06135798 0.783844 0.1888409
v -0.08781528 0.6412964 0.2702694
v -0.08781528 0.6412964 0.2702694
v -0.06135798 0.783844 0.1888409
v 0.06135798 0.783844 0.1888409
v 0.08781528 0.6412964 0.2702694
v 0.08781528 0.6412964 0.2702694
v 0.06135798 0.783844 0.1888409
v 0.1606369 0.783844 0.1167097
v 0.2299042 0.6412964 0.1670361
v 0.2299042 0.6412964 0.1670361
v 0.1606369 0.783844 0.1167097
v 0.1985588 0.783844 3.197607E-08
v 0.2841778 0.6412964 2.861023E-08
v 0.2841778 0.6412964 2.861023E-08
v 0.1985588 0.783844 3.197607E-08
v 0.1606369 0.783844 -0.1167097
v 0.2299042 0.6412964 -0.1670361
v 0.1606369 0.783844 -0.1167097
v 2.772506E-08 0.783844 2.772506E-08
v 0.06135798 0.783844 -0.1888409
v -0.06135798 0.783844 -0.1888409
v -0.1606369 0.783844 -0.1167097
v -0.1985588 0.783844 4.381104E-08
v -0.1606369 0.783844 0.1167097
v -0.06135798 0.783844 0.1888409
v 0.06135798 0.783844 0.1888409
v 0.1606369 0.783844 0.1167097
v 0.1985588 0.783844 3.197607E-08
vt 0.391341 0.5114583
vt 0.4030424 0.4754449
vt 0.3724076 0.4977024
vt 0.4147439 0.5114583
vt 0.4336772 0.4977024
vt 0.4409091 0.4754449
vt 0.4336772 0.4531874
vt 0.4147439 0.4394315
vt 0.391341 0.4394315
vt 0.3724076 0.4531874
vt 0.3651757 0.4754449
vt 0.3410109 0.333957
vt 0.3410109 0.424164
vt 0.3571113 0.424164
vt 0.3571113 0.333957
vt 0.3594945 0.333957
vt 0.3594945 0.424164
vt 0.3755946 0.424164
vt 0.3755946 0.333957
vt 0.3779778 0.333957
vt 0.3779778 0.424164
vt 0.3940783 0.424164
vt 0.3940783 0.333957
vt 0.3968586 0.333957
vt 0.3968586 0.424164
vt 0.4129586 0.424164
vt 0.4129586 0.333957
vt 0.4157389 0.333957
vt 0.4157389 0.424164
vt 0.4318393 0.424164
vt 0.4318393 0.333957
vt 0.4350168 0.333957
vt 0.4350168 0.424164
vt 0.4511172 0.424164
vt 0.4511172 0.333957
vt 0.4546919 0.333957
vt 0.4546919 0.424164
vt 0.4707919 0.424164
vt 0.4707919 0.333957
vt 0.4745883 0.333957
vt 0.4745883 0.424164
vt 0.4906887 0.424164
vt 0.4906887 0.333957
vt 0.4944851 0.333957
vt 0.4944851 0.424164
vt 0.5105855 0.424164
vt 0.5105855 0.333957
vt 0.5139074 0.333957
vt 0.5139074 0.424164
vt 0.5300074 0.424164
vt 0.5300074 0.333957
vt 0.3426973 0.4986068
vt 0.3335098 0.4919317
vt 0.3203415 0.5014991
vt 0.3238508 0.5122997
vt 0.3221298 0.5127914
vt 0.3186204 0.5019908
vt 0.3023435 0.5019908
vt 0.2988342 0.5127914
vt 0.2968673 0.5125455
vt 0.3003766 0.501745
vt 0.2872083 0.4921776
vt 0.2780207 0.4988527
vt 0.2765455 0.496394
vt 0.2857331 0.4897189
vt 0.2807032 0.4742387
vt 0.2693468 0.4742387
vt 0.2700844 0.4722717
vt 0.2814409 0.4722717
vt 0.2864707 0.4567915
vt 0.2772832 0.4501163
vt 0.2777749 0.448887
vt 0.2869624 0.4555622
vt 0.3001307 0.4459949
vt 0.2966214 0.4351943
vt 0.2988342 0.4347025
vt 0.3023435 0.4455031
vt 0.3186204 0.4455031
vt 0.3221298 0.4347025
vt 0.3243426 0.4349484
vt 0.3208332 0.445749
vt 0.3340015 0.4553163
vt 0.3431891 0.4486411
vt 0.3439267 0.450608
vt 0.3347391 0.4572832
vt 0.3397689 0.4727634
vt 0.3511254 0.4727634
vt 0.3511254 0.4742387
vt 0.3397689 0.4742387
vt 0.3347391 0.4897189
vt 0.3439267 0.496394
vt 0.3297015 0.4882025
vt 0.310482 0.4742387
vt 0.3178232 0.4968326
vt 0.3031408 0.4968326
vt 0.2912624 0.4882025
vt 0.2867253 0.4742387
vt 0.2912624 0.4602749
vt 0.3031408 0.4516448
vt 0.3178232 0.4516448
vt 0.3297015 0.4602749
vt 0.3342386 0.4742387
vn 0 -1 0
vn 0 -1 0
vn 0 -1 0
vn 0 -1 0
vn 0 -1 0
vn 0 -1 0
vn 0 -1 0
vn 0 -1 0
vn 0 -1 0
vn 0 -1 0
vn 0 -1 0
vn 0.5877851 0 -0.8090171
vn 0.5857792 0.08254704 -0.8062561
vn 0.5857792 0.08254704 -0.8062561
vn 0.5877851 0 -0.8090171
vn 0 0 -1
vn 0 0.08254702 -0.9965872
vn 0 0.08254704 -0.9965872
vn 0 0 -1
vn -0.5877851 0 -0.8090171
vn -0.5857791 0.08254704 -0.8062561
vn -0.5857791 0.08254703 -0.8062561
vn -0.5877851 0 -0.8090171
vn -0.9510565 0 -0.3090168
vn -0.9478108 0.08254705 -0.3079622
vn -0.9478108 0.08254705 -0.3079622
vn -0.9510565 0 -0.3090168
vn -0.9510565 0 0.3090171
vn -0.9478106 0.082547 0.3079625
vn -0.9478106 0.082547 0.3079625
vn -0.9510565 0 0.3090171
vn -0.587785 0 0.8090172
vn -0.5857791 0.082547 0.8062561
vn -0.5857792 0.08254703 0.8062561
vn -0.587785 0 0.8090172
vn 0 0 1
vn 0 0.08254702 0.9965872
vn 0 0.08254702 0.9965872
vn 0 0 1
vn 0.5877853 0 0.8090169
vn 0.5857792 0.08254699 0.806256
vn 0.5857792 0.08254699 0.8062561
vn 0.5877853 0 0.8090169
vn 0.9510565 0 0.3090169
vn 0.9478108 0.08254699 0.3079622
vn 0.9478108 0.082547 0.3079622
vn 0.9510565 0 0.3090169
vn 0.9510566 0 -0.3090167
vn 0.9478108 0.08254703 -0.3079621
vn 0.9478108 0.08254701 -0.3079621
vn 0.9510566 0 -0.3090167
vn 0.5857792 0.08254704 -0.8062561
vn 0.5103669 0.4960622 -0.7024585
vn 0.5103668 0.4960622 -0.7024586
vn 0.5857792 0.08254704 -0.8062561
vn 0 0.08254702 -0.9965872
vn 0 0.4960621 -0.868287
vn 0 0.4960621 -0.868287
vn 0 0.08254704 -0.9965872
vn -0.5857791 0.08254704 -0.8062561
vn -0.5103662 0.4960616 -0.7024593
vn -0.5103661 0.4960616 -0.7024593
vn -0.5857791 0.08254703 -0.8062561
vn -0.9478108 0.08254705 -0.3079622
vn -0.8257901 0.496062 -0.2683155
vn -0.82579 0.496062 -0.2683155
vn -0.9478108 0.08254705 -0.3079622
vn -0.9478106 0.082547 0.3079625
vn -0.82579 0.4960618 0.268316
vn -0.82579 0.4960618 0.2683161
vn -0.9478106 0.082547 0.3079625
vn -0.5857791 0.082547 0.8062561
vn -0.5103667 0.4960621 0.7024586
vn -0.5103667 0.4960621 0.7024587
vn -0.5857792 0.08254703 0.8062561
vn 0 0.08254702 0.9965872
vn 0 0.4960616 0.8682874
vn 0 0.4960616 0.8682874
vn 0 0.08254702 0.9965872
vn 0.5857792 0.08254699 0.806256
vn 0.510366 0.4960613 0.7024599
vn 0.510366 0.4960613 0.7024599
vn 0.5857792 0.08254699 0.8062561
vn 0.9478108 0.08254699 0.3079622
vn 0.8257902 0.4960619 0.2683156
vn 0.8257902 0.4960619 0.2683156
vn 0.9478108 0.082547 0.3079622
vn 0.9478108 0.08254703 -0.3079621
vn 0.8257903 0.496062 -0.268315
vn 0.8257903 0.496062 -0.268315
vn 0.9478108 0.08254701 -0.3079621
vn 0 1 0
vn 0 1 0
vn 0 1 0
vn 0 1 0
vn 0 1 0
vn 0 1 0
vn 0 1 0
vn 0 1 0
vn 0 1 0
vn 0 1 0
vn 0 1 0
g Paijipao_paodan_0
f 3/3/3 2/2/2 1/1/1
f 1/1/1 2/2/2 4/4/4
f 4/4/4 2/2/2 5/5/5
f 5/5/5 2/2/2 6/6/6
f 6/6/6 2/2/2 7/7/7
f 7/7/7 2/2/2 8/8/8
f 8/8/8 2/2/2 9/9/9
f 9/9/9 2/2/2 10/10/10
f 10/10/10 2/2/2 11/11/11
f 11/11/11 2/2/2 3/3/3
f 14/14/14 13/13/13 12/12/12
f 15/15/15 14/14/14 12/12/12
f 18/18/18 17/17/17 16/16/16
f 19/19/19 18/18/18 16/16/16
f 22/22/22 21/21/21 20/20/20
f 23/23/23 22/22/22 20/20/20
f 26/26/26 25/25/25 24/24/24
f 27/27/27 26/26/26 24/24/24
f 30/30/30 29/29/29 28/28/28
f 31/31/31 30/30/30 28/28/28
f 34/34/34 33/33/33 32/32/32
f 35/35/35 34/34/34 32/32/32
f 38/38/38 37/37/37 36/36/36
f 39/39/39 38/38/38 36/36/36
f 42/42/42 41/41/41 40/40/40
f 43/43/43 42/42/42 40/40/40
f 46/46/46 45/45/45 44/44/44
f 47/47/47 46/46/46 44/44/44
f 50/50/50 49/49/49 48/48/48
f 51/51/51 50/50/50 48/48/48
f 54/54/54 53/53/53 52/52/52
f 55/55/55 54/54/54 52/52/52
f 58/58/58 57/57/57 56/56/56
f 59/59/59 58/58/58 56/56/56
f 62/62/62 61/61/61 60/60/60
f 63/63/63 62/62/62 60/60/60
f 66/66/66 65/65/65 64/64/64
f 67/67/67 66/66/66 64/64/64
f 70/70/70 69/69/69 68/68/68
f 71/71/71 70/70/70 68/68/68
f 74/74/74 73/73/73 72/72/72
f 75/75/75 74/74/74 72/72/72
f 78/78/78 77/77/77 76/76/76
f 79/79/79 78/78/78 76/76/76
f 82/82/82 81/81/81 80/80/80
f 83/83/83 82/82/82 80/80/80
f 86/86/86 85/85/85 84/84/84
f 87/87/87 86/86/86 84/84/84
f 90/90/90 89/89/89 88/88/88
f 91/91/91 90/90/90 88/88/88
f 94/94/94 93/93/93 92/92/92
f 95/95/95 93/93/93 94/94/94
f 96/96/96 93/93/93 95/95/95
f 97/97/97 93/93/93 96/96/96
f 98/98/98 93/93/93 97/97/97
f 99/99/99 93/93/93 98/98/98
f 100/100/100 93/93/93 99/99/99
f 101/101/101 93/93/93 100/100/100
f 102/102/102 93/93/93 101/101/101
f 92/92/92 93/93/93 102/102/102
