g pb_Mesh-925748
v -12 2.980232E-06 29
v -35 -1.490116E-08 0
v -35.00001 2.980232E-06 29
v -12 -4.768372E-07 0
v -35 10 -1.002887E-06
v -12 10 1.192093E-06
v -12 10 29
v -35.00001 10 29
v -35 -1.490116E-08 0
v -12 -4.768372E-07 0
v -35 10 -1.002887E-06
v -12 10 1.192093E-06
v -12 -4.768372E-07 0
v -12 2.980232E-06 29
v -12 10 1.192093E-06
v -12 10 29
v -35.00001 2.980232E-06 29
v -35 -1.490116E-08 0
v -35.00001 10 29
v -35 10 -1.002887E-06
v -12 2.980232E-06 29
v -35.00001 2.980232E-06 29
v -12 10 29
v -35.00001 10 29
vt -12 29
vt -35 -1.538999E-15
vt -35.00001 29
vt -12 -4.924796E-14
vt 35 -1.632774E-08
vt 12 2.178652E-06
vt 12 29.00001
vt 35.00001 29.00001
vt 35 -1.490116E-08
vt 12 -4.768372E-07
vt 35 10
vt 12 10
vt 0 -4.768372E-07
vt -29 2.980232E-06
vt -1.192093E-06 10
vt -29 10
vt 29.00001 2.980232E-06
vt 9.207889E-06 -1.490116E-08
vt 29.00001 10
vt 8.205002E-06 10
vt -12 2.980232E-06
vt -35.00001 2.980232E-06
vt -12 10
vt -35.00001 10
vn -1.004208E-08 -1 1.112449E-07
vn -1.004208E-08 -1 1.112449E-07
vn 0 -1 1.032804E-07
vn -2.008417E-08 -0.9999999 1.192093E-07
vn -2.073204E-08 1 -1.150986E-07
vn -4.14641E-08 1 -9.865595E-08
vn -2.073204E-08 1 -1.150986E-07
vn 0 1 -1.315413E-07
vn -2.014217E-15 -1.002887E-07 -1
vn 4.771697E-08 9.460275E-09 -0.9999999
vn 4.771697E-08 9.460275E-09 -0.9999999
vn 9.543392E-08 1.192093E-07 -1
vn 1 0 0
vn 1 0 0
vn 1 0 0
vn 1 0 0
vn -1 0 -2.630825E-07
vn -1 -1.319211E-14 -2.630825E-07
vn -1 -1.319211E-14 -2.630825E-07
vn -0.9999999 -2.638422E-14 -2.630825E-07
vn 0 0 0.9999999
vn 0 0 0.9999999
vn 0 0 0.9999999
vn 0 0 0.9999999
g pb_Mesh-925748_0
f 3/3/3 2/2/2 1/1/1
f 2/2/2 4/4/4 1/1/1
f 7/7/7 6/6/6 5/5/5
f 7/7/7 5/5/5 8/8/8
g pb_Mesh-925748_1
f 11/11/11 10/10/10 9/9/9
f 11/11/11 12/12/12 10/10/10
f 15/15/15 14/14/14 13/13/13
f 15/15/15 16/16/16 14/14/14
f 19/19/19 18/18/18 17/17/17
f 19/19/19 20/20/20 18/18/18
f 23/23/23 22/22/22 21/21/21
f 23/23/23 24/24/24 22/22/22
