g pb_Mesh118876
v 1 -10 36
v -8 -10 36
v 1 -7 36
v -8 -7 36
v -8 -10 36
v -8 -9 -1
v -8 -7 36
v -8 -7 -1
v 1 -9 -1
v 1 -10 36
v 1 -7 -1
v 1 -7 36
v 1 3 36
v -8 3 36
v 1 3 -1
v -8 3 -1
v 1 -9 -1
v -8 -9 -1
v 1 -10 36
v -8 -10 36
v 1 2 -1
v 1 0.5 36
v -9 -7 36
v -9 -7 -1
v -9 0.5 36
v -9 2 -1
v 1 3 -1
v 1 3 36
v -8 0.5 36
v -8 2 -1
v -8 3 36
v -8 3 -1
v -8 -7 36
v -8 -7 -1
v -9 -7 36
v -9 -7 -1
v -8 2 -1
v -8 0.5 36
v -9 2 -1
v -9 0.5 36
v -8 -9 -1
v 1 -9 -1
v -8 -7 -1
v 1 -7 -1
v -8 2 -1
v 1 2 -1
v -8 3 -1
v 1 3 -1
v -8 2 -1
v -9 -7 -1
v -9 2 -1
v 1 -7 36
v -8 -7 36
v 1 0.5 36
v -8 0.5 36
v 1 3 36
v -8 3 36
v -9 0.5 36
v -9 -7 36
vt 1 -10
vt -8 -10
vt 1 -7
vt -8 -7
vt -8 36
vt -8 -1
vt -10 36
vt -10 -1
vt 1 -9
vt -36 -10
vt 1 -7
vt -36 -7
vt -1 36
vt 8 36
vt -1 -1
vt 8 -1
vt 0 -1
vt -8 -1
vt 0 36
vt -8 36
vt 1 2
vt -36 0.5
vt -12 36
vt -12 -1
vt -17 36
vt -17 -1
vt 1 3
vt -36 3
vt 36 0.5
vt -1 2
vt 36 3
vt -1 3
vt -10 36
vt -10 -1
vt -12 36
vt -12 -1
vt 8 -1.080194
vt 8 35.9502
vt 9 -1.080194
vt 9 35.9502
vt 10.8125 -10.78559
vt -2.8125 -10.78559
vt 10.8125 -7.757812
vt -2.8125 -7.757812
vt 10.8125 5.110243
vt -2.8125 5.110243
vt 10.8125 8.138021
vt -2.8125 8.138021
vt 10.8125 0.757813
vt 11.81434 -7.757812
vt 11.81434 0.757813
vt 1 -7
vt -8 -7
vt 1 0.5
vt -8 0.5
vt 1 3
vt -8 3
vt -9 0.5
vt -9 -7
vn 0 0 1
vn 0 0 1
vn 0 0 1
vn 0 0 1
vn -1 0 0
vn -1 0 0
vn -1 0 0
vn -1 0 0
vn 1 0 0
vn 1 0 0
vn 1 0 0
vn 1 0 0
vn 0 1 0
vn 0 1 0
vn 0 1 0
vn 0 1 0
vn 0 -0.9996349 -0.02701716
vn 0 -0.9996349 -0.02701716
vn 0 -0.9996349 -0.02701716
vn 0 -0.9996349 -0.02701716
vn 1 0 0
vn 1 0 0
vn -1 0 0
vn -1 0 0
vn -1 0 0
vn -1 0 0
vn 1 0 0
vn 1 0 0
vn -1 0 0
vn -1 0 0
vn -1 0 0
vn -1 0 0
vn 0 -1 0
vn 0 -1 0
vn 0 -1 0
vn 0 -1 0
vn 0 0.9991793 0.04050727
vn 0 0.9991793 0.04050727
vn 0 0.9991793 0.04050727
vn 0 0.9991793 0.04050727
vn 0 0 -1
vn 0 0 -1
vn 0 0 -1
vn 0 0 -1
vn 0 0 -1
vn 0 0 -1
vn 0 0 -1
vn 0 0 -1
vn 0 0 -1
vn 0 0 -1
vn 0 0 -1
vn 0 0 1
vn 0 0 1
vn 0 0 1
vn 0 0 1
vn 0 0 1
vn 0 0 1
vn 0 0 1
vn 0 0 1
g pb_Mesh118876_0
f 3/3/3 2/2/2 1/1/1
f 3/3/3 4/4/4 2/2/2
g pb_Mesh118876_1
f 7/7/7 6/6/6 5/5/5
f 7/7/7 8/8/8 6/6/6
f 11/11/11 10/10/10 9/9/9
f 11/11/11 12/12/12 10/10/10
f 15/15/15 14/14/14 13/13/13
f 15/15/15 16/16/16 14/14/14
f 19/19/19 18/18/18 17/17/17
f 19/19/19 20/20/20 18/18/18
f 21/21/21 12/12/12 11/11/11
f 21/21/21 22/22/22 12/12/12
f 25/25/25 24/24/24 23/23/23
f 25/25/25 26/26/26 24/24/24
f 27/27/27 22/22/22 21/21/21
f 27/27/27 28/28/28 22/22/22
f 31/31/31 30/30/30 29/29/29
f 31/31/31 32/32/32 30/30/30
f 35/35/35 34/34/34 33/33/33
f 35/35/35 36/36/36 34/34/34
f 39/39/39 38/38/38 37/37/37
f 39/39/39 40/40/40 38/38/38
g pb_Mesh118876_2
f 43/43/43 42/42/42 41/41/41
f 43/43/43 44/44/44 42/42/42
f 45/45/45 44/44/44 43/43/43
f 45/45/45 46/46/46 44/44/44
f 47/47/47 46/46/46 45/45/45
f 47/47/47 48/48/48 46/46/46
f 50/50/50 49/49/49 43/43/43
f 50/50/50 51/51/51 49/49/49
g pb_Mesh118876_3
f 54/54/54 53/53/53 52/52/52
f 54/54/54 55/55/55 53/53/53
f 56/56/56 55/55/55 54/54/54
f 56/56/56 57/57/57 55/55/55
f 58/58/58 53/53/53 55/55/55
f 58/58/58 59/59/59 53/53/53
