g pb_Mesh-9992
v 1 -10 36
v -8 -10 36
v 1 -7 36
v -8 -7 36
v -8 -10 36
v -8 -9 -1
v -8 -7 36
v -8 -7 -1
v 1 -9 -1
v 1 -10 36
v 1 -7 -1
v 1 -7 36
v 1 2 36
v -8 2 36
v 1 2 -1
v -8 2 -1
v 1 -9 -1
v -8 -9 -1
v 1 -10 36
v -8 -10 36
v 1 -7 36
v -8 -7 36
v 1 -1 36
v -8 -1 36
v 1 0 -1
v 1 -1 36
v -10 -7 36
v -10 -7 -1
v -10 -1 36
v -10 0 -1
v 1 2 36
v -8 2 36
v 1 2 -1
v 1 2 36
v -8 -1 36
v -8 0 -1
v -8 2 36
v -8 2 -1
v -8 -7 36
v -8 -7 -1
v -10 -7 36
v -10 -7 -1
v -10 -1 36
v -10 -7 36
v -8 0 -1
v -8 -1 36
v -10 0 -1
v -10 -1 36
v -8 -9 -1
v 1 -9 -1
v -8 -7 -1
v 1 -7 -1
v -8 0 -1
v 1 0 -1
v -8 2 -1
v 1 2 -1
v -10 -7 -1
v -10 0 -1
vt 1 -10
vt -8 -10
vt 1 -7
vt -8 -7
vt -8 36
vt -8 -1
vt -10 36
vt -10 -1
vt 1 -9
vt -36 -10
vt 1 -7
vt -36 -7
vt -1 36
vt 8 36
vt -1 -1
vt 8 -1
vt 0 -1
vt -8 -1
vt 0 36
vt -8 36
vt 1 -7
vt -8 -7
vt 1 -1
vt -8 -1
vt 1 0
vt -36 -1
vt -12 36
vt -12 -1
vt -17 36
vt -17 -1
vt 1 2
vt -8 2
vt 1 2
vt -36 2
vt 36 -1
vt -1 0
vt 36 2
vt -1 2
vt -10 36
vt -10 -1
vt -12 36
vt -12 -1
vt -10 -1
vt -10 -7
vt 8 -0.999635
vt 8 36.01388
vt 10 -0.999635
vt 10 36.01388
vt 10.8125 -11.16406
vt -2.8125 -11.16406
vt 10.8125 -7.757812
vt -2.8125 -7.757812
vt 10.8125 0.757813
vt -2.8125 0.757813
vt 10.8125 4.164063
vt -2.8125 4.164063
vt 14.21875 -7.757812
vt 14.21875 0.757813
vn 0 0 1
vn 0 0 1
vn 0 0 1
vn 0 0 1
vn -1 0 0
vn -1 0 0
vn -1 0 0
vn -1 0 0
vn 1 0 0
vn 1 0 0
vn 1 0 0
vn 1 0 0
vn 0 1 0
vn 0 1 0
vn 0 1 0
vn 0 1 0
vn 0 -0.9996349 -0.02701716
vn 0 -0.9996349 -0.02701716
vn 0 -0.9996349 -0.02701716
vn 0 -0.9996349 -0.02701716
vn 0 0 1
vn 0 0 1
vn 0 0 1
vn 0 0 1
vn 1 0 0
vn 1 0 0
vn -1 0 0
vn -1 0 0
vn -1 0 0
vn -1 0 0
vn 0 0 1
vn 0 0 1
vn 1 0 0
vn 1 0 0
vn -1 0 0
vn -1 0 0
vn -1 0 0
vn -1 0 0
vn 0 -1 0
vn 0 -1 0
vn 0 -1 0
vn 0 -1 0
vn 0 0 1
vn 0 0 1
vn 0 0.999635 0.02701716
vn 0 0.999635 0.02701716
vn 0 0.999635 0.02701716
vn 0 0.999635 0.02701716
vn 0 0 -1
vn 0 0 -1
vn 0 0 -1
vn 0 0 -1
vn 0 0 -1
vn 0 0 -1
vn 0 0 -1
vn 0 0 -1
vn 0 0 -1
vn 0 0 -1
g pb_Mesh-9992_0
f 3/3/3 2/2/2 1/1/1
f 3/3/3 4/4/4 2/2/2
g pb_Mesh-9992_1
f 7/7/7 6/6/6 5/5/5
f 7/7/7 8/8/8 6/6/6
f 11/11/11 10/10/10 9/9/9
f 11/11/11 12/12/12 10/10/10
f 15/15/15 14/14/14 13/13/13
f 15/15/15 16/16/16 14/14/14
f 19/19/19 18/18/18 17/17/17
f 19/19/19 20/20/20 18/18/18
f 23/23/23 22/22/22 21/21/21
f 23/23/23 24/24/24 22/22/22
f 25/25/25 12/12/12 11/11/11
f 25/25/25 26/26/26 12/12/12
f 29/29/29 28/28/28 27/27/27
f 29/29/29 30/30/30 28/28/28
f 31/31/31 24/24/24 23/23/23
f 31/31/31 32/32/32 24/24/24
f 33/33/33 26/26/26 25/25/25
f 33/33/33 34/34/34 26/26/26
f 37/37/37 36/36/36 35/35/35
f 37/37/37 38/38/38 36/36/36
f 41/41/41 40/40/40 39/39/39
f 41/41/41 42/42/42 40/40/40
f 43/43/43 22/22/22 24/24/24
f 43/43/43 44/44/44 22/22/22
f 47/47/47 46/46/46 45/45/45
f 47/47/47 48/48/48 46/46/46
g pb_Mesh-9992_2
f 51/51/51 50/50/50 49/49/49
f 51/51/51 52/52/52 50/50/50
f 53/53/53 52/52/52 51/51/51
f 53/53/53 54/54/54 52/52/52
f 55/55/55 54/54/54 53/53/53
f 55/55/55 56/56/56 54/54/54
f 57/57/57 53/53/53 51/51/51
f 57/57/57 58/58/58 53/53/53
