g pCube79
v 0.2135469 2.123641 0.5
v 0.5000002 1.885648 0.197454
v 0.5000002 1.890531 0.5
v -0.4999998 4.664713 0.5
v -0.4999998 4.788337 -0.5
v 0.5000002 4.506577 -0.5
v 0.5485284 4.426332 0.0004501343
v 0.3681061 4.463814 0.07177353
v 0.4889471 4.438959 0.1000239
v 0.5000002 4.418463 0.5
v 0.5000002 1.487285 -0.4999998
v 0.5000002 4.506577 -0.5
v -0.4999998 4.788337 -0.5
v 0.1226837 1.318198 -0.5
v -0.4999998 0 -0.5
v 0.5000002 0 -0.5
v 0.5000002 1.241891 -0.5
v -0.4999998 0 -0.5
v -0.4999998 3.070918 0.29531
v -0.4999998 2.942327 0.5
v -0.4999998 0 0.5
v -0.4999998 4.788337 -0.5
v -0.4999998 3.232613 0.5
v -0.4999998 4.664713 0.5
v 0.5000002 2.267291 0.5
v 0.5000002 1.885648 0.197454
v 0.2135469 2.123641 0.5
v -0.4999998 0 0.5
v 0.2135469 2.123641 0.5
v 0.5000002 1.890531 0.5
v 0.5000002 0 0.5
v -0.4999998 2.942327 0.5
v -0.3789299 3.044449 0.5
v -0.4999998 4.664713 0.5
v 0.5000002 2.267291 0.5
v 0.5000002 4.418463 0.5
v -0.4999998 3.232613 0.5
v 0.5000002 4.506577 -0.5
v 0.5000002 1.487285 -0.4999998
v 0.5000002 2.267291 0.5
v 0.5000002 4.207763 -0.02742797
v 0.5485284 4.426332 0.0004501343
v 0.5000002 1.321462 -0.275119
v 0.5000002 1.885648 0.197454
v 0.4889471 4.438959 0.1000239
v 0.5000002 4.418463 0.5
v -0.3789299 3.044449 0.5
v -0.4999998 2.942327 0.5
v -0.4999998 3.070918 0.29531
v -0.4999998 3.232613 0.5
v -0.3789299 3.044449 0.5
v -0.4999998 3.070918 0.29531
v 0.5000002 1.890531 0.5
v 0.5000002 1.885648 0.197454
v 0.5000002 1.321462 -0.275119
v 0.5000002 1.321462 -0.275119
v 0.5000002 1.487285 -0.4999998
v 0.1226837 1.318198 -0.5
v 0.5000002 1.241891 -0.5
v 0.5000002 1.321462 -0.275119
v 0.1226837 1.318198 -0.5
v 0.5000002 1.241891 -0.5
v 0.5000002 0 -0.5
v 0.5000002 0 0.5
v 0.5000002 1.321462 -0.275119
v 0.5000002 1.890531 0.5
v 0.5485284 4.426332 0.0004501343
v 0.5000002 4.207763 -0.02742797
v 0.3681061 4.463814 0.07177353
v 0.3681061 4.463814 0.07177353
v 0.5000002 4.207763 -0.02742797
v 0.4889471 4.438959 0.1000239
vt 0.5533867 0.1253072
vt 0.7006365 0.1253072
vt 0.625 0.1153502
vt 0.375 0.25
vt 0.375 0.5
vt 0.625 0.5
vt 0.625 0.419692
vt 0.5691137 0.3554502
vt 0.625 0.3318257
vt 0.625 0.25
vt 0.625 0.5901244
vt 0.625 0.5
vt 0.375 0.5
vt 0.6033144 0.5881839
vt 0.375 0.75
vt 0.625 0.75
vt 0.625 0.6022844
vt 0.125 0
vt 0.3238275 0.1674675
vt 0.375 0.160455
vt 0.375 0
vt 0.125 0.25
vt 0.375 0.1762853
vt 0.375 0.25
vt 0.625 0.1383381
vt 0.7006365 0.1253072
vt 0.5533867 0.1253072
vt 0.375 0
vt 0.5533867 0.1253072
vt 0.625 0.1153502
vt 0.625 0
vt 0.375 0.160455
vt 0.4052676 0.1676356
vt 0.375 0.25
vt 0.625 0.1383381
vt 0.625 0.25
vt 0.375 0.1762853
vt 0.875 0.25
vt 0.875 0.1598756
vt 0.625 0.1383381
vt 0.756857 0.2267898
vt 0.794692 0.25
vt 0.8431785 0.1483059
vt 0.7006365 0.1253072
vt 0.7068256 0.25
vt 0.625 0.25
vt 0.4052676 0.1676356
vt 0.375 0.160455
vt 0.3238275 0.1674675
vt 0.375 0.1762853
vt 0.4052676 0.1676356
vt 0.3238275 0.1674675
vt 0.625 0.1153502
vt 0.7006365 0.1253072
vt 0.8431785 0.1483059
vt 0.8431785 0.1483059
vt 0.875 0.1598756
vt 0.6033144 0.5881839
vt 0.625 0.6022844
vt 0.8431785 0.1483059
vt 0.6033144 0.5881839
vt 0.8749999 0.1477156
vt 0.875 0
vt 0.625 0
vt 0.8431785 0.1483059
vt 0.625 0.1153502
vt 0.625 0.419692
vt 0.756857 0.2267898
vt 0.5691137 0.3554502
vt 0.5691137 0.3554502
vt 0.756857 0.2267898
vt 0.7068256 0.25
vn 0.6311395 0.7755683 -0.0125157
vn 0.6311395 0.7755683 -0.0125157
vn 0.6311395 0.7755684 -0.01251571
vn 0.2651114 0.9584085 0.1056847
vn 0.2693013 0.95578 0.1181581
vn 0.2737195 0.9536555 0.1249754
vn 0.2807173 0.9501325 0.1358159
vn 0.2619585 0.9606291 0.09257133
vn 0.2342541 0.9716887 0.03075601
vn 0.2342541 0.9716887 0.03075601
vn 0 0 -1
vn 0 0 -1
vn 0 0 -1
vn 0 0 -1
vn 0 0 -1
vn 0 0 -1
vn 0 0 -1
vn -1 0 0
vn -1 0 0
vn -1 0 0
vn -1 0 0
vn -1 0 0
vn -1 0 0
vn -1 0 0
vn 0.2974305 -0.5931102 0.7481681
vn 0.2974305 -0.5931101 0.7481681
vn 0.2974305 -0.5931102 0.748168
vn 0 0 1
vn 0 0 1
vn 0 0 1
vn 0 0 1
vn 0 0 1
vn 0 0 1
vn 0 0 1
vn 0 0 1
vn 0 0 1
vn 0 0 1
vn 0.9999757 -0.005894502 -0.00372732
vn 0.9999809 -0.00522164 -0.003301843
vn 0.9999788 -0.005403152 -0.00361454
vn 0.999988 -0.003581015 -0.003328509
vn 0.9999757 -0.005894502 -0.00372732
vn 1 0 0
vn 1 0 0
vn 0.9999869 0.004740495 -0.001893878
vn 0.9999869 0.004740495 -0.001893877
vn -0.5812201 0.6890537 0.4328835
vn -0.5812202 0.6890537 0.4328835
vn -0.5812203 0.6890537 0.4328835
vn -0.7732829 -0.4975459 0.3930415
vn -0.7732829 -0.4975459 0.3930414
vn -0.7732829 -0.4975459 0.3930414
vn 1 0 0
vn 1 0 0
vn 1 0 0
vn 0.3392829 -0.7571077 -0.5582785
vn 0.3392829 -0.7571077 -0.5582785
vn 0.3392829 -0.7571077 -0.5582785
vn 0.187279 0.9260463 -0.3276659
vn 0.187279 0.9260463 -0.3276659
vn 0.187279 0.9260463 -0.3276659
vn 1 0 0
vn 1 0 0
vn 1 0 0
vn 1 0 0
vn 1 0 0
vn 0.3264051 -0.1905608 0.925822
vn 0.3264051 -0.1905608 0.925822
vn 0.3264051 -0.1905608 0.925822
vn 0.291613 0.4724473 -0.8317183
vn 0.291613 0.4724474 -0.8317183
vn 0.291613 0.4724474 -0.8317183
g pCube79_0
f 3/3/3 2/2/2 1/1/1
f 6/6/6 5/5/5 4/4/4
f 7/7/7 6/6/6 4/4/4
f 8/8/8 7/7/7 4/4/4
f 9/9/9 8/8/8 4/4/4
f 10/10/10 9/9/9 4/4/4
f 13/13/13 12/12/12 11/11/11
f 14/14/14 13/13/13 11/11/11
f 15/15/15 13/13/13 14/14/14
f 15/15/15 14/14/14 16/16/16
f 14/14/14 17/17/17 16/16/16
f 20/20/20 19/19/19 18/18/18
f 21/21/21 20/20/20 18/18/18
f 19/19/19 22/22/22 18/18/18
f 19/19/19 23/23/23 22/22/22
f 23/23/23 24/24/24 22/22/22
f 27/27/27 26/26/26 25/25/25
f 30/30/30 29/29/29 28/28/28
f 31/31/31 30/30/30 28/28/28
f 32/32/32 28/28/28 29/29/29
f 33/33/33 32/32/32 29/29/29
f 33/33/33 29/29/29 34/34/34
f 29/29/29 35/35/35 34/34/34
f 35/35/35 36/36/36 34/34/34
f 37/37/37 33/33/33 34/34/34
f 40/40/40 39/39/39 38/38/38
f 38/38/38 41/41/41 40/40/40
f 38/38/38 42/42/42 41/41/41
f 43/43/43 39/39/39 40/40/40
f 44/44/44 43/43/43 40/40/40
f 41/41/41 45/45/45 40/40/40
f 45/45/45 46/46/46 40/40/40
f 49/49/49 48/48/48 47/47/47
f 52/52/52 51/51/51 50/50/50
f 55/55/55 54/54/54 53/53/53
f 58/58/58 57/57/57 56/56/56
f 61/61/61 60/60/60 59/59/59
f 64/64/64 63/63/63 62/62/62
f 62/62/62 65/65/65 64/64/64
f 65/65/65 66/66/66 64/64/64
f 69/69/69 68/68/68 67/67/67
f 72/72/72 71/71/71 70/70/70
