g polySurface6
v 0.0745759 0.5862795 0.5000002
v 0.04901791 0.5607216 0.5000002
v 0.04901791 0.3575867 0.5000002
v 0.0745759 0.3320287 0.5000002
v 0.5 0.3320287 0.07457598
v 0.5 0.3575867 0.04901803
v 0.5 0.5607216 0.04901803
v 0.5 0.5862795 0.07457598
v 0.5 0.5862795 0.3950105
v 0.5 0.3320287 0.3950105
v 0.1124399 0.3320287 0.6593203
v 0.0745759 0.3320287 0.6118851
v 0.04901814 0.3575867 0.6208348
v 0.1001391 0.3575867 0.6848782
v 0.1001391 0.3575867 0.6848782
v 0.4655392 0.3575867 0.6848781
v 0.4549527 0.3320287 0.6593202
v 0.1124399 0.3320287 0.6593203
v 0.4655392 0.3575867 0.6848781
v 0.6848781 0.3575867 0.4655392
v 0.6593201 0.3320287 0.4549527
v 0.4549527 0.3320287 0.6593202
v 0.4549527 0.5862795 0.6593202
v 0.6593201 0.5862795 0.4549527
v 0.6848781 0.5607216 0.4655392
v 0.4655392 0.5607216 0.6848781
v 0.4655392 0.5607216 0.6848781
v 0.1001391 0.5607216 0.6848782
v 0.1124399 0.5862795 0.6593203
v 0.4549527 0.5862795 0.6593202
v 0.1001391 0.5607216 0.6848782
v 0.04901814 0.5607216 0.6208348
v 0.0745759 0.5862795 0.6118851
v 0.1124399 0.5862795 0.6593203
v 0.6593201 0.5862795 0.4549527
v 0.6593201 0.5862795 0.1124399
v 0.6848781 0.5607216 0.100139
v 0.6848781 0.5607216 0.4655392
v 0.6848781 0.3575867 0.4655392
v 0.6848781 0.3575867 0.100139
v 0.6593201 0.3320287 0.1124399
v 0.6593201 0.3320287 0.4549527
v 0.6848781 0.3575867 0.100139
v 0.6208346 0.3575867 0.04901803
v 0.6118848 0.3320287 0.07457598
v 0.6593201 0.3320287 0.1124399
v 0.6593201 0.5862795 0.1124399
v 0.6118848 0.5862795 0.07457598
v 0.6208346 0.5607216 0.04901803
v 0.6848781 0.5607216 0.100139
v 0.04901791 0.3575867 0.5000002
v 0.04901814 0.3575867 0.6208348
v 0.0745759 0.3320287 0.6118851
v 0.0745759 0.3320287 0.5000002
v 0.0745759 0.5862795 0.5000002
v 0.0745759 0.5862795 0.6118851
v 0.04901814 0.5607216 0.6208348
v 0.04901791 0.5607216 0.5000002
v 0.5 0.5607216 0.04901803
v 0.6208346 0.5607216 0.04901803
v 0.6118848 0.5862795 0.07457598
v 0.5 0.5862795 0.07457598
v 0.5 0.3320287 0.07457598
v 0.6118848 0.3320287 0.07457598
v 0.6208346 0.3575867 0.04901803
v 0.5 0.3575867 0.04901803
v 0.04901814 0.5607216 0.6208348
v 0.04901814 0.3575867 0.6208348
v 0.04901791 0.3575867 0.5000002
v 0.04901791 0.5607216 0.5000002
v 0.1001391 0.3575867 0.6848782
v 0.1001391 0.5607216 0.6848782
v 0.4655392 0.5607216 0.6848781
v 0.4655392 0.3575867 0.6848781
v 0.6848781 0.5607216 0.4655392
v 0.6848781 0.3575867 0.4655392
v 0.4655392 0.3575867 0.6848781
v 0.4655392 0.5607216 0.6848781
v 0.6848781 0.3575867 0.4655392
v 0.6848781 0.5607216 0.4655392
v 0.6848781 0.5607216 0.100139
v 0.6848781 0.3575867 0.100139
v 0.6208346 0.3575867 0.04901803
v 0.6208346 0.5607216 0.04901803
v 0.5 0.5607216 0.04901803
v 0.5 0.3575867 0.04901803
v 0.6848781 0.3575867 0.100139
v 0.6848781 0.5607216 0.100139
v 0.6208346 0.5607216 0.04901803
v 0.6208346 0.3575867 0.04901803
v 0.04901814 0.3575867 0.6208348
v 0.04901814 0.5607216 0.6208348
v 0.1001391 0.5607216 0.6848782
v 0.1001391 0.3575867 0.6848782
v 0.3950105 0.5862795 0.5000002
v 0.3950105 0.3320287 0.5000002
v 0.5 0.3320287 0.3950105
v 0.5 0.5862795 0.3950105
v 0.0745759 0.5862795 0.5000002
v 0.0745759 0.3320287 0.5000002
v 0.3950105 0.3320287 0.5000002
v 0.3950105 0.5862795 0.5000002
v 0.1124399 0.3320287 0.6593203
v 0.3950105 0.3320287 0.5000002
v 0.0745759 0.3320287 0.5000002
v 0.0745759 0.3320287 0.6118851
v 0.4549527 0.3320287 0.6593202
v 0.5 0.3320287 0.3950105
v 0.6593201 0.3320287 0.4549527
v 0.6593201 0.3320287 0.1124399
v 0.5 0.3320287 0.07457598
v 0.6118848 0.3320287 0.07457598
v 0.6118848 0.5862795 0.07457598
v 0.6593201 0.5862795 0.1124399
v 0.5 0.5862795 0.3950105
v 0.5 0.5862795 0.07457598
v 0.6593201 0.5862795 0.4549527
v 0.4549527 0.5862795 0.6593202
v 0.3950105 0.5862795 0.5000002
v 0.1124399 0.5862795 0.6593203
v 0.0745759 0.5862795 0.5000002
v 0.0745759 0.5862795 0.6118851
vt 0.971847 0.1911087
vt 0.9795594 0.1833984
vt 0.9795675 0.1221084
vt 0.9718571 0.114396
vt 0.8394635 0.6828874
vt 0.831752 0.6905985
vt 0.8317503 0.7518877
vt 0.8394614 0.7595992
vt 0.936142 0.7596018
vt 0.9361441 0.6828901
vt 0.8060638 0.2116737
vt 0.7877512 0.2116746
vt 0.7850514 0.2225803
vt 0.8097759 0.222579
vt 0.4134516 0.8473362
vt 0.3032037 0.8473287
vt 0.3063971 0.8582343
vt 0.4097394 0.8582413
vt 0.144003 0.9500633
vt 0.2375937 0.9500726
vt 0.2344006 0.9391669
vt 0.1471982 0.9391581
vt 0.8200858 0.9697102
vt 0.9072894 0.9697102
vt 0.9104837 0.9588047
vt 0.8168916 0.9588046
vt 0.3159398 0.8430448
vt 0.4261868 0.8430583
vt 0.4224768 0.8321525
vt 0.3191352 0.8321398
vt 0.7786834 0.2073961
vt 0.8034081 0.207394
vt 0.8007069 0.1964886
vt 0.7823939 0.1964902
vt 0.8137175 0.8557751
vt 0.9170597 0.8557776
vt 0.9207714 0.8448723
vt 0.8105236 0.8448695
vt 0.6937763 0.6937853
vt 0.8040236 0.6937995
vt 0.8003136 0.6828936
vt 0.6969718 0.6828803
vt 0.6526974 0.02515408
vt 0.6279733 0.02515064
vt 0.6306721 0.03605642
vt 0.6489845 0.03605895
vt 0.3069145 0.2511571
vt 0.325226 0.2511578
vt 0.3279265 0.2402531
vt 0.3032037 0.2402521
vt 0.9700968 0.2314748
vt 0.9336388 0.231481
vt 0.9363409 0.2423859
vt 0.9700986 0.2423802
vt 0.9336392 0.2879407
vt 0.9673967 0.2879395
vt 0.9700966 0.2770341
vt 0.9336388 0.2770353
vt 0.9700962 0.2618461
vt 0.9336388 0.2618514
vt 0.9363407 0.2727562
vt 0.9700978 0.2727513
vt 0.9700958 0.2466604
vt 0.9363375 0.2466657
vt 0.9336388 0.2575717
vt 0.9700974 0.257566
vt 0.8742093 0.6688547
vt 0.9354984 0.6688454
vt 0.935493 0.6323877
vt 0.8742039 0.6323969
vt 0.9695926 0.06519592
vt 0.9695928 0.003906667
vt 0.8593454 0.00390625
vt 0.8593451 0.0651955
vt 0.9677949 0.6281084
vt 0.9677941 0.5668191
vt 0.8742039 0.5668204
vt 0.8742048 0.6281097
vt 0.4857558 0.7504912
vt 0.485754 0.8117805
vt 0.5960014 0.811784
vt 0.5960033 0.7504947
vt 0.7571883 0.7675406
vt 0.6958991 0.7675404
vt 0.695899 0.8039981
vt 0.7571881 0.8039984
vt 0.3456586 0.8278638
vt 0.4069472 0.8278604
vt 0.4069459 0.8031365
vt 0.3456573 0.8031399
vt 0.5321851 0.4591596
vt 0.4708952 0.4591667
vt 0.470898 0.4838909
vt 0.532188 0.4838839
vt 0.9253702 0.5087958
vt 0.9253806 0.4320841
vt 0.8805823 0.432078
vt 0.8805719 0.5087897
vt 0.9454123 0.8405944
vt 0.9454156 0.7638825
vt 0.848735 0.7638784
vt 0.8487318 0.8405902
vt 0.6785384 0.6908927
vt 0.7048308 0.5966163
vt 0.6364692 0.6649817
vt 0.6603401 0.6888513
vt 0.7516102 0.6178168
vt 0.7048295 0.551818
vt 0.7516077 0.5306148
vt 0.6785318 0.4575431
vt 0.6364641 0.4834565
vt 0.6603335 0.4595856
vt 0.8423011 0.7941364
vt 0.8443414 0.7759379
vt 0.7500633 0.7496518
vt 0.8184331 0.8180088
vt 0.7712607 0.7028711
vt 0.6840588 0.7028792
vt 0.705265 0.749656
vt 0.6109919 0.7759598
vt 0.6369081 0.8180258
vt 0.6130356 0.7941577
vn 0 0 -1
vn 0 0 -1
vn 0 0 -1
vn 0 0 -1
vn -1 0 0
vn -1 0 0
vn -1 0 0
vn -1 0 0
vn -1 0 0
vn -1 0 0
vn -0.552632 -0.7071114 0.441125
vn -0.6657646 -0.7260389 0.1721191
vn -0.6657645 -0.726039 0.1721195
vn -0.5526321 -0.7071114 0.441125
vn 0 -0.7071066 0.7071069
vn 0 -0.7071065 0.707107
vn 0 -0.7071066 0.707107
vn 0 -0.7071066 0.7071069
vn 0.4999965 -0.7071115 0.4999968
vn 0.4999965 -0.7071115 0.4999968
vn 0.4999965 -0.7071115 0.4999968
vn 0.4999965 -0.7071115 0.4999968
vn 0.4999964 0.7071118 0.4999965
vn 0.4999964 0.7071118 0.4999965
vn 0.4999964 0.7071118 0.4999965
vn 0.4999964 0.7071118 0.4999965
vn 0 0.7071067 0.7071069
vn 0 0.7071067 0.7071068
vn 0 0.7071066 0.7071069
vn 0 0.7071066 0.7071069
vn -0.5526344 0.7071087 0.4411264
vn -0.6657675 0.726036 0.1721206
vn -0.6657676 0.7260359 0.1721202
vn -0.5526344 0.7071087 0.4411265
vn 0.7071052 0.7071084 0
vn 0.7071052 0.7071084 0
vn 0.7071052 0.7071084 0
vn 0.7071052 0.7071084 0
vn 0.7071056 -0.707108 0
vn 0.7071056 -0.707108 0
vn 0.7071056 -0.707108 0
vn 0.7071056 -0.707108 0
vn 0.4411279 -0.707105 -0.5526378
vn 0.17212 -0.7260373 -0.6657662
vn 0.1721195 -0.7260372 -0.6657664
vn 0.441128 -0.707105 -0.5526379
vn 0.441126 0.7071084 -0.5526351
vn 0.1721183 0.7260388 -0.665765
vn 0.1721188 0.7260388 -0.6657649
vn 0.441126 0.7071084 -0.5526351
vn -0.7071072 -0.7071064 0
vn -0.6657645 -0.726039 0.1721195
vn -0.6657646 -0.7260389 0.1721191
vn -0.7071072 -0.7071064 0
vn -0.7071106 0.707103 0
vn -0.6657676 0.7260359 0.1721202
vn -0.6657675 0.726036 0.1721206
vn -0.7071105 0.7071031 0
vn 0 0.7071079 -0.7071056
vn 0.1721188 0.7260388 -0.6657649
vn 0.1721183 0.7260388 -0.665765
vn 0 0.7071079 -0.7071057
vn 0 -0.7071074 -0.7071062
vn 0.1721195 -0.7260372 -0.6657664
vn 0.17212 -0.7260373 -0.6657662
vn 0 -0.7071074 -0.7071062
vn -1 0 0
vn -1 0 0
vn -1 0 0
vn -1 0 0
vn 0 0 1
vn 0 0 1
vn 0 0 1
vn 0 0 1
vn 0.7071068 0 0.7071068
vn 0.7071068 0 0.7071068
vn 0.7071068 0 0.7071068
vn 0.7071068 0 0.7071068
vn 1 0 0
vn 1 0 0
vn 1 0 0
vn 1 0 0
vn 0 0 -1
vn 0 0 -1
vn 0 0 -1
vn 0 0 -1
vn 0.6238477 0 -0.7815459
vn 0.6238477 0 -0.7815459
vn 0.6238477 0 -0.7815459
vn 0.6238477 0 -0.7815459
vn -0.7815456 0 0.6238482
vn -0.7815456 0 0.6238482
vn -0.7815456 0 0.6238482
vn -0.7815456 0 0.6238482
vn -0.7071073 0 -0.7071063
vn -0.7071073 0 -0.7071063
vn -0.7071073 0 -0.7071063
vn -0.7071073 0 -0.7071063
vn 0 0 -1
vn 0 0 -1
vn 0 0 -1
vn 0 0 -1
vn 0 -1 0
vn 0 -1 0
vn 0 -1 0
vn 0 -1 0
vn 0 -1 0
vn 0 -1 0
vn 0 -1 0
vn 0 -1 0
vn 0 -1 0
vn 0 -1 0
vn 0 1 0
vn 0 1 0
vn 0 1 0
vn 0 1 0
vn 0 1 0
vn 0 1 0
vn 0 1 0
vn 0 1 0
vn 0 1 0
vn 0 1 0
g polySurface6_0
f 3/3/3 2/2/2 1/1/1
f 4/4/4 3/3/3 1/1/1
f 7/7/7 6/6/6 5/5/5
f 8/8/8 7/7/7 5/5/5
f 8/8/8 5/5/5 9/9/9
f 5/5/5 10/10/10 9/9/9
f 13/13/13 12/12/12 11/11/11
f 14/14/14 13/13/13 11/11/11
f 17/17/17 16/16/16 15/15/15
f 18/18/18 17/17/17 15/15/15
f 21/21/21 20/20/20 19/19/19
f 22/22/22 21/21/21 19/19/19
f 25/25/25 24/24/24 23/23/23
f 26/26/26 25/25/25 23/23/23
f 29/29/29 28/28/28 27/27/27
f 30/30/30 29/29/29 27/27/27
f 33/33/33 32/32/32 31/31/31
f 34/34/34 33/33/33 31/31/31
f 37/37/37 36/36/36 35/35/35
f 38/38/38 37/37/37 35/35/35
f 41/41/41 40/40/40 39/39/39
f 42/42/42 41/41/41 39/39/39
f 45/45/45 44/44/44 43/43/43
f 46/46/46 45/45/45 43/43/43
f 49/49/49 48/48/48 47/47/47
f 50/50/50 49/49/49 47/47/47
f 53/53/53 52/52/52 51/51/51
f 54/54/54 53/53/53 51/51/51
f 57/57/57 56/56/56 55/55/55
f 58/58/58 57/57/57 55/55/55
f 61/61/61 60/60/60 59/59/59
f 62/62/62 61/61/61 59/59/59
f 65/65/65 64/64/64 63/63/63
f 66/66/66 65/65/65 63/63/63
f 69/69/69 68/68/68 67/67/67
f 70/70/70 69/69/69 67/67/67
f 73/73/73 72/72/72 71/71/71
f 74/74/74 73/73/73 71/71/71
f 77/77/77 76/76/76 75/75/75
f 78/78/78 77/77/77 75/75/75
f 81/81/81 80/80/80 79/79/79
f 82/82/82 81/81/81 79/79/79
f 85/85/85 84/84/84 83/83/83
f 86/86/86 85/85/85 83/83/83
f 89/89/89 88/88/88 87/87/87
f 90/90/90 89/89/89 87/87/87
f 93/93/93 92/92/92 91/91/91
f 94/94/94 93/93/93 91/91/91
f 97/97/97 96/96/96 95/95/95
f 98/98/98 97/97/97 95/95/95
f 101/101/101 100/100/100 99/99/99
f 102/102/102 101/101/101 99/99/99
f 105/105/105 104/104/104 103/103/103
f 106/106/106 105/105/105 103/103/103
f 104/104/104 107/107/107 103/103/103
f 104/104/104 108/108/108 107/107/107
f 108/108/108 109/109/109 107/107/107
f 108/108/108 110/110/110 109/109/109
f 108/108/108 111/111/111 110/110/110
f 111/111/111 112/112/112 110/110/110
f 115/115/115 114/114/114 113/113/113
f 116/116/116 115/115/115 113/113/113
f 117/117/117 114/114/114 115/115/115
f 117/117/117 115/115/115 118/118/118
f 115/115/115 119/119/119 118/118/118
f 119/119/119 120/120/120 118/118/118
f 119/119/119 121/121/121 120/120/120
f 121/121/121 122/122/122 120/120/120
