g polySurface16
v 1.037496 0.2330116 0.9386019
v 1.503519 0.2330116 0.4247159
v 1.503519 -0.2330116 0.4247159
v 1.037496 -0.2330116 0.9386019
v 1.037496 0.2330116 0.9386019
v 1.037496 0.2330116 0.4247159
v 1.503519 0.2330116 0.4247159
v 0.5680697 0.2330116 0.4247159
v 0.5680697 0.2330116 0.9386019
v 1.503519 0.2330116 -0.4456483
v 1.037496 0.2330116 -0.4456483
v 1.037496 0.2330116 -0.9386019
v 0.342799 0.2330116 -0.9386019
v 0.342799 0.2330116 -0.4456483
v -0.1109407 0.2330116 -0.4456483
v -0.1109407 0.2330116 -0.2325066
v 0.342799 0.2330116 -0.2325066
v -0.1109407 0.2330116 0.2688457
v 0.342799 0.2330116 0.2688457
v -0.5251963 0.2330116 -0.2325066
v -0.5251963 0.2330116 0.2688457
v 1.503519 -0.2330116 -0.4456483
v 1.503519 0.2330116 -0.4456483
v 1.037496 0.2330116 -0.9386019
v 1.037496 -0.2330116 -0.9386019
v 1.037496 -0.2330116 0.4247159
v 1.037496 -0.2330116 0.9386019
v 1.503519 -0.2330116 0.4247159
v 0.5680697 -0.2330116 0.9386019
v 0.5680697 -0.2330116 0.4247159
v 1.037496 -0.2330116 -0.4456483
v 1.503519 -0.2330116 -0.4456483
v 1.037496 -0.2330116 -0.9386019
v 0.342799 -0.2330116 -0.4456483
v 0.342799 -0.2330116 -0.9386019
v -0.1109407 -0.2330116 -0.4456483
v 0.342799 -0.2330116 -0.2325066
v -0.1109407 -0.2330116 -0.2325066
v 0.342799 -0.2330116 0.2688457
v -0.1109407 -0.2330116 0.2688457
v -0.5251963 -0.2330116 0.2688457
v -0.5251963 -0.2330116 -0.2325066
v 0.5680697 -0.2330116 0.4247159
v 0.5680697 0.2330116 0.4247159
v 0.5680697 0.2330116 0.9386019
v 0.5680697 -0.2330116 0.9386019
v 1.037496 -0.2330116 0.9386019
v 0.5680697 -0.2330116 0.9386019
v 0.5680697 0.2330116 0.9386019
v 1.037496 0.2330116 0.9386019
v 1.037496 0.2330116 0.4247159
v 0.5680697 0.2330116 0.4247159
v 0.5680697 -0.2330116 0.4247159
v 1.037496 -0.2330116 0.4247159
v 1.503519 0.2330116 0.4247159
v 1.503519 0.2330116 -0.4456483
v 1.503519 -0.2330116 -0.4456483
v 1.503519 -0.2330116 0.4247159
v 1.037496 -0.2330116 0.4247159
v 1.037496 -0.2330116 -0.4456483
v 1.037496 0.2330116 -0.4456483
v 1.037496 0.2330116 0.4247159
v 0.342799 -0.2330116 -0.9386019
v 0.342799 0.2330116 -0.9386019
v -0.1109407 0.2330116 -0.4456483
v -0.1109407 -0.2330116 -0.4456483
v 1.037496 -0.2330116 -0.4456483
v 0.342799 -0.2330116 -0.4456483
v 0.342799 0.2330116 -0.4456483
v 1.037496 0.2330116 -0.4456483
v 1.037496 0.2330116 -0.9386019
v 0.342799 0.2330116 -0.9386019
v 0.342799 -0.2330116 -0.9386019
v 1.037496 -0.2330116 -0.9386019
v 0.342799 -0.2330116 0.2688457
v -0.1109407 -0.2330116 0.2688457
v -0.1109407 0.2330116 0.2688457
v 0.342799 0.2330116 0.2688457
v -0.5251963 0.2330116 0.2688457
v -0.5251963 -0.2330116 0.2688457
v 0.342799 -0.2330116 -0.4456483
v 0.342799 -0.2330116 -0.2325066
v 0.342799 0.2330116 -0.2325066
v 0.342799 0.2330116 -0.4456483
v 0.342799 0.2330116 0.2688457
v 0.342799 -0.2330116 0.2688457
v -0.1109407 0.2330116 -0.4456483
v -0.1109407 0.2330116 -0.2325066
v -0.1109407 -0.2330116 -0.2325066
v -0.1109407 -0.2330116 -0.4456483
v -0.5251963 0.2330116 -0.2325066
v -0.5251963 0.2330116 0.2688457
v -0.5251963 -0.2330116 0.2688457
v -0.5251963 -0.2330116 -0.2325066
v -0.1109407 0.2330116 -0.2325066
v -0.5251963 0.2330116 -0.2325066
v -0.5251963 -0.2330116 -0.2325066
v -0.1109407 -0.2330116 -0.2325066
v -1.315382 0.2330116 -0.2325066
v -1.315382 0.2330116 0.2688454
v -1.315382 -0.2330116 0.2688454
v -1.315382 -0.2330116 -0.2325066
v -0.8145669 0.2330116 -0.2325066
v -0.8145669 -0.2330116 -0.2325066
v -0.8145669 -0.2330116 0.2688454
v -0.8145669 0.2330116 0.2688454
v -0.8145669 0.2330116 -0.2325066
v -1.315382 0.2330116 -0.2325066
v -1.315382 -0.2330116 -0.2325066
v -0.8145669 -0.2330116 -0.2325066
v -0.8145669 -0.2330116 -0.2325066
v -1.315382 -0.2330116 -0.2325066
v -1.315382 -0.2330116 0.2688454
v -0.8145669 -0.2330116 0.2688454
v -0.8145669 -0.2330116 0.2688454
v -1.315382 -0.2330116 0.2688454
v -1.315382 0.2330116 0.2688454
v -0.8145669 0.2330116 0.2688454
v -0.8145669 0.2330116 0.2688454
v -1.315382 0.2330116 0.2688454
v -1.315382 0.2330116 -0.2325066
v -0.8145669 0.2330116 -0.2325066
vt 0.3199732 0.2360375
vt 0.1375384 0.2360362
vt 0.1375375 0.3585901
vt 0.3199723 0.3585915
vt 0.4977898 0.4146466
vt 0.3626491 0.4148099
vt 0.3627972 0.5373636
vt 0.3625001 0.2913613
vt 0.4976406 0.2911981
vt 0.1339108 0.53764
vt 0.1337627 0.4150864
vt 0.004126847 0.4152429
vt 0.00390625 0.2325532
vt 0.1335421 0.2323965
vt 0.133398 0.1130731
vt 0.1894494 0.1130055
vt 0.1895936 0.232329
vt 0.321294 0.1128462
vt 0.321438 0.2321696
vt 0.1893178 0.004065454
vt 0.3211624 0.00390625
vt 0.6881023 0.541225
vt 0.5655485 0.5412046
vt 0.5655189 0.7196
vt 0.6880727 0.7196203
vt 0.6375714 0.415022
vt 0.5024307 0.4151489
vt 0.6376866 0.5375757
vt 0.5023148 0.2917003
vt 0.6374554 0.2915733
vt 0.8664579 0.4148069
vt 0.866573 0.5373607
vt 0.9960938 0.4146852
vt 0.8662863 0.2321171
vt 0.9959221 0.2319953
vt 0.8661742 0.1127936
vt 0.8102347 0.2321698
vt 0.8101226 0.1128463
vt 0.6783901 0.2322936
vt 0.678278 0.1129701
vt 0.6781757 0.004030049
vt 0.8100203 0.00390625
vt 0.00391496 0.8645666
vt 0.1264688 0.8645587
vt 0.1264601 0.7294179
vt 0.00390625 0.7294258
vt 0.7623541 0.802994
vt 0.7625588 0.9264424
vt 0.8851125 0.9262392
vt 0.8849078 0.8027907
vt 0.3792786 0.850938
vt 0.379276 0.7274894
vt 0.2567222 0.7274917
vt 0.2567248 0.8509405
vt 0.3253436 0.004062697
vt 0.3256357 0.2329491
vt 0.4481894 0.2327927
vt 0.4478972 0.00390625
vt 0.4535874 0.00390625
vt 0.4535574 0.2327929
vt 0.5761113 0.2328089
vt 0.5761412 0.003922313
vt 0.8145038 0.5411844
vt 0.6919499 0.5411682
vt 0.6919268 0.7173602
vt 0.8144807 0.7173764
vt 0.1303142 0.541283
vt 0.130373 0.723973
vt 0.2529269 0.7239335
vt 0.2528679 0.5412436
vt 0.2567568 0.5411361
vt 0.2567222 0.7238261
vt 0.379276 0.7238492
vt 0.3793106 0.5411594
vt 0.4391108 0.4758896
vt 0.4391136 0.5952132
vt 0.5616674 0.5952103
vt 0.5616646 0.4758867
vt 0.5616701 0.7041503
vt 0.4391163 0.7041532
vt 0.003910378 0.5378789
vt 0.003909156 0.5939305
vt 0.126463 0.5939332
vt 0.1264643 0.5378817
vt 0.1264601 0.7257779
vt 0.00390625 0.7257751
vt 0.00390625 0.1264601
vt 0.05995777 0.1264608
vt 0.05995955 0.003906965
vt 0.003907979 0.00390625
vt 0.8184435 0.799205
vt 0.9502881 0.7990879
vt 0.9501793 0.6765342
vt 0.8183347 0.6766512
vt 0.00390625 0.9907606
vt 0.1128463 0.9907736
vt 0.1128609 0.8682197
vt 0.003920823 0.8682067
vt 0.505684 0.8396379
vt 0.505684 0.7077933
vt 0.3831302 0.7077933
vt 0.3831302 0.8396379
vt 0.252868 0.7276131
vt 0.1303142 0.7276131
vt 0.1303142 0.8594576
vt 0.252868 0.8594576
vt 0.6359461 0.7232605
vt 0.6359461 0.8549637
vt 0.7584999 0.8549637
vt 0.7584999 0.7232605
vt 0.6413636 0.2359401
vt 0.6413836 0.3676433
vt 0.7732282 0.3676232
vt 0.7732081 0.2359199
vt 0.5095381 0.7232518
vt 0.5095381 0.8549551
vt 0.6320919 0.8549551
vt 0.6320919 0.7232518
vt 0.950038 0.5410495
vt 0.8183348 0.5410495
vt 0.8183347 0.6728941
vt 0.950038 0.6728941
vn 0.7407618 0 0.6717677
vn 0.7407618 0 0.6717677
vn 0.7407618 0 0.6717677
vn 0.7407618 0 0.6717677
vn 0 1 0
vn 0 1 0
vn 0 1 0
vn 0 1 0
vn 0 1 0
vn 0 1 0
vn 0 1 0
vn 0 1 0
vn 0 1 0
vn 0 1 0
vn 0 1 0
vn 0 1 0
vn 0 1 0
vn 0 1 0
vn 0 1 0
vn 0 1 0
vn 0 1 0
vn 0.7266777 0 -0.6869785
vn 0.7266777 0 -0.6869785
vn 0.7266777 0 -0.6869785
vn 0.7266777 0 -0.6869785
vn 0 -1 0
vn 0 -1 0
vn 0 -1 0
vn 0 -1 0
vn 0 -1 0
vn 0 -1 0
vn 0 -1 0
vn 0 -1 0
vn 0 -1 0
vn 0 -1 0
vn 0 -1 0
vn 0 -1 0
vn 0 -1 0
vn 0 -1 0
vn 0 -1 0
vn 0 -1 0
vn 0 -1 0
vn -1 0 0
vn -1 0 0
vn -1 0 0
vn -1 0 0
vn 0 0 1
vn 0 0 1
vn 0 0 1
vn 0 0 1
vn 0 0 -1
vn 0 0 -1
vn 0 0 -1
vn 0 0 -1
vn 1 0 0
vn 1 0 0
vn 1 0 0
vn 1 0 0
vn -1 0 0
vn -1 0 0
vn -1 0 0
vn -1 0 0
vn -0.7357656 0 -0.6772363
vn -0.7357656 0 -0.6772363
vn -0.7357656 0 -0.6772363
vn -0.7357656 0 -0.6772363
vn 0 0 1
vn 0 0 1
vn 0 0 1
vn 0 0 1
vn 0 0 -1
vn 0 0 -1
vn 0 0 -1
vn 0 0 -1
vn 0 0 1
vn 0 0 1
vn 0 0 1
vn 0 0 1
vn 0 0 1
vn 0 0 1
vn 1 0 0
vn 1 0 0
vn 1 0 0
vn 1 0 0
vn 1 0 0
vn 1 0 0
vn -1 0 0
vn -1 0 0
vn -1 0 0
vn -1 0 0
vn -1 0 0
vn -1 0 0
vn -1 0 0
vn -1 0 0
vn 0 0 -1
vn 0 0 -1
vn 0 0 -1
vn 0 0 -1
vn -1 0 0
vn -1 0 0
vn -1 0 0
vn -1 0 0
vn 1 0 0
vn 1 0 0
vn 1 0 0
vn 1 0 0
vn 0 0 -1
vn 0 0 -1
vn 0 0 -1
vn 0 0 -1
vn 0 -1 0
vn 0 -1 0
vn 0 -1 0
vn 0 -1 0
vn 0 0 1
vn 0 0 1
vn 0 0 1
vn 0 0 1
vn 0 1 0
vn 0 1 0
vn 0 1 0
vn 0 1 0
g polySurface16_0
f 3/3/3 2/2/2 1/1/1
f 4/4/4 3/3/3 1/1/1
f 7/7/7 6/6/6 5/5/5
f 6/6/6 8/8/8 5/5/5
f 8/8/8 9/9/9 5/5/5
f 7/7/7 10/10/10 6/6/6
f 10/10/10 11/11/11 6/6/6
f 10/10/10 12/12/12 11/11/11
f 12/12/12 13/13/13 11/11/11
f 13/13/13 14/14/14 11/11/11
f 13/13/13 15/15/15 14/14/14
f 15/15/15 16/16/16 14/14/14
f 16/16/16 17/17/17 14/14/14
f 16/16/16 18/18/18 17/17/17
f 18/18/18 19/19/19 17/17/17
f 16/16/16 20/20/20 18/18/18
f 20/20/20 21/21/21 18/18/18
f 24/24/24 23/23/23 22/22/22
f 25/25/25 24/24/24 22/22/22
f 28/28/28 27/27/27 26/26/26
f 27/27/27 29/29/29 26/26/26
f 29/29/29 30/30/30 26/26/26
f 26/26/26 31/31/31 28/28/28
f 31/31/31 32/32/32 28/28/28
f 31/31/31 33/33/33 32/32/32
f 31/31/31 34/34/34 33/33/33
f 34/34/34 35/35/35 33/33/33
f 34/34/34 36/36/36 35/35/35
f 34/34/34 37/37/37 36/36/36
f 37/37/37 38/38/38 36/36/36
f 37/37/37 39/39/39 38/38/38
f 39/39/39 40/40/40 38/38/38
f 40/40/40 41/41/41 38/38/38
f 41/41/41 42/42/42 38/38/38
f 45/45/45 44/44/44 43/43/43
f 46/46/46 45/45/45 43/43/43
f 49/49/49 48/48/48 47/47/47
f 50/50/50 49/49/49 47/47/47
f 53/53/53 52/52/52 51/51/51
f 54/54/54 53/53/53 51/51/51
f 57/57/57 56/56/56 55/55/55
f 58/58/58 57/57/57 55/55/55
f 61/61/61 60/60/60 59/59/59
f 62/62/62 61/61/61 59/59/59
f 65/65/65 64/64/64 63/63/63
f 66/66/66 65/65/65 63/63/63
f 69/69/69 68/68/68 67/67/67
f 70/70/70 69/69/69 67/67/67
f 73/73/73 72/72/72 71/71/71
f 74/74/74 73/73/73 71/71/71
f 77/77/77 76/76/76 75/75/75
f 78/78/78 77/77/77 75/75/75
f 77/77/77 79/79/79 76/76/76
f 79/79/79 80/80/80 76/76/76
f 83/83/83 82/82/82 81/81/81
f 84/84/84 83/83/83 81/81/81
f 83/83/83 85/85/85 82/82/82
f 85/85/85 86/86/86 82/82/82
f 89/89/89 88/88/88 87/87/87
f 90/90/90 89/89/89 87/87/87
f 93/93/93 92/92/92 91/91/91
f 94/94/94 93/93/93 91/91/91
f 97/97/97 96/96/96 95/95/95
f 98/98/98 97/97/97 95/95/95
f 101/101/101 100/100/100 99/99/99
f 102/102/102 101/101/101 99/99/99
f 105/105/105 104/104/104 103/103/103
f 106/106/106 105/105/105 103/103/103
f 109/109/109 108/108/108 107/107/107
f 110/110/110 109/109/109 107/107/107
f 113/113/113 112/112/112 111/111/111
f 114/114/114 113/113/113 111/111/111
f 117/117/117 116/116/116 115/115/115
f 118/118/118 117/117/117 115/115/115
f 121/121/121 120/120/120 119/119/119
f 122/122/122 121/121/121 119/119/119
