g roll_M
v 0.02928932 0.07071069 0.172225
v 0.1 -5.154827E-15 0.372225
v 0.02928932 -0.07071067 0.172225
v 0.02928932 -0.07071067 0.172225
v 0.1 -5.154827E-15 0.372225
v 0.1707107 -0.07071067 0.172225
v 0.1707107 -0.07071067 0.172225
v 0.1 -5.154827E-15 0.372225
v 0.1707107 0.07071068 0.172225
v 0.1707107 0.07071068 0.172225
v 0.1 -5.154827E-15 0.372225
v 0.02928932 0.07071069 0.172225
v 0.02928932 -0.07071069 -0.172225
v 0.1 -5.320128E-15 -0.372225
v 0.02928932 0.07071067 -0.172225
v 0.02928932 0.07071067 -0.172225
v 0.1 -5.320128E-15 -0.372225
v 0.1707107 0.07071067 -0.172225
v 0.1707107 0.07071067 -0.172225
v 0.1 -5.320128E-15 -0.372225
v 0.1707107 -0.07071068 -0.172225
v 0.1707107 -0.07071068 -0.172225
v 0.1 -5.320128E-15 -0.372225
v 0.02928932 -0.07071069 -0.172225
v -0.1707107 -0.172225 0.07071069
v -0.1 -0.372225 0
v -0.1707107 -0.172225 -0.07071067
v -0.1707107 -0.172225 -0.07071067
v -0.1 -0.372225 0
v -0.02928932 -0.172225 -0.07071067
v -0.02928932 -0.172225 -0.07071067
v -0.1 -0.372225 0
v -0.02928932 -0.172225 0.07071068
v -0.02928932 -0.172225 0.07071068
v -0.1 -0.372225 0
v -0.1707107 -0.172225 0.07071069
v -0.1707107 0.172225 -0.07071069
v -0.1 0.372225 -4.558441E-17
v -0.1707107 0.172225 0.07071067
v -0.1707107 0.172225 0.07071067
v -0.1 0.372225 -4.558441E-17
v -0.02928932 0.172225 0.07071067
v -0.02928932 0.172225 0.07071067
v -0.1 0.372225 -4.558441E-17
v -0.02928932 0.172225 -0.07071068
v -0.02928932 0.172225 -0.07071068
v -0.1 0.372225 -4.558441E-17
v -0.1707107 0.172225 -0.07071069
v 0.235 0.1847759 -0.07653658
v -0.235 0.1847759 -0.07653658
v -0.235 0.1414214 -0.1414213
v 0.235 0.1414214 -0.1414213
v -0.235 0.07653678 -0.1847759
v 0.235 0.07653679 -0.1847759
v -0.235 1.043081E-07 -0.2
v 0.235 1.043081E-07 -0.2
v -0.235 -0.07653658 -0.1847759
v 0.235 -0.0765366 -0.1847759
v -0.235 -0.1414213 -0.1414214
v 0.235 -0.1414213 -0.1414214
v -0.235 -0.1847759 -0.07653676
v 0.235 -0.1847759 -0.07653676
v -0.235 -0.2 -7.152558E-08
v 0.235 -0.2 -7.152558E-08
v -0.235 -0.1847759 0.07653663
v 0.235 -0.1847759 0.07653663
v -0.235 -0.1414214 0.1414213
v 0.235 -0.1414214 0.1414213
v -0.235 -0.07653673 0.1847759
v 0.235 -0.07653672 0.1847759
v -0.235 -2.980232E-08 0.2
v 0.235 -2.980232E-08 0.2
v -0.235 0.07653666 0.1847759
v 0.235 0.07653667 0.1847759
v 0.235 0.07653667 0.1847759
v -0.235 0.07653666 0.1847759
v -0.235 0.1414213 0.1414214
v 0.235 0.1414213 0.1414214
v -0.235 0.1847759 0.07653669
v 0.235 0.1847759 0.07653669
v -0.235 0.2 0
v 0.235 0.2 0
vt 0.3828798 0.5958827
vt 0.5105685 0.7170675
vt 0.4813604 0.545797
vt 0.4813604 0.545797
vt 0.5105685 0.7170675
vt 0.5901965 0.5648168
vt 0.5901965 0.5648168
vt 0.5105685 0.7170675
vt 0.6658534 0.6453342
vt 0.3341466 0.6950398
vt 0.5105685 0.7170675
vt 0.3828798 0.5958827
vt 0.3751162 0.6088225
vt 0.5105685 0.7170675
vt 0.4671284 0.5479016
vt 0.4671284 0.5479016
vt 0.5105685 0.7170675
vt 0.5774021 0.5540357
vt 0.5774021 0.5540357
vt 0.5105685 0.7170675
vt 0.6618288 0.6252569
vt 0.3381713 0.7129157
vt 0.5105685 0.7170675
vt 0.3751162 0.6088225
vt 0.3751162 0.6088225
vt 0.5105685 0.7170675
vt 0.4671284 0.5479016
vt 0.4671284 0.5479016
vt 0.5105685 0.7170675
vt 0.5774021 0.5540357
vt 0.5774021 0.5540357
vt 0.5105685 0.7170675
vt 0.6618288 0.6252569
vt 0.3381712 0.7129157
vt 0.5105685 0.7170675
vt 0.3751162 0.6088225
vt 0.3381713 0.7129157
vt 0.5105685 0.7170675
vt 0.3751162 0.6088225
vt 0.3751162 0.6088225
vt 0.5105685 0.7170675
vt 0.4671284 0.5479016
vt 0.4671284 0.5479016
vt 0.5105685 0.7170675
vt 0.5774021 0.5540357
vt 0.5774021 0.5540357
vt 0.5105685 0.7170675
vt 0.6618288 0.6252569
vt 0.2567348 0.07239135
vt 0.2567421 0.4395778
vt 0.3177063 0.4395783
vt 0.3177031 0.0723917
vt 0.3786707 0.4395779
vt 0.3786676 0.07239053
vt 0.4396359 0.4395763
vt 0.4396333 0.07238953
vt 0.5006024 0.4395788
vt 0.5005994 0.07238822
vt 0.5615679 0.4395783
vt 0.5615658 0.07238723
vt 0.6225314 0.4395778
vt 0.6225317 0.07238911
vt 0.6835001 0.4395784
vt 0.6834986 0.07238911
vt 0.7444662 0.439578
vt 0.7444634 0.07238981
vt 0.8054299 0.4395785
vt 0.8054316 0.07238765
vt 0.8663965 0.4395794
vt 0.8663975 0.07238773
vt 0.9273632 0.4395772
vt 0.9273605 0.07238992
vt 0.9883286 0.439578
vt 0.9883273 0.07238953
vt 0.01287404 0.07239658
vt 0.01288153 0.439583
vt 0.07384587 0.4395819
vt 0.07384029 0.07239647
vt 0.1348113 0.4395795
vt 0.1348048 0.07239567
vt 0.195776 0.439579
vt 0.1957691 0.07239224
vn -0.942809 0 0.3333333
vn -0.942809 0 0.3333333
vn -0.942809 0 0.3333333
vn 0 -0.942809 0.3333333
vn 0 -0.942809 0.3333333
vn 0 -0.942809 0.3333333
vn 0.942809 0 0.3333333
vn 0.942809 0 0.3333333
vn 0.942809 0 0.3333333
vn 0 0.942809 0.3333334
vn 0 0.942809 0.3333334
vn 0 0.942809 0.3333334
vn -0.942809 0 -0.3333333
vn -0.942809 0 -0.3333333
vn -0.942809 0 -0.3333333
vn 0 0.942809 -0.3333333
vn 0 0.942809 -0.3333333
vn 0 0.942809 -0.3333333
vn 0.942809 0 -0.3333333
vn 0.942809 0 -0.3333333
vn 0.942809 0 -0.3333333
vn 0 -0.942809 -0.3333334
vn 0 -0.942809 -0.3333334
vn 0 -0.942809 -0.3333334
vn -0.942809 -0.3333333 0
vn -0.942809 -0.3333334 0
vn -0.942809 -0.3333333 0
vn 0 -0.3333333 -0.942809
vn 0 -0.3333334 -0.942809
vn 0 -0.3333333 -0.942809
vn 0.942809 -0.3333333 0
vn 0.942809 -0.3333334 0
vn 0.942809 -0.3333333 0
vn 0 -0.3333334 0.942809
vn 0 -0.3333334 0.942809
vn 0 -0.3333334 0.942809
vn -0.942809 0.3333333 0
vn -0.942809 0.3333334 0
vn -0.942809 0.3333333 0
vn 0 0.3333333 0.942809
vn 0 0.3333334 0.942809
vn 0 0.3333333 0.942809
vn 0.942809 0.3333333 0
vn 0.942809 0.3333334 0
vn 0.942809 0.3333333 0
vn 0 0.3333334 -0.942809
vn 0 0.3333334 -0.942809
vn 0 0.3333334 -0.942809
vn 0 0.9238796 -0.3826833
vn 0 0.9238796 -0.3826834
vn 0 0.7071072 -0.7071064
vn 0 0.7071072 -0.7071064
vn 0 0.382684 -0.9238793
vn 0 0.382684 -0.9238793
vn 0 0 -1
vn 0 0 -1
vn 0 -0.3826829 -0.9238798
vn 0 -0.3826829 -0.9238797
vn 0 -0.7071064 -0.7071071
vn 0 -0.7071064 -0.7071071
vn 0 -0.9238794 -0.3826838
vn 0 -0.9238794 -0.3826838
vn 0 -1 0
vn 0 -1 0
vn 0 -0.9238796 0.3826832
vn 0 -0.9238796 0.3826832
vn 0 -0.707107 0.7071066
vn 0 -0.7071069 0.7071066
vn 0 -0.3826837 0.9238794
vn 0 -0.3826836 0.9238794
vn 0 0 1
vn 0 0 1
vn 0 0.3826834 0.9238796
vn 0 0.3826833 0.9238796
vn 0 0.3826833 0.9238796
vn 0 0.3826834 0.9238796
vn 0 0.7071068 0.7071068
vn 0 0.7071068 0.7071068
vn 0 0.9238795 0.3826835
vn 0 0.9238795 0.3826835
vn 0 1 0
vn 0 1 0
g roll_M_0
f 3/3/3 2/2/2 1/1/1
f 6/6/6 5/5/5 4/4/4
f 9/9/9 8/8/8 7/7/7
f 12/12/12 11/11/11 10/10/10
f 15/15/15 14/14/14 13/13/13
f 18/18/18 17/17/17 16/16/16
f 21/21/21 20/20/20 19/19/19
f 24/24/24 23/23/23 22/22/22
f 27/27/27 26/26/26 25/25/25
f 30/30/30 29/29/29 28/28/28
f 33/33/33 32/32/32 31/31/31
f 36/36/36 35/35/35 34/34/34
f 39/39/39 38/38/38 37/37/37
f 42/42/42 41/41/41 40/40/40
f 45/45/45 44/44/44 43/43/43
f 48/48/48 47/47/47 46/46/46
f 51/51/51 50/50/50 49/49/49
f 52/52/52 51/51/51 49/49/49
f 53/53/53 51/51/51 52/52/52
f 54/54/54 53/53/53 52/52/52
f 55/55/55 53/53/53 54/54/54
f 56/56/56 55/55/55 54/54/54
f 57/57/57 55/55/55 56/56/56
f 58/58/58 57/57/57 56/56/56
f 59/59/59 57/57/57 58/58/58
f 60/60/60 59/59/59 58/58/58
f 61/61/61 59/59/59 60/60/60
f 62/62/62 61/61/61 60/60/60
f 63/63/63 61/61/61 62/62/62
f 64/64/64 63/63/63 62/62/62
f 65/65/65 63/63/63 64/64/64
f 66/66/66 65/65/65 64/64/64
f 67/67/67 65/65/65 66/66/66
f 68/68/68 67/67/67 66/66/66
f 69/69/69 67/67/67 68/68/68
f 70/70/70 69/69/69 68/68/68
f 71/71/71 69/69/69 70/70/70
f 72/72/72 71/71/71 70/70/70
f 73/73/73 71/71/71 72/72/72
f 74/74/74 73/73/73 72/72/72
f 77/77/77 76/76/76 75/75/75
f 78/78/78 77/77/77 75/75/75
f 79/79/79 77/77/77 78/78/78
f 80/80/80 79/79/79 78/78/78
f 81/81/81 79/79/79 80/80/80
f 82/82/82 81/81/81 80/80/80
f 50/50/50 81/81/81 82/82/82
f 49/49/49 50/50/50 82/82/82
