g top_small2
v -0.6872157 -0.3392024 -0.2785337
v -0.4425058 -0.2575502 -0.4459631
v -0.4420688 0.257405 -0.4456789
v -0.6872154 0.3392031 -0.2785337
v -0.4425058 -0.2575502 -0.4459631
v -2.220446E-16 -0.1099 -0.1583488
v 1.192093E-07 0.1099002 -0.1583488
v -0.4420688 0.257405 -0.4456789
v -2.220446E-16 -0.1099 -0.1583488
v -2.220446E-16 -0.1099 0.1583481
v 1.192093E-07 0.1099002 0.1583481
v 1.192093E-07 0.1099002 -0.1583488
v -2.220446E-16 -0.1099 0.1583481
v -0.6872157 -0.3392024 -0.2785337
v -0.6872154 0.3392031 -0.2785337
v 1.192093E-07 0.1099002 0.1583481
v -0.6872154 0.3392031 -0.2785337
v -0.4420688 0.257405 -0.4456789
v 1.192093E-07 0.1099002 -0.1583488
v 1.192093E-07 0.1099002 0.1583481
v -2.220446E-16 -0.1099 0.1583481
v -2.220446E-16 -0.1099 -0.1583488
v -0.4425058 -0.2575502 -0.4459631
v -0.6872157 -0.3392024 -0.2785337
vt 0.2611511 0.8726767
vt 0.2683034 0.8873859
vt 0.3134105 0.8873609
vt 0.3205755 0.8726767
vt 0.3568813 0.9169821
vt 0.3340437 0.9287156
vt 0.3340437 0.9461828
vt 0.3568588 0.9579047
vt 0.3340437 0.9287156
vt 0.3088969 0.9287156
vt 0.3088969 0.9461828
vt 0.3340437 0.9461828
vt 0.2812366 0.8342955
vt 0.2611511 0.8726767
vt 0.3205755 0.8726767
vt 0.3004899 0.8342955
vt 0.7006073 0.9554844
vt 0.7169081 0.9666077
vt 0.7463031 0.9474863
vt 0.7463031 0.9264107
vt 0.1870964 0.9227233
vt 0.1870964 0.943799
vt 0.2165205 0.9629392
vt 0.2327923 0.9517971
vn -0.5640059 0.0004033058 -0.8257707
vn -0.5640059 0.0004033058 -0.8257707
vn -0.5640059 0.0004033058 -0.8257706
vn -0.5640059 0.0004033058 -0.8257707
vn 0.5449688 0 -0.8384563
vn 0.544969 0 -0.8384562
vn 0.5449689 0 -0.8384563
vn 0.5449689 0 -0.8384563
vn 1 0 0
vn 1 0 0
vn 1 0 0
vn 1 0 0
vn -0.5364932 0 0.8439046
vn -0.5364932 0 0.8439046
vn -0.5364932 0 0.8439046
vn -0.5364932 0 0.8439047
vn 0.3165147 0.9485875 0
vn 0.3165147 0.9485875 0
vn 0.3165147 0.9485875 0
vn 0.3165147 0.9485875 0
vn 0.3165141 -0.9485878 0
vn 0.3165142 -0.9485878 0
vn 0.3165141 -0.9485878 0
vn 0.3165141 -0.9485878 0
g top_small2_0
f 3/3/3 2/2/2 1/1/1
f 4/4/4 3/3/3 1/1/1
f 7/7/7 6/6/6 5/5/5
f 8/8/8 7/7/7 5/5/5
f 11/11/11 10/10/10 9/9/9
f 12/12/12 11/11/11 9/9/9
f 15/15/15 14/14/14 13/13/13
f 16/16/16 15/15/15 13/13/13
f 19/19/19 18/18/18 17/17/17
f 20/20/20 19/19/19 17/17/17
f 23/23/23 22/22/22 21/21/21
f 24/24/24 23/23/23 21/21/21
