g top_small
v -0.6872157 -0.3392024 -0.2785337
v -0.442506 -0.2575502 -0.4459631
v -0.4420687 0.257405 -0.4456789
v -0.6872154 0.3392031 -0.2785337
v -0.442506 -0.2575502 -0.4459631
v 0 -0.1099 -0.1583488
v 1.192093E-07 0.1099002 -0.1583488
v -0.4420687 0.257405 -0.4456789
v 0 -0.1099 -0.1583488
v 0 -0.1099 0.1583481
v 1.192093E-07 0.1099002 0.1583481
v 1.192093E-07 0.1099002 -0.1583488
v 0 -0.1099 0.1583481
v -0.6872157 -0.3392024 -0.2785337
v -0.6872154 0.3392031 -0.2785337
v 1.192093E-07 0.1099002 0.1583481
v -0.6872154 0.3392031 -0.2785337
v -0.4420687 0.257405 -0.4456789
v 1.192093E-07 0.1099002 -0.1583488
v 1.192093E-07 0.1099002 0.1583481
v 0 -0.1099 0.1583481
v 0 -0.1099 -0.1583488
v -0.442506 -0.2575502 -0.4459631
v -0.6872157 -0.3392024 -0.2785337
vt 0.0974512 0.8763103
vt 0.1046026 0.8910212
vt 0.1497044 0.8909962
vt 0.1568686 0.8763103
vt 0.8349957 0.9501262
vt 0.8232843 0.9272457
vt 0.80585 0.9272457
vt 0.7941501 0.9501036
vt 0.8232843 0.9272457
vt 0.8232843 0.9020515
vt 0.80585 0.9020515
vt 0.80585 0.9272457
vt 0.1175344 0.8379244
vt 0.0974512 0.8763103
vt 0.1568686 0.8763103
vt 0.1367853 0.8379244
vt 0.1081696 0.9732841
vt 0.1244704 0.9844074
vt 0.1538656 0.965286
vt 0.1538656 0.9442104
vt 0.2756715 0.9703357
vt 0.2756715 0.9492625
vt 0.2462438 0.9301246
vt 0.2299701 0.9412654
vn -0.5640059 0.00040339 -0.8257707
vn -0.5640059 0.00040339 -0.8257707
vn -0.5640059 0.00040339 -0.8257707
vn -0.5640058 0.00040339 -0.8257707
vn 0.5449688 0 -0.8384563
vn 0.5449688 0 -0.8384563
vn 0.5449689 0 -0.8384562
vn 0.5449689 0 -0.8384563
vn 1 0 0
vn 1 0 0
vn 1 0 0
vn 1 0 0
vn -0.5364932 0 0.8439046
vn -0.5364932 0 0.8439046
vn -0.5364932 0 0.8439046
vn -0.5364932 0 0.8439047
vn 0.3165147 0.9485876 0
vn 0.3165147 0.9485875 0
vn 0.3165147 0.9485875 0
vn 0.3165147 0.9485875 0
vn 0.3165142 -0.9485878 0
vn 0.3165142 -0.9485878 0
vn 0.3165142 -0.9485878 0
vn 0.3165141 -0.9485878 0
g top_small_0
f 3/3/3 2/2/2 1/1/1
f 4/4/4 3/3/3 1/1/1
f 7/7/7 6/6/6 5/5/5
f 8/8/8 7/7/7 5/5/5
f 11/11/11 10/10/10 9/9/9
f 12/12/12 11/11/11 9/9/9
f 15/15/15 14/14/14 13/13/13
f 16/16/16 15/15/15 13/13/13
f 19/19/19 18/18/18 17/17/17
f 20/20/20 19/19/19 17/17/17
f 23/23/23 22/22/22 21/21/21
f 24/24/24 23/23/23 21/21/21
