g TriTower
v -0.5 -0.5 0.5
v -0.5 0.5 0.5
v 0.5 0.5 0.5
v 0.5 -0.5 0.5
v -0.05064862 8.5 0.05064862
v -0.05064862 8.5 -0.05064862
v 0.05064862 8.5 -0.05064862
v 0.05064862 8.5 0.05064862
v -0.5 0.5 -0.5
v -0.5 -0.5 -0.5
v 0.5 -0.5 -0.5
v 0.5 0.5 -0.5
v -0.5 -0.5 -0.5
v -0.5 -0.5 0.5
v 0.5 -0.5 0.5
v 0.5 -0.5 -0.5
v 0.5 -0.5 0.5
v 0.5 0.5 0.5
v 0.5 0.5 -0.5
v 0.5 -0.5 -0.5
v -0.5 -0.5 -0.5
v -0.5 0.5 -0.5
v -0.5 0.5 0.5
v -0.5 -0.5 0.5
v -0.5 0.5 0.5
v -0.4535584 0.5 0.4535584
v 0.4535584 0.5 0.4535584
v 0.5 0.5 0.5
v 0.4535584 0.5 -0.4535584
v 0.5 0.5 -0.5
v -0.4535584 0.5 -0.4535584
v -0.5 0.5 -0.5
v -0.4535584 0.5 0.4535584
v -0.4535584 1.5 0.4535584
v 0.4535584 1.5 0.4535584
v 0.4535584 0.5 0.4535584
v 0.4535584 0.5 0.4535584
v 0.4535584 1.5 0.4535584
v 0.4535584 1.5 -0.4535584
v 0.4535584 0.5 -0.4535584
v 0.4535584 0.5 -0.4535584
v 0.4535584 1.5 -0.4535584
v -0.4535584 1.5 -0.4535584
v -0.4535584 0.5 -0.4535584
v -0.4535584 0.5 -0.4535584
v -0.4535584 1.5 -0.4535584
v -0.4535584 1.5 0.4535584
v -0.4535584 0.5 0.4535584
v -0.4535584 1.5 0.4535584
v -0.3957717 1.5 0.3957717
v 0.3957717 1.5 0.3957717
v 0.4535584 1.5 0.4535584
v 0.3957717 1.5 -0.3957717
v 0.4535584 1.5 -0.4535584
v -0.3957717 1.5 -0.3957717
v -0.4535584 1.5 -0.4535584
v -0.3957717 1.5 0.3957717
v -0.3957717 2.5 0.3957717
v 0.3957717 2.5 0.3957717
v 0.3957717 1.5 0.3957717
v 0.3957717 1.5 0.3957717
v 0.3957717 2.5 0.3957717
v 0.3957717 2.5 -0.3957717
v 0.3957717 1.5 -0.3957717
v 0.3957717 1.5 -0.3957717
v 0.3957717 2.5 -0.3957717
v -0.3957717 2.5 -0.3957717
v -0.3957717 1.5 -0.3957717
v -0.3957717 1.5 -0.3957717
v -0.3957717 2.5 -0.3957717
v -0.3957717 2.5 0.3957717
v -0.3957717 1.5 0.3957717
v -0.3957717 2.5 0.3957717
v -0.3447971 2.5 0.3447971
v 0.3447971 2.5 0.3447971
v 0.3957717 2.5 0.3957717
v 0.3447971 2.5 -0.3447971
v 0.3957717 2.5 -0.3957717
v -0.3447971 2.5 -0.3447971
v -0.3957717 2.5 -0.3957717
v -0.3447971 2.5 0.3447971
v -0.3447971 3.5 0.3447971
v 0.3447971 3.5 0.3447971
v 0.3447971 2.5 0.3447971
v 0.3447971 2.5 0.3447971
v 0.3447971 3.5 0.3447971
v 0.3447971 3.5 -0.3447971
v 0.3447971 2.5 -0.3447971
v 0.3447971 2.5 -0.3447971
v 0.3447971 3.5 -0.3447971
v -0.3447971 3.5 -0.3447971
v -0.3447971 2.5 -0.3447971
v -0.3447971 2.5 -0.3447971
v -0.3447971 3.5 -0.3447971
v -0.3447971 3.5 0.3447971
v -0.3447971 2.5 0.3447971
v -0.3447971 3.5 0.3447971
v -0.2916641 3.5 0.2916641
v 0.2916641 3.5 0.2916641
v 0.3447971 3.5 0.3447971
v 0.2916641 3.5 -0.2916641
v 0.3447971 3.5 -0.3447971
v -0.2916641 3.5 -0.2916641
v -0.3447971 3.5 -0.3447971
v -0.2916641 3.5 0.2916641
v -0.2916641 4.5 0.2916641
v 0.2916641 4.5 0.2916641
v 0.2916641 3.5 0.2916641
v 0.2916641 3.5 0.2916641
v 0.2916641 4.5 0.2916641
v 0.2916641 4.5 -0.2916641
v 0.2916641 3.5 -0.2916641
v 0.2916641 3.5 -0.2916641
v 0.2916641 4.5 -0.2916641
v -0.2916641 4.5 -0.2916641
v -0.2916641 3.5 -0.2916641
v -0.2916641 3.5 -0.2916641
v -0.2916641 4.5 -0.2916641
v -0.2916641 4.5 0.2916641
v -0.2916641 3.5 0.2916641
v -0.2916641 4.5 0.2916641
v -0.2281607 4.5 0.2281607
v 0.2281607 4.5 0.2281607
v 0.2916641 4.5 0.2916641
v 0.2281607 4.5 -0.2281607
v 0.2916641 4.5 -0.2916641
v -0.2281607 4.5 -0.2281607
v -0.2916641 4.5 -0.2916641
v -0.2281607 4.5 0.2281607
v -0.2281607 5.5 0.2281607
v 0.2281607 5.5 0.2281607
v 0.2281607 4.5 0.2281607
v 0.2281607 4.5 0.2281607
v 0.2281607 5.5 0.2281607
v 0.2281607 5.5 -0.2281607
v 0.2281607 4.5 -0.2281607
v 0.2281607 4.5 -0.2281607
v 0.2281607 5.5 -0.2281607
v -0.2281607 5.5 -0.2281607
v -0.2281607 4.5 -0.2281607
v -0.2281607 4.5 -0.2281607
v -0.2281607 5.5 -0.2281607
v -0.2281607 5.5 0.2281607
v -0.2281607 4.5 0.2281607
v -0.2281607 5.5 0.2281607
v -0.1681982 5.5 0.1681982
v 0.1681982 5.5 0.1681982
v 0.2281607 5.5 0.2281607
v 0.1681982 5.5 -0.1681982
v 0.2281607 5.5 -0.2281607
v -0.1681982 5.5 -0.1681982
v -0.2281607 5.5 -0.2281607
v -0.1681982 5.5 0.1681982
v -0.1681982 6.5 0.1681982
v 0.1681982 6.5 0.1681982
v 0.1681982 5.5 0.1681982
v 0.1681982 5.5 0.1681982
v 0.1681982 6.5 0.1681982
v 0.1681982 6.5 -0.1681982
v 0.1681982 5.5 -0.1681982
v 0.1681982 5.5 -0.1681982
v 0.1681982 6.5 -0.1681982
v -0.1681982 6.5 -0.1681982
v -0.1681982 5.5 -0.1681982
v -0.1681982 5.5 -0.1681982
v -0.1681982 6.5 -0.1681982
v -0.1681982 6.5 0.1681982
v -0.1681982 5.5 0.1681982
v -0.1681982 6.5 0.1681982
v -0.1117058 6.5 0.1117058
v 0.1117058 6.5 0.1117058
v 0.1681982 6.5 0.1681982
v 0.1117058 6.5 -0.1117058
v 0.1681982 6.5 -0.1681982
v -0.1117058 6.5 -0.1117058
v -0.1681982 6.5 -0.1681982
v -0.1117058 6.5 0.1117058
v -0.1117058 7.500001 0.1117058
v 0.1117058 7.500001 0.1117058
v 0.1117058 6.5 0.1117058
v 0.1117058 6.5 0.1117058
v 0.1117058 7.500001 0.1117058
v 0.1117058 7.500001 -0.1117058
v 0.1117058 6.5 -0.1117058
v 0.1117058 6.5 -0.1117058
v 0.1117058 7.500001 -0.1117058
v -0.1117058 7.500001 -0.1117058
v -0.1117058 6.5 -0.1117058
v -0.1117058 6.5 -0.1117058
v -0.1117058 7.500001 -0.1117058
v -0.1117058 7.500001 0.1117058
v -0.1117058 6.5 0.1117058
v -0.1117058 7.500001 0.1117058
v -0.05064862 7.500001 0.05064862
v 0.05064862 7.500001 0.05064862
v 0.1117058 7.500001 0.1117058
v 0.05064862 7.500001 -0.05064862
v 0.1117058 7.500001 -0.1117058
v -0.05064862 7.500001 -0.05064862
v -0.1117058 7.500001 -0.1117058
v -0.05064862 7.500001 0.05064862
v -0.05064862 8.5 0.05064862
v 0.05064862 8.5 0.05064862
v 0.05064862 7.500001 0.05064862
v 0.05064862 7.500001 0.05064862
v 0.05064862 8.5 0.05064862
v 0.05064862 8.5 -0.05064862
v 0.05064862 7.500001 -0.05064862
v 0.05064862 7.500001 -0.05064862
v 0.05064862 8.5 -0.05064862
v -0.05064862 8.5 -0.05064862
v -0.05064862 7.500001 -0.05064862
v -0.05064862 7.500001 -0.05064862
v -0.05064862 8.5 -0.05064862
v -0.05064862 8.5 0.05064862
v -0.05064862 7.500001 0.05064862
vt 0.4753261 0.8611763
vt 0.4753261 0.8840586
vt 0.93358 0.8840586
vt 0.93358 0.8611763
vt 0.9045663 0.00390625
vt 0.9045663 0.05106288
vt 0.951723 0.05106288
vt 0.951723 0.00390625
vt 0.4753261 0.9119422
vt 0.4753261 0.88906
vt 0.9335799 0.88906
vt 0.93358 0.9119422
vt 0.00390625 0.469434
vt 0.00390625 0.00390625
vt 0.469434 0.00390625
vt 0.469434 0.469434
vt 0.9408539 0.8046825
vt 0.9408539 0.827928
vt 0.4753261 0.827928
vt 0.4753261 0.8046825
vt 0.4753261 0.8329294
vt 0.4753261 0.8561749
vt 0.9408538 0.8561748
vt 0.9408538 0.8329294
vt 0.00390625 0.4744354
vt 0.0255261 0.4960552
vt 0.4478142 0.4960552
vt 0.469434 0.4744354
vt 0.4478142 0.9183432
vt 0.469434 0.9399631
vt 0.0255261 0.9183432
vt 0.00390625 0.9399631
vt 0.4331464 0.9730744
vt 0.4331464 0.9959567
vt 0.8488362 0.9959567
vt 0.8488362 0.9730744
vt 0.4261943 0.9449645
vt 0.4261942 0.96821
vt 0.00390625 0.9682101
vt 0.00390625 0.9449645
vt 0.8488362 0.9451905
vt 0.8488362 0.968073
vt 0.4331464 0.968073
vt 0.4331464 0.9451906
vt 0.4753261 0.9169437
vt 0.4753261 0.9401891
vt 0.897614 0.9401892
vt 0.8976141 0.9169436
vt 0.4753261 0.00390625
vt 0.5022274 0.03080755
vt 0.8707128 0.03080755
vt 0.8976141 0.00390625
vt 0.8707128 0.399293
vt 0.8976141 0.4261943
vt 0.5022274 0.399293
vt 0.4753261 0.4261943
vt 0.03119898 0.7470374
vt 0.03119898 0.7699196
vt 0.3939268 0.7699196
vt 0.3939268 0.7470374
vt 0.3996843 0.6909068
vt 0.3996843 0.7141523
vt 0.03119898 0.7141523
vt 0.03119901 0.6909068
vt 0.3939268 0.7191536
vt 0.3939268 0.742036
vt 0.03119898 0.742036
vt 0.03119898 0.7191536
vt 0.03119901 0.6626599
vt 0.03119898 0.6859054
vt 0.3996845 0.6859054
vt 0.3996845 0.6626599
vt 0.4753261 0.4311956
vt 0.4990562 0.4549257
vt 0.8200814 0.4549257
vt 0.8438115 0.4311956
vt 0.8200814 0.775951
vt 0.8438115 0.7996811
vt 0.4990562 0.775951
vt 0.4753261 0.7996811
vt 0.03119898 0.8031679
vt 0.03119898 0.8260502
vt 0.3472082 0.8260502
vt 0.3472082 0.8031679
vt 0.8286064 0.3618355
vt 0.8286064 0.3850811
vt 0.5075811 0.3850811
vt 0.5075811 0.3618355
vt 0.3472081 0.8310516
vt 0.3472081 0.8539339
vt 0.03119898 0.8539339
vt 0.03119898 0.8310516
vt 0.03119898 0.774921
vt 0.03119898 0.7981665
vt 0.3522242 0.7981665
vt 0.3522242 0.774921
vt 0.5075811 0.03580894
vt 0.532316 0.06054379
vt 0.8038715 0.06054379
vt 0.8286063 0.03580894
vt 0.8038715 0.3320993
vt 0.8286063 0.3568341
vt 0.532316 0.3320993
vt 0.5075811 0.3568341
vt 0.00390625 0.9732114
vt 0.00390625 0.9960938
vt 0.2712187 0.9960938
vt 0.2712187 0.9732114
vt 0.3027545 0.8589352
vt 0.3027545 0.8821807
vt 0.03119898 0.8821807
vt 0.03119898 0.8589352
vt 0.2985114 0.8871821
vt 0.2985114 0.9100644
vt 0.03119898 0.9100644
vt 0.03119898 0.8871821
vt 0.5051001 0.736484
vt 0.5051 0.7597296
vt 0.7766555 0.7597296
vt 0.7766555 0.736484
vt 0.5051 0.4599271
vt 0.5346626 0.4894897
vt 0.7470929 0.4894897
vt 0.7766554 0.4599271
vt 0.7470929 0.70192
vt 0.7766554 0.7314826
vt 0.5346626 0.70192
vt 0.5051 0.7314826
vt 0.1949553 0.5571873
vt 0.1949553 0.5800695
vt 0.4040664 0.5800695
vt 0.4040664 0.5571873
vt 0.7497853 0.2829769
vt 0.7497853 0.3062223
vt 0.5373551 0.3062223
vt 0.5373551 0.2829768
vt 0.4040664 0.5293036
vt 0.4040664 0.5521858
vt 0.1949553 0.5521858
vt 0.1949553 0.5293036
vt 0.1949553 0.5010566
vt 0.1949553 0.5243021
vt 0.4073856 0.5243021
vt 0.4073856 0.5010566
vt 0.5373551 0.06554519
vt 0.5652692 0.09345937
vt 0.7218711 0.09345937
vt 0.7497853 0.06554519
vt 0.7218711 0.2500613
vt 0.7497853 0.2779755
vt 0.5652692 0.2500613
vt 0.5373551 0.2779755
vt 0.1949554 0.5850709
vt 0.1949553 0.6079532
vt 0.3491103 0.6079532
vt 0.3491103 0.5850709
vt 0.696438 0.522738
vt 0.696438 0.5459835
vt 0.5398362 0.5459836
vt 0.5398362 0.522738
vt 0.6939911 0.5509849
vt 0.6939911 0.5738673
vt 0.5398362 0.5738673
vt 0.5398362 0.5509849
vt 0.5398362 0.4944911
vt 0.5398362 0.5177366
vt 0.6964381 0.5177366
vt 0.6964381 0.4944911
vt 0.03119898 0.5010566
vt 0.05749774 0.5273554
vt 0.1615021 0.5273554
vt 0.1878009 0.5010566
vt 0.1615021 0.6313597
vt 0.1878009 0.6576585
vt 0.05749774 0.6313597
vt 0.03119898 0.6576585
vt 0.8499808 0.4873263
vt 0.8499808 0.5102086
vt 0.95236 0.5102086
vt 0.95236 0.4873263
vt 0.6760955 0.2074665
vt 0.6760956 0.230712
vt 0.5720912 0.230712
vt 0.5720912 0.2074664
vt 0.9523602 0.4594426
vt 0.9523602 0.4823249
vt 0.8499808 0.4823249
vt 0.8499809 0.4594426
vt 0.8499808 0.4311956
vt 0.8499808 0.4544412
vt 0.9539852 0.4544412
vt 0.9539852 0.4311956
vt 0.5720912 0.09846076
vt 0.600515 0.1268845
vt 0.6476717 0.1268845
vt 0.6760955 0.09846076
vt 0.6476717 0.1740413
vt 0.6760955 0.2024651
vt 0.600515 0.1740413
vt 0.5720912 0.2024651
vt 0.9045663 0.1404417
vt 0.9045663 0.1633239
vt 0.9509861 0.1633239
vt 0.9509861 0.1404417
vt 0.9517229 0.08431113
vt 0.9517229 0.1075566
vt 0.9045663 0.1075566
vt 0.9045663 0.08431113
vt 0.9509861 0.112558
vt 0.9509861 0.1354403
vt 0.9045663 0.1354403
vt 0.9045663 0.112558
vt 0.9045663 0.05606425
vt 0.9045663 0.07930976
vt 0.9517229 0.07930976
vt 0.951723 0.05606425
vn 0 0 1
vn 0 0 1
vn 0 0 1
vn 0 0 1
vn 0 1 0
vn 0 1 0
vn 0 1 0
vn 0 1 0
vn 0 0 -1
vn 0 0 -1
vn 0 0 -1
vn 0 0 -1
vn 0 -1 0
vn 0 -1 0
vn 0 -1 0
vn 0 -1 0
vn 1 0 0
vn 1 0 0
vn 1 0 0
vn 1 0 0
vn -1 0 0
vn -1 0 0
vn -1 0 0
vn -1 0 0
vn 0 1 0
vn 0 1 0
vn 0 1 0
vn 0 1 0
vn 0 1 0
vn 0 1 0
vn 0 1 0
vn 0 1 0
vn 0 0 1
vn 0 0 1
vn 0 0 1
vn 0 0 1
vn 1 0 0
vn 1 0 0
vn 1 0 0
vn 1 0 0
vn 0 0 -1
vn 0 0 -1
vn 0 0 -1
vn 0 0 -1
vn -1 0 0
vn -1 0 0
vn -1 0 0
vn -1 0 0
vn 0 1 0
vn 0 1 0
vn 0 1 0
vn 0 1 0
vn 0 1 0
vn 0 1 0
vn 0 1 0
vn 0 1 0
vn 0 0 1
vn 0 0 1
vn 0 0 1
vn 0 0 1
vn 1 0 0
vn 1 0 0
vn 1 0 0
vn 1 0 0
vn 0 0 -1
vn 0 0 -1
vn 0 0 -1
vn 0 0 -1
vn -1 0 0
vn -1 0 0
vn -1 0 0
vn -1 0 0
vn 0 1 0
vn 0 1 0
vn 0 1 0
vn 0 1 0
vn 0 1 0
vn 0 1 0
vn 0 1 0
vn 0 1 0
vn 0 0 1
vn 0 0 1
vn 0 0 1
vn 0 0 1
vn 1 0 0
vn 1 0 0
vn 1 0 0
vn 1 0 0
vn 0 0 -1
vn 0 0 -1
vn 0 0 -1
vn 0 0 -1
vn -1 0 0
vn -1 0 0
vn -1 0 0
vn -1 0 0
vn 0 1 0
vn 0 1 0
vn 0 1 0
vn 0 1 0
vn 0 1 0
vn 0 1 0
vn 0 1 0
vn 0 1 0
vn 0 0 1
vn 0 0 1
vn 0 0 1
vn 0 0 1
vn 1 0 0
vn 1 0 0
vn 1 0 0
vn 1 0 0
vn 0 0 -1
vn 0 0 -1
vn 0 0 -1
vn 0 0 -1
vn -1 0 0
vn -1 0 0
vn -1 0 0
vn -1 0 0
vn 0 1 0
vn 0 1 0
vn 0 1 0
vn 0 1 0
vn 0 1 0
vn 0 1 0
vn 0 1 0
vn 0 1 0
vn 0 0 1
vn 0 0 1
vn 0 0 1
vn 0 0 1
vn 1 0 0
vn 1 0 0
vn 1 0 0
vn 1 0 0
vn 0 0 -1
vn 0 0 -1
vn 0 0 -1
vn 0 0 -1
vn -1 0 0
vn -1 0 0
vn -1 0 0
vn -1 0 0
vn 0 1 0
vn 0 1 0
vn 0 1 0
vn 0 1 0
vn 0 1 0
vn 0 1 0
vn 0 1 0
vn 0 1 0
vn 0 0 1
vn 0 0 1
vn 0 0 1
vn 0 0 1
vn 1 0 0
vn 1 0 0
vn 1 0 0
vn 1 0 0
vn 0 0 -1
vn 0 0 -1
vn 0 0 -1
vn 0 0 -1
vn -1 0 0
vn -1 0 0
vn -1 0 0
vn -1 0 0
vn 0 1 0
vn 0 1 0
vn 0 1 0
vn 0 1 0
vn 0 1 0
vn 0 1 0
vn 0 1 0
vn 0 1 0
vn 0 0 1
vn 0 0 1
vn 0 0 1
vn 0 0 1
vn 1 0 0
vn 1 0 0
vn 1 0 0
vn 1 0 0
vn 0 0 -1
vn 0 0 -1
vn 0 0 -1
vn 0 0 -1
vn -1 0 0
vn -1 0 0
vn -1 0 0
vn -1 0 0
vn 0 1 0
vn 0 1 0
vn 0 1 0
vn 0 1 0
vn 0 1 0
vn 0 1 0
vn 0 1 0
vn 0 1 0
vn 0 0 1
vn 0 0 1
vn 0 0 1
vn 0 0 1
vn 1 0 0
vn 1 0 0
vn 1 0 0
vn 1 0 0
vn 0 0 -1
vn 0 0 -1
vn 0 0 -1
vn 0 0 -1
vn -1 0 0
vn -1 0 0
vn -1 0 0
vn -1 0 0
g TriTower_0
f 3/3/3 2/2/2 1/1/1
f 4/4/4 3/3/3 1/1/1
f 7/7/7 6/6/6 5/5/5
f 8/8/8 7/7/7 5/5/5
f 11/11/11 10/10/10 9/9/9
f 12/12/12 11/11/11 9/9/9
f 15/15/15 14/14/14 13/13/13
f 16/16/16 15/15/15 13/13/13
f 19/19/19 18/18/18 17/17/17
f 20/20/20 19/19/19 17/17/17
f 23/23/23 22/22/22 21/21/21
f 24/24/24 23/23/23 21/21/21
f 27/27/27 26/26/26 25/25/25
f 28/28/28 27/27/27 25/25/25
f 29/29/29 27/27/27 28/28/28
f 30/30/30 29/29/29 28/28/28
f 31/31/31 29/29/29 30/30/30
f 32/32/32 31/31/31 30/30/30
f 26/26/26 31/31/31 32/32/32
f 25/25/25 26/26/26 32/32/32
f 35/35/35 34/34/34 33/33/33
f 36/36/36 35/35/35 33/33/33
f 39/39/39 38/38/38 37/37/37
f 40/40/40 39/39/39 37/37/37
f 43/43/43 42/42/42 41/41/41
f 44/44/44 43/43/43 41/41/41
f 47/47/47 46/46/46 45/45/45
f 48/48/48 47/47/47 45/45/45
f 51/51/51 50/50/50 49/49/49
f 52/52/52 51/51/51 49/49/49
f 53/53/53 51/51/51 52/52/52
f 54/54/54 53/53/53 52/52/52
f 55/55/55 53/53/53 54/54/54
f 56/56/56 55/55/55 54/54/54
f 50/50/50 55/55/55 56/56/56
f 49/49/49 50/50/50 56/56/56
f 59/59/59 58/58/58 57/57/57
f 60/60/60 59/59/59 57/57/57
f 63/63/63 62/62/62 61/61/61
f 64/64/64 63/63/63 61/61/61
f 67/67/67 66/66/66 65/65/65
f 68/68/68 67/67/67 65/65/65
f 71/71/71 70/70/70 69/69/69
f 72/72/72 71/71/71 69/69/69
f 75/75/75 74/74/74 73/73/73
f 76/76/76 75/75/75 73/73/73
f 77/77/77 75/75/75 76/76/76
f 78/78/78 77/77/77 76/76/76
f 79/79/79 77/77/77 78/78/78
f 80/80/80 79/79/79 78/78/78
f 74/74/74 79/79/79 80/80/80
f 73/73/73 74/74/74 80/80/80
f 83/83/83 82/82/82 81/81/81
f 84/84/84 83/83/83 81/81/81
f 87/87/87 86/86/86 85/85/85
f 88/88/88 87/87/87 85/85/85
f 91/91/91 90/90/90 89/89/89
f 92/92/92 91/91/91 89/89/89
f 95/95/95 94/94/94 93/93/93
f 96/96/96 95/95/95 93/93/93
f 99/99/99 98/98/98 97/97/97
f 100/100/100 99/99/99 97/97/97
f 101/101/101 99/99/99 100/100/100
f 102/102/102 101/101/101 100/100/100
f 103/103/103 101/101/101 102/102/102
f 104/104/104 103/103/103 102/102/102
f 98/98/98 103/103/103 104/104/104
f 97/97/97 98/98/98 104/104/104
f 107/107/107 106/106/106 105/105/105
f 108/108/108 107/107/107 105/105/105
f 111/111/111 110/110/110 109/109/109
f 112/112/112 111/111/111 109/109/109
f 115/115/115 114/114/114 113/113/113
f 116/116/116 115/115/115 113/113/113
f 119/119/119 118/118/118 117/117/117
f 120/120/120 119/119/119 117/117/117
f 123/123/123 122/122/122 121/121/121
f 124/124/124 123/123/123 121/121/121
f 125/125/125 123/123/123 124/124/124
f 126/126/126 125/125/125 124/124/124
f 127/127/127 125/125/125 126/126/126
f 128/128/128 127/127/127 126/126/126
f 122/122/122 127/127/127 128/128/128
f 121/121/121 122/122/122 128/128/128
f 131/131/131 130/130/130 129/129/129
f 132/132/132 131/131/131 129/129/129
f 135/135/135 134/134/134 133/133/133
f 136/136/136 135/135/135 133/133/133
f 139/139/139 138/138/138 137/137/137
f 140/140/140 139/139/139 137/137/137
f 143/143/143 142/142/142 141/141/141
f 144/144/144 143/143/143 141/141/141
f 147/147/147 146/146/146 145/145/145
f 148/148/148 147/147/147 145/145/145
f 149/149/149 147/147/147 148/148/148
f 150/150/150 149/149/149 148/148/148
f 151/151/151 149/149/149 150/150/150
f 152/152/152 151/151/151 150/150/150
f 146/146/146 151/151/151 152/152/152
f 145/145/145 146/146/146 152/152/152
f 155/155/155 154/154/154 153/153/153
f 156/156/156 155/155/155 153/153/153
f 159/159/159 158/158/158 157/157/157
f 160/160/160 159/159/159 157/157/157
f 163/163/163 162/162/162 161/161/161
f 164/164/164 163/163/163 161/161/161
f 167/167/167 166/166/166 165/165/165
f 168/168/168 167/167/167 165/165/165
f 171/171/171 170/170/170 169/169/169
f 172/172/172 171/171/171 169/169/169
f 173/173/173 171/171/171 172/172/172
f 174/174/174 173/173/173 172/172/172
f 175/175/175 173/173/173 174/174/174
f 176/176/176 175/175/175 174/174/174
f 170/170/170 175/175/175 176/176/176
f 169/169/169 170/170/170 176/176/176
f 179/179/179 178/178/178 177/177/177
f 180/180/180 179/179/179 177/177/177
f 183/183/183 182/182/182 181/181/181
f 184/184/184 183/183/183 181/181/181
f 187/187/187 186/186/186 185/185/185
f 188/188/188 187/187/187 185/185/185
f 191/191/191 190/190/190 189/189/189
f 192/192/192 191/191/191 189/189/189
f 195/195/195 194/194/194 193/193/193
f 196/196/196 195/195/195 193/193/193
f 197/197/197 195/195/195 196/196/196
f 198/198/198 197/197/197 196/196/196
f 199/199/199 197/197/197 198/198/198
f 200/200/200 199/199/199 198/198/198
f 194/194/194 199/199/199 200/200/200
f 193/193/193 194/194/194 200/200/200
f 203/203/203 202/202/202 201/201/201
f 204/204/204 203/203/203 201/201/201
f 207/207/207 206/206/206 205/205/205
f 208/208/208 207/207/207 205/205/205
f 211/211/211 210/210/210 209/209/209
f 212/212/212 211/211/211 209/209/209
f 215/215/215 214/214/214 213/213/213
f 216/216/216 215/215/215 213/213/213
