g UpperLeft
v 0.2597008 0.2597008 -1
v 0.2597008 0.2597008 -0.8553305
v 0.2597008 -0.5 -0.8553305
v 0.2597008 -0.5 -1
v 0.3561983 -0.5000005 -1
v 0.3561974 0.2597008 -1
v 0.2597008 0.2597008 -1
v 0.2597008 -0.5 -1
v 0.3561983 0.3561974 -0.9999995
v 0.2597008 0.3561974 -1
v -0.5 0.2597008 -1
v -0.5 0.3561974 -1
v 0.5 -0.5 0
v 0.5 0.254837 0
v 0.3561974 0.2597008 -1
v 0.3561983 -0.5000005 -1
v 0.3561983 0.3561974 -0.9999995
v 0.5 0.5 0
v -0.5 0.2597008 -0.8553305
v 0.2597008 0.2597008 -0.8553305
v 0.2597008 0.2597008 -1
v -0.5 0.2597008 -1
v -0.5 0.3561974 -1
v 0.2597008 0.3561974 -1
v 0.2597008 0.5 0
v -0.5 0.5 0
v 0.5 0.5 0
v 0.3561983 0.3561974 -0.9999995
v 0.2597008 -0.5 -0.8553305
v 0.2597008 0.2597008 -0.8553305
v -0.5 0.2597008 -0.8553305
v -0.5 -0.5 -0.8553305
vt 0.7114144 0.8825528
vt 0.7114144 0.9417769
vt 0.9927292 0.9417769
vt 0.9927292 0.8825528
vt 0.6636388 0.9534152
vt 0.8951818 0.9534146
vt 0.8951818 0.9240043
vt 0.6636388 0.9240043
vt 0.924592 0.9534152
vt 0.924592 0.9240043
vt 0.8951818 0.6924616
vt 0.924592 0.6924616
vt 0.8016314 0.04010554
vt 0.3442719 0.03960805
vt 0.3419563 0.6505928
vt 0.8016315 0.6499854
vt 0.2835787 0.6506639
vt 0.1957218 0.03977339
vt 0.426398 0.9417769
vt 0.7114144 0.9417769
vt 0.7114144 0.8825528
vt 0.426398 0.8825528
vt 0.1957874 0.6503918
vt 0.6552328 0.6504924
vt 0.6555138 0.03972102
vt 0.1957874 0.03988005
vt 0.8008868 0.03981413
vt 0.7135752 0.6505085
vt 0.4886177 0.9666337
vt 0.4877695 0.735092
vt 0.2562285 0.7359408
vt 0.2570775 0.9674811
vn -1 0 0
vn -1 0 0
vn -1 0 0
vn -1 0 0
vn 0 0 -1
vn 0 0 -1
vn 0 0 -1
vn 0 0 -1
vn 0 0 -1
vn 0 0 -1
vn 0 0 -1
vn 0 0 -1
vn 0.9898181 0 -0.142338
vn 0.9898181 0 -0.142338
vn 0.9898181 0 -0.142338
vn 0.9898181 0 -0.142338
vn 0.9898182 0 -0.1423379
vn 0.9898182 0 -0.1423379
vn 0 -1 0
vn 0 -1 0
vn 0 -1 0
vn 0 -1 0
vn 0 0.989818 -0.1423384
vn 0 0.989818 -0.1423385
vn 0 0.989818 -0.1423385
vn 0 0.989818 -0.1423384
vn 0 0.989818 -0.1423385
vn 0 0.989818 -0.1423385
vn 0 0 -1
vn 0 0 -1
vn 0 0 -1
vn 0 0 -1
g UpperLeft_0
f 3/3/3 2/2/2 1/1/1
f 4/4/4 3/3/3 1/1/1
f 7/7/7 6/6/6 5/5/5
f 8/8/8 7/7/7 5/5/5
f 6/6/6 7/7/7 9/9/9
f 7/7/7 10/10/10 9/9/9
f 10/10/10 7/7/7 11/11/11
f 12/12/12 10/10/10 11/11/11
f 15/15/15 14/14/14 13/13/13
f 16/16/16 15/15/15 13/13/13
f 15/15/15 17/17/17 14/14/14
f 17/17/17 18/18/18 14/14/14
f 21/21/21 20/20/20 19/19/19
f 22/22/22 21/21/21 19/19/19
f 25/25/25 24/24/24 23/23/23
f 26/26/26 25/25/25 23/23/23
f 25/25/25 27/27/27 24/24/24
f 27/27/27 28/28/28 24/24/24
f 31/31/31 30/30/30 29/29/29
f 32/32/32 31/31/31 29/29/29
